<?xml version="1.0" standalone="no"?>
<!DOCTYPE svg PUBLIC "-//W3C//DTD SVG 1.1//EN" "http://www.w3.org/Graphics/SVG/1.1/DTD/svg11.dtd" >
<svg>
<metadata>
Created by FontForge 20090914 at Fri Feb 24 05:07:21 2012
 By root
&#194;&#174; J O E B O B graphics / Vincent Haenen 2007 - www.joebob.nl
</metadata>
<defs>
<font id="VincHand" horiz-adv-x="468" >
  <font-face 
    font-family="vincHand"
    font-weight="400"
    font-stretch="normal"
    units-per-em="1000"
    panose-1="2 0 4 0 0 0 0 0 0 0"
    ascent="800"
    descent="-200"
    x-height="310"
    cap-height="640"
    bbox="-102 -503 871 1037"
    underline-thickness="20"
    underline-position="-123"
    unicode-range="U+0020-U+2122"
  />
<missing-glyph horiz-adv-x="500" 
d="M438 0h-375v800h375v-800zM125 738v-675h250v675h-250z" />
    <glyph glyph-name=".notdef" horiz-adv-x="500" 
d="M438 0h-375v800h375v-800zM125 738v-675h250v675h-250z" />
    <glyph glyph-name="NULL" horiz-adv-x="0" 
 />
    <glyph glyph-name="CR" horiz-adv-x="302" 
 />
    <glyph glyph-name="space" unicode=" " horiz-adv-x="302" 
 />
    <glyph glyph-name="exclam" unicode="!" horiz-adv-x="293" 
d="M251 739c0 -7 -12 -18 -13 -23c-7 -58 -11 -93 -13 -104c-7 -41 -16 -81 -28 -118c-3 -22 -7 -52 -13 -90c-2 -11 -3 -37 -4 -78c-1 -37 -3 -63 -8 -77c-13 8 -25 31 -34 68c-6 27 -9 47 -9 60c0 1 7 50 22 145c17 105 28 183 33 232c13 12 25 18 36 18c4 0 11 -1 20 -4
c7 -13 11 -23 11 -29zM196 24c-21 -21 -35 -38 -41 -51c-13 -1 -23 6 -32 21c-8 13 -11 26 -8 37c21 15 39 23 54 23c9 0 18 -10 27 -30z" />
    <glyph glyph-name="numbersign" unicode="#" horiz-adv-x="463" 
d="M425 528c0 -13 -6 -19 -18 -19c-7 0 -10 4 -15 4c-63 0 -84 -16 -84 -61c0 -9 2 -17 7 -25c25 7 53 5 82 -5c0 -3 3 -8 8 -13c-27 -17 -77 -26 -108 -43c-3 -30 -8 -73 -17 -129c-1 0 -4 -2 -9 -5c-10 11 -16 30 -18 59l-3 78l-66 -31c-5 -9 -8 -25 -7 -46
c1 -39 2 -56 2 -51c-5 0 -10 -2 -13 -5c-17 10 -28 41 -33 94c-5 0 -15 -1 -30 -2c-14 -1 -22 -2 -25 -2c-4 0 -10 4 -19 13c-8 9 -12 15 -12 20c0 -3 2 3 5 17c13 11 42 16 85 16c3 16 7 40 12 71c-5 3 -11 5 -20 5s-21 -2 -37 -5s-25 -5 -27 -5c-3 0 -15 11 -37 33
c1 2 8 7 21 16s20 13 22 13c5 0 30 -3 37 -3c20 0 37 5 51 14c5 21 9 54 14 97c7 64 11 99 12 106c10 5 19 8 26 8s16 -4 19 -4c0 -5 8 -24 8 -31c0 -3 -3 -11 -8 -22c-6 -15 -10 -24 -11 -27c-8 -27 -12 -65 -12 -112v-11c1 -2 5 -3 10 -3c4 0 19 4 45 12c8 33 16 65 23 97
c12 40 36 66 72 78c9 -4 13 -11 13 -20c0 2 -7 -16 -22 -53c-14 -37 -21 -64 -21 -81c5 -6 19 -10 42 -12c26 -3 43 -6 51 -10c0 -1 5 -7 5 -15zM253 416v69h-14c-8 -3 -20 -7 -35 -13c-11 -33 -17 -50 -17 -49c0 -9 2 -16 6 -19c25 3 45 7 60 12z" />
    <glyph glyph-name="dollar" unicode="$" horiz-adv-x="429" 
d="M365 548c0 -6 -4 -16 -13 -30c-8 -13 -15 -20 -22 -20c-5 0 -16 -3 -23 -3c0 7 7 28 7 35s-2 11 -7 14h-69v-219c0 -10 10 -22 30 -37c27 -19 45 -35 55 -46c19 -24 29 -54 29 -91c0 -40 -30 -87 -89 -142c0 -53 2 -91 5 -113c1 -7 11 -29 11 -36v-30c-3 0 -7 -6 -11 -6
c-2 0 -5 1 -9 2c-15 19 -33 73 -52 162c-7 3 -31 -6 -36 -6c-11 0 -25 5 -42 16c-19 10 -29 21 -29 34c0 8 5 13 6 14c3 1 18 6 26 6c19 -11 31 -16 35 -16c13 0 25 5 35 14c-2 40 -6 113 -13 219c-4 3 -15 11 -33 22c-15 9 -26 20 -33 33l-8 -8c-39 29 -59 68 -59 117
c0 26 9 52 28 78c21 30 49 54 85 72c-1 31 -15 80 -40 145c3 15 14 22 35 22c14 0 26 -13 37 -38c4 -12 10 -36 18 -71c5 -26 9 -39 14 -40c88 -2 132 -20 132 -53zM189 340v92c1 15 -1 41 -7 77c-1 7 -5 10 -11 10c-29 -25 -44 -40 -47 -44c-7 -10 -11 -27 -11 -50
c0 -11 7 -27 21 -47c10 -14 28 -27 55 -38zM304 143c0 19 -7 39 -21 58c-13 19 -25 30 -35 31c-1 -3 -2 -13 -2 -30c0 -7 1 -15 3 -26c1 -9 2 -20 2 -33v-22c0 -19 2 -34 5 -45c5 2 15 12 28 31s20 31 20 36z" />
    <glyph glyph-name="percent" unicode="%" horiz-adv-x="599" 
d="M241 652c0 -31 -14 -72 -42 -122c-33 -57 -66 -85 -101 -85c-17 0 -30 11 -41 32c-9 18 -14 36 -14 55c0 31 14 69 41 112c31 49 65 73 100 73c20 0 35 -8 45 -23c8 -12 12 -26 12 -42zM534 819c-35 -44 -72 -104 -112 -180l-96 -187c-25 -45 -40 -86 -45 -124
c-47 -72 -89 -166 -128 -281c14 -15 29 -21 46 -20c-1 -7 -14 -20 -39 -41s-40 -31 -46 -31c-10 0 -20 7 -29 22c-7 13 -11 22 -11 27c0 15 18 59 53 132l55 110l136 292l70 160c47 96 85 144 112 144c7 0 19 -8 34 -23zM534 229c0 -27 -18 -74 -54 -140
c-41 -76 -79 -114 -116 -114c-4 0 -12 5 -25 15c-17 14 -27 22 -29 23c-1 80 20 152 63 217c2 16 8 30 18 42c11 15 26 22 44 22c3 0 15 -2 36 -6c21 -3 36 -5 46 -5c11 -33 17 -51 17 -54zM173 628c-17 -6 -32 -19 -44 -40c-11 -21 -21 -32 -28 -35c9 -8 12 -17 11 -28
c15 -1 28 12 41 41c10 21 17 41 20 62zM471 202v24h-19c-9 -7 -22 -31 -39 -72s-25 -66 -24 -77v-18c11 13 27 35 46 66c24 38 36 64 36 77z" />
    <glyph glyph-name="parenleft" unicode="(" horiz-adv-x="406" 
d="M375 772c-3 -11 -8 -25 -15 -42c-172 -236 -258 -422 -258 -558c0 -83 33 -137 100 -162l13 -13c35 6 61 9 79 9c7 0 17 -9 24 -9c-6 -14 -21 -27 -44 -38c-19 -9 -33 -14 -42 -14h-13c-50 0 -94 27 -131 80c-32 46 -48 90 -48 133c0 40 14 106 41 199
c7 24 43 95 108 214c77 141 131 211 160 211c4 0 13 -3 26 -10z" />
    <glyph glyph-name="parenright" unicode=")" horiz-adv-x="374" 
d="M340 448c0 -79 -22 -161 -66 -248c-44 -86 -106 -167 -186 -243c-8 0 -29 17 -29 26c0 11 12 31 37 58c13 15 27 29 41 43c53 69 90 131 111 185c21 52 31 110 31 174c0 97 -38 195 -113 294c-4 5 -6 14 -6 29c13 12 26 18 37 18c10 0 23 -13 40 -38c9 -14 17 -28 25 -42
c13 -17 28 -42 46 -75c5 -12 11 -42 19 -90c9 -47 13 -78 13 -91z" />
    <glyph glyph-name="asterisk" unicode="*" horiz-adv-x="452" 
d="M405 445c-1 0 -6 -5 -14 -5c-2 0 -23 7 -63 21s-62 21 -66 21c-17 0 -27 -7 -32 -21c-3 -8 -3 -22 -2 -42c2 -20 2 -33 -1 -38c-1 0 -8 -4 -16 -4c-15 0 -25 21 -25 40c0 2 -1 11 -4 27s-4 29 -4 39c-1 0 -7 3 -15 3c-15 0 -38 -24 -67 -71c-19 9 -41 20 -41 33
c0 4 4 13 13 27s13 23 13 26c0 2 -6 9 -17 20v15c27 9 41 14 40 14c7 0 7 -5 15 -5c6 0 13 4 21 11l-34 51c-9 14 -13 27 -13 40c0 14 7 21 21 21c21 0 37 -11 48 -32c12 -21 19 -32 22 -32c13 0 22 10 26 31c1 11 2 21 3 31c3 6 7 16 12 31h40c3 -7 5 -15 5 -26
c10 -4 24 -5 42 -4v-15c0 -3 -11 -16 -32 -39c-21 -22 -31 -35 -31 -38c0 -1 15 -10 44 -25c35 -19 61 -35 78 -49c27 -21 38 -40 34 -56z" />
    <glyph glyph-name="plus" unicode="+" horiz-adv-x="381" 
d="M343 198c-2 -5 -4 -9 -7 -14c-3 -7 -8 -11 -14 -11c-7 0 -23 2 -30 2c8 0 -11 -3 -57 -8c-6 -57 -9 -87 -9 -90v-26c1 -15 1 -24 1 -27c0 -7 -11 -25 -12 -32c-8 0 -24 12 -25 20c-9 37 -13 58 -14 62c0 6 1 37 3 92c-7 0 -14 0 -22 1h-15c-7 0 -15 -4 -22 -4
c-5 0 -29 -3 -36 -3c-37 0 -54 11 -51 32c13 15 29 24 48 27c17 2 33 4 50 5c9 2 23 3 40 4c5 0 10 1 17 2c1 28 5 60 10 97s10 55 13 55c7 0 19 1 27 3h6c6 -5 9 -11 9 -17c0 -18 -2 -39 -6 -63c-4 -29 -7 -52 -8 -71c35 -7 76 -9 104 -36z" />
    <glyph glyph-name="comma" unicode="," horiz-adv-x="264" 
d="M215 44c0 -26 -12 -57 -35 -94c-21 -34 -42 -58 -62 -71h-16c0 1 -4 5 -13 14c12 20 24 40 37 60c19 31 28 56 28 76c0 3 -6 14 -18 32c-11 19 -17 30 -17 33c0 15 14 37 37 37c19 0 34 -10 45 -31c9 -17 14 -35 14 -56z" />
    <glyph glyph-name="hyphen" unicode="-" horiz-adv-x="403" 
d="M343 227c0 -11 -15 -22 -46 -32c-25 -9 -43 -13 -53 -13h-36h-35c-24 0 -56 5 -97 15c-5 7 -12 18 -21 32c15 19 31 29 48 29c5 0 26 -8 33 -9c31 -4 77 -6 136 -6h63c5 -3 8 -9 8 -16z" />
    <glyph glyph-name="hyphen" unicode="&#x2010;" horiz-adv-x="403" 
d="M343 227c0 -11 -15 -22 -46 -32c-25 -9 -43 -13 -53 -13h-36h-35c-24 0 -56 5 -97 15c-5 7 -12 18 -21 32c15 19 31 29 48 29c5 0 26 -8 33 -9c31 -4 77 -6 136 -6h63c5 -3 8 -9 8 -16z" />
    <glyph glyph-name="slash" unicode="/" horiz-adv-x="533" 
d="M534 837c0 -1 -40 -74 -120 -219c-86 -157 -139 -255 -158 -294c-54 -107 -117 -241 -190 -400c-13 5 -21 11 -24 16c-2 3 -3 10 -3 20c0 24 17 71 50 142l68 138c51 109 109 224 174 346c95 180 153 270 172 270h20c7 -7 11 -14 11 -19z" />
    <glyph glyph-name="zero" unicode="0" horiz-adv-x="323" 
d="M267 234c0 -35 -7 -65 -20 -89c-18 -33 -47 -50 -88 -50c-28 0 -53 15 -75 44c-20 27 -30 53 -30 78c0 26 9 53 26 80c20 31 45 47 74 47c12 0 24 -6 24 -11c0 -4 -3 -10 -9 -19c35 -3 59 -10 73 -20c17 -11 25 -31 25 -60zM206 222c0 26 -17 39 -52 39
c-9 0 -18 -1 -27 -3c-9 -16 -13 -32 -11 -47c4 -7 8 -15 13 -23c11 -15 26 -22 45 -22c17 0 32 31 32 56z" />
    <glyph glyph-name="one" unicode="1" horiz-adv-x="266" 
d="M179 413c0 -11 -3 -28 -10 -51c-8 -28 -13 -47 -14 -57c-15 -101 -22 -179 -22 -232c0 -48 13 -83 13 -83c0 -5 -4 -13 -13 -24c-9 5 -19 13 -32 24c-2 2 -6 19 -13 51c-7 33 -10 54 -10 65c0 39 6 96 18 171c17 99 36 149 58 149c17 0 25 -4 25 -13z" />
    <glyph glyph-name="two" unicode="2" horiz-adv-x="366" 
d="M349 -42v-16c-14 -8 -33 -12 -56 -12c-3 0 -12 1 -27 2s-24 2 -28 2c-3 0 -11 3 -23 8c-11 5 -19 8 -23 8c1 0 -8 4 -27 11s-39 19 -59 38c-20 18 -30 34 -30 47c0 9 21 50 64 123s64 129 64 166c0 23 -7 34 -21 34c-15 0 -28 -8 -38 -23c-9 -15 -16 -22 -21 -22
c-17 0 -43 25 -43 40c0 16 16 35 47 57c28 20 47 30 58 30c23 0 43 -14 58 -43c13 -23 19 -45 19 -64c0 -31 -10 -69 -29 -114c-11 -25 -30 -60 -55 -105c-20 -35 -30 -56 -30 -63c0 -14 15 -30 46 -47c27 -14 45 -21 54 -21c8 0 20 -7 28 -7c15 0 39 -10 72 -29z" />
    <glyph glyph-name="three" unicode="3" horiz-adv-x="362" 
d="M306 98c0 -28 -27 -71 -82 -130c-54 -59 -96 -88 -125 -88c-11 0 -36 19 -36 30c0 6 15 21 46 44c43 32 71 54 84 67c31 28 46 52 46 72c0 29 -24 43 -71 43c-8 0 -15 2 -23 2s-17 5 -28 15s-16 18 -16 24c0 3 8 14 24 34c21 25 36 47 46 66c17 30 25 57 25 82
s-5 38 -16 38c-4 0 -13 -4 -27 -12c-13 -7 -22 -11 -26 -11c-22 0 -32 19 -31 56c7 7 22 17 45 29c24 13 42 19 53 19c21 1 38 -13 50 -42c9 -22 14 -46 14 -72c0 -18 -9 -48 -28 -91c-15 -32 -26 -55 -34 -68c37 -15 61 -27 72 -35c25 -19 38 -43 38 -72z" />
    <glyph glyph-name="four" unicode="4" horiz-adv-x="379" 
d="M315 206c0 -9 -7 -37 -21 -84c-16 -56 -25 -88 -27 -97l-41 -245c-1 0 -4 -5 -13 -5c-17 0 -33 28 -33 49c0 3 0 6 1 9l56 303c-1 1 -1 7 -10 7c-39 0 -73 -6 -102 -18l-43 -18c-15 0 -34 14 -34 27c0 3 5 19 16 46c13 31 20 52 23 63c20 75 39 158 68 203
c9 13 20 20 35 20c7 0 13 -5 18 -15c3 -7 5 -14 5 -20c0 -11 -7 -27 -20 -47l-25 -37c-7 -15 -15 -39 -22 -70c-8 -35 -15 -61 -20 -76c1 -3 2 -7 11 -7h58c35 0 50 35 46 105c11 13 20 20 29 19h20c3 -11 9 -29 18 -54c1 -4 2 -14 4 -29s3 -24 3 -29z" />
    <glyph glyph-name="five" unicode="5" horiz-adv-x="390" 
d="M397 382l-4 -19c-33 -3 -79 -6 -137 -8l-35 -6c-4 -1 -12 -2 -23 -4c-19 -3 -33 -10 -42 -22c-9 -11 -21 -45 -37 -100v-13c-3 -3 0 -4 7 -3c52 3 87 -7 106 -31c15 -19 22 -55 22 -107c0 -7 -5 -21 -15 -42c-21 -44 -51 -66 -90 -66c-7 0 -17 4 -30 12
c-13 7 -20 15 -19 23c5 9 12 13 22 14c16 1 25 1 26 2c11 4 22 16 33 35s17 35 17 46c0 37 -33 53 -98 49c-5 -1 -15 -5 -23 -5c-18 0 -27 16 -27 48c0 3 6 22 17 57l27 89c3 9 -5 37 -5 45l17 17c7 9 10 19 9 30c5 3 13 4 25 4c8 0 19 -16 27 -16s12 2 19 2h28
c14 1 26 1 35 1c63 0 112 -11 148 -32z" />
    <glyph glyph-name="six" unicode="6" horiz-adv-x="396" 
d="M350 684c0 -13 -13 -44 -40 -93l-42 -76c-23 -53 -59 -150 -109 -293c25 7 58 11 99 11c57 0 85 -45 85 -135c0 -5 -4 -19 -13 -43c-20 -52 -68 -85 -121 -85c-21 0 -44 13 -69 40s-37 56 -35 85c-3 -1 -10 -7 -21 -17c-8 -7 -15 -11 -20 -11s-13 8 -24 24
c-1 17 3 32 14 46l52 69c-2 23 27 109 87 259c63 155 104 235 125 239c12 3 16 4 13 4c5 0 8 0 11 -1h5c0 -3 3 -15 3 -23zM285 115c0 29 -18 56 -46 56c-17 0 -33 -2 -50 -7c-21 -7 -33 -16 -34 -28c-3 -16 2 -36 13 -59c13 -27 28 -40 44 -40c40 0 73 30 73 78z" />
    <glyph glyph-name="seven" unicode="7" horiz-adv-x="392" 
d="M338 83l-4 -18c-9 -1 -23 -2 -42 -3c-14 -36 -28 -81 -41 -135c-17 -65 -28 -108 -34 -127c-4 -3 -8 -5 -12 -5s-9 2 -14 6c-7 5 -12 8 -15 9l-2 22c0 29 7 66 20 111c6 23 12 45 19 68l8 40c-16 0 -35 -1 -56 -4c-21 -2 -33 -3 -38 -3c-21 0 -35 13 -42 39
c0 10 5 17 14 20c1 1 6 3 15 6c11 4 20 6 26 6s17 0 34 1s28 1 31 1h18c8 1 14 1 18 1c9 54 13 86 13 95c0 24 -2 43 -6 56c-12 36 -35 63 -70 80l-75 20c-34 9 -51 21 -51 36c0 11 8 19 23 24c11 5 23 7 36 7c7 0 22 -3 46 -9c27 -7 46 -14 58 -21c62 -35 93 -101 93 -196
c0 -31 -4 -64 -11 -99c13 -1 22 -4 28 -10c2 -1 6 -7 13 -18z" />
    <glyph glyph-name="eight" unicode="8" horiz-adv-x="358" 
d="M306 449c0 -33 -9 -67 -28 -102c-11 -21 -29 -46 -54 -76c-19 -23 -28 -38 -28 -43c0 -4 4 -24 11 -59s11 -55 11 -59c0 -22 -5 -47 -16 -76c-16 -42 -38 -63 -66 -63c-17 0 -31 9 -44 28c-11 16 -16 30 -16 41c0 9 10 45 29 108s29 94 29 93c0 9 -7 24 -21 45
c-13 19 -27 37 -41 56c-18 25 -27 43 -27 54c0 31 28 62 84 91c48 25 85 38 111 38c44 0 66 -25 66 -76zM250 442v-17c1 19 1 32 -2 37h-23c-10 1 -30 -8 -59 -26c-33 -20 -50 -38 -50 -53c0 -6 5 -16 16 -29s22 -22 31 -29c7 23 15 46 23 69c13 37 26 55 38 55
c6 0 15 -2 26 -7zM169 108c0 2 -1 9 -4 20s-3 19 -2 24c-19 -39 -29 -69 -29 -88c0 -5 3 -13 8 -22c18 19 27 41 27 66z" />
    <glyph glyph-name="nine" unicode="9" horiz-adv-x="395" 
d="M335 83c0 -38 -11 -93 -32 -165c-25 -85 -38 -134 -40 -147c-2 -11 -3 -35 -3 -73c-1 -31 -4 -54 -9 -70c-2 1 -5 1 -9 0s-7 -2 -8 -2c-9 0 -19 9 -29 28c-1 8 -7 38 -7 47c0 39 13 104 39 194c26 89 39 152 39 188c0 6 -2 17 -6 33c-6 21 -13 33 -20 38
c-18 6 -32 8 -43 7c-43 -4 -79 4 -106 25c-29 21 -44 52 -44 91c0 35 16 71 49 108c31 35 58 52 83 52c1 0 22 8 31 8c44 0 66 -40 66 -119c0 -23 -14 -49 -42 -76c-33 -1 -33 8 -41 17c13 29 20 54 20 74c0 9 -6 20 -18 31c-19 -4 -37 -17 -52 -39s-22 -42 -22 -60
c0 -27 18 -41 53 -44c53 -3 85 -9 98 -16c35 -19 53 -62 53 -130z" />
    <glyph glyph-name="semicolon" unicode=";" horiz-adv-x="238" 
d="M181 321l1 -40c1 -21 -16 -36 -50 -47l-19 12c-9 5 -13 10 -13 14c0 18 4 34 12 48c9 17 22 25 39 25zM175 55c0 -26 -11 -62 -33 -107c-23 -47 -44 -75 -65 -83c-5 7 -12 12 -20 16c13 20 30 53 52 100c4 12 6 26 6 43c0 12 -2 39 -2 47c0 22 9 33 26 33
c24 0 36 -16 36 -49z" />
    <glyph glyph-name="question" unicode="?" horiz-adv-x="354" 
d="M315 565c0 -85 -49 -173 -148 -264c7 -7 17 -19 30 -38v-15c-20 1 -40 0 -43 0c-8 0 -19 7 -32 22s-20 25 -20 30c0 10 12 29 37 56c16 17 32 33 47 50c30 33 49 56 58 69c13 21 19 43 19 68c0 16 -2 32 -6 49c-7 28 -17 42 -31 42c-10 0 -25 -6 -46 -19
c-23 -14 -34 -28 -34 -42c0 -7 4 -16 12 -28c9 -14 20 -22 31 -25c-5 -17 -19 -25 -41 -25c-9 0 -13 11 -14 12c-17 4 -30 16 -40 35c-9 15 -13 30 -13 44c0 36 19 66 57 89c31 19 61 29 90 29c33 0 57 -19 72 -57c10 -25 15 -53 15 -82zM224 50c0 -12 -12 -30 -36 -55
s-42 -38 -53 -38c-9 0 -18 6 -25 18c-5 10 -8 17 -8 21c0 5 12 17 36 38c25 21 40 31 45 31h36c0 -3 5 -7 5 -15z" />
    <glyph glyph-name="at" unicode="@" horiz-adv-x="717" 
d="M646 77c0 -23 -37 -50 -111 -81c-63 -26 -101 -39 -113 -39c-3 0 -22 -1 -55 -2c-33 -2 -52 -3 -55 -3c-7 0 1 9 -7 9c-5 0 -13 -4 -21 -4c-40 0 -88 24 -145 72s-85 91 -85 128c0 79 29 151 86 215c49 55 112 99 191 132c71 30 138 45 199 45c37 0 65 -14 84 -42
c15 -23 23 -54 23 -92c0 -55 -14 -116 -42 -183c-34 -82 -74 -123 -120 -123c-3 0 -16 6 -38 19c-21 13 -33 19 -36 19c1 0 -12 -11 -37 -32s-50 -32 -75 -32c-19 0 -36 9 -51 28c-13 17 -19 31 -19 44c0 43 22 80 67 113c39 29 75 44 110 44c43 0 65 -17 65 -50
c0 -7 -1 -19 -4 -34s-4 -26 -4 -32c0 -19 9 -28 28 -28c30 0 58 40 84 120c20 63 30 107 30 132c0 31 -11 54 -34 71c-19 13 -41 20 -67 20c-3 0 -12 -3 -26 -8c-16 -6 -28 -10 -35 -11c-67 -13 -136 -51 -207 -115c-78 -70 -117 -138 -117 -205c0 -49 28 -90 83 -123
c47 -28 95 -42 144 -42h58c7 0 22 2 46 7c28 5 49 10 63 15c15 6 38 18 71 35c29 16 44 24 45 23h22c3 0 5 -3 5 -10zM409 256h-35c-20 1 -41 -13 -63 -41c-19 -25 -29 -45 -29 -62c0 -9 2 -15 6 -19c25 4 50 23 75 57z" />
    <glyph glyph-name="A" unicode="A" horiz-adv-x="579" 
d="M556 20c0 -7 -3 -20 -10 -39c-1 0 -4 -5 -12 -5c-28 0 -40 44 -37 131c0 11 -7 46 -7 62c0 15 -3 64 -8 149c-3 0 -19 -2 -47 -5c-32 -4 -54 -6 -66 -7c-11 -1 -28 -5 -51 -14c-16 -49 -36 -120 -59 -215s-38 -152 -45 -171c-3 -3 -8 -5 -13 -5c-14 0 -21 24 -20 71
c7 52 20 112 39 180c15 51 28 89 39 116l4 14h-5c-3 0 -31 -7 -83 -20s-80 -20 -83 -20s-13 -2 -32 -5c-18 -3 -29 -4 -34 -4c-8 0 -38 5 -49 5c-1 1 -5 4 -13 11c-5 5 -7 10 -6 16c4 15 34 25 89 31c49 5 93 13 132 23c48 13 83 21 104 24l75 199c52 127 88 191 109 191
c8 0 25 -4 30 -4c20 -59 33 -247 38 -565c0 -11 3 -35 10 -74s11 -62 11 -70zM481 451c-2 44 -6 112 -13 203c-38 -54 -82 -156 -133 -305l39 3h21h19h24c3 0 12 -2 26 -6c1 0 8 -1 20 -3c-1 1 -1 20 -2 56c0 16 0 33 -1 52z" />
    <glyph glyph-name="B" unicode="B" horiz-adv-x="417" 
d="M390 583c0 -31 -16 -71 -49 -118c-30 -43 -64 -80 -103 -110c3 -6 11 -14 24 -25l30 -24c8 -7 16 -21 24 -44c9 -23 13 -40 13 -51c0 -45 -24 -99 -72 -162c-47 -62 -88 -93 -122 -93c-19 0 -33 12 -42 36c-3 9 -1 22 6 39c-5 5 -12 17 -21 34c-8 18 -12 31 -12 38
l59 504c-24 -7 -45 -26 -62 -58c-7 -13 -15 -31 -25 -53c-18 -9 -27 8 -27 50c0 26 18 55 54 86c27 23 49 38 67 45c5 1 11 31 26 44c1 1 3 2 5 2c6 0 11 -9 15 -28c1 -2 3 -3 8 -3s14 1 26 4c13 3 20 4 22 4c36 0 69 -10 100 -29c37 -23 56 -52 56 -88zM338 574
c0 19 -9 35 -26 49s-35 21 -54 21c-30 0 -50 -2 -60 -5c-15 -4 -25 -14 -28 -29l-57 -485c0 -17 1 -28 2 -33c3 -1 7 -4 10 -9c3 -12 -3 -23 -3 -24c0 -5 3 -11 9 -20c9 -12 14 -18 15 -18c29 14 59 41 91 82c33 41 49 74 49 97c0 12 -6 29 -17 50c-11 22 -20 34 -27 37
c-9 7 -22 15 -38 25c-5 3 -14 11 -26 22c-11 12 -17 19 -17 22s16 18 49 43c37 29 60 51 70 65c39 53 58 90 58 110z" />
    <glyph glyph-name="C" unicode="C" horiz-adv-x="485" 
d="M462 186h30c-13 -50 -54 -99 -123 -146c-66 -45 -125 -67 -177 -67c-12 0 -21 1 -26 4l-9 -8c-99 32 -149 87 -149 164c0 37 20 101 61 194c45 103 95 189 149 259c65 86 125 129 179 129c8 0 20 -11 24 -14v-17c-66 -20 -143 -99 -232 -237
c-88 -138 -132 -246 -132 -325c0 -25 12 -48 36 -70c37 -20 67 -30 90 -30h38c22 0 61 16 116 48c53 31 82 54 87 67s18 30 38 49z" />
    <glyph glyph-name="D" unicode="D" horiz-adv-x="453" 
d="M433 424c0 -76 -32 -150 -96 -223c-61 -68 -141 -126 -242 -175c0 -7 -3 -20 -10 -39l-17 -7c-8 0 -4 4 -12 4c-9 0 -16 5 -21 16c-3 6 -5 12 -5 17c0 14 10 113 30 298c20 177 29 267 27 268c-1 1 -11 5 -31 13c-11 5 -17 10 -17 17l2 21c2 7 22 13 60 20
c3 5 7 20 12 44c7 35 24 40 49 37c11 -9 16 -17 16 -24c-3 -12 -9 -33 -17 -63c37 -1 75 -7 114 -20c47 -15 83 -36 110 -63c32 -33 48 -80 48 -141zM390 423c-1 104 -66 159 -194 165c-29 1 -48 1 -56 -1c-5 -51 -14 -144 -29 -279c-12 -113 -18 -172 -18 -176l-2 -59
c67 27 131 72 192 135c72 75 108 146 107 215z" />
    <glyph glyph-name="E" unicode="E" 
d="M443 588c-51 -8 -72 -12 -64 -12c-8 0 -22 -7 -30 -7c2 0 -28 -10 -90 -29c-42 -13 -74 -28 -95 -44c-7 -5 -14 -30 -21 -73c-6 -36 -9 -59 -9 -70l-1 -26h12c16 0 55 15 116 44l93 46l13 -11l-3 -15c0 -13 -28 -36 -83 -68c-49 -28 -87 -46 -113 -55
c-7 -3 -19 -9 -35 -16c-4 -10 -6 -21 -6 -32c0 -30 2 -61 7 -93c7 -52 19 -78 36 -78c15 -1 31 8 48 27c15 17 31 33 46 49c3 -3 7 -6 14 -10c0 -1 2 -10 2 -17c0 -9 -12 -26 -37 -51c-21 -21 -37 -35 -48 -42c-6 -4 -15 -6 -28 -6c-29 0 -51 20 -68 61
c-11 30 -19 69 -24 117l-3 69h-15c-18 0 -27 10 -27 31c0 15 8 25 24 32c8 3 16 5 24 7c2 25 7 64 15 116l1 29c-16 -12 -30 -18 -43 -18s-30 22 -30 34c0 11 13 24 39 39l50 30c8 33 16 62 23 85l12 42c7 21 19 31 36 31c7 0 20 -18 24 -19c-5 -19 -15 -48 -29 -88l-7 -25
c2 -2 5 -3 10 -3c-2 0 22 8 73 25s94 25 127 25c17 0 38 0 64 -1c3 -4 5 -9 5 -14s-2 -11 -5 -16z" />
    <glyph glyph-name="F" unicode="F" horiz-adv-x="472" 
d="M155 272c-2 -7 -3 -33 -3 -78c11 -107 17 -160 17 -161v-25h-15c-9 0 -18 9 -25 27c-6 16 -8 29 -7 38c-11 31 -19 93 -25 186l-7 8c-14 -3 -29 -4 -45 -4c-7 0 -15 5 -25 14c-9 10 -14 17 -14 20c0 15 33 26 100 33l18 179c-10 -1 -24 -3 -41 -8s-28 -7 -33 -7
s-15 9 -28 28c4 15 18 26 41 35c19 9 45 20 78 34c6 3 10 8 11 15c3 12 5 18 5 19c5 10 13 15 24 15h24c4 -7 6 -18 5 -32c10 0 27 2 52 5s39 5 42 5c29 0 54 -2 73 -7c32 -7 52 -15 61 -26v-17c-6 -5 -12 -8 -17 -8c-7 0 -35 7 -43 7c-5 0 -30 -4 -38 -4s-17 -5 -25 -5
c-9 0 -32 -4 -67 -12c-33 -8 -53 -14 -61 -17c-15 -50 -22 -91 -22 -122l-5 -55c5 -5 8 -8 9 -8l192 60c3 -2 9 -3 19 -3c5 0 16 3 34 8c16 5 34 6 55 3v-21l-93 -30c-33 -16 -77 -36 -131 -59c-21 -5 -51 -15 -90 -30z" />
    <glyph glyph-name="G" unicode="G" horiz-adv-x="518" 
d="M501 247c-5 -7 -25 -15 -62 -26c-33 -10 -54 -15 -64 -15c-3 0 -22 -2 -56 -5s-53 -4 -56 -4c-5 0 -12 5 -22 14s-15 16 -15 21c0 7 5 15 5 20c62 7 110 10 144 10c7 0 4 -4 11 -4s7 4 14 4c29 0 63 -5 101 -15zM483 197c3 -31 -4 -100 -22 -206c-2 3 -13 5 -32 5
c0 5 -5 18 -5 25c0 35 3 66 10 93c5 20 9 35 14 46c9 19 21 32 35 37zM418 184l10 -10c-21 -41 -63 -83 -127 -127c-67 -46 -123 -69 -169 -69c-34 0 -64 24 -89 72c-21 39 -31 72 -31 98c0 36 13 90 38 161c30 84 66 153 108 207c53 68 108 102 167 102c31 0 47 -16 47 -49
c0 -14 -6 -33 -18 -58c-6 1 -13 9 -21 24c-7 15 -11 23 -12 23c-49 0 -98 -36 -148 -109c-33 -48 -57 -96 -74 -143c-7 -18 -14 -44 -22 -79c-9 -39 -14 -67 -14 -83c0 -28 9 -53 26 -74c19 -24 42 -36 71 -36c31 0 79 22 143 66z" />
    <glyph glyph-name="H" unicode="H" horiz-adv-x="407" 
d="M380 553c0 -9 -10 -78 -31 -209c-5 -32 -8 -61 -8 -86c0 -2 -1 -27 -4 -75c-2 -48 -3 -77 -3 -86v-10c0 -13 -2 -37 -5 -71c-2 -3 -5 -5 -10 -5c-6 0 -14 3 -23 10c-10 75 -11 161 -3 258c-5 2 -12 3 -21 3h-15c-8 -1 -14 -1 -17 -1c-13 0 -27 1 -42 3c-10 1 -25 3 -46 6
c-2 1 -21 3 -58 8c-3 -21 -5 -51 -5 -89c0 -13 0 -34 1 -61s1 -46 1 -59c0 -43 -3 -72 -8 -86h-14c-11 7 -18 19 -23 36c-2 9 -5 28 -8 57l13 369c0 25 4 56 12 93c9 42 18 65 27 70h18c3 -7 5 -17 5 -29c0 -4 -3 -39 -10 -106s-10 -102 -10 -105s0 -8 -1 -17v-19
c37 -3 105 -12 205 -26c1 13 2 33 4 62l9 125c7 65 20 98 39 98c7 0 15 -9 22 -26c6 -15 9 -25 9 -32z" />
    <glyph glyph-name="I" unicode="I" horiz-adv-x="181" 
d="M118 640h24c5 -3 8 -10 8 -22c0 -9 -2 -24 -6 -43c-4 -21 -6 -34 -6 -38c-9 -72 -19 -180 -32 -325c-5 -85 -8 -136 -7 -153c1 -8 12 -37 12 -44v-29c-3 -2 -8 -5 -13 -9c-15 10 -27 32 -36 66c-7 29 -11 59 -11 88c25 339 47 509 67 509z" />
    <glyph glyph-name="J" unicode="J" horiz-adv-x="540" 
d="M513 441c0 -119 -19 -236 -56 -350c-56 -173 -142 -259 -257 -259c-56 0 -101 26 -134 78c-29 43 -43 91 -43 144c0 58 15 101 46 130c7 7 18 14 32 22c15 9 24 13 29 13h64c7 -7 10 -13 10 -19c-7 -7 -12 -10 -16 -10c-7 0 -5 4 -12 4c-23 0 -47 -16 -73 -47
c-24 -29 -36 -53 -36 -71c0 -44 11 -85 32 -122c28 -49 66 -73 115 -73c45 0 89 29 133 86c33 44 56 86 69 125c30 99 45 194 45 283c0 71 -5 132 -16 181c-7 33 -18 61 -31 85l-17 30v30c1 0 18 4 26 4c16 0 32 -22 49 -67c15 -37 22 -67 23 -88c1 -14 4 -35 9 -64
c6 -28 9 -43 9 -45z" />
    <glyph glyph-name="K" unicode="K" horiz-adv-x="418" 
d="M88 652c6 -10 9 -35 9 -75c0 -26 -2 -74 -6 -144c-4 -69 -6 -119 -5 -148l-7 -142c7 7 14 19 23 35c9 17 13 26 10 29c-10 11 -15 20 -15 25c0 6 3 17 8 33c12 19 20 29 24 31c11 10 40 47 89 111c39 52 68 80 88 84c6 -6 9 -13 9 -20c-1 -19 -20 -61 -57 -126l-67 -113
c25 -28 55 -55 89 -82c91 -71 137 -114 136 -127c-5 -10 -9 -17 -13 -22l-14 1l-221 175c-6 -3 -19 -23 -39 -60c-26 -47 -48 -83 -67 -109c-11 3 -18 9 -23 18c-2 3 -5 12 -9 25c3 99 6 169 7 210c3 101 6 171 8 212l2 100c2 34 6 57 12 70c3 6 8 9 14 10c5 -1 10 -1 15 -1
z" />
    <glyph glyph-name="L" unicode="L" horiz-adv-x="410" 
d="M408 93c-8 -17 -25 -31 -52 -42c-10 -4 -34 -11 -73 -21c-56 -16 -88 -24 -96 -24c-59 0 -90 -2 -93 -5c-8 -9 -17 -14 -26 -14c-17 0 -27 8 -31 23c-2 6 -3 19 -3 38c0 13 3 66 8 160c6 113 12 198 18 256l19 129c7 10 14 15 19 15c9 0 19 -8 22 -8
c-23 -261 -34 -430 -34 -506c9 -5 28 -11 55 -17c32 -2 64 -1 96 4c17 5 34 9 51 14c33 8 67 12 101 12c8 0 18 -14 19 -14z" />
    <glyph glyph-name="M" unicode="M" horiz-adv-x="524" 
d="M500 13c0 -9 -3 -19 -8 -31c-6 -15 -13 -22 -21 -21c-39 3 -63 90 -73 260l-8 261l-6 7c-20 -43 -46 -123 -78 -241c-27 -99 -50 -159 -71 -180l-15 6c-7 3 -12 8 -14 15c-22 99 -33 225 -32 379l-1 17c-15 -24 -29 -67 -42 -128c-11 -51 -20 -107 -27 -166
c-11 -81 -18 -133 -22 -156c-4 -2 -8 -3 -12 -3c-15 0 -24 11 -27 33c1 22 0 51 -2 87c-3 49 -4 81 -5 95c0 14 -1 40 -3 79c-1 35 -2 54 -2 57c0 -3 -1 8 -2 31c-1 19 -1 34 0 45c1 25 1 49 1 73c2 27 10 43 24 47h13c6 -6 9 -10 9 -13v-111c0 -66 1 -110 3 -132
c3 0 6 1 7 3c9 39 23 88 42 149c22 72 35 108 40 108l13 6l10 2h14c11 -5 18 -57 22 -154c5 -128 11 -208 16 -239c4 11 24 77 61 196c26 84 50 149 72 195c11 9 19 13 25 14c-1 0 4 0 16 -1c9 -16 15 -39 18 -68c0 -1 1 -28 3 -79c3 -77 5 -154 8 -231
c8 -132 21 -198 38 -198h8c1 -1 2 -1 3 -1c3 -3 5 -7 5 -12z" />
    <glyph glyph-name="N" unicode="N" horiz-adv-x="450" 
d="M429 512c0 -3 -2 -11 -7 -24c-4 -12 -6 -21 -7 -26l-30 -240c-15 -103 -33 -178 -56 -225c-16 -4 -29 0 -39 11c-36 43 -71 107 -104 192c-32 83 -52 158 -60 224c-30 -160 -47 -287 -50 -382c-1 -24 -9 -40 -25 -49c-17 19 -24 41 -22 66l63 490l2 70c4 3 12 14 19 14
c11 0 27 -11 49 -33c1 -31 4 -84 11 -159c7 -52 14 -91 22 -117c33 -105 69 -182 108 -233c10 11 17 25 21 41c3 19 22 156 56 411c13 10 25 12 36 5c9 -11 13 -23 13 -36z" />
    <glyph glyph-name="O" unicode="O" horiz-adv-x="350" 
d="M322 408c0 -29 -3 -68 -10 -117c-7 -53 -15 -88 -22 -104c-28 -60 -45 -95 -50 -104c-38 -65 -72 -98 -102 -98c-35 0 -63 33 -84 99c-15 47 -22 87 -22 118c0 45 10 109 31 191c5 19 13 48 25 85c48 105 89 157 123 157c30 0 45 -11 45 -32c0 -4 -1 -17 -2 -38
c15 -4 30 -18 44 -43c4 -7 9 -25 15 -54s9 -49 9 -60zM228 574c2 5 1 10 -4 14c-6 0 -10 -4 -13 -11c7 -2 12 -3 17 -3zM279 393c0 29 -4 55 -11 80c-12 39 -31 59 -57 59c-41 0 -75 -52 -102 -157c-19 -74 -28 -133 -28 -177c0 -19 5 -44 14 -77c12 -45 28 -68 47 -68
s43 32 73 95c25 53 40 89 44 108c13 76 20 122 20 137z" />
    <glyph glyph-name="P" unicode="P" horiz-adv-x="427" 
d="M410 429c-4 -33 -23 -62 -58 -88c-25 -19 -56 -35 -95 -49l-50 -15l-20 -246c-2 -14 -8 -27 -18 -39c-7 4 -14 11 -22 20c-3 9 -4 20 -4 33c0 12 2 31 6 57s6 46 6 60c0 5 1 22 3 51c1 21 1 37 1 50c-34 -1 -69 1 -105 6c-6 1 -11 8 -15 22l2 22c20 5 35 7 44 6
c7 -1 17 -1 30 0c30 2 46 4 49 5c2 19 3 55 3 107c1 61 -1 98 -6 109c-11 0 -25 -2 -43 -7c-21 -5 -36 -11 -45 -18c-1 -1 -4 -1 -7 -1c-22 0 -41 4 -56 12c-5 7 -7 15 -8 24s1 17 4 22c51 13 97 19 136 19c23 0 54 -2 94 -7c117 -15 175 -60 175 -136c0 -6 0 -12 -1 -19z
M364 431c4 35 -9 61 -39 79c-14 7 -43 16 -86 27h-12c-3 1 -6 1 -9 0s-6 -2 -7 -1l-2 -212c46 17 78 30 95 39c37 20 57 43 60 68z" />
    <glyph glyph-name="Q" unicode="Q" horiz-adv-x="386" 
d="M406 17c0 -19 -5 -27 -16 -25c-9 1 -18 7 -27 18l-21 27c-12 6 -24 15 -36 26c-17 15 -29 25 -37 31c-1 0 -17 -16 -48 -47c-27 -26 -51 -39 -72 -39c-10 0 -27 6 -51 19c-27 14 -47 50 -62 107c-4 17 -6 46 -6 89c0 45 15 106 44 184c7 17 23 45 50 82
c33 45 57 68 73 68c22 0 30 0 24 1c13 -1 21 -6 22 -13c15 0 37 -3 64 -10c25 -13 38 -54 38 -123c0 -64 -6 -123 -18 -177c-2 -8 -7 -22 -15 -41s-12 -31 -12 -34s6 -14 18 -31c16 -22 26 -37 31 -45c11 -5 23 -18 38 -38c13 -17 19 -26 19 -29zM304 416c-1 27 -3 46 -6 56
c-5 19 -16 28 -31 28c-7 0 -17 -3 -30 -10c-5 -3 -13 -6 -23 -10c-4 -1 -13 -13 -27 -34c-23 -33 -36 -52 -39 -56c-8 -1 -17 11 -18 11c-7 -10 -16 -33 -27 -69s-18 -61 -19 -74s-1 -27 -1 -40c0 -102 22 -153 67 -153c11 0 26 10 46 30c20 21 31 36 32 47
c-34 51 -51 83 -51 98c0 17 5 26 14 26c22 0 37 -6 45 -17c9 -19 17 -37 26 -55c11 12 22 44 31 96c8 49 12 91 11 126z" />
    <glyph glyph-name="R" unicode="R" horiz-adv-x="448" 
d="M474 95c-4 -16 -1 -15 -17 -18c-5 0 -15 17 -23 21c-36 21 -97 54 -184 100l-90 48c-1 -3 -3 -6 -6 -11c-2 -50 -2 -125 1 -226c-1 -3 -4 -7 -11 -14c-7 5 -18 14 -32 27c-3 19 -5 44 -4 77v147c-13 1 -28 3 -46 6c-7 2 -18 6 -35 13l-7 17c2 4 10 6 24 6c3 0 8 0 13 -1
h13c17 0 29 2 36 7c0 0 -9 8 -6 15c7 5 13 10 18 15c3 39 4 68 4 88c0 3 -4 9 -12 18c-7 10 -11 17 -10 20c1 17 7 33 16 48s14 26 15 31s3 24 5 55c5 11 12 16 20 16c21 0 31 -20 30 -61l42 -17c9 -4 21 -15 35 -32s24 -34 29 -49c3 -9 5 -20 5 -32c0 -22 -9 -46 -27 -71
c-17 -25 -36 -42 -56 -53l159 -94c20 -12 40 -24 60 -35c27 -20 41 -40 41 -61zM248 403c0 32 -20 62 -51 69h-23c-10 -62 -14 -105 -13 -129l-1 -32c59 36 88 67 88 92z" />
    <glyph glyph-name="S" unicode="S" horiz-adv-x="380" 
d="M359 584c0 -24 -17 -51 -41 -51c-9 0 -14 5 -14 16c0 8 4 25 4 28c-7 6 -18 13 -33 21c-27 6 -52 9 -73 9c-6 0 -23 -6 -51 -18c-27 -11 -43 -19 -47 -22c-18 -16 -27 -45 -27 -87c0 -29 22 -65 67 -107l97 -86l56 -49c33 -33 50 -58 50 -75c0 -56 -22 -108 -67 -157
c-47 -50 -100 -75 -160 -75c-4 0 -26 21 -43 28v12c0 10 5 23 14 38c11 18 22 27 35 27c11 0 17 -6 17 -18c0 -6 -2 -11 -7 -16v-10c1 -2 5 -3 10 -3c27 0 60 17 99 51c39 35 59 67 59 98c0 28 -25 64 -74 107l-93 80c-36 32 -63 61 -80 88c-23 34 -34 69 -34 104
c0 40 21 74 63 102c36 23 71 35 105 35c112 0 168 -23 168 -70z" />
    <glyph glyph-name="T" unicode="T" horiz-adv-x="455" 
d="M426 508c1 -3 1 -6 1 -8c0 -8 -8 -14 -8 -15c-63 7 -95 10 -96 10c-21 0 -31 -3 -32 -9c-3 -7 -7 -20 -12 -37c-4 -20 -10 -74 -19 -162c0 -15 -1 -50 -2 -105c5 -51 10 -88 13 -111c1 -5 4 -15 10 -30c6 -14 9 -22 9 -25l-1 -33c-1 -4 -4 -6 -11 -6c-15 0 -30 26 -45 79
c-7 37 -14 89 -19 156l4 122c4 38 8 79 13 123l2 26h-17c-11 0 -48 -8 -113 -24c-57 -15 -90 -24 -98 -27c-23 3 -34 11 -34 25c0 3 1 5 3 8s12 9 29 18c18 9 34 15 47 19c11 4 26 8 81 20c25 7 60 15 107 24c1 11 4 27 7 50c1 0 9 8 13 9l24 3c9 -1 13 -8 14 -23v-34
c25 -1 51 -6 79 -14c31 -10 48 -20 51 -29z" />
    <glyph glyph-name="U" unicode="U" horiz-adv-x="442" 
d="M432 -68v-35c-3 0 -7 -5 -16 -5c-19 0 -43 47 -70 141c-23 79 -36 141 -41 187l-69 -89c-47 -57 -79 -85 -98 -85h-14c-43 0 -73 41 -90 124c-8 41 -12 86 -12 135c0 16 4 61 13 135c11 90 21 138 31 143c20 0 32 -4 35 -11c0 -45 -2 -80 -6 -107c-4 -23 -8 -47 -13 -70
c-9 -65 -11 -122 -6 -169c2 -23 9 -48 20 -74c13 -30 25 -45 37 -45c19 0 49 23 88 68c39 46 64 84 73 113c3 11 7 46 11 105c5 84 9 138 11 162c4 1 9 5 16 10c3 -4 9 -6 12 -9c5 0 8 1 11 4c2 -1 6 -5 12 -12l-4 -46c0 -3 -2 -26 -6 -68s-6 -65 -6 -69
c0 -75 7 -148 21 -219c9 -47 22 -96 39 -146c14 -41 21 -64 21 -68z" />
    <glyph glyph-name="V" unicode="V" horiz-adv-x="386" 
d="M372 596l-8 -22c-12 -20 -23 -47 -33 -82c-9 -31 -17 -61 -25 -92l-58 -211c-27 -91 -52 -159 -76 -202c-13 -1 -24 4 -33 16c-39 99 -67 198 -84 296c-5 25 -8 47 -11 65c-3 25 -7 78 -14 158c12 16 24 24 35 24c3 0 6 -1 8 -4c8 -24 13 -58 14 -102
c0 -25 5 -63 14 -114c11 -61 25 -115 40 -164c3 -11 10 -27 21 -48c26 61 46 116 60 165l49 192c31 105 57 155 79 148c13 -4 17 -14 22 -23z" />
    <glyph glyph-name="W" unicode="W" horiz-adv-x="521" 
d="M541 623c0 -3 -8 -26 -23 -70c-19 -53 -31 -90 -37 -111l-62 -223c-26 -87 -56 -157 -89 -210c-19 5 -36 41 -53 110l-33 168c-3 7 -6 8 -10 5l-65 -170c-24 -61 -46 -113 -67 -154c-20 8 -31 15 -33 22c-7 24 -23 117 -35 281v142c0 17 0 34 1 51c9 13 17 19 26 19
c5 0 9 -2 14 -5c3 -25 3 -70 0 -135c-1 -21 0 -51 3 -92c3 -43 5 -63 5 -61c0 -3 4 -32 12 -87c1 -1 3 -4 4 -7c1 -1 2 -1 4 0l110 283c11 11 26 16 45 13c15 -27 27 -67 36 -120c11 -64 22 -112 33 -143c23 39 51 115 84 230c41 140 70 232 87 276c5 6 16 9 33 9
c7 -7 10 -14 10 -21z" />
    <glyph glyph-name="X" unicode="X" horiz-adv-x="418" 
d="M405 -30v-14l-10 -5c-35 17 -104 94 -207 229c-4 12 -10 15 -19 9c-19 -27 -49 -67 -89 -120c-21 1 -31 13 -31 35c0 3 15 28 46 76c31 49 46 76 45 82c-1 5 -18 36 -50 95c-16 36 -39 92 -70 168c9 15 19 23 30 23c3 0 5 0 7 -1c5 -2 22 -34 50 -96
c31 -69 54 -113 70 -132c4 5 35 62 94 171c53 97 83 146 90 146c4 0 17 3 22 2c3 -1 6 -3 8 -7v-28l-177 -336c4 -9 9 -20 15 -35c6 -9 15 -22 26 -40c5 -10 14 -25 26 -46c4 -6 26 -37 67 -94c38 -52 57 -79 57 -82z" />
    <glyph glyph-name="Y" unicode="Y" horiz-adv-x="385" 
d="M378 589l-23 -11c-9 -4 -15 -10 -20 -19l-57 -88c-26 -44 -39 -74 -39 -90c0 -1 2 -19 6 -53c5 -33 7 -57 7 -72l6 -194c0 -25 2 -61 7 -109c3 -11 8 -31 15 -59c7 -24 10 -37 10 -40c0 -7 -5 -16 -5 -21c-7 4 -16 11 -27 20c-23 53 -37 119 -41 200l-9 211
c-2 20 -5 42 -9 66c-3 16 -3 37 -12 46c-39 38 -73 79 -100 124c-17 29 -38 72 -64 130v16c11 5 20 8 27 8s27 -31 62 -93c38 -68 65 -109 81 -123c13 7 38 40 75 101c32 55 61 82 87 82h15c7 -13 10 -20 10 -21c0 -3 -1 -7 -2 -11z" />
    <glyph glyph-name="Z" unicode="Z" horiz-adv-x="489" 
d="M539 48c-3 -13 -27 -22 -42 -22c-7 0 -14 -4 -21 -4c-3 0 -37 -1 -100 -4c-63 -2 -96 -3 -99 -3h-22h-22c-2 0 -30 2 -84 5l-17 10c-1 -3 -3 -6 -7 -11c-5 1 -15 4 -30 10c-14 6 -23 9 -26 9c-5 0 -12 -8 -19 -8c-9 0 -24 20 -24 31c0 13 36 70 109 171
c102 143 156 219 161 228c-1 1 -4 2 -9 2l-221 -45c-13 0 -25 3 -36 8c-9 20 -10 32 -3 37c20 7 75 19 164 36c79 15 127 23 145 26c32 3 44 -2 41 -9c-7 -34 -46 -97 -115 -188c-87 -115 -143 -193 -166 -233c30 -11 69 -18 118 -19c123 -3 226 -7 309 -12
c3 -3 8 -8 16 -15z" />
    <glyph glyph-name="backslash" unicode="\" horiz-adv-x="397" 
d="M371 18c0 -8 -5 -19 -5 -26h-18c-71 174 -132 314 -183 420c-13 21 -31 55 -53 100c-12 34 -24 68 -37 102c-12 39 -18 74 -18 106c0 19 10 29 31 29c8 0 17 -2 26 -6c-2 -22 3 -53 16 -92c9 -29 19 -57 28 -85l109 -248c69 -161 104 -261 104 -300z" />
    <glyph glyph-name="asciicircum" unicode="^" horiz-adv-x="348" 
d="M311 531c0 -11 -7 -23 -21 -35c-13 -11 -25 -17 -35 -17c-19 0 -36 11 -53 33c-7 10 -20 31 -37 64l-51 -43c-29 -23 -46 -35 -51 -35h-14c-3 13 -9 21 -17 25c3 8 8 17 17 28c23 10 47 28 73 53s43 47 50 64c1 0 12 7 20 7l14 -11c3 -22 7 -44 11 -67
c11 -40 26 -60 47 -60c7 0 19 11 26 11c9 0 21 -9 21 -17z" />
    <glyph glyph-name="underscore" unicode="_" horiz-adv-x="466" 
d="M452 -28c0 -3 -3 -11 -10 -25c-15 0 -39 -2 -72 -5c-32 -3 -48 -5 -48 -5c-7 0 -22 10 -31 10c-3 0 -44 -4 -124 -13c-79 -9 -120 -13 -123 -13c-17 0 -25 10 -25 29c0 16 9 26 26 31l33 3c140 13 204 20 193 20c121 0 181 -11 181 -32z" />
    <glyph glyph-name="grave" unicode="`" horiz-adv-x="316" 
d="M250 517c0 -20 -5 -21 -29 -29c-3 -1 -9 0 -17 4c-12 5 -18 7 -19 8c-58 18 -98 57 -119 116v33c5 1 27 10 35 10c5 0 8 -2 11 -5c7 -29 25 -55 52 -76c28 -21 57 -41 86 -61z" />
    <glyph glyph-name="a" unicode="a" horiz-adv-x="402" 
d="M381 161c0 -21 -13 -43 -38 -66s-44 -35 -59 -35c-17 0 -34 14 -51 41l-49 -80c-25 -36 -50 -59 -76 -70c0 1 -5 2 -14 3c-1 0 -8 8 -9 5c-26 13 -39 41 -39 83c0 41 12 90 36 148c20 49 41 87 62 114c7 9 17 16 28 21c21 9 43 14 64 14c35 0 52 -30 52 -91
c0 -3 -3 -14 -8 -34c-5 -19 -8 -31 -8 -35c0 -6 3 -15 9 -26c7 -13 13 -20 19 -20c9 0 18 4 25 12c11 12 24 21 37 28h14c3 -3 5 -7 5 -12zM242 246c1 15 1 26 -1 31c-1 1 -4 4 -11 9c-40 -11 -72 -44 -97 -97c-21 -43 -31 -84 -31 -123c0 -25 3 -42 10 -50
c29 19 51 48 66 85l30 86c11 19 23 38 34 59z" />
    <glyph glyph-name="b" unicode="b" horiz-adv-x="395" 
d="M344 222c0 -50 -29 -104 -86 -162c-57 -57 -111 -86 -162 -86c-21 0 -44 23 -44 44c0 17 27 41 44 41c3 0 10 -3 19 -10c10 -7 17 -10 20 -10c23 0 55 23 97 68c39 43 59 73 59 90c0 25 -11 37 -32 37c-24 0 -53 -18 -87 -53s-50 -53 -49 -53c-9 0 -18 6 -25 18
c-7 9 -10 18 -10 25c0 3 3 10 8 21c6 11 10 19 11 24c7 28 10 63 10 105l-29 291c0 11 10 33 18 33s21 -5 26 -5c15 -94 26 -215 33 -363l7 -7c7 6 21 13 44 21s39 12 47 12c21 0 39 -9 56 -26s25 -36 25 -55z" />
    <glyph glyph-name="c" unicode="c" horiz-adv-x="421" 
d="M395 151c0 -11 -19 -33 -58 -67c-36 -31 -59 -48 -68 -52c-12 -5 -33 -16 -63 -34c-34 -10 -58 -15 -71 -15c-19 0 -39 8 -61 25s-33 34 -33 51c0 29 12 67 36 114c47 93 102 151 164 173c9 -2 15 -11 18 -28l-9 -15c-24 -17 -49 -42 -74 -75c-15 -12 -36 -47 -65 -104
c-4 -17 -6 -28 -6 -35c0 -21 1 -34 4 -39c5 -7 16 -11 34 -11c7 -3 24 -3 41 5c11 2 44 21 100 58l88 60l9 9c9 -5 14 -11 14 -20z" />
    <glyph glyph-name="d" unicode="d" horiz-adv-x="407" 
d="M360 8c0 -7 -5 -21 -5 -26h-22c-20 19 -35 49 -45 88l-22 102l-61 -97c-42 -59 -74 -89 -96 -89h-23c-11 0 -20 9 -29 27c-7 16 -11 32 -11 49s14 46 41 88c27 43 51 72 71 87c45 35 80 56 105 63c8 23 14 44 18 65c6 33 13 75 20 127c1 5 2 15 4 28c17 12 28 18 31 18
s5 -1 7 -2c7 -7 11 -25 13 -53l-36 -222c1 -9 2 -24 5 -45c2 -18 3 -32 3 -41s-1 -17 -3 -24c7 -8 12 -16 13 -25c-1 -7 -7 -16 -7 -19s5 -20 14 -50c10 -29 15 -46 15 -49zM101 73c-3 -25 -2 -38 4 -40c28 19 56 50 85 92s47 77 54 106c-26 -2 -57 -27 -94 -76
c-31 -41 -47 -69 -49 -82z" />
    <glyph glyph-name="e" unicode="e" horiz-adv-x="318" 
d="M278 98c0 -17 -19 -36 -57 -55c-33 -17 -54 -26 -64 -26h-13c-31 0 -56 16 -75 49c-16 26 -24 52 -24 77c0 7 4 20 4 23c4 35 24 69 60 104c37 35 73 53 108 53c14 0 24 -4 29 -13c1 -5 1 -10 1 -17c0 -27 -8 -53 -24 -79c-21 -33 -52 -60 -93 -79c-11 1 -18 7 -23 16
c-2 -4 -3 -11 -3 -20c0 -13 6 -26 17 -39c12 -13 23 -20 32 -20c25 0 44 4 59 12c29 16 49 26 59 29c5 -1 7 -6 7 -15zM122 209c-5 -12 -5 -18 -1 -19c21 14 35 24 42 31c14 13 22 25 25 38c-13 -1 -28 -9 -44 -24c-12 -11 -19 -20 -22 -26z" />
    <glyph glyph-name="f" unicode="f" horiz-adv-x="355" 
d="M306 598c0 -43 -9 -94 -27 -154c-17 -57 -38 -108 -63 -153c-7 -7 -15 -19 -24 -35c-1 -1 -2 -14 -3 -39c-1 -33 -2 -51 -2 -54c0 -40 10 -99 31 -178c5 -1 13 -5 23 -10c3 -3 4 -7 4 -14c0 -13 -6 -22 -19 -26c0 -1 4 -18 11 -52c8 -34 12 -53 12 -57
c0 -21 -5 -42 -15 -63c-13 -27 -30 -41 -52 -41c-48 0 -103 21 -166 64c-70 47 -109 98 -118 152c5 13 16 21 33 26c15 4 37 6 67 6c5 0 18 -1 40 -2c23 -1 41 -2 55 -2c31 0 57 3 77 9c-9 45 -18 110 -29 195l-1 14c-41 -46 -65 -69 -73 -69c-18 0 -27 7 -27 20
c0 2 14 20 43 54c30 37 47 64 52 81c1 22 1 44 2 65c3 49 7 85 13 109c14 56 26 96 36 121c23 57 50 85 80 84c19 -1 31 -7 36 -19c3 -5 4 -16 4 -32zM184 395v-47c13 10 27 41 44 92c17 52 25 91 25 116c0 5 -1 10 -2 13c-19 -33 -30 -53 -33 -60c-17 -35 -28 -73 -34 -114
zM203 -170c-6 21 -13 53 -22 95c-18 -3 -59 -7 -122 -10c-49 -3 -75 -8 -78 -14c2 -23 24 -49 66 -78s76 -44 102 -44c19 0 32 1 40 3c1 1 4 7 9 17c3 6 5 16 5 31z" />
    <glyph glyph-name="g" unicode="g" horiz-adv-x="356" 
d="M375 -163c0 -10 -5 -15 -16 -15c-1 0 -10 -1 -25 -2s-28 -2 -38 -2l-34 -71c-20 -39 -40 -71 -59 -94c-27 -31 -53 -47 -78 -47c-23 0 -64 31 -121 92c-55 59 -82 95 -82 110c0 21 21 38 63 49c5 1 29 6 72 13c9 2 22 3 39 3c39 0 90 -4 153 -11v80
c0 117 -13 178 -39 183c-3 1 -20 -6 -49 -21s-46 -22 -50 -22c-14 0 -28 10 -42 31c-13 19 -20 35 -20 48c0 35 16 73 47 113c34 43 69 64 105 64c39 0 68 -25 68 -60c0 -1 -2 -16 -6 -45c-3 -26 -4 -41 -3 -44c23 -56 34 -92 34 -109c1 -11 2 -35 5 -71c3 -31 4 -56 4 -74
c0 -25 -2 -46 -6 -63v-11l42 -10c13 -3 25 -7 36 -14zM217 260c0 9 -4 17 -13 26c-23 -7 -45 -24 -67 -50c-21 -26 -32 -49 -32 -68c0 -17 7 -26 22 -26c4 0 15 7 33 20l40 30c11 50 17 73 17 68zM241 -178c-15 3 -58 4 -130 4c-45 0 -82 -7 -110 -20l-3 -23
c12 -19 30 -40 55 -65c35 -35 63 -52 83 -52c17 0 39 24 66 73c23 40 36 68 39 83z" />
    <glyph glyph-name="h" unicode="h" horiz-adv-x="371" 
d="M332 30v-14c-5 -4 -12 -13 -21 -26c-5 -7 -12 -11 -23 -11c-13 0 -22 22 -29 66c-3 28 -5 56 -8 84l-9 44c-5 17 -13 30 -24 39c-31 -15 -55 -43 -74 -83c-3 -16 -9 -37 -18 -64c-7 -9 -16 -21 -27 -37c-1 0 -8 -5 -16 -5c-13 0 -21 14 -24 42c0 35 5 65 16 91
s16 41 16 44c0 77 -7 163 -20 260s-20 145 -20 143c0 11 22 22 30 22c20 0 26 -2 29 -26c5 -81 15 -203 28 -367c37 29 69 44 96 44s48 -37 61 -112c5 -39 9 -79 14 -118c5 -10 13 -15 23 -16z" />
    <glyph glyph-name="i" unicode="i" horiz-adv-x="241" 
d="M124 422v-21c-11 -5 -20 -8 -25 -8s-19 7 -26 7c-5 0 -26 -11 -33 -11c-15 0 -22 10 -22 29c0 15 11 24 32 27c3 1 18 1 44 1c3 0 8 -3 14 -9c8 -8 13 -13 16 -15zM182 16c0 -7 -6 -16 -19 -26c-13 -11 -20 -16 -23 -16c-17 0 -30 11 -41 32c-9 16 -13 30 -13 41
c0 10 9 74 26 192c0 7 -7 32 -7 44c0 3 1 6 2 9c5 9 11 23 19 42c8 6 16 9 25 9c8 0 16 -4 19 -4c0 -21 4 -40 4 -47c0 -3 -5 -41 -15 -112s-15 -108 -15 -111c0 -25 6 -42 18 -49l10 8c4 -3 10 -4 10 -12z" />
    <glyph glyph-name="j" unicode="j" horiz-adv-x="229" 
d="M179 457c0 -9 -5 -13 -5 -16h-22l-9 9c-13 0 -25 7 -37 21c-11 14 -17 27 -17 39c7 7 14 11 21 11c39 0 69 -31 69 -64zM136 341l29 -446c0 -3 -2 -55 -5 -154c-1 -28 -7 -65 -20 -112c-19 -68 -42 -102 -69 -102c-35 0 -71 28 -106 83c-31 48 -46 86 -46 113
c0 42 14 63 42 63c4 0 8 -3 13 -8c7 -9 10 -14 10 -14c-3 -5 -4 -13 -4 -22c0 -29 11 -61 32 -98s40 -53 56 -48c13 7 23 39 32 96c7 48 11 93 11 135l-22 498c9 15 18 22 29 22c6 0 12 -2 18 -6z" />
    <glyph glyph-name="k" unicode="k" horiz-adv-x="421" 
d="M413 25v-20l-14 4c-5 0 -23 -14 -31 -14c-31 0 -68 8 -109 23c-47 17 -79 37 -98 61c-13 -10 -27 -34 -43 -71c-19 -47 -34 -77 -43 -91c-15 7 -37 30 -34 37c11 25 19 60 23 105c5 34 11 85 18 154c3 21 6 50 10 87c8 107 15 185 21 236c6 41 12 83 17 125
c8 9 15 15 22 18h16c6 -25 9 -43 9 -52c0 -6 -3 -23 -9 -52c-7 -31 -11 -51 -12 -60c-11 -97 -21 -198 -32 -302v-35c2 -2 5 -3 9 -3c11 0 28 22 49 66c22 44 40 66 55 65h14c0 -1 5 -11 5 -19c0 -43 -18 -89 -53 -140c14 -26 38 -47 72 -62c11 -6 40 -16 86 -30
c30 -10 47 -20 52 -30z" />
    <glyph glyph-name="l" unicode="l" horiz-adv-x="201" 
d="M159 -16c0 -7 -10 -25 -10 -32h-26c-20 33 -33 64 -38 91c-16 87 -24 158 -24 214c0 2 1 11 2 26c2 16 2 28 1 37c-2 21 0 89 6 202c0 2 3 29 10 81c8 55 13 94 14 117c11 5 23 9 36 11c7 -11 10 -29 10 -54l-19 -235l-4 -259c0 -17 7 -56 21 -115s21 -87 21 -84z" />
    <glyph glyph-name="m" unicode="m" horiz-adv-x="487" 
d="M443 31c0 -8 -4 -21 -13 -38h-19c-19 18 -28 41 -28 68c0 7 1 17 3 32c1 13 2 22 1 28c-1 27 -1 55 -9 74c-14 -17 -42 -61 -83 -130c-29 -51 -51 -77 -65 -77c-19 0 -28 20 -28 59c0 17 3 49 3 49v53c-1 25 -1 44 -1 59c-21 -26 -41 -69 -61 -129
c-19 -59 -38 -99 -56 -120h-19c-9 23 -14 36 -14 37c0 7 9 33 9 41l-3 115c0 24 1 66 4 127c1 29 -1 44 -5 45c12 13 20 19 25 19c8 0 20 -5 25 -5c0 -1 1 -30 2 -87c1 -37 0 -68 -2 -91c1 -3 4 -6 7 -11c11 15 26 44 43 89c13 35 29 57 48 67l13 -4c2 3 7 4 15 4
c7 -18 13 -52 16 -101c1 -35 3 -71 5 -106c12 13 35 50 70 113c25 45 49 67 71 67c5 0 11 -1 16 -3c9 -5 17 -43 23 -114c5 -53 7 -96 7 -130z" />
    <glyph glyph-name="n" unicode="n" horiz-adv-x="335" 
d="M293 74c0 -23 -6 -46 -18 -69c-11 -23 -23 -35 -34 -35s-22 34 -33 102s-18 102 -22 102c-6 0 -25 -32 -56 -96c-31 -63 -47 -95 -50 -95c-19 0 -28 26 -27 78c3 51 7 133 12 247c4 8 9 18 18 18c16 1 26 -3 30 -13l2 -133l2 -21c33 73 65 108 95 103
c17 -22 30 -56 37 -103c7 -41 10 -62 10 -62c5 0 14 9 19 9s15 0 15 -32z" />
    <glyph glyph-name="o" unicode="o" horiz-adv-x="350" 
d="M305 198c0 -36 -16 -81 -48 -134c-37 -61 -75 -91 -116 -91c-26 0 -48 14 -66 43c-15 23 -22 45 -22 65c0 11 8 43 23 96c-9 5 -19 4 -30 -1c-4 4 -6 8 -6 13c0 20 18 46 54 77c37 31 68 46 94 44c78 -5 117 -42 117 -112zM251 196c0 8 -2 19 -7 32c-7 19 -16 29 -27 28
c-28 -1 -53 -26 -75 -77c-17 -40 -26 -71 -26 -93s11 -42 34 -59c26 14 49 39 70 74c21 36 31 68 31 95z" />
    <glyph glyph-name="p" unicode="p" horiz-adv-x="320" 
d="M260 231c2 -28 -3 -54 -15 -79c-17 -35 -56 -69 -115 -102c0 -1 -1 -21 -2 -58c1 -47 1 -118 0 -213c-1 -10 0 -25 2 -46c3 -23 4 -41 4 -53c0 -30 -6 -57 -18 -81h-14c-12 0 -19 33 -22 98c-1 42 -1 84 -1 126c-5 134 -7 213 -7 237c0 21 1 44 2 71c1 34 2 85 3 152
c33 39 74 59 123 59c35 0 55 -37 60 -111zM211 224c0 42 -11 61 -34 56c-12 -11 -22 -31 -29 -62c-5 -25 -8 -50 -8 -74c0 -12 2 -20 6 -25c17 9 32 23 44 40c14 20 21 42 21 65z" />
    <glyph glyph-name="q" unicode="q" horiz-adv-x="343" 
d="M382 -116c-69 -71 -115 -142 -138 -213c-3 -11 -9 -39 -16 -84c-6 -37 -15 -67 -26 -90c-23 3 -35 17 -38 42c-1 12 1 33 6 63c9 53 13 81 13 83c6 45 11 111 15 197c3 75 5 116 4 125c0 5 -1 8 -3 10c-5 -2 -15 -7 -29 -14s-23 -10 -26 -10c-22 -3 -42 5 -60 24
c-15 15 -24 32 -25 50c-4 39 11 86 45 143c37 60 76 92 119 96c28 3 44 -17 48 -60c1 -10 -2 -32 -9 -65s-11 -52 -13 -55c0 -3 10 -7 10 -14c3 -15 1 -51 -5 -108c-3 -48 -9 -118 -19 -211l4 -17c50 81 97 129 142 144c27 3 27 -9 1 -36zM218 231l-1 13l-13 -1
c-27 -13 -49 -38 -67 -75c-17 -34 -25 -64 -22 -91c1 -5 4 -12 9 -20c7 -11 14 -16 22 -15c11 1 22 10 35 25c-2 3 -3 7 -4 12c-1 13 5 38 20 76c15 39 22 64 21 76z" />
    <glyph glyph-name="r" unicode="r" horiz-adv-x="377" 
d="M345 229c0 -4 -4 -20 -4 -28c0 0 -11 -7 -16 -4c-3 3 -8 22 -16 59c-6 29 -19 44 -40 44c-5 0 -14 -6 -29 -17c-33 -27 -59 -65 -76 -115c-11 -29 -20 -70 -29 -122c-7 -42 -13 -66 -19 -72c-41 19 -61 97 -61 232c0 94 13 141 40 141c17 0 25 -15 25 -44
c0 -3 -2 -19 -6 -47c-3 -27 -5 -42 -6 -44l1 -43c23 77 63 131 119 162c19 11 35 16 47 16c23 0 41 -17 55 -50c10 -25 15 -47 15 -68z" />
    <glyph glyph-name="s" unicode="s" horiz-adv-x="372" 
d="M335 359c0 -14 -4 -23 -13 -27c-7 3 -29 1 -66 -8c-42 -9 -77 -22 -105 -39c-36 -22 -54 -47 -54 -74c0 -21 17 -35 50 -44c52 -13 83 -23 92 -28c33 -19 50 -51 50 -96c0 -19 -6 -38 -17 -58c-14 -23 -31 -34 -50 -34c-17 0 -31 11 -44 32c-9 17 -14 31 -14 42
c0 9 4 20 11 33s14 19 20 19c17 0 26 -7 26 -20c0 -8 -5 -26 -5 -31s3 -8 8 -8c13 0 19 6 19 17c0 30 -11 51 -34 63c-7 4 -32 11 -75 21c-68 16 -100 55 -100 86c0 51 41 97 123 136c64 31 114 46 149 46c19 0 29 -9 29 -28z" />
    <glyph glyph-name="t" unicode="t" horiz-adv-x="364" 
d="M329 243c0 -13 -4 -19 -13 -19h-8c-1 -1 -4 -1 -8 -1s-35 -6 -94 -18c0 -6 -1 -19 -3 -39c-2 -19 -3 -30 -3 -33c0 -57 8 -95 24 -114c-1 -3 1 -4 7 -4c3 0 10 6 23 17c20 17 31 26 33 27c9 -9 14 -16 14 -22c0 -13 -8 -29 -25 -47c-16 -19 -28 -28 -37 -28
c-32 -1 -56 21 -73 65c-12 35 -18 77 -18 127c0 12 0 23 1 34c2 2 0 3 -6 3c-3 0 -18 -3 -44 -9c-26 -5 -42 -9 -49 -12c-25 1 -38 9 -38 24c0 4 1 7 3 8c22 21 69 39 141 56c7 67 23 151 50 252c11 9 25 13 41 13c9 0 14 -10 14 -30c0 -3 -4 -11 -11 -25s-11 -24 -12 -31
c-11 -40 -20 -98 -28 -174c23 -1 61 -3 113 -8c4 -5 6 -9 6 -12z" />
    <glyph glyph-name="u" unicode="u" horiz-adv-x="342" 
d="M299 36v-28c-9 -9 -15 -13 -18 -13c-21 0 -38 14 -53 42l-27 67l-45 -65c-27 -35 -47 -52 -61 -52c-25 0 -43 37 -54 110c0 41 4 86 11 134c13 79 32 115 58 110c9 -9 14 -18 14 -27c0 -7 -10 -30 -11 -38c-12 -65 -18 -119 -18 -164c0 -23 4 -41 11 -54
c12 9 32 39 60 89c26 47 46 88 61 123c3 3 7 3 12 0l12 13h19c6 -19 9 -31 9 -38c0 -3 -4 -21 -11 -53s-10 -50 -10 -53c0 -51 14 -85 41 -103z" />
    <glyph glyph-name="v" unicode="v" horiz-adv-x="332" 
d="M285 313c0 -4 -26 -31 -33 -56c-7 -47 -22 -116 -44 -208c-6 -22 -11 -36 -14 -43c-7 -17 -16 -30 -27 -39c-26 19 -47 56 -63 111l-33 131c-19 65 -29 99 -29 103c-3 17 12 23 45 18l11 -14l61 -246c11 16 17 49 24 78c5 33 11 66 17 99c15 62 35 93 59 93
c17 0 26 -9 26 -27z" />
    <glyph glyph-name="w" unicode="w" horiz-adv-x="464" 
d="M424 304v-36c0 -20 -13 -68 -40 -144c-30 -84 -54 -126 -72 -126c-13 0 -29 20 -46 59c-11 27 -20 52 -26 75c-16 -29 -32 -59 -47 -89c-28 -50 -48 -75 -61 -75c-31 0 -56 41 -74 123c-13 56 -19 101 -19 136c0 27 4 52 11 77c10 34 24 51 43 51c5 0 10 -1 15 -3
c0 -1 5 -10 5 -19c0 -3 -4 -18 -11 -45s-11 -42 -11 -45c0 -27 3 -59 9 -98c7 -50 17 -80 28 -91c18 11 37 42 56 93c14 43 28 85 43 127c9 2 23 7 40 14c9 -15 16 -47 21 -96s12 -83 22 -103c13 12 25 39 36 81c3 10 10 44 23 103c8 35 10 37 29 37c11 0 20 -2 26 -6z" />
    <glyph glyph-name="x" unicode="x" horiz-adv-x="322" 
d="M286 333l-102 -206c8 -23 25 -48 51 -75c27 -27 42 -47 47 -60c1 -5 2 -7 1 -8c-2 -3 -10 -5 -23 -8c-20 16 -31 11 -33 16c-8 6 -34 31 -77 74c-17 -22 -45 -54 -82 -96c-16 -4 -32 16 -32 28s13 34 39 65s39 51 39 58c-44 53 -66 109 -66 168c0 21 17 49 41 49
c11 0 18 -7 22 -20c-3 -10 -5 -21 -5 -32c0 -16 9 -49 27 -99c3 -9 6 -14 9 -15c8 -1 18 14 31 45c19 47 32 76 39 87c18 31 37 46 57 46c11 0 17 -6 17 -17z" />
    <glyph glyph-name="y" unicode="y" horiz-adv-x="345" 
d="M307 267c0 4 -2 -4 -6 -23c-3 -3 -12 -5 -25 -8c-15 -18 -34 -44 -58 -79c-5 -9 -9 -22 -11 -38c-3 -23 -4 -36 -5 -39c-10 -44 -15 -88 -15 -131c0 -52 6 -110 19 -175c14 -72 31 -119 50 -141l-16 -15c0 1 -2 4 -5 9c-41 7 -69 60 -86 160c-9 55 -14 116 -14 182v138
c-60 49 -90 101 -90 158c0 40 20 48 40 63c12 -6 18 -14 18 -24c0 -1 -1 -9 -2 -26c-1 -13 0 -23 1 -30c5 -30 20 -57 44 -80h13l51 72c31 41 49 62 56 62c21 0 41 -18 41 -35z" />
    <glyph glyph-name="z" unicode="z" horiz-adv-x="394" 
d="M405 -8c3 -4 1 -8 -4 -13c-12 -3 -64 -2 -155 2c-95 7 -151 24 -158 24s-6 -3 -13 -3c-11 0 -17 7 -17 21c0 2 22 36 66 102c48 73 79 127 94 164c-3 2 -11 3 -25 3c-3 0 -18 -5 -44 -15c-52 -19 -64 -24 -71 -23h-16c-9 9 -15 18 -20 28c5 11 11 18 17 19
c123 37 202 55 235 55c15 0 23 -7 23 -21c0 -5 -5 -16 -16 -31c-5 -1 -11 -1 -20 -1c-23 -46 -70 -125 -139 -238c31 -18 80 -32 146 -41c65 -7 104 -17 117 -32z" />
    <glyph glyph-name="braceleft" unicode="{" horiz-adv-x="339" 
d="M246 -77c-1 -4 -20 -16 -27 -16c-47 0 -83 30 -83 77c0 11 7 28 20 52c14 24 21 49 21 75c0 19 -9 40 -28 63s-38 34 -57 34c-4 0 -25 -7 -33 -7c-15 0 -22 10 -22 29c0 17 22 26 41 37c37 23 55 58 55 104c0 25 -4 47 -11 65c-15 37 -23 57 -24 60c-13 46 -20 77 -20 92
c0 33 10 65 30 94c23 34 50 51 83 51c37 0 55 -15 55 -46v-16c-5 0 -10 -1 -13 -4c-9 12 -18 18 -29 18c-21 0 -38 -14 -53 -43c-12 -23 -18 -41 -18 -56c0 -16 9 -56 26 -119c5 -8 12 -21 20 -40c3 -13 5 -31 5 -52c0 -22 -5 -45 -16 -69l-24 -48c21 -10 40 -28 57 -54
c18 -28 27 -55 27 -80c0 -30 -6 -58 -19 -84c-12 -26 -18 -43 -18 -50c0 -10 9 -22 28 -37s28 -25 27 -30z" />
    <glyph glyph-name="braceright" unicode="}" horiz-adv-x="282" 
d="M266 661c0 -30 -20 -76 -60 -139c-57 -89 -86 -135 -87 -137c4 -4 11 -5 21 -2c9 -8 23 -19 31 -19c4 0 24 3 32 3c10 0 21 -4 34 -13v-24c-43 -35 -65 -70 -65 -105c0 1 7 -24 22 -73s23 -83 23 -102c0 -30 -10 -66 -30 -109c-21 -45 -40 -67 -58 -67
c-11 0 -20 9 -28 28c-3 10 -7 20 -11 30c2 0 5 0 9 1h12c6 0 15 16 28 48c11 29 17 46 16 49c-3 27 -12 59 -26 98c-13 37 -20 64 -21 81c-2 30 -1 56 4 77s8 31 8 28c-3 2 -8 3 -16 3c-3 0 -5 0 -6 1h-7c-17 0 -34 33 -34 53c0 18 7 38 22 60l78 106c35 50 52 89 52 118
c0 20 -18 39 -33 39c-1 0 -10 -4 -27 -13c-9 5 -14 15 -14 31c0 5 5 14 15 27s19 20 28 20c59 0 88 -33 88 -98z" />
    <glyph glyph-name="asciitilde" unicode="~" horiz-adv-x="411" 
d="M381 577c0 -13 -17 -29 -52 -50c-35 -20 -59 -30 -73 -30c-22 0 -49 22 -80 67s-50 68 -57 68c-8 0 -19 -6 -34 -19c-19 -16 -31 -25 -34 -27c-14 6 -21 13 -21 21c0 15 12 31 35 50c24 19 44 29 60 29c17 0 42 -23 75 -68c34 -45 56 -67 66 -67c55 23 87 35 96 35
c7 0 13 -3 19 -9z" />
    <glyph glyph-name="cent" unicode="&#xa2;" horiz-adv-x="429" 
d="M399 97c0 -5 -13 -16 -38 -34c-31 -21 -70 -40 -117 -56c-13 -1 -30 -7 -52 -17c-6 -5 -9 -15 -9 -29c0 -13 4 -45 4 -54c0 -27 -2 -47 -5 -62c-22 4 -35 25 -40 63c-2 27 -4 54 -5 81l-75 38c-21 15 -32 37 -32 68c0 29 11 60 34 91c13 17 35 42 68 73
c29 29 47 49 54 61c1 2 4 22 10 60c7 39 16 69 29 90h33c5 -9 7 -26 8 -51c1 -29 2 -46 3 -52c25 8 39 12 41 12c15 0 31 -10 31 -22c0 -10 -14 -25 -43 -44c-32 -21 -49 -33 -52 -36c-1 -7 -3 -17 -6 -28c0 0 -11 -17 -11 -24c0 -2 0 -4 1 -5c-10 -43 -20 -90 -30 -141v-24
c-2 -2 0 -3 6 -3c9 0 36 9 81 27c43 17 69 28 80 35h27c0 -3 5 -9 5 -17zM174 226c-36 -36 -78 -72 -78 -112c0 -27 15 -49 45 -66c10 37 21 96 33 178z" />
    <glyph glyph-name="sterling" unicode="&#xa3;" horiz-adv-x="648" 
d="M611 21c-10 -8 -24 -17 -43 -27s-30 -15 -34 -15c-8 0 -14 -8 -21 -8h-63c-22 0 -64 11 -126 34s-106 34 -133 34c-16 0 -36 -8 -61 -24s-41 -24 -48 -24h-11c-14 0 -24 11 -31 33c-5 14 -7 28 -7 43c8 5 25 12 50 19s43 15 54 22c17 12 27 28 28 49c-1 2 -9 3 -22 3
l-12 4c-7 0 -13 -8 -20 -8c-17 0 -42 21 -42 32c0 17 14 26 43 26c32 0 51 7 57 20l-40 168c5 111 59 167 163 167c13 0 26 -3 40 -9c17 -7 26 -17 26 -29c0 -13 -7 -26 -20 -40c-13 -13 -25 -19 -36 -17c1 7 4 16 8 29c-10 9 -20 14 -30 14c-2 0 -11 -2 -28 -5
c-14 -3 -29 -19 -46 -47c-17 -27 -25 -49 -25 -66c0 -3 7 -25 20 -66c14 -47 23 -81 28 -102c26 -3 51 -5 75 -5c6 0 14 0 24 1h19c25 0 49 -11 71 -34c-4 -2 -25 -6 -63 -12s-62 -9 -73 -9c-7 0 -27 4 -32 4c-9 0 -17 -8 -26 -25c-6 -11 -12 -23 -19 -34c0 -3 2 -6 7 -9
c32 1 84 -13 155 -42s117 -43 136 -43c3 0 16 2 40 6c25 4 39 6 42 6c8 0 17 -5 26 -14z" />
    <glyph glyph-name="section" unicode="&#xa7;" horiz-adv-x="369" 
d="M326 108c0 -39 -21 -83 -63 -133c-41 -50 -76 -75 -104 -75c-15 0 -31 16 -31 28c0 11 6 19 18 23c9 2 21 7 36 14c59 51 88 86 88 105c0 13 -16 25 -47 37c-21 8 -42 16 -63 23c-32 13 -57 26 -76 41c-25 19 -37 41 -37 65c0 15 14 37 41 68c24 27 43 44 56 51
c-48 54 -72 99 -72 134c0 15 12 40 36 75c23 31 38 49 46 54l67 39c33 19 57 28 71 28c15 0 22 -8 22 -23c-27 -23 -43 -36 -48 -39l-67 -42c-8 -5 -20 -21 -37 -47c-17 -28 -26 -47 -26 -58c0 -10 10 -26 30 -49c20 -22 34 -34 42 -37c7 0 16 -1 28 -2c5 -3 10 -7 16 -12
c25 -37 38 -68 38 -94c0 -15 -5 -35 -14 -60s-18 -40 -25 -46c2 -3 16 -13 42 -30c22 -15 33 -27 33 -38zM231 257c-10 34 -20 51 -30 51c-15 0 -32 -9 -51 -28c-19 -18 -30 -33 -34 -46c2 -10 13 -20 32 -31c20 -11 34 -15 41 -12c20 8 42 43 42 66z" />
    <glyph glyph-name="dieresis" unicode="&#xa8;" horiz-adv-x="316" 
d="M271 568c0 -4 -3 -9 -9 -16c-9 -11 -14 -17 -15 -18c-22 1 -33 7 -33 16c0 2 1 7 4 16c12 9 41 10 48 13c3 -3 5 -7 5 -11zM150 569c-43 -19 -70 -28 -81 -28c-7 0 -14 7 -18 6l-2 28c21 11 39 16 56 16c22 0 37 -7 45 -22z" />
    <glyph glyph-name="copyright" unicode="&#xa9;" horiz-adv-x="746" 
d="M694 389c0 -59 -33 -127 -98 -206c-69 -83 -137 -125 -202 -125c0 0 -53 -9 -138 -9c-7 0 -18 4 -33 11c-10 5 -20 9 -30 14c-93 34 -139 95 -139 184c0 69 29 135 87 198c60 65 127 96 200 92c9 -1 28 0 56 1c31 1 46 2 46 2c57 0 109 -10 154 -29
c65 -28 97 -72 97 -133zM645 411c0 34 -29 60 -87 78c-38 12 -72 18 -102 18c-35 0 -75 -5 -120 -15c-7 -1 -16 -6 -28 -14c-12 -7 -20 -11 -23 -11c-7 0 -19 9 -26 9c-5 0 -16 -7 -33 -21c-21 -17 -35 -27 -41 -30c-12 -13 -27 -32 -45 -57c-8 -16 -16 -40 -23 -71
c-7 -26 -10 -43 -10 -50c0 -34 21 -68 62 -101c39 -32 78 -48 116 -48h51c9 0 32 11 36 12c13 -1 28 0 45 3c37 17 73 40 108 67c43 33 72 66 87 98c22 46 33 90 33 133zM467 266v-16c-13 -17 -35 -31 -65 -41c-26 -9 -52 -13 -79 -13c-30 0 -56 7 -79 20
c-29 17 -43 41 -43 73c0 43 26 84 78 124c49 39 96 58 139 58c8 0 17 -5 27 -14c0 -11 -10 -33 -19 -38c-15 -3 -37 -10 -66 -20c-11 -5 -26 -18 -46 -37c-28 -27 -42 -51 -42 -71c0 -12 8 -23 25 -33c15 -9 28 -13 39 -13c3 0 20 4 51 13s48 13 51 13c8 0 24 -5 29 -5z" />
    <glyph glyph-name="registered" unicode="&#xae;" horiz-adv-x="858" 
d="M813 442c0 -19 -17 -69 -52 -151c-41 -95 -75 -142 -104 -142c-4 0 -6 1 -6 2c0 2 -2 3 -6 3c2 0 -36 -16 -114 -48c-77 -32 -123 -48 -136 -48h-58c-134 0 -224 47 -270 142c-17 35 -25 59 -25 72c0 30 18 72 54 125c25 38 51 71 78 99c16 17 47 35 94 53s84 27 112 27
c3 0 13 -2 31 -7c19 -5 30 -7 34 -7c3 0 13 2 28 7s25 7 29 7c7 0 22 -9 27 -9c8 0 11 9 19 9c7 0 13 -9 20 -9s14 3 20 9l10 -9c3 3 9 4 18 4c35 0 75 -12 119 -35c52 -27 78 -59 78 -94zM450 390c0 8 -5 17 -15 26h-43c-3 -8 -19 -31 -19 -38s5 -41 5 -52h30
c20 15 42 47 42 64zM754 440c0 35 -36 63 -108 85c-53 15 -100 23 -139 23c-8 0 -31 -18 -39 -18s-38 5 -45 5c-51 0 -102 -14 -155 -43c-60 -33 -104 -76 -133 -131c-17 -31 -39 -60 -39 -89c0 -51 22 -93 66 -126c5 -4 26 -12 63 -24s62 -18 73 -18c19 0 31 2 38 5
c-4 25 -8 49 -13 73c-8 52 -12 97 -12 135c0 -3 1 7 3 29s3 39 3 52c-3 -3 -6 -4 -10 -4c-11 0 -16 11 -16 32s18 38 55 52c28 11 52 16 72 16c24 0 44 -6 61 -19c20 -15 30 -36 30 -65c0 -21 -5 -42 -15 -63c-3 -4 -21 -24 -21 -32c0 -2 25 -18 76 -48s78 -45 80 -45
c27 0 56 33 86 98c26 57 39 97 39 120zM582 183c-13 13 -45 28 -95 47c-53 19 -92 28 -118 27v-60c-1 -3 2 -11 7 -22c6 -11 9 -19 9 -24c0 -19 1 -31 2 -34h24c10 0 40 10 89 30c46 19 73 31 82 36z" />
    <glyph glyph-name="acute" unicode="&#xb4;" horiz-adv-x="308" 
d="M251 664c-21 -37 -76 -94 -165 -170c-13 12 -20 22 -20 29s23 32 68 74c50 47 76 72 79 75h26c5 -5 9 -8 12 -8z" />
    <glyph glyph-name="germandbls" unicode="&#xdf;" horiz-adv-x="458" 
d="M434 132c0 -40 -18 -74 -53 -103c-32 -25 -65 -38 -99 -38h-33c-18 0 -40 7 -65 21c-33 18 -49 41 -49 68c0 51 35 84 105 99l3 -23c-23 -12 -48 -47 -48 -72s24 -37 72 -37c7 0 10 -4 17 -4c28 0 52 11 71 34c18 20 27 42 27 65c0 47 -27 83 -81 110
c-39 19 -77 29 -114 29c-4 0 -6 -1 -6 -2s-2 -2 -5 -2c-4 0 -11 5 -20 15c-9 11 -13 19 -13 24s16 31 48 77l55 82c7 13 10 26 10 38c0 20 -23 40 -68 60c-38 17 -64 25 -77 25c-24 0 -38 -89 -41 -267l43 -447c0 -16 -8 -37 -23 -62c-18 6 -27 14 -28 23
c-3 57 -15 195 -36 412v130c5 70 10 127 16 170c3 26 6 41 7 46c4 18 11 33 22 45c33 4 47 6 42 6c17 0 36 -5 59 -15c9 -3 20 -24 25 -24c8 0 2 4 9 4c23 0 46 -12 68 -37c23 -25 34 -48 34 -71c0 -20 -14 -50 -41 -90c-29 -43 -44 -69 -46 -80c9 -7 24 -15 46 -24
c103 -16 167 -90 167 -185z" />
    <glyph glyph-name="aring" unicode="&#xe5;" horiz-adv-x="460" 
d="M302 482c1 -3 2 -7 2 -11c0 -23 -16 -50 -47 -81s-58 -47 -81 -47c-45 0 -68 27 -68 80c0 13 11 32 32 59s39 40 53 40c11 0 30 -5 57 -16c28 -10 45 -18 52 -24zM481 133c1 -7 -6 -17 -19 -32c-11 -12 -22 -21 -31 -28c-47 -36 -91 -78 -146 -78c-15 0 -28 11 -40 32
c-9 14 -17 28 -25 43c-17 -10 -50 -31 -99 -64c-41 -27 -63 -41 -67 -41c-27 0 -40 27 -40 82c0 19 18 52 53 99c25 32 46 57 64 76c39 11 67 17 82 17c28 0 55 -35 55 -60c0 -5 -10 -20 -30 -47c14 -7 28 -21 43 -43c13 -19 23 -29 29 -29c25 0 53 15 82 44
c30 30 47 45 52 45c14 0 26 -5 37 -16zM242 447c-7 0 -28 11 -37 11c-4 0 -9 -3 -16 -9c-9 -7 -14 -11 -15 -12v-29h21c8 0 17 5 26 5c11 0 21 22 21 34zM223 126c-10 11 -19 27 -26 48h-17c-15 -10 -35 -27 -59 -51c-31 -32 -47 -56 -47 -71v-17c16 7 41 22 74 43
c43 28 68 44 75 48z" />
    <glyph glyph-name="ae" unicode="&#xe6;" horiz-adv-x="591" 
d="M565 107l5 -21c-24 -23 -56 -48 -97 -75c-53 -34 -92 -51 -117 -51h-28c-20 0 -39 4 -56 12c-13 6 -28 17 -44 32c-18 17 -30 31 -35 44c-5 10 -8 33 -11 68c-3 7 -7 10 -13 10c1 0 -13 -8 -40 -25c-27 -16 -49 -24 -66 -24c-31 0 -46 14 -46 42c0 23 26 59 77 108
c52 49 90 73 113 73c5 0 0 -4 7 -4s-1 8 6 8c47 0 72 -14 76 -42c63 43 94 65 94 66c37 22 68 33 95 33c5 0 17 -12 20 -13c-13 -52 -45 -108 -96 -168c-55 -65 -108 -104 -157 -117c5 -9 13 -20 26 -35c21 -15 40 -23 57 -23c29 0 69 14 122 43c69 38 105 58 108 59z
M435 292c-29 -11 -59 -29 -92 -54c-40 -30 -67 -60 -80 -91l5 -24c25 6 56 29 94 69c36 38 60 71 73 100zM248 238c0 11 -6 17 -17 17c-19 0 -44 -11 -76 -33c-31 -22 -51 -42 -59 -59c-3 -4 -18 -19 -18 -24v-13h14c27 19 56 42 87 71c5 -3 17 5 22 5c13 0 16 -16 19 -27
c1 4 7 16 17 35c7 15 11 24 11 28z" />
    <glyph glyph-name="ccedilla" unicode="&#xe7;" horiz-adv-x="402" 
d="M358 104v-20c-4 -9 -19 -18 -45 -29c-21 -7 -42 -15 -63 -23c-7 -3 -15 -18 -23 -44c-7 -26 -11 -49 -11 -68s7 -29 22 -29c51 0 82 -3 93 -8c12 -5 18 -21 18 -47c0 -22 -19 -57 -57 -104c-41 -51 -76 -76 -105 -76c-20 0 -33 16 -33 29c0 5 18 32 14 41
c3 -3 7 -4 12 -4c17 0 41 17 70 50c23 26 36 44 41 55c-3 7 -11 11 -24 11c-5 0 -14 -3 -26 -8c-16 -6 -26 -14 -31 -23h-19c-20 11 -30 33 -30 67c0 9 1 24 2 45c2 21 3 36 3 47c0 12 -1 23 -2 32c-11 -6 -22 -9 -35 -9c-27 0 -51 6 -73 17c-30 15 -45 37 -45 65
c0 42 37 100 112 174c71 69 121 104 149 104h18c4 -4 6 -10 6 -18c0 -21 -6 -35 -19 -43c-133 -83 -199 -155 -199 -217c9 -16 33 -24 71 -24c4 0 13 1 28 4s24 5 29 5s28 8 67 25s63 27 70 32c6 -6 11 -9 15 -9z" />
    <glyph glyph-name="oslash" unicode="&#xf8;" horiz-adv-x="429" 
d="M411 444c0 -5 -16 -32 -48 -81c-32 -48 -56 -82 -73 -103c8 -18 12 -38 12 -59c0 -58 -24 -105 -71 -141c-17 -14 -32 -23 -44 -26c-6 -2 -21 -4 -46 -7c-9 -1 -18 -9 -26 -22c-5 -10 -11 -20 -16 -31c-27 -47 -40 -84 -39 -109c-10 3 -18 10 -25 23c-5 10 -7 18 -7 23
c0 16 8 41 24 74c17 33 25 51 25 55c0 3 -3 7 -10 11c-9 5 -13 8 -14 9c-19 19 -29 37 -29 53c0 43 18 84 55 123s79 59 124 59c7 0 30 -4 37 -4c11 0 34 28 70 85s58 86 67 86h29c3 -3 5 -9 5 -18zM248 170v19l-77 -101c15 5 31 16 48 32c19 19 29 35 29 50zM219 245h-14
c-27 -2 -54 -17 -81 -45c-26 -27 -39 -54 -39 -81c0 -19 8 -29 23 -32c23 29 60 82 111 158z" />
    <glyph glyph-name="thorn" unicode="&#xfe;" horiz-adv-x="341" 
d="M287 266c0 -37 -26 -73 -77 -110c-35 -25 -75 -47 -122 -65c-6 -14 -9 -35 -9 -63c0 -11 0 -27 1 -50s2 -39 2 -50c0 -38 -6 -64 -18 -78c-9 7 -20 18 -34 32c-5 31 -8 49 -8 52c0 43 6 150 19 319c11 166 21 288 30 367c7 3 16 5 28 5c19 0 29 -12 29 -35
c0 -3 -3 -12 -8 -26c-5 -13 -7 -23 -8 -30c-10 -59 -15 -97 -15 -113v-83c9 -3 23 -4 43 -4c3 0 8 0 15 1h16c36 0 62 -4 79 -11c25 -10 37 -29 37 -58zM229 255c0 5 -2 10 -5 13c-25 6 -43 9 -54 9c-5 0 -30 -5 -77 -14c0 11 -4 -31 -4 -100c19 5 46 17 81 38
c39 23 59 41 59 54z" />
    <glyph glyph-name="oe" unicode="&#x153;" horiz-adv-x="584" 
d="M642 72v-14c-7 -7 -21 -17 -42 -31c-12 -7 -32 -16 -60 -28c-35 -15 -59 -22 -72 -22c1 0 -15 -1 -46 -4s-51 -4 -58 -4c-29 0 -64 12 -105 37c-43 27 -68 54 -75 82c-3 4 -5 6 -8 6s-14 -3 -35 -10s-33 -10 -36 -10h-33c-18 0 -33 7 -44 22c-9 13 -14 27 -14 42
c0 11 13 35 39 71c26 37 43 56 50 59l30 15c15 6 28 8 41 7c2 -1 10 -4 24 -9c15 -5 24 -7 28 -7s15 8 33 23c21 17 34 28 41 31c7 1 22 2 43 5s34 5 37 5c25 0 49 -3 71 -8c34 -9 51 -22 51 -40c0 -39 -29 -76 -87 -111c-51 -30 -93 -45 -127 -45c-11 0 -21 5 -32 16
c-15 -10 -22 -19 -22 -26c0 -35 22 -63 67 -85c35 -17 67 -26 97 -26c3 0 14 1 34 2c41 3 41 1 41 6c0 3 2 5 5 5s11 3 22 8s19 8 22 8c7 0 1 -4 8 -4c4 0 18 6 43 17l60 27zM446 263v18c-1 0 -1 0 -1 1c-3 3 -9 4 -17 4c-7 0 -31 8 -38 8c-28 0 -52 -5 -73 -15
c-26 -13 -39 -32 -39 -57c0 -15 2 -26 5 -32c17 3 41 8 74 17c4 1 16 15 23 15s5 -4 12 -4c6 0 24 15 54 45zM194 233c-3 0 -11 4 -18 5c-16 1 -37 -10 -63 -35c-12 -13 -24 -27 -37 -40c1 -4 -6 -19 -6 -23c0 -8 4 -13 4 -14c9 0 29 -4 34 -4c6 0 27 7 62 21
c-3 11 -1 26 5 46c5 18 12 33 19 44z" />
    <glyph glyph-name="trademark" unicode="&#x2122;" horiz-adv-x="602" 
d="M555 377c0 -3 -4 -11 -11 -24s-12 -21 -15 -24c-24 25 -38 71 -41 140c2 2 0 3 -6 3c-2 0 -11 -6 -26 -18s-24 -18 -27 -18c-9 0 -26 10 -49 29c-1 -5 -1 -26 0 -64c1 -27 -5 -40 -19 -40c-20 0 -30 24 -30 72c0 12 1 27 2 45c1 19 2 30 2 33c0 8 1 10 -18 10
c-3 0 -5 -1 -6 -3c-1 -4 -2 -6 -2 -6c-18 -1 -28 -2 -29 -2c-13 -2 -23 -6 -30 -12c0 -7 -1 -20 -2 -37c-1 -15 -2 -23 -2 -26s-3 -19 -8 -49c-5 -29 -7 -50 -7 -63c0 -5 0 -10 1 -13c5 -15 6 -28 5 -39c-5 -7 -13 -16 -25 -27c-4 1 -10 4 -19 8c0 9 -1 25 -4 46
s-4 33 -4 35c0 3 3 27 9 72s9 69 9 72v25c-1 4 -8 6 -21 6c-9 0 -24 -1 -47 -4s-39 -4 -48 -4c-37 0 -55 10 -55 30v12c8 5 20 8 36 8c2 0 9 -1 22 -3s21 -3 26 -3c19 0 46 1 83 4s56 5 56 5c3 0 19 2 48 5c30 4 46 6 49 6c11 0 26 -8 43 -25l45 -46c7 7 22 25 43 55
c19 25 30 37 33 37c-1 0 10 -3 35 -10c0 -7 -2 -23 -7 -49c-4 -25 -6 -41 -6 -46c0 -13 6 -47 17 -103z" />
    <glyph glyph-name="quotedbl" unicode="&#x22;" horiz-adv-x="292" 
d="M278 739c0 -22 -10 -49 -30 -81c-18 -29 -36 -50 -53 -61h-14c0 1 -4 4 -12 11l33 52c15 27 23 49 23 66c0 3 -5 13 -15 28c-10 16 -15 26 -15 29c0 13 13 32 32 32c17 0 30 -9 39 -27c8 -15 12 -31 12 -49zM148 773c0 -24 -10 -56 -30 -97c-21 -43 -40 -69 -59 -76
c-7 3 -13 8 -18 15c11 18 27 48 47 91c4 11 6 24 6 39c0 11 -2 35 -2 42c0 20 8 30 24 30c21 0 32 -15 32 -44z" />
    <glyph glyph-name="quotesingle" unicode="'" horiz-adv-x="195" 
d="M128 773c0 -24 -10 -56 -30 -97c-21 -43 -40 -69 -59 -76c-7 3 -13 8 -18 15c11 18 27 48 47 91c4 11 6 24 6 39c0 11 -2 35 -2 42c0 20 8 30 24 30c21 0 32 -15 32 -44z" />
    <glyph glyph-name="period" unicode="." horiz-adv-x="239" 
d="M194 72l1 -40c1 -21 -16 -36 -50 -47l-19 12c-9 5 -13 10 -13 14c0 18 4 34 12 48c9 17 22 25 39 25z" />
    <glyph glyph-name="colon" unicode=":" horiz-adv-x="257" 
d="M194 72l1 -40c1 -21 -16 -36 -50 -47l-19 12c-9 5 -13 10 -13 14c0 18 4 34 12 48c9 17 22 25 39 25zM203 337l1 -40c1 -21 -16 -36 -50 -47l-19 12c-9 5 -13 10 -13 14c0 18 4 34 12 48c9 17 22 25 39 25z" />
    <glyph glyph-name="quotedblleft" unicode="&#x201c;" horiz-adv-x="292" 
d="M258 739c0 -22 -10 -49 -30 -81c-18 -29 -36 -50 -53 -61h-14c0 1 -4 4 -12 11l33 52c15 27 23 49 23 66c0 3 -5 13 -15 28c-10 16 -15 26 -15 29c0 13 13 32 32 32c17 0 30 -9 39 -27c8 -15 12 -31 12 -49zM128 773c0 -24 -10 -56 -30 -97c-21 -43 -40 -69 -59 -76
c-7 3 -13 8 -18 15c11 18 27 48 47 91c4 11 6 24 6 39c0 11 -2 35 -2 42c0 20 8 30 24 30c21 0 32 -15 32 -44z" />
    <glyph glyph-name="quotedblright" unicode="&#x201d;" horiz-adv-x="292" 
d="M258 739c0 -22 -10 -49 -30 -81c-18 -29 -36 -50 -53 -61h-14c0 1 -4 4 -12 11l33 52c15 27 23 49 23 66c0 3 -5 13 -15 28c-10 16 -15 26 -15 29c0 13 13 32 32 32c17 0 30 -9 39 -27c8 -15 12 -31 12 -49zM128 773c0 -24 -10 -56 -30 -97c-21 -43 -40 -69 -59 -76
c-7 3 -13 8 -18 15c11 18 27 48 47 91c4 11 6 24 6 39c0 11 -2 35 -2 42c0 20 8 30 24 30c21 0 32 -15 32 -44z" />
    <glyph glyph-name="quotedblbase" unicode="&#x201e;" horiz-adv-x="292" 
d="M264 34c0 -22 -10 -49 -30 -81c-18 -29 -36 -50 -53 -61h-14c0 1 -4 4 -12 11l33 52c15 27 23 49 23 66c0 3 -5 13 -15 28c-10 16 -15 26 -15 29c0 13 13 32 32 32c17 0 30 -9 39 -27c8 -15 12 -31 12 -49zM134 68c0 -24 -10 -56 -30 -97c-21 -43 -40 -69 -59 -76
c-7 3 -13 8 -18 15c11 18 27 48 47 91c4 11 6 24 6 39c0 11 -2 35 -2 42c0 20 8 30 24 30c21 0 32 -15 32 -44z" />
    <glyph glyph-name="equal" unicode="=" horiz-adv-x="392" 
d="M343 227c0 -11 -15 -22 -46 -32c-25 -9 -43 -13 -53 -13h-36c-6 0 -13 3 -20 10c-7 -7 -12 -10 -15 -10c-24 0 -56 5 -97 15c-5 7 -12 18 -21 32c15 19 31 29 48 29c5 0 26 -8 33 -9c31 -4 77 -6 136 -6h63c5 -3 8 -9 8 -16zM345 53c0 -3 -3 -11 -10 -25
c-15 0 -39 -2 -72 -5c-32 -3 -48 -5 -48 -5c-7 0 -22 10 -31 10c-3 0 -21 -2 -56 -7c-34 -4 -52 -6 -55 -6c-17 0 -25 10 -25 29c0 16 9 26 26 31l33 3c49 5 68 7 57 7c121 0 181 -11 181 -32z" />
    <glyph glyph-name="circumflex" unicode="&#x2c6;" horiz-adv-x="348" 
d="M311 531c0 -11 -7 -23 -21 -35c-13 -11 -25 -17 -35 -17c-19 0 -36 11 -53 33c-7 10 -20 31 -37 64l-51 -43c-29 -23 -46 -35 -51 -35h-14c-3 13 -9 21 -17 25c3 8 8 17 17 28c23 10 47 28 73 53s43 47 50 64c1 0 12 7 20 7l14 -11c3 -22 7 -44 11 -67
c11 -40 26 -60 47 -60c7 0 19 11 26 11c9 0 21 -9 21 -17z" />
    <glyph glyph-name="quotesinglbase" unicode="&#x201a;" horiz-adv-x="264" 
d="M215 44c0 -26 -12 -57 -35 -94c-21 -34 -42 -58 -62 -71h-16c0 1 -4 5 -13 14c12 20 24 40 37 60c19 31 28 56 28 76c0 3 -6 14 -18 32c-11 19 -17 30 -17 33c0 15 14 37 37 37c19 0 34 -10 45 -31c9 -17 14 -35 14 -56z" />
    <glyph glyph-name="yen" unicode="&#x20ac;" horiz-adv-x="606" 
d="M555 560v-17c-49 -9 -101 -29 -154 -60c-58 -33 -105 -72 -142 -117c0 -5 1 -9 3 -11c77 9 117 14 120 14c5 0 21 -4 28 -4c8 0 11 4 19 4s6 5 14 5c24 0 50 -27 50 -46c-9 -11 -20 -16 -31 -16c-40 0 -84 -4 -132 -11c-3 -1 -42 -8 -87 -23c-24 -5 -40 -17 -47 -34
c22 -2 58 0 109 5c57 7 95 10 114 10c4 0 12 -3 25 -9s22 -9 25 -10v-14c-35 -16 -58 -24 -69 -24c-9 0 -22 -3 -39 -8s-27 -7 -30 -7c-8 0 -31 -12 -74 -19c-14 -1 -34 -6 -61 -13v-19c0 -26 23 -50 70 -71c38 -17 68 -26 91 -26c3 0 15 1 34 4c20 3 32 5 36 5
c5 0 14 5 28 14c15 10 26 20 35 29h26l11 -16c-8 -19 -32 -39 -73 -61c-40 -22 -72 -33 -95 -33c-36 0 -69 9 -99 28l-57 38c-34 15 -59 50 -75 103c-1 1 -14 4 -39 9c-17 4 -31 14 -41 30v16c17 11 39 17 64 19c15 1 24 10 27 27c-1 1 -1 3 -2 6c-1 1 -3 2 -8 2
s-32 -9 -40 -9c-15 0 -25 1 -31 4c-2 1 -16 9 -43 26c5 17 27 29 66 35c45 6 73 13 83 21c7 7 19 21 34 43c18 27 34 49 48 64c23 27 65 57 127 91c63 34 107 51 132 51c9 0 25 -8 50 -25z" />
    <glyph glyph-name="ampersand.001" 
 />
    <glyph glyph-name="quoteleft" unicode="&#x2018;" horiz-adv-x="195" 
d="M128 773c0 -24 -10 -56 -30 -97c-21 -43 -40 -69 -59 -76c-7 3 -13 8 -18 15c11 18 27 48 47 91c4 11 6 24 6 39c0 11 -2 35 -2 42c0 20 8 30 24 30c21 0 32 -15 32 -44z" />
    <glyph glyph-name="quoteright" unicode="&#x2019;" horiz-adv-x="195" 
d="M128 773c0 -24 -10 -56 -30 -97c-21 -43 -40 -69 -59 -76c-7 3 -13 8 -18 15c11 18 27 48 47 91c4 11 6 24 6 39c0 11 -2 35 -2 42c0 20 8 30 24 30c21 0 32 -15 32 -44z" />
    <glyph glyph-name="ellipsis" unicode="&#x2026;" horiz-adv-x="434" 
d="M121 59l1 -35c1 -17 -14 -31 -44 -40l-16 10c-8 5 -12 9 -12 12c0 16 4 30 11 42c8 14 19 21 34 21zM252 55l1 -34c0 -18 -15 -31 -44 -40c0 0 -6 3 -17 10c-8 5 -12 9 -12 12c0 15 4 29 11 41c8 15 19 22 34 22zM387 57l1 -34c1 -18 -14 -32 -44 -41l-17 11
c-7 5 -11 9 -11 12c0 15 4 29 11 41c8 14 19 21 34 21z" />
    <glyph glyph-name="Scaron" unicode="&#x160;" horiz-adv-x="380" 
d="M44 825c-2 11 2 23 13 37c11 15 21 23 30 26c19 4 38 -3 59 -21c9 -8 26 -26 51 -54l40 53c23 29 37 44 42 45c10 3 15 4 14 3c6 -11 13 -18 22 -20c-1 -9 -5 -19 -11 -31c-20 -15 -40 -38 -60 -69c-19 -30 -31 -54 -34 -73c-1 0 -10 -8 -18 -11l-16 8
c-8 21 -17 42 -26 63c-19 37 -38 53 -59 48c-5 -1 -16 -15 -23 -16c-8 -3 -21 4 -24 12zM359 584c0 -24 -17 -51 -41 -51c-9 0 -14 5 -14 16c0 8 4 25 4 28c-7 6 -18 13 -33 21c-27 6 -52 9 -73 9c-6 0 -23 -6 -51 -18c-27 -11 -43 -19 -47 -22c-18 -16 -27 -45 -27 -87
c0 -29 22 -65 67 -107l97 -86l56 -49c33 -33 50 -58 50 -75c0 -56 -22 -108 -67 -157c-47 -50 -100 -75 -160 -75c-4 0 -26 21 -43 28v12c0 10 5 23 14 38c11 18 22 27 35 27c11 0 17 -6 17 -18c0 -6 -2 -11 -7 -16v-10c1 -2 5 -3 10 -3c27 0 60 17 99 51c39 35 59 67 59 98
c0 28 -25 64 -74 107l-93 80c-36 32 -63 61 -80 88c-23 34 -34 69 -34 104c0 40 21 74 63 102c36 23 71 35 105 35c112 0 168 -23 168 -70z" />
    <glyph glyph-name="Zcaron" unicode="&#x17d;" horiz-adv-x="489" 
d="M67 702c-2 11 2 23 13 37c11 15 21 23 30 26c19 4 38 -3 59 -21c9 -8 26 -26 51 -54l40 53c23 29 37 44 42 45c10 3 15 4 14 3c6 -11 13 -18 22 -20c-1 -9 -5 -19 -11 -31c-20 -15 -40 -38 -60 -69c-19 -30 -31 -54 -34 -73c-1 0 -10 -8 -18 -11l-16 8
c-8 21 -17 42 -26 63c-19 37 -38 53 -59 48c-5 -1 -16 -15 -23 -16c-8 -3 -21 4 -24 12zM539 48c-3 -13 -27 -22 -42 -22c-7 0 -14 -4 -21 -4c-3 0 -37 -1 -100 -4c-63 -2 -96 -3 -99 -3h-22h-22c-2 0 -30 2 -84 5l-17 10c-1 -3 -3 -6 -7 -11c-5 1 -15 4 -30 10
c-14 6 -23 9 -26 9c-5 0 -12 -8 -19 -8c-9 0 -24 20 -24 31c0 13 36 70 109 171c102 143 156 219 161 228c-1 1 -4 2 -9 2l-221 -45c-13 0 -25 3 -36 8c-9 20 -10 32 -3 37c20 7 75 19 164 36c79 15 127 23 145 26c32 3 44 -2 41 -9c-7 -34 -46 -97 -115 -188
c-87 -115 -143 -193 -166 -233c30 -11 69 -18 118 -19c123 -3 226 -7 309 -12c3 -3 8 -8 16 -15z" />
    <glyph glyph-name="scaron" unicode="&#x161;" horiz-adv-x="313" 
d="M48 610l14 4c19 4 38 -3 59 -21c9 -8 26 -26 51 -54l40 53c23 29 37 44 42 45c10 3 15 4 14 3c6 -11 13 -18 22 -20c-1 -9 -5 -19 -11 -31c-20 -15 -40 -38 -60 -69c-19 -30 -31 -54 -34 -73c-1 0 -10 -8 -18 -11l-16 8c-8 21 -17 42 -26 63c-19 37 -38 53 -59 48
c-39 15 -45 33 -18 55zM335 359c0 -14 -4 -23 -13 -27c-7 3 -29 1 -66 -8c-42 -9 -77 -22 -105 -39c-36 -22 -54 -47 -54 -74c0 -21 17 -35 50 -44c52 -13 83 -23 92 -28c33 -19 50 -51 50 -96c0 -19 -6 -38 -17 -58c-14 -23 -31 -34 -50 -34c-17 0 -31 11 -44 32
c-9 17 -14 31 -14 42c0 9 4 20 11 33s14 19 20 19c17 0 26 -7 26 -20c0 -8 -5 -26 -5 -31s3 -8 8 -8c13 0 19 6 19 17c0 30 -11 51 -34 63c-7 4 -32 11 -75 21c-68 16 -100 55 -100 86c0 51 41 97 123 136c64 31 114 46 149 46c19 0 29 -9 29 -28z" />
    <glyph glyph-name="zcaron" unicode="&#x17e;" horiz-adv-x="342" 
d="M38 584l14 4c19 4 38 -3 59 -21c9 -8 26 -26 51 -54l40 53c23 29 37 44 42 45c10 3 15 4 14 3c6 -11 13 -18 22 -20c-1 -9 -5 -19 -11 -31c-20 -15 -40 -38 -60 -69c-19 -30 -31 -54 -34 -73c-1 0 -10 -8 -18 -11l-16 8c-8 21 -17 42 -26 63c-19 37 -38 53 -59 48
c-39 15 -45 33 -18 55zM405 -8c3 -4 1 -8 -4 -13c-12 -3 -64 -2 -155 2c-95 7 -151 24 -158 24s-6 -3 -13 -3c-11 0 -17 7 -17 21c0 2 22 36 66 102c48 73 79 127 94 164c-3 2 -11 3 -25 3c-3 0 -18 -5 -44 -15c-52 -19 -64 -24 -71 -23h-16c-9 9 -15 18 -20 28
c5 11 11 18 17 19c123 37 202 55 235 55c15 0 23 -7 23 -21c0 -5 -5 -16 -16 -31c-5 -1 -11 -1 -20 -1c-23 -46 -70 -125 -139 -238c31 -18 80 -32 146 -41c65 -7 104 -17 117 -32z" />
    <glyph glyph-name="Ydieresis" unicode="&#x178;" horiz-adv-x="385" 
d="M340 786c0 -4 -3 -9 -9 -16c-9 -11 -14 -17 -15 -18c-22 1 -33 7 -33 16c0 2 1 7 4 16c12 9 41 10 48 13c3 -3 5 -7 5 -11zM159 823c-43 -19 -70 -28 -81 -28c-7 0 -14 7 -18 6l-2 28c21 11 39 16 56 16c22 0 37 -7 45 -22zM378 589l-23 -11c-9 -4 -15 -10 -20 -19
l-57 -88c-26 -44 -39 -74 -39 -90c0 -1 2 -19 6 -53c5 -33 7 -57 7 -72l6 -194c0 -25 2 -61 7 -109c3 -11 8 -31 15 -59c7 -24 10 -37 10 -40c0 -7 -5 -16 -5 -21c-7 4 -16 11 -27 20c-23 53 -37 119 -41 200l-9 211c-2 20 -5 42 -9 66c-3 16 -3 37 -12 46
c-39 38 -73 79 -100 124c-17 29 -38 72 -64 130v16c11 5 20 8 27 8s27 -31 62 -93c38 -68 65 -109 81 -123c13 7 38 40 75 101c32 55 61 82 87 82h15c7 -13 10 -20 10 -21c0 -3 -1 -7 -2 -11z" />
    <glyph glyph-name="Aring" unicode="&#xc5;" horiz-adv-x="631" 
d="M544 929c1 -3 2 -7 2 -11c0 -23 -14 -49 -42 -78s-53 -43 -76 -43c-45 0 -68 27 -68 80c0 13 11 32 32 59s39 40 53 40c22 5 42 0 61 -15s31 -26 38 -32zM494 901c-7 0 -28 11 -37 11c-4 0 -9 -3 -16 -9c-9 -7 -14 -11 -15 -12v-29h21c8 0 17 5 26 5c11 0 21 22 21 34z
M556 20c0 -7 -3 -20 -10 -39c-1 0 -4 -5 -12 -5c-28 0 -40 44 -37 131c0 11 -7 46 -7 62c0 15 -3 64 -8 149c-3 0 -19 -2 -47 -5c-32 -4 -54 -6 -66 -7c-11 -1 -28 -5 -51 -14c-16 -49 -36 -120 -59 -215s-38 -152 -45 -171c-3 -3 -8 -5 -13 -5c-14 0 -21 24 -20 71
c7 52 20 112 39 180c15 51 28 89 39 116l4 14h-5c-3 0 -31 -7 -83 -20s-80 -20 -83 -20s-13 -2 -32 -5c-18 -3 -29 -4 -34 -4c-8 0 -38 5 -49 5c-1 1 -5 4 -13 11c-5 5 -7 10 -6 16c4 15 34 25 89 31c49 5 93 13 132 23c48 13 83 21 104 24l75 199c52 127 88 191 109 191
c8 0 25 -4 30 -4c20 -59 33 -247 38 -565c0 -11 3 -35 10 -74s11 -62 11 -70zM481 451c-2 44 -6 112 -13 203c-38 -54 -82 -156 -133 -305l39 3h21h19h24c3 0 12 -2 26 -6c1 0 8 -1 20 -3c-1 1 -1 20 -2 56c0 16 0 33 -1 52z" />
    <glyph glyph-name="_165.001" horiz-adv-x="500" 
 />
    <glyph glyph-name="_165" unicode="&#xa5;" horiz-adv-x="385" 
d="M363 323c0 -11 -15 -22 -46 -32c-25 -9 -43 -13 -53 -13h-13c1 -9 1 -16 1 -22l1 -29c64 -3 96 -13 96 -28c0 -3 -3 -10 -8 -22c-13 0 -32 -2 -59 -5c-13 -1 -22 -2 -28 -1l4 -109c0 -25 2 -61 7 -109c3 -11 8 -31 15 -59c7 -24 10 -37 10 -40c0 -7 -5 -16 -5 -21
c-7 4 -16 11 -27 20c-23 53 -37 119 -41 200l-6 124l-41 -6c-28 -4 -43 -6 -45 -6c-13 0 -20 9 -20 26c0 14 7 23 21 28c9 1 18 1 27 2c33 4 50 6 49 7h7c0 12 0 24 -1 36c-1 7 -2 14 -3 22c-5 -5 -9 -8 -12 -8c-24 0 -56 5 -97 15c-5 7 -12 18 -21 32c15 19 31 29 48 29
c5 0 26 -8 33 -9c11 -2 25 -3 41 -4l-2 14c-1 9 -3 16 -8 21c-39 38 -73 79 -100 124c-17 29 -38 72 -64 130v16c11 5 20 8 27 8s27 -31 62 -93c38 -68 65 -109 81 -123c13 7 38 40 75 101c32 55 61 82 87 82h15c7 -13 10 -20 10 -21c0 -3 -1 -7 -2 -11l-23 -11
c-9 -4 -15 -10 -20 -19l-57 -88c-26 -44 -39 -74 -39 -90c0 -1 2 -15 5 -42h111c5 -3 8 -9 8 -16z" />
    <glyph glyph-name="exclamdown" unicode="&#xa1;" horiz-adv-x="248" 
d="M69 8c0 7 12 18 13 23c7 58 11 93 13 104c7 41 16 81 28 118c3 22 7 52 13 90c2 11 3 37 4 78c1 37 3 63 8 77c13 -8 25 -31 34 -68c6 -27 9 -47 9 -60c0 -1 -7 -50 -22 -145c-17 -105 -28 -183 -33 -232c-13 -12 -25 -18 -36 -18c-4 0 -11 1 -20 4c-7 13 -11 23 -11 29z
M124 723c21 21 35 38 41 51c13 1 23 -6 32 -21c8 -13 11 -26 8 -37c-21 -15 -39 -23 -54 -23c-9 0 -18 10 -27 30z" />
    <glyph glyph-name="questiondown" unicode="&#xbf;" horiz-adv-x="354" 
d="M81 96c0 85 49 173 148 264c-7 7 -17 19 -30 38v15c20 -1 40 0 43 0c8 0 19 -7 32 -22s20 -25 20 -30c0 -10 -12 -29 -37 -56c-16 -17 -32 -33 -47 -50c-30 -33 -49 -56 -58 -69c-13 -21 -19 -43 -19 -68c0 -16 2 -32 6 -49c7 -28 17 -42 31 -42c10 0 25 6 46 19
c23 14 34 28 34 42c0 7 -4 16 -12 28c-9 14 -20 22 -31 25c5 17 19 25 41 25c9 0 13 -11 14 -12c17 -4 30 -16 40 -35c9 -15 13 -30 13 -44c0 -36 -19 -66 -57 -89c-31 -19 -61 -29 -90 -29c-33 0 -57 19 -72 57c-10 25 -15 53 -15 82zM172 611c0 12 12 30 36 55
s42 38 53 38c9 0 18 -6 25 -18c5 -10 8 -17 8 -21c0 -5 -12 -17 -37 -38c-24 -21 -39 -31 -44 -31h-36c0 3 -5 7 -5 15z" />
    <glyph glyph-name="tilde" unicode="&#x2dc;" horiz-adv-x="411" 
d="M381 577c0 -13 -17 -29 -52 -50c-35 -20 -59 -30 -73 -30c-22 0 -49 22 -80 67s-50 68 -57 68c-8 0 -19 -6 -34 -19c-19 -16 -31 -25 -34 -27c-14 6 -21 13 -21 21c0 15 12 31 35 50c24 19 44 29 60 29c17 0 42 -23 75 -68c34 -45 56 -67 66 -67c55 23 87 35 96 35
c7 0 13 -3 19 -9z" />
    <glyph glyph-name="perthousand" unicode="&#x2030;" horiz-adv-x="764" 
d="M241 652c0 -31 -14 -72 -42 -122c-33 -57 -66 -85 -101 -85c-17 0 -30 11 -41 32c-9 18 -14 36 -14 55c0 31 14 69 41 112c31 49 65 73 100 73c20 0 35 -8 45 -23c8 -12 12 -26 12 -42zM534 819c-35 -44 -72 -104 -112 -180l-96 -187c-25 -45 -40 -86 -45 -124
c-47 -72 -89 -166 -128 -281c14 -15 29 -21 46 -20c-1 -7 -14 -20 -39 -41s-40 -31 -46 -31c-10 0 -20 7 -29 22c-7 13 -11 22 -11 27c0 15 18 59 53 132l55 110l136 292l70 160c47 96 85 144 112 144c7 0 19 -8 34 -23zM534 229c0 -27 -18 -74 -54 -140
c-41 -76 -79 -114 -116 -114c-4 0 -12 5 -25 15c-17 14 -27 22 -29 23c-1 80 20 152 63 217c2 16 8 30 18 42c11 15 26 22 44 22c3 0 15 -2 36 -6c21 -3 36 -5 46 -5c11 -33 17 -51 17 -54zM173 628c-17 -6 -32 -19 -44 -40c-11 -21 -21 -32 -28 -35c9 -8 12 -17 11 -28
c15 -1 28 12 41 41c10 21 17 41 20 62zM471 202v24h-19c-9 -7 -22 -31 -39 -72s-25 -66 -24 -77v-18c11 13 27 35 46 66c24 38 36 64 36 77zM732 212c0 -31 -14 -72 -42 -122c-33 -57 -66 -85 -101 -85c-17 0 -30 11 -41 32c-9 18 -14 36 -14 55c0 31 14 69 41 112
c31 49 65 73 100 73c20 0 35 -8 45 -23c8 -12 12 -26 12 -42zM664 188c-17 -6 -32 -19 -44 -40c-11 -21 -21 -32 -28 -35c9 -8 12 -17 11 -28c15 -1 28 12 41 41c10 21 17 41 20 62z" />
    <glyph glyph-name="OE" unicode="&#x152;" horiz-adv-x="612" 
d="M322 408c0 -29 -3 -68 -10 -117c-7 -53 -15 -88 -22 -104c-28 -60 -45 -95 -50 -104c-38 -65 -72 -98 -102 -98c-35 0 -63 33 -84 99c-15 47 -22 87 -22 118c0 45 10 109 31 191c5 19 13 48 25 85c48 105 89 157 123 157c30 0 45 -11 45 -32c0 -4 -1 -17 -2 -38
c15 -4 30 -18 44 -43c4 -7 9 -25 15 -54s9 -49 9 -60zM228 574c2 5 1 10 -4 14c-6 0 -10 -4 -13 -11c7 -2 12 -3 17 -3zM279 393c0 29 -4 55 -11 80c-12 39 -31 59 -57 59c-41 0 -75 -52 -102 -157c-19 -74 -28 -133 -28 -177c0 -19 5 -44 14 -77c12 -45 28 -68 47 -68
s43 32 73 95c25 53 40 89 44 108c13 76 20 122 20 137zM643 579c-51 -8 -72 -12 -64 -12c-8 0 -22 -7 -30 -7c2 0 -28 -10 -90 -29c-42 -13 -74 -28 -95 -44c-7 -5 -14 -30 -21 -73c-6 -36 -9 -59 -9 -70l-1 -26h12c16 0 55 15 116 44l93 46l13 -11l-3 -15
c0 -13 -28 -36 -83 -68c-49 -28 -87 -46 -113 -55c-7 -3 -19 -9 -35 -16c-4 -10 -6 -21 -6 -32c0 -30 2 -61 7 -93c7 -52 19 -78 36 -78c15 -1 31 8 48 27c15 17 31 33 46 49c3 -3 7 -6 14 -10c0 -1 2 -10 2 -17c0 -9 -12 -26 -37 -51c-21 -21 -37 -35 -48 -42
c-6 -4 -15 -6 -28 -6c-29 0 -51 20 -68 61c-11 30 -19 69 -24 117l-3 69h-15c-18 0 -27 10 -27 31c0 15 8 25 24 32c8 3 16 5 24 7c2 25 7 64 15 116l1 29c-16 -12 -30 -18 -43 -18s-30 22 -30 34c0 11 13 24 39 39l50 30c8 33 16 62 23 85l12 42c7 21 19 31 36 31
c7 0 20 -18 24 -19c-5 -19 -15 -48 -29 -88l-7 -25c2 -2 5 -3 10 -3c-2 0 22 8 73 25s94 25 127 25c17 0 38 0 64 -1c3 -4 5 -9 5 -14s-2 -11 -5 -16z" />
    <glyph glyph-name="AE" unicode="&#xc6;" horiz-adv-x="917" 
d="M556 20c0 -7 -3 -20 -10 -39c-1 0 -4 -5 -12 -5c-28 0 -40 44 -37 131c0 11 -7 46 -7 62c0 15 -3 64 -8 149c-3 0 -19 -2 -47 -5c-32 -4 -54 -6 -66 -7c-11 -1 -28 -5 -51 -14c-16 -49 -36 -120 -59 -215s-38 -152 -45 -171c-3 -3 -8 -5 -13 -5c-14 0 -21 24 -20 71
c7 52 20 112 39 180c15 51 28 89 39 116l4 14h-5c-3 0 -31 -7 -83 -20s-80 -20 -83 -20s-13 -2 -32 -5c-18 -3 -29 -4 -34 -4c-8 0 -38 5 -49 5c-1 1 -5 4 -13 11c-5 5 -7 10 -6 16c4 15 34 25 89 31c49 5 93 13 132 23c48 13 83 21 104 24l75 199c52 127 88 191 109 191
c8 0 25 -4 30 -4c20 -59 33 -247 38 -565c0 -11 3 -35 10 -74s11 -62 11 -70zM481 451c-2 44 -6 112 -13 203c-38 -54 -82 -156 -133 -305l39 3h21h19h24c3 0 12 -2 26 -6c1 0 8 -1 20 -3c-1 1 -1 20 -2 56c0 16 0 33 -1 52zM866 572c-51 -8 -72 -12 -64 -12
c-8 0 -22 -7 -30 -7c2 0 -28 -10 -90 -29c-42 -13 -74 -28 -95 -44c-7 -5 -14 -30 -21 -73c-6 -36 -9 -59 -9 -70l-1 -26h12c16 0 55 15 116 44l93 46l13 -11l-3 -15c0 -13 -28 -36 -83 -68c-49 -28 -87 -46 -113 -55c-7 -3 -19 -9 -35 -16c-4 -10 -6 -21 -6 -32
c0 -30 2 -61 7 -93c7 -52 19 -78 36 -78c15 -1 31 8 48 27c15 17 31 33 46 49c3 -3 7 -6 14 -10c0 -1 2 -10 2 -17c0 -9 -12 -26 -37 -51c-21 -21 -37 -35 -48 -42c-6 -4 -15 -6 -28 -6c-29 0 -51 20 -68 61c-11 30 -19 69 -24 117l-3 69h-15c-18 0 -27 10 -27 31
c0 15 8 25 24 32c8 3 16 5 24 7c2 25 7 64 15 116l1 29c-16 -12 -30 -18 -43 -18s-30 22 -30 34c0 11 13 24 39 39l50 30c8 33 16 62 23 85l12 42c7 21 19 31 36 31c7 0 20 -18 24 -19c-5 -19 -15 -48 -29 -88l-7 -25c2 -2 5 -3 10 -3c-2 0 22 8 73 25s94 25 127 25
c17 0 38 0 64 -1c3 -4 5 -9 5 -14s-2 -11 -5 -16z" />
    <glyph glyph-name="Ccedilla" unicode="&#xc7;" horiz-adv-x="532" 
d="M308 -88c0 -26 -12 -57 -35 -94c-21 -34 -42 -58 -62 -71h-16c0 1 -4 5 -13 14c12 20 24 40 37 60c19 31 28 56 28 76c0 3 -6 14 -18 33c-11 18 -17 29 -17 32c0 15 14 37 37 37c19 0 34 -10 45 -31c9 -17 14 -35 14 -56zM462 186h30c-13 -50 -54 -99 -123 -146
c-66 -45 -125 -67 -177 -67c-12 0 -21 1 -26 4l-9 -8c-99 32 -149 87 -149 164c0 37 20 101 61 194c45 103 95 189 149 259c65 86 125 129 179 129c8 0 20 -11 24 -14v-17c-66 -20 -143 -99 -232 -237c-88 -138 -132 -246 -132 -325c0 -25 12 -48 36 -70
c37 -20 67 -30 90 -30h38c22 0 61 16 116 48c53 31 82 54 87 67s18 30 38 49z" />
    <glyph glyph-name="plusminus" unicode="&#xb1;" horiz-adv-x="403" 
d="M355 291c-2 -5 -4 -9 -7 -14c-3 -7 -8 -11 -14 -11c-7 0 -23 2 -30 2c8 0 -11 -3 -57 -8c-6 -57 -9 -87 -9 -90v-26c1 -15 1 -24 1 -27c0 -7 -11 -25 -12 -32c-8 0 -24 12 -25 20c-9 37 -13 58 -14 62c0 6 1 37 3 92c-7 0 -14 0 -22 1h-15c-7 0 -15 -4 -22 -4
c-5 0 -29 -3 -36 -3c-37 0 -54 11 -51 32c13 15 29 24 48 27c17 2 33 4 50 5c9 2 23 3 40 4c5 0 10 1 17 2c1 28 5 60 10 97s10 55 13 55c7 0 19 1 27 3h6c6 -5 9 -11 9 -17c0 -18 -2 -39 -6 -63c-4 -29 -7 -52 -8 -71c35 -7 76 -9 104 -36zM359 27c0 -11 -15 -22 -46 -32
c-25 -9 -43 -13 -53 -13h-36c-6 0 -13 3 -20 10c-7 -7 -12 -10 -15 -10c-24 0 -56 5 -97 15c-5 7 -12 18 -21 32c15 19 31 29 48 29c5 0 26 -8 33 -9c31 -4 77 -6 136 -6h63c5 -3 8 -9 8 -16z" />
    <glyph glyph-name="less" unicode="&#x3c;" horiz-adv-x="409" 
d="M354 88l-11 7c-11 11 -25 20 -43 29c-15 7 -31 14 -47 20c-37 16 -73 32 -109 49c-47 22 -81 44 -104 66c-1 13 2 24 7 34c50 44 99 77 148 99c13 6 24 11 33 14c13 4 39 11 80 22c9 -11 13 -23 13 -34c0 -3 -1 -6 -2 -8c-12 -9 -29 -16 -51 -19c-13 -1 -32 -8 -58 -20
c-30 -14 -57 -30 -82 -49c-5 -3 -13 -11 -24 -23c32 -23 61 -40 86 -52l98 -39c54 -26 80 -50 77 -73c-1 -13 -7 -18 -11 -23z" />
    <glyph glyph-name="greater" unicode="&#x3e;" horiz-adv-x="388" 
d="M69 423l12 24l44 -14c37 -15 74 -30 110 -46c47 -21 83 -42 106 -63c1 -13 -1 -24 -6 -34c-49 -45 -97 -80 -145 -103c-13 -7 -24 -12 -33 -15c-13 -5 -39 -13 -79 -24c-9 11 -14 22 -14 33c0 3 1 6 2 8c11 10 28 17 50 21c13 1 32 8 58 21c29 15 56 32 80 51
c5 4 13 12 24 24c-33 22 -62 39 -88 50c-33 11 -73 34 -121 67z" />
    <glyph glyph-name="guilsinglright" unicode="&#x203a;" horiz-adv-x="388" 
d="M69 423l12 24l44 -14c37 -15 74 -30 110 -46c47 -21 83 -42 106 -63c1 -13 -1 -24 -6 -34c-49 -45 -97 -80 -145 -103c-13 -7 -24 -12 -33 -15c-13 -5 -39 -13 -79 -24c-9 11 -14 22 -14 33c0 3 1 6 2 8c11 10 28 17 50 21c13 1 32 8 58 21c29 15 56 32 80 51
c5 4 13 12 24 24c-33 22 -62 39 -88 50c-33 11 -73 34 -121 67z" />
    <glyph glyph-name="guilsinglleft" unicode="&#x2039;" horiz-adv-x="409" 
d="M354 88l-11 7c-11 11 -25 20 -43 29c-15 7 -31 14 -47 20c-37 16 -73 32 -109 49c-47 22 -81 44 -104 66c-1 13 2 24 7 34c50 44 99 77 148 99c13 6 24 11 33 14c13 4 39 11 80 22c9 -11 13 -23 13 -34c0 -3 -1 -6 -2 -8c-12 -9 -29 -16 -51 -19c-13 -1 -32 -8 -58 -20
c-30 -14 -57 -30 -82 -49c-5 -3 -13 -11 -24 -23c32 -23 61 -40 86 -52l98 -39c54 -26 80 -50 77 -73c-1 -13 -7 -18 -11 -23z" />
    <glyph glyph-name="Agrave" unicode="&#xc0;" horiz-adv-x="634" 
d="M556 20c0 -7 -3 -20 -10 -39c-1 0 -4 -5 -12 -5c-28 0 -40 44 -37 131c0 11 -7 46 -7 62c0 15 -3 64 -8 149c-3 0 -19 -2 -47 -5c-32 -4 -54 -6 -66 -7c-11 -1 -28 -5 -51 -14c-16 -49 -36 -120 -59 -215s-38 -152 -45 -171c-3 -3 -8 -5 -13 -5c-14 0 -21 24 -20 71
c7 52 20 112 39 180c15 51 28 89 39 116l4 14h-5c-3 0 -31 -7 -83 -20s-80 -20 -83 -20s-13 -2 -32 -5c-18 -3 -29 -4 -34 -4c-8 0 -38 5 -49 5c-1 1 -5 4 -13 11c-5 5 -7 10 -6 16c4 15 34 25 89 31c49 5 93 13 132 23c48 13 83 21 104 24l75 199c52 127 88 191 109 191
c8 0 25 -4 30 -4c20 -59 33 -247 38 -565c0 -11 3 -35 10 -74s11 -62 11 -70zM481 451c-2 44 -6 112 -13 203c-38 -54 -82 -156 -133 -305l39 3h21h19h24c3 0 12 -2 26 -6c1 0 8 -1 20 -3c-1 1 -1 20 -2 56c0 16 0 33 -1 52zM423 851c0 -20 -5 -21 -29 -29c-3 -1 -9 0 -17 4
c-12 5 -18 7 -19 8c-58 18 -98 57 -119 116v33c5 1 27 10 35 10c5 0 8 -2 11 -5c7 -29 25 -55 52 -76c28 -21 57 -41 86 -61z" />
    <glyph glyph-name="Aacute" unicode="&#xc1;" horiz-adv-x="653" 
d="M556 20c0 -7 -3 -20 -10 -39c-1 0 -4 -5 -12 -5c-28 0 -40 44 -37 131c0 11 -7 46 -7 62c0 15 -3 64 -8 149c-3 0 -19 -2 -47 -5c-32 -4 -54 -6 -66 -7c-11 -1 -28 -5 -51 -14c-16 -49 -36 -120 -59 -215s-38 -152 -45 -171c-3 -3 -8 -5 -13 -5c-14 0 -21 24 -20 71
c7 52 20 112 39 180c15 51 28 89 39 116l4 14h-5c-3 0 -31 -7 -83 -20s-80 -20 -83 -20s-13 -2 -32 -5c-18 -3 -29 -4 -34 -4c-8 0 -38 5 -49 5c-1 1 -5 4 -13 11c-5 5 -7 10 -6 16c4 15 34 25 89 31c49 5 93 13 132 23c48 13 83 21 104 24l75 199c52 127 88 191 109 191
c8 0 25 -4 30 -4c20 -59 33 -247 38 -565c0 -11 3 -35 10 -74s11 -62 11 -70zM481 451c-2 44 -6 112 -13 203c-38 -54 -82 -156 -133 -305l39 3h21h19h24c3 0 12 -2 26 -6c1 0 8 -1 20 -3c-1 1 -1 20 -2 56c0 16 0 33 -1 52zM660 1000c-21 -37 -76 -94 -165 -170
c-13 12 -20 22 -20 29s23 32 68 74c50 47 76 72 79 75h26c5 -5 9 -8 12 -8z" />
    <glyph glyph-name="Acircumflex" unicode="&#xc2;" horiz-adv-x="639" 
d="M556 20c0 -7 -3 -20 -10 -39c-1 0 -4 -5 -12 -5c-28 0 -40 44 -37 131c0 11 -7 46 -7 62c0 15 -3 64 -8 149c-3 0 -19 -2 -47 -5c-32 -4 -54 -6 -66 -7c-11 -1 -28 -5 -51 -14c-16 -49 -36 -120 -59 -215s-38 -152 -45 -171c-3 -3 -8 -5 -13 -5c-14 0 -21 24 -20 71
c7 52 20 112 39 180c15 51 28 89 39 116l4 14h-5c-3 0 -31 -7 -83 -20s-80 -20 -83 -20s-13 -2 -32 -5c-18 -3 -29 -4 -34 -4c-8 0 -38 5 -49 5c-1 1 -5 4 -13 11c-5 5 -7 10 -6 16c4 15 34 25 89 31c49 5 93 13 132 23c48 13 83 21 104 24l75 199c52 127 88 191 109 191
c8 0 25 -4 30 -4c20 -59 33 -247 38 -565c0 -11 3 -35 10 -74s11 -62 11 -70zM481 451c-2 44 -6 112 -13 203c-38 -54 -82 -156 -133 -305l39 3h21h19h24c3 0 12 -2 26 -6c1 0 8 -1 20 -3c-1 1 -1 20 -2 56c0 16 0 33 -1 52zM628 893c0 -11 -7 -23 -21 -35
c-13 -11 -25 -17 -35 -17c-19 0 -36 11 -53 33c-7 10 -20 31 -37 64l-51 -43c-29 -23 -46 -35 -51 -35h-14c-3 13 -9 21 -17 25c3 8 8 17 17 28c23 10 47 28 73 53s43 47 50 64c1 0 12 7 20 7l14 -11c3 -22 7 -44 11 -67c11 -40 26 -60 47 -60c7 0 19 11 26 11
c9 0 21 -9 21 -17z" />
    <glyph glyph-name="Atilde" unicode="&#xc3;" horiz-adv-x="647" 
d="M556 20c0 -7 -3 -20 -10 -39c-1 0 -4 -5 -12 -5c-28 0 -40 44 -37 131c0 11 -7 46 -7 62c0 15 -3 64 -8 149c-3 0 -19 -2 -47 -5c-32 -4 -54 -6 -66 -7c-11 -1 -28 -5 -51 -14c-16 -49 -36 -120 -59 -215s-38 -152 -45 -171c-3 -3 -8 -5 -13 -5c-14 0 -21 24 -20 71
c7 52 20 112 39 180c15 51 28 89 39 116l4 14h-5c-3 0 -31 -7 -83 -20s-80 -20 -83 -20s-13 -2 -32 -5c-18 -3 -29 -4 -34 -4c-8 0 -38 5 -49 5c-1 1 -5 4 -13 11c-5 5 -7 10 -6 16c4 15 34 25 89 31c49 5 93 13 132 23c48 13 83 21 104 24l75 199c52 127 88 191 109 191
c8 0 25 -4 30 -4c20 -59 33 -247 38 -565c0 -11 3 -35 10 -74s11 -62 11 -70zM481 451c-2 44 -6 112 -13 203c-38 -54 -82 -156 -133 -305l39 3h21h19h24c3 0 12 -2 26 -6c1 0 8 -1 20 -3c-1 1 -1 20 -2 56c0 16 0 33 -1 52zM623 894c0 -11 -16 -26 -48 -45s-54 -28 -67 -28
c-21 0 -45 21 -74 62s-46 62 -52 62c-8 0 -19 -6 -32 -18c-17 -15 -28 -23 -31 -25c-13 6 -19 13 -19 20c0 13 11 29 32 46c22 18 40 27 55 27s38 -21 69 -63c31 -41 52 -62 61 -62c50 21 79 32 88 32c6 0 12 -3 18 -8z" />
    <glyph glyph-name="Adieresis" unicode="&#xc4;" horiz-adv-x="636" 
d="M556 20c0 -7 -3 -20 -10 -39c-1 0 -4 -5 -12 -5c-28 0 -40 44 -37 131c0 11 -7 46 -7 62c0 15 -3 64 -8 149c-3 0 -19 -2 -47 -5c-32 -4 -54 -6 -66 -7c-11 -1 -28 -5 -51 -14c-16 -49 -36 -120 -59 -215s-38 -152 -45 -171c-3 -3 -8 -5 -13 -5c-14 0 -21 24 -20 71
c7 52 20 112 39 180c15 51 28 89 39 116l4 14h-5c-3 0 -31 -7 -83 -20s-80 -20 -83 -20s-13 -2 -32 -5c-18 -3 -29 -4 -34 -4c-8 0 -38 5 -49 5c-1 1 -5 4 -13 11c-5 5 -7 10 -6 16c4 15 34 25 89 31c49 5 93 13 132 23c48 13 83 21 104 24l75 199c52 127 88 191 109 191
c8 0 25 -4 30 -4c20 -59 33 -247 38 -565c0 -11 3 -35 10 -74s11 -62 11 -70zM481 451c-2 44 -6 112 -13 203c-38 -54 -82 -156 -133 -305l39 3h21h19h24c3 0 12 -2 26 -6c1 0 8 -1 20 -3c-1 1 -1 20 -2 56c0 16 0 33 -1 52zM584 888c0 -5 -3 -12 -10 -21
c-10 -14 -15 -22 -16 -24c-25 2 -37 9 -37 21c0 3 2 10 5 22c13 12 45 13 53 17c3 -5 5 -10 5 -15zM451 890c-47 -25 -77 -38 -90 -38c-7 0 -15 11 -20 8l-2 38c23 14 43 21 62 21c24 0 41 -10 50 -29z" />
    <glyph glyph-name="Egrave" unicode="&#xc8;" 
d="M443 588c-51 -8 -72 -12 -64 -12c-8 0 -22 -7 -30 -7c2 0 -28 -10 -90 -29c-42 -13 -74 -28 -95 -44c-7 -5 -14 -30 -21 -73c-6 -36 -9 -59 -9 -70l-1 -26h12c16 0 55 15 116 44l93 46l13 -11l-3 -15c0 -13 -28 -36 -83 -68c-49 -28 -87 -46 -113 -55
c-7 -3 -19 -9 -35 -16c-4 -10 -6 -21 -6 -32c0 -30 2 -61 7 -93c7 -52 19 -78 36 -78c15 -1 31 8 48 27c15 17 31 33 46 49c3 -3 7 -6 14 -10c0 -1 2 -10 2 -17c0 -9 -12 -26 -37 -51c-21 -21 -37 -35 -48 -42c-6 -4 -15 -6 -28 -6c-29 0 -51 20 -68 61
c-11 30 -19 69 -24 117l-3 69h-15c-18 0 -27 10 -27 31c0 15 8 25 24 32c8 3 16 5 24 7c2 25 7 64 15 116l1 29c-16 -12 -30 -18 -43 -18s-30 22 -30 34c0 11 13 24 39 39l50 30c8 33 16 62 23 85l12 42c7 21 19 31 36 31c7 0 20 -18 24 -19c-5 -19 -15 -48 -29 -88l-7 -25
c2 -2 5 -3 10 -3c-2 0 22 8 73 25s94 25 127 25c17 0 38 0 64 -1c3 -4 5 -9 5 -14s-2 -11 -5 -16zM290 827c0 -20 -5 -21 -29 -29c-3 -1 -9 0 -17 4c-12 5 -18 7 -19 8c-58 18 -98 57 -119 116v33c5 1 27 10 35 10c5 0 8 -2 11 -5c7 -29 25 -55 52 -76c28 -21 57 -41 86 -61
z" />
    <glyph glyph-name="Eacute" unicode="&#xc9;" 
d="M443 588c-51 -8 -72 -12 -64 -12c-8 0 -22 -7 -30 -7c2 0 -28 -10 -90 -29c-42 -13 -74 -28 -95 -44c-7 -5 -14 -30 -21 -73c-6 -36 -9 -59 -9 -70l-1 -26h12c16 0 55 15 116 44l93 46l13 -11l-3 -15c0 -13 -28 -36 -83 -68c-49 -28 -87 -46 -113 -55
c-7 -3 -19 -9 -35 -16c-4 -10 -6 -21 -6 -32c0 -30 2 -61 7 -93c7 -52 19 -78 36 -78c15 -1 31 8 48 27c15 17 31 33 46 49c3 -3 7 -6 14 -10c0 -1 2 -10 2 -17c0 -9 -12 -26 -37 -51c-21 -21 -37 -35 -48 -42c-6 -4 -15 -6 -28 -6c-29 0 -51 20 -68 61
c-11 30 -19 69 -24 117l-3 69h-15c-18 0 -27 10 -27 31c0 15 8 25 24 32c8 3 16 5 24 7c2 25 7 64 15 116l1 29c-16 -12 -30 -18 -43 -18s-30 22 -30 34c0 11 13 24 39 39l50 30c8 33 16 62 23 85l12 42c7 21 19 31 36 31c7 0 20 -18 24 -19c-5 -19 -15 -48 -29 -88l-7 -25
c2 -2 5 -3 10 -3c-2 0 22 8 73 25s94 25 127 25c17 0 38 0 64 -1c3 -4 5 -9 5 -14s-2 -11 -5 -16zM453 919c-21 -37 -76 -94 -165 -170c-13 12 -20 22 -20 29s23 32 68 74c50 47 76 72 79 75h26c5 -5 9 -8 12 -8z" />
    <glyph glyph-name="Ecircumflex" unicode="&#xca;" 
d="M443 588c-51 -8 -72 -12 -64 -12c-8 0 -22 -7 -30 -7c2 0 -28 -10 -90 -29c-42 -13 -74 -28 -95 -44c-7 -5 -14 -30 -21 -73c-6 -36 -9 -59 -9 -70l-1 -26h12c16 0 55 15 116 44l93 46l13 -11l-3 -15c0 -13 -28 -36 -83 -68c-49 -28 -87 -46 -113 -55
c-7 -3 -19 -9 -35 -16c-4 -10 -6 -21 -6 -32c0 -30 2 -61 7 -93c7 -52 19 -78 36 -78c15 -1 31 8 48 27c15 17 31 33 46 49c3 -3 7 -6 14 -10c0 -1 2 -10 2 -17c0 -9 -12 -26 -37 -51c-21 -21 -37 -35 -48 -42c-6 -4 -15 -6 -28 -6c-29 0 -51 20 -68 61
c-11 30 -19 69 -24 117l-3 69h-15c-18 0 -27 10 -27 31c0 15 8 25 24 32c8 3 16 5 24 7c2 25 7 64 15 116l1 29c-16 -12 -30 -18 -43 -18s-30 22 -30 34c0 11 13 24 39 39l50 30c8 33 16 62 23 85l12 42c7 21 19 31 36 31c7 0 20 -18 24 -19c-5 -19 -15 -48 -29 -88l-7 -25
c2 -2 5 -3 10 -3c-2 0 22 8 73 25s94 25 127 25c17 0 38 0 64 -1c3 -4 5 -9 5 -14s-2 -11 -5 -16zM431 835c0 -11 -7 -23 -21 -35c-13 -11 -25 -17 -35 -17c-19 0 -36 11 -53 33c-7 10 -20 31 -37 64l-51 -43c-29 -23 -46 -35 -51 -35h-14c-3 13 -9 21 -17 25
c3 8 8 17 17 28c23 10 47 28 73 53s43 47 50 64c1 0 12 7 20 7l14 -11c3 -22 7 -44 11 -67c11 -40 26 -60 47 -60c7 0 19 11 26 11c9 0 21 -9 21 -17z" />
    <glyph glyph-name="Edieresis" unicode="&#xcb;" 
d="M443 588c-51 -8 -72 -12 -64 -12c-8 0 -22 -7 -30 -7c2 0 -28 -10 -90 -29c-42 -13 -74 -28 -95 -44c-7 -5 -14 -30 -21 -73c-6 -36 -9 -59 -9 -70l-1 -26h12c16 0 55 15 116 44l93 46l13 -11l-3 -15c0 -13 -28 -36 -83 -68c-49 -28 -87 -46 -113 -55
c-7 -3 -19 -9 -35 -16c-4 -10 -6 -21 -6 -32c0 -30 2 -61 7 -93c7 -52 19 -78 36 -78c15 -1 31 8 48 27c15 17 31 33 46 49c3 -3 7 -6 14 -10c0 -1 2 -10 2 -17c0 -9 -12 -26 -37 -51c-21 -21 -37 -35 -48 -42c-6 -4 -15 -6 -28 -6c-29 0 -51 20 -68 61
c-11 30 -19 69 -24 117l-3 69h-15c-18 0 -27 10 -27 31c0 15 8 25 24 32c8 3 16 5 24 7c2 25 7 64 15 116l1 29c-16 -12 -30 -18 -43 -18s-30 22 -30 34c0 11 13 24 39 39l50 30c8 33 16 62 23 85l12 42c7 21 19 31 36 31c7 0 20 -18 24 -19c-5 -19 -15 -48 -29 -88l-7 -25
c2 -2 5 -3 10 -3c-2 0 22 8 73 25s94 25 127 25c17 0 38 0 64 -1c3 -4 5 -9 5 -14s-2 -11 -5 -16zM435 873c0 -6 -4 -14 -11 -24c-11 -16 -17 -25 -18 -27c-25 2 -38 10 -38 24c0 3 1 11 4 24c15 13 49 15 57 19c4 -5 6 -10 6 -16zM292 875c-50 -28 -82 -42 -95 -42
c-8 0 -17 10 -21 9l-2 41c24 16 46 24 65 24c26 0 44 -11 53 -32z" />
    <glyph glyph-name="Igrave" unicode="&#xcc;" horiz-adv-x="231" 
d="M118 640h24c5 -3 8 -10 8 -22c0 -9 -2 -24 -6 -43c-4 -21 -6 -34 -6 -38c-9 -72 -19 -180 -32 -325c-5 -85 -8 -136 -7 -153c1 -8 12 -37 12 -44v-29c-3 -2 -8 -5 -13 -9c-15 10 -27 32 -36 66c-7 29 -11 59 -11 88c25 339 47 509 67 509zM197 802c0 -20 -5 -21 -29 -29
c-3 -1 -9 0 -17 4c-12 5 -18 7 -19 8c-58 18 -98 57 -119 116v33c5 1 27 10 35 10c5 0 8 -2 11 -5c7 -29 25 -55 52 -76c28 -21 57 -41 86 -61z" />
    <glyph glyph-name="Iacute" unicode="&#xcd;" horiz-adv-x="231" 
d="M118 640h24c5 -3 8 -10 8 -22c0 -9 -2 -24 -6 -43c-4 -21 -6 -34 -6 -38c-9 -72 -19 -180 -32 -325c-5 -85 -8 -136 -7 -153c1 -8 12 -37 12 -44v-29c-3 -2 -8 -5 -13 -9c-15 10 -27 32 -36 66c-7 29 -11 59 -11 88c25 339 47 509 67 509zM269 924
c-21 -37 -76 -94 -165 -170c-13 12 -20 22 -20 29s23 32 68 74c50 47 76 72 79 75h26c5 -5 9 -8 12 -8z" />
    <glyph glyph-name="Icircumflex" unicode="&#xce;" horiz-adv-x="246" 
d="M118 640h24c5 -3 8 -10 8 -22c0 -9 -2 -24 -6 -43c-4 -21 -6 -34 -6 -38c-9 -72 -19 -180 -32 -325c-5 -85 -8 -136 -7 -153c1 -8 12 -37 12 -44v-29c-3 -2 -8 -5 -13 -9c-15 10 -27 32 -36 66c-7 29 -11 59 -11 88c25 339 47 509 67 509zM298 821c0 -11 -7 -23 -21 -35
c-13 -11 -25 -17 -35 -17c-19 0 -36 11 -53 33c-7 10 -20 31 -37 64l-51 -43c-29 -23 -46 -35 -51 -35h-14c-3 13 -9 21 -17 25c3 8 8 17 17 28c23 10 47 28 73 53s43 47 50 64c1 0 12 7 20 7l14 -11c3 -22 7 -44 11 -67c11 -40 26 -60 47 -60c7 0 19 11 26 11
c9 0 21 -9 21 -17z" />
    <glyph glyph-name="Idieresis" unicode="&#xcf;" horiz-adv-x="236" 
d="M118 640h24c5 -3 8 -10 8 -22c0 -9 -2 -24 -6 -43c-4 -21 -6 -34 -6 -38c-9 -72 -19 -180 -32 -325c-5 -85 -8 -136 -7 -153c1 -8 12 -37 12 -44v-29c-3 -2 -8 -5 -13 -9c-15 10 -27 32 -36 66c-7 29 -11 59 -11 88c25 339 47 509 67 509zM283 842c0 -5 -3 -13 -9 -22
c-11 -15 -16 -23 -17 -24c-24 1 -36 9 -36 22c0 3 2 10 5 22c12 12 45 14 52 17c3 -5 5 -10 5 -15zM152 844c-47 -26 -76 -39 -89 -39c-7 0 -15 10 -19 9l-3 38c23 15 43 22 61 22c24 0 41 -10 50 -30z" />
    <glyph glyph-name="Eth" unicode="&#xd0;" horiz-adv-x="556" 
d="M493 407c0 -76 -32 -150 -96 -223c-61 -68 -141 -126 -242 -175c0 -7 -3 -20 -10 -39l-17 -7c-8 0 -4 4 -12 4c-9 0 -16 5 -21 16c-3 6 -5 12 -5 17c0 13 10 109 29 288c-23 1 -51 6 -86 15c-5 7 -12 18 -21 32c15 19 31 29 48 29c5 0 26 -8 33 -9c9 -1 20 -3 33 -4
c15 142 22 214 21 215s-11 5 -31 13c-11 5 -17 10 -17 17l2 21c2 7 22 13 60 20c3 5 7 20 12 44c7 35 22 31 47 30c15 -1 23 -4 22 -8c-6 -18 -13 -42 -21 -72c37 -1 75 -7 114 -20c47 -15 83 -36 110 -63c32 -33 48 -80 48 -141zM300 333c0 -11 -15 -22 -46 -32
c-25 -9 -43 -13 -53 -13h-31c-11 -111 -17 -169 -17 -173l-2 -59c67 27 131 72 192 135c72 75 108 146 107 215c-1 104 -66 159 -194 165c-29 1 -48 1 -56 -1c-4 -43 -12 -117 -23 -221h52h63c5 -3 8 -9 8 -16z" />
    <glyph glyph-name="Ntilde" unicode="&#xd1;" horiz-adv-x="502" 
d="M429 512c0 -3 -2 -11 -7 -24c-4 -12 -6 -21 -7 -26l-30 -240c-15 -103 -33 -178 -56 -225c-16 -4 -29 0 -39 11c-36 43 -71 107 -104 192c-32 83 -52 158 -60 224c-30 -160 -47 -287 -50 -382c-1 -24 -9 -40 -25 -49c-17 19 -24 41 -22 66l63 490l2 70c4 3 12 14 19 14
c11 0 27 -11 49 -33c1 -31 4 -84 11 -159c7 -52 14 -91 22 -117c33 -105 69 -182 108 -233c10 11 17 25 21 41c3 19 22 156 56 411c13 10 25 12 36 5c9 -11 13 -23 13 -36zM468 822c0 -11 -17 -27 -50 -46s-57 -29 -70 -29c-21 0 -47 21 -77 63c-30 43 -48 64 -54 64
c-8 0 -19 -6 -33 -18c-18 -15 -29 -23 -32 -25c-13 5 -20 12 -20 20c0 13 11 29 34 47s42 27 57 27c16 0 40 -21 72 -64c32 -42 53 -63 63 -63c52 22 83 33 92 33c6 0 12 -3 18 -9z" />
    <glyph glyph-name="Ograve" unicode="&#xd2;" horiz-adv-x="389" 
d="M322 408c0 -29 -3 -68 -10 -117c-7 -53 -15 -88 -22 -104c-28 -60 -45 -95 -50 -104c-38 -65 -72 -98 -102 -98c-35 0 -63 33 -84 99c-15 47 -22 87 -22 118c0 45 10 109 31 191c5 19 13 48 25 85c48 105 89 157 123 157c30 0 45 -11 45 -32c0 -4 -1 -17 -2 -38
c15 -4 30 -18 44 -43c4 -7 9 -25 15 -54s9 -49 9 -60zM228 574c2 5 1 10 -4 14c-6 0 -10 -4 -13 -11c7 -2 12 -3 17 -3zM279 393c0 29 -4 55 -11 80c-12 39 -31 59 -57 59c-41 0 -75 -52 -102 -157c-19 -74 -28 -133 -28 -177c0 -19 5 -44 14 -77c12 -45 28 -68 47 -68
s43 32 73 95c25 53 40 89 44 108c13 76 20 122 20 137zM261 773c0 -20 -5 -21 -29 -29c-3 -1 -9 0 -17 4c-12 5 -18 7 -19 8c-58 18 -98 57 -119 116v33c5 1 27 10 35 10c5 0 8 -2 11 -5c7 -29 25 -55 52 -76c28 -21 57 -41 86 -61z" />
    <glyph glyph-name="Oacute" unicode="&#xd3;" horiz-adv-x="411" 
d="M322 408c0 -29 -3 -68 -10 -117c-7 -53 -15 -88 -22 -104c-28 -60 -45 -95 -50 -104c-38 -65 -72 -98 -102 -98c-35 0 -63 33 -84 99c-15 47 -22 87 -22 118c0 45 10 109 31 191c5 19 13 48 25 85c48 105 89 157 123 157c30 0 45 -11 45 -32c0 -4 -1 -17 -2 -38
c15 -4 30 -18 44 -43c4 -7 9 -25 15 -54s9 -49 9 -60zM228 574c2 5 1 10 -4 14c-6 0 -10 -4 -13 -11c7 -2 12 -3 17 -3zM279 393c0 29 -4 55 -11 80c-12 39 -31 59 -57 59c-41 0 -75 -52 -102 -157c-19 -74 -28 -133 -28 -177c0 -19 5 -44 14 -77c12 -45 28 -68 47 -68
s43 32 73 95c25 53 40 89 44 108c13 76 20 122 20 137zM369 909c-21 -37 -76 -94 -165 -170c-13 12 -20 22 -20 29s23 32 68 74c50 47 76 72 79 75h26c5 -5 9 -8 12 -8z" />
    <glyph glyph-name="Ocircumflex" unicode="&#xd4;" horiz-adv-x="412" 
d="M322 408c0 -29 -3 -68 -10 -117c-7 -53 -15 -88 -22 -104c-28 -60 -45 -95 -50 -104c-38 -65 -72 -98 -102 -98c-35 0 -63 33 -84 99c-15 47 -22 87 -22 118c0 45 10 109 31 191c5 19 13 48 25 85c48 105 89 157 123 157c30 0 45 -11 45 -32c0 -4 -1 -17 -2 -38
c15 -4 30 -18 44 -43c4 -7 9 -25 15 -54s9 -49 9 -60zM228 574c2 5 1 10 -4 14c-6 0 -10 -4 -13 -11c7 -2 12 -3 17 -3zM279 393c0 29 -4 55 -11 80c-12 39 -31 59 -57 59c-41 0 -75 -52 -102 -157c-19 -74 -28 -133 -28 -177c0 -19 5 -44 14 -77c12 -45 28 -68 47 -68
s43 32 73 95c25 53 40 89 44 108c13 76 20 122 20 137zM380 779c0 -11 -7 -22 -20 -33s-25 -16 -34 -16c-18 0 -35 10 -52 31c-7 9 -18 29 -35 60l-50 -40c-28 -22 -44 -33 -49 -33h-14c-3 12 -8 20 -16 23c3 8 8 17 16 26c22 9 46 26 71 49c25 24 41 44 48 61
c1 0 12 6 20 6l13 -10c3 -21 7 -42 11 -63c10 -37 25 -56 45 -56c7 0 19 11 26 11c8 0 20 -9 20 -16z" />
    <glyph glyph-name="Otilde" unicode="&#xd5;" horiz-adv-x="398" 
d="M322 408c0 -29 -3 -68 -10 -117c-7 -53 -15 -88 -22 -104c-28 -60 -45 -95 -50 -104c-38 -65 -72 -98 -102 -98c-35 0 -63 33 -84 99c-15 47 -22 87 -22 118c0 45 10 109 31 191c5 19 13 48 25 85c48 105 89 157 123 157c30 0 45 -11 45 -32c0 -4 -1 -17 -2 -38
c15 -4 30 -18 44 -43c4 -7 9 -25 15 -54s9 -49 9 -60zM228 574c2 5 1 10 -4 14c-6 0 -10 -4 -13 -11c7 -2 12 -3 17 -3zM279 393c0 29 -4 55 -11 80c-12 39 -31 59 -57 59c-41 0 -75 -52 -102 -157c-19 -74 -28 -133 -28 -177c0 -19 5 -44 14 -77c12 -45 28 -68 47 -68
s43 32 73 95c25 53 40 89 44 108c13 76 20 122 20 137zM411 813c0 -11 -16 -26 -47 -45s-53 -28 -66 -28c-20 0 -44 20 -73 61c-28 41 -45 62 -51 62c-7 0 -18 -6 -31 -17c-17 -15 -28 -23 -31 -25c-13 5 -19 12 -19 19c0 13 11 29 32 46c22 17 40 26 54 26
c15 0 38 -21 68 -62c31 -41 51 -61 60 -61c49 21 78 32 87 32c6 0 12 -3 17 -8z" />
    <glyph glyph-name="Odieresis" unicode="&#xd6;" horiz-adv-x="394" 
d="M322 408c0 -29 -3 -68 -10 -117c-7 -53 -15 -88 -22 -104c-28 -60 -45 -95 -50 -104c-38 -65 -72 -98 -102 -98c-35 0 -63 33 -84 99c-15 47 -22 87 -22 118c0 45 10 109 31 191c5 19 13 48 25 85c48 105 89 157 123 157c30 0 45 -11 45 -32c0 -4 -1 -17 -2 -38
c15 -4 30 -18 44 -43c4 -7 9 -25 15 -54s9 -49 9 -60zM228 574c2 5 1 10 -4 14c-6 0 -10 -4 -13 -11c7 -2 12 -3 17 -3zM279 393c0 29 -4 55 -11 80c-12 39 -31 59 -57 59c-41 0 -75 -52 -102 -157c-19 -74 -28 -133 -28 -177c0 -19 5 -44 14 -77c12 -45 28 -68 47 -68
s43 32 73 95c25 53 40 89 44 108c13 76 20 122 20 137zM358 811c0 -5 -3 -13 -9 -22c-11 -15 -16 -24 -17 -26c-24 2 -36 10 -36 23c0 3 2 10 5 22c12 13 45 15 52 19c3 -5 5 -10 5 -16zM227 813c-47 -27 -76 -40 -89 -40c-7 0 -15 10 -19 9l-3 39c23 15 43 22 61 22
c24 0 41 -10 50 -30z" />
    <glyph glyph-name="multiply" unicode="&#xd7;" horiz-adv-x="428" 
d="M368 21v-12l-10 -5c-35 15 -81 53 -138 113c-4 10 -10 13 -19 8l-91 -104c-21 1 -32 11 -32 30c0 3 16 25 47 66c32 42 47 66 46 71c-1 4 -18 31 -51 82l-53 110c9 13 19 20 31 20c3 0 5 0 7 -1c5 -1 22 -29 51 -83c19 -36 36 -62 53 -79c4 5 23 33 56 86
c29 49 48 73 55 73c4 0 16 2 23 2c3 -1 6 -3 8 -6v-25l-104 -175c4 -7 9 -17 15 -30l27 -35c5 -9 14 -22 26 -40c4 -5 13 -14 26 -28c18 -23 27 -36 27 -38z" />
    <glyph glyph-name="Oslash" unicode="&#xd8;" horiz-adv-x="522" 
d="M398 416c0 -29 -3 -68 -10 -117c-7 -53 -15 -88 -22 -104c-28 -60 -45 -95 -50 -104c-38 -65 -72 -98 -102 -98c-35 0 -63 33 -84 99c-15 47 -22 87 -22 118c0 45 10 109 31 191c5 19 13 48 25 85c48 105 89 157 123 157c30 0 45 -11 45 -32c0 -4 -1 -17 -2 -38
c15 -4 30 -18 44 -43c4 -7 9 -25 15 -54s9 -49 9 -60zM304 582c2 5 1 10 -4 14c-6 0 -10 -4 -13 -11c7 -2 12 -3 17 -3zM355 401c0 29 -4 55 -11 80c-12 39 -31 59 -57 59c-41 0 -75 -52 -102 -157c-19 -74 -28 -133 -28 -177c0 -19 5 -44 14 -77c12 -45 28 -68 47 -68
s43 32 73 95c25 53 40 89 44 108c13 76 20 122 20 137zM519 781c0 -1 -40 -74 -120 -219c-86 -157 -139 -255 -158 -294c-54 -107 -117 -241 -190 -400c-13 5 -21 11 -24 16c-2 3 -3 10 -3 20c0 24 17 71 50 142l68 138c51 109 109 224 174 346c95 180 153 270 172 270h20
c7 -7 11 -14 11 -19z" />
    <glyph glyph-name="Ugrave" unicode="&#xd9;" horiz-adv-x="479" 
d="M432 -68v-35c-3 0 -7 -5 -16 -5c-19 0 -43 47 -70 141c-23 79 -36 141 -41 187l-69 -89c-47 -57 -79 -85 -98 -85h-14c-43 0 -73 41 -90 124c-8 41 -12 86 -12 135c0 16 4 61 13 135c11 90 21 138 31 143c20 0 32 -4 35 -11c0 -45 -2 -80 -6 -107c-4 -23 -8 -47 -13 -70
c-9 -65 -11 -122 -6 -169c2 -23 9 -48 20 -74c13 -30 25 -45 37 -45c19 0 49 23 88 68c39 46 64 84 73 113c3 11 7 46 11 105c5 84 9 138 11 162c4 1 9 5 16 10c3 -4 9 -6 12 -9c5 0 8 1 11 4c2 -1 6 -5 12 -12l-4 -46c0 -3 -2 -26 -6 -68s-6 -65 -6 -69
c0 -75 7 -148 21 -219c9 -47 22 -96 39 -146c14 -41 21 -64 21 -68zM246 770c0 -20 -5 -21 -29 -29c-3 -1 -9 0 -17 4c-12 5 -18 7 -19 8c-58 18 -98 57 -119 116v33c5 1 27 10 35 10c5 0 8 -2 11 -5c7 -29 25 -55 52 -76c28 -21 57 -41 86 -61z" />
    <glyph glyph-name="Uacute" unicode="&#xda;" horiz-adv-x="475" 
d="M432 -68v-35c-3 0 -7 -5 -16 -5c-19 0 -43 47 -70 141c-23 79 -36 141 -41 187l-69 -89c-47 -57 -79 -85 -98 -85h-14c-43 0 -73 41 -90 124c-8 41 -12 86 -12 135c0 16 4 61 13 135c11 90 21 138 31 143c20 0 32 -4 35 -11c0 -45 -2 -80 -6 -107c-4 -23 -8 -47 -13 -70
c-9 -65 -11 -122 -6 -169c2 -23 9 -48 20 -74c13 -30 25 -45 37 -45c19 0 49 23 88 68c39 46 64 84 73 113c3 11 7 46 11 105c5 84 9 138 11 162c4 1 9 5 16 10c3 -4 9 -6 12 -9c5 0 8 1 11 4c2 -1 6 -5 12 -12l-4 -46c0 -3 -2 -26 -6 -68s-6 -65 -6 -69
c0 -75 7 -148 21 -219c9 -47 22 -96 39 -146c14 -41 21 -64 21 -68zM376 900c-21 -37 -76 -94 -165 -170c-13 12 -20 22 -20 29s23 32 68 74c50 47 76 72 79 75h26c5 -5 9 -8 12 -8z" />
    <glyph glyph-name="Ucircumflex" unicode="&#xdb;" horiz-adv-x="478" 
d="M432 -68v-35c-3 0 -7 -5 -16 -5c-19 0 -43 47 -70 141c-23 79 -36 141 -41 187l-69 -89c-47 -57 -79 -85 -98 -85h-14c-43 0 -73 41 -90 124c-8 41 -12 86 -12 135c0 16 4 61 13 135c11 90 21 138 31 143c20 0 32 -4 35 -11c0 -45 -2 -80 -6 -107c-4 -23 -8 -47 -13 -70
c-9 -65 -11 -122 -6 -169c2 -23 9 -48 20 -74c13 -30 25 -45 37 -45c19 0 49 23 88 68c39 46 64 84 73 113c3 11 7 46 11 105c5 84 9 138 11 162c4 1 9 5 16 10c3 -4 9 -6 12 -9c5 0 8 1 11 4c2 -1 6 -5 12 -12l-4 -46c0 -3 -2 -26 -6 -68s-6 -65 -6 -69
c0 -75 7 -148 21 -219c9 -47 22 -96 39 -146c14 -41 21 -64 21 -68zM368 752c0 -11 -7 -21 -20 -32c-13 -10 -24 -15 -33 -15c-17 0 -34 10 -50 29c-7 9 -18 29 -35 58l-48 -39c-28 -21 -44 -31 -48 -31h-14c-3 11 -8 19 -16 22c3 7 8 16 16 26c22 9 45 24 69 47
c25 23 41 43 48 58c1 0 11 7 19 7l13 -10c3 -20 7 -40 10 -61c10 -36 25 -54 45 -54c7 0 19 10 24 10c9 0 20 -8 20 -15z" />
    <glyph glyph-name="Udieresis" unicode="&#xdc;" horiz-adv-x="480" 
d="M432 -68v-35c-3 0 -7 -5 -16 -5c-19 0 -43 47 -70 141c-23 79 -36 141 -41 187l-69 -89c-47 -57 -79 -85 -98 -85h-14c-43 0 -73 41 -90 124c-8 41 -12 86 -12 135c0 16 4 61 13 135c11 90 21 138 31 143c20 0 32 -4 35 -11c0 -45 -2 -80 -6 -107c-4 -23 -8 -47 -13 -70
c-9 -65 -11 -122 -6 -169c2 -23 9 -48 20 -74c13 -30 25 -45 37 -45c19 0 49 23 88 68c39 46 64 84 73 113c3 11 7 46 11 105c5 84 9 138 11 162c4 1 9 5 16 10c3 -4 9 -6 12 -9c5 0 8 1 11 4c2 -1 6 -5 12 -12l-4 -46c0 -3 -2 -26 -6 -68s-6 -65 -6 -69
c0 -75 7 -148 21 -219c9 -47 22 -96 39 -146c14 -41 21 -64 21 -68zM366 774c0 -5 -4 -12 -11 -21c-10 -14 -16 -22 -17 -24c-25 2 -37 9 -37 21c0 3 1 10 4 22c15 12 47 13 55 17c4 -5 6 -10 6 -15zM228 776c-48 -25 -79 -38 -92 -38c-7 0 -16 11 -20 8l-2 38
c23 14 44 21 63 21c25 0 42 -10 51 -29z" />
    <glyph glyph-name="Yacute" unicode="&#xdd;" horiz-adv-x="431" 
d="M378 589l-23 -11c-9 -4 -15 -10 -20 -19l-57 -88c-26 -44 -39 -74 -39 -90c0 -1 2 -19 6 -53c5 -33 7 -57 7 -72l6 -194c0 -25 2 -61 7 -109c3 -11 8 -31 15 -59c7 -24 10 -37 10 -40c0 -7 -5 -16 -5 -21c-7 4 -16 11 -27 20c-23 53 -37 119 -41 200l-9 211
c-2 20 -5 42 -9 66c-3 16 -3 37 -12 46c-39 38 -73 79 -100 124c-17 29 -38 72 -64 130v16c11 5 20 8 27 8s27 -31 62 -93c38 -68 65 -109 81 -123c13 7 38 40 75 101c32 55 61 82 87 82h15c7 -13 10 -20 10 -21c0 -3 -1 -7 -2 -11zM365 913c-21 -37 -76 -94 -165 -170
c-13 12 -20 22 -20 29s23 32 68 74c50 47 76 72 79 75h26c5 -5 9 -8 12 -8z" />
    <glyph glyph-name="Thorn" unicode="&#xde;" horiz-adv-x="316" 
d="M287 266c0 -37 -26 -73 -77 -110c-35 -25 -75 -47 -122 -65c-6 -14 -9 -35 -9 -63c0 -11 0 -27 1 -50s2 -39 2 -50c0 -38 -6 -64 -18 -78c-9 7 -20 18 -34 32c-5 31 -8 49 -8 52c0 43 6 150 19 319c11 166 21 288 30 367c7 3 16 5 28 5c19 0 29 -12 29 -35
c0 -3 -3 -12 -8 -26c-5 -13 -7 -23 -8 -30c-10 -59 -15 -97 -15 -113v-83c9 -3 23 -4 43 -4c3 0 8 0 15 1h16c36 0 62 -4 79 -11c25 -10 37 -29 37 -58zM229 255c0 5 -2 10 -5 13c-25 6 -43 9 -54 9c-5 0 -30 -5 -77 -14c0 11 -4 -31 -4 -100c19 5 46 17 81 38
c39 23 59 41 59 54z" />
    <glyph glyph-name="agrave" unicode="&#xe0;" horiz-adv-x="392" 
d="M381 161c0 -21 -13 -43 -38 -66s-44 -35 -59 -35c-17 0 -34 14 -51 41l-49 -80c-25 -36 -50 -59 -76 -70c0 1 -5 2 -14 3c-1 0 -8 8 -9 5c-26 13 -39 41 -39 83c0 41 12 90 36 148c20 49 41 87 62 114c7 9 17 16 28 21c21 9 43 14 64 14c35 0 52 -30 52 -91
c0 -3 -3 -14 -8 -34c-5 -19 -8 -31 -8 -35c0 -6 3 -15 9 -26c7 -13 13 -20 19 -20c9 0 18 4 25 12c11 12 24 21 37 28h14c3 -3 5 -7 5 -12zM242 246c1 15 1 26 -1 31c-1 1 -4 4 -11 9c-40 -11 -72 -44 -97 -97c-21 -43 -31 -84 -31 -123c0 -25 3 -42 10 -50
c29 19 51 48 66 85l30 86c11 19 23 38 34 59zM206 503c0 -20 -5 -21 -29 -29c-3 -1 -9 0 -17 4c-12 5 -18 7 -19 8c-58 18 -98 57 -119 116v33c5 1 27 10 35 10c5 0 8 -2 11 -5c7 -29 25 -55 52 -76c28 -21 57 -41 86 -61z" />
    <glyph glyph-name="aacute" unicode="&#xe1;" horiz-adv-x="406" 
d="M381 161c0 -21 -13 -43 -38 -66s-44 -35 -59 -35c-17 0 -34 14 -51 41l-49 -80c-25 -36 -50 -59 -76 -70c0 1 -5 2 -14 3c-1 0 -8 8 -9 5c-26 13 -39 41 -39 83c0 41 12 90 36 148c20 49 41 87 62 114c7 9 17 16 28 21c21 9 43 14 64 14c35 0 52 -30 52 -91
c0 -3 -3 -14 -8 -34c-5 -19 -8 -31 -8 -35c0 -6 3 -15 9 -26c7 -13 13 -20 19 -20c9 0 18 4 25 12c11 12 24 21 37 28h14c3 -3 5 -7 5 -12zM242 246c1 15 1 26 -1 31c-1 1 -4 4 -11 9c-40 -11 -72 -44 -97 -97c-21 -43 -31 -84 -31 -123c0 -25 3 -42 10 -50
c29 19 51 48 66 85l30 86c11 19 23 38 34 59zM366 633c-21 -37 -76 -94 -165 -170c-13 12 -20 22 -20 29s23 32 68 74c50 47 76 72 79 75h26c5 -5 9 -8 12 -8z" />
    <glyph glyph-name="acircumflex" unicode="&#xe2;" horiz-adv-x="415" 
d="M381 161c0 -21 -13 -43 -38 -66s-44 -35 -59 -35c-17 0 -34 14 -51 41l-49 -80c-25 -36 -50 -59 -76 -70c0 1 -5 2 -14 3c-1 0 -8 8 -9 5c-26 13 -39 41 -39 83c0 41 12 90 36 148c20 49 41 87 62 114c7 9 17 16 28 21c21 9 43 14 64 14c35 0 52 -30 52 -91
c0 -3 -3 -14 -8 -34c-5 -19 -8 -31 -8 -35c0 -6 3 -15 9 -26c7 -13 13 -20 19 -20c9 0 18 4 25 12c11 12 24 21 37 28h14c3 -3 5 -7 5 -12zM242 246c1 15 1 26 -1 31c-1 1 -4 4 -11 9c-40 -11 -72 -44 -97 -97c-21 -43 -31 -84 -31 -123c0 -25 3 -42 10 -50
c29 19 51 48 66 85l30 86c11 19 23 38 34 59zM349 514c0 -11 -7 -23 -21 -35c-13 -11 -25 -17 -35 -17c-19 0 -36 11 -53 33c-7 10 -20 31 -37 64l-51 -43c-29 -23 -46 -35 -51 -35h-14c-3 13 -9 21 -17 25c3 8 8 17 17 28c23 10 47 28 73 53s43 47 50 64c1 0 12 7 20 7
l14 -11c3 -22 7 -44 11 -67c11 -40 26 -60 47 -60c7 0 19 11 26 11c9 0 21 -9 21 -17z" />
    <glyph glyph-name="atilde" unicode="&#xe3;" horiz-adv-x="402" 
d="M381 161c0 -21 -13 -43 -38 -66s-44 -35 -59 -35c-17 0 -34 14 -51 41l-49 -80c-25 -36 -50 -59 -76 -70c0 1 -5 2 -14 3c-1 0 -8 8 -9 5c-26 13 -39 41 -39 83c0 41 12 90 36 148c20 49 41 87 62 114c7 9 17 16 28 21c21 9 43 14 64 14c35 0 52 -30 52 -91
c0 -3 -3 -14 -8 -34c-5 -19 -8 -31 -8 -35c0 -6 3 -15 9 -26c7 -13 13 -20 19 -20c9 0 18 4 25 12c11 12 24 21 37 28h14c3 -3 5 -7 5 -12zM242 246c1 15 1 26 -1 31c-1 1 -4 4 -11 9c-40 -11 -72 -44 -97 -97c-21 -43 -31 -84 -31 -123c0 -25 3 -42 10 -50
c29 19 51 48 66 85l30 86c11 19 23 38 34 59zM380 538c0 -13 -16 -29 -48 -48s-54 -29 -67 -29c-20 0 -45 21 -74 64s-46 65 -52 65c-7 0 -18 -6 -31 -18c-18 -15 -28 -24 -31 -26c-13 6 -19 13 -19 20c0 14 11 30 32 48c22 19 40 28 55 28s38 -22 69 -65s51 -64 60 -64
c50 22 79 33 88 33c6 0 12 -3 18 -8z" />
    <glyph glyph-name="adieresis" unicode="&#xe4;" horiz-adv-x="396" 
d="M381 161c0 -21 -13 -43 -38 -66s-44 -35 -59 -35c-17 0 -34 14 -51 41l-49 -80c-25 -36 -50 -59 -76 -70c0 1 -5 2 -14 3c-1 0 -8 8 -9 5c-26 13 -39 41 -39 83c0 41 12 90 36 148c20 49 41 87 62 114c7 9 17 16 28 21c21 9 43 14 64 14c35 0 52 -30 52 -91
c0 -3 -3 -14 -8 -34c-5 -19 -8 -31 -8 -35c0 -6 3 -15 9 -26c7 -13 13 -20 19 -20c9 0 18 4 25 12c11 12 24 21 37 28h14c3 -3 5 -7 5 -12zM242 246c1 15 1 26 -1 31c-1 1 -4 4 -11 9c-40 -11 -72 -44 -97 -97c-21 -43 -31 -84 -31 -123c0 -25 3 -42 10 -50
c29 19 51 48 66 85l30 86c11 19 23 38 34 59zM334 523c0 -6 -3 -14 -10 -24c-11 -15 -16 -24 -17 -26c-25 2 -37 10 -37 24c0 3 2 10 5 23c13 13 45 15 53 19c4 -5 6 -10 6 -16zM199 525c-47 -28 -77 -42 -90 -42c-8 0 -16 12 -20 9l-2 41c23 16 43 24 62 24
c25 0 41 -11 50 -32z" />
    <glyph glyph-name="egrave" unicode="&#xe8;" horiz-adv-x="327" 
d="M278 98c0 -17 -19 -36 -57 -55c-33 -17 -54 -26 -64 -26h-13c-31 0 -56 16 -75 49c-16 26 -24 52 -24 77c0 7 4 20 4 23c4 35 24 69 60 104c37 35 73 53 108 53c14 0 24 -4 29 -13c1 -5 1 -10 1 -17c0 -27 -8 -53 -24 -79c-21 -33 -52 -60 -93 -79c-11 1 -18 7 -23 16
c-2 -4 -3 -11 -3 -20c0 -13 6 -26 17 -39c12 -13 23 -20 32 -20c25 0 44 4 59 12c29 16 49 26 59 29c5 -1 7 -6 7 -15zM122 209c-5 -12 -5 -18 -1 -19c21 14 35 24 42 31c14 13 22 25 25 38c-13 -1 -28 -9 -44 -24c-12 -11 -19 -20 -22 -26zM166 470c0 -20 -5 -21 -29 -29
c-3 -1 -9 0 -17 4c-12 5 -18 7 -19 8c-58 18 -98 57 -119 116v33c5 1 27 10 35 10c5 0 8 -2 11 -5c7 -29 25 -55 52 -76c28 -21 57 -41 86 -61z" />
    <glyph glyph-name="eacute" unicode="&#xe9;" horiz-adv-x="323" 
d="M278 98c0 -17 -19 -36 -57 -55c-33 -17 -54 -26 -64 -26h-13c-31 0 -56 16 -75 49c-16 26 -24 52 -24 77c0 7 4 20 4 23c4 35 24 69 60 104c37 35 73 53 108 53c14 0 24 -4 29 -13c1 -5 1 -10 1 -17c0 -27 -8 -53 -24 -79c-21 -33 -52 -60 -93 -79c-11 1 -18 7 -23 16
c-2 -4 -3 -11 -3 -20c0 -13 6 -26 17 -39c12 -13 23 -20 32 -20c25 0 44 4 59 12c29 16 49 26 59 29c5 -1 7 -6 7 -15zM122 209c-5 -12 -5 -18 -1 -19c21 14 35 24 42 31c14 13 22 25 25 38c-13 -1 -28 -9 -44 -24c-12 -11 -19 -20 -22 -26zM318 588
c-21 -37 -76 -94 -165 -170c-13 12 -20 22 -20 29s23 32 68 74c50 47 76 72 79 75h26c5 -5 9 -8 12 -8z" />
    <glyph glyph-name="ecircumflex" unicode="&#xea;" horiz-adv-x="311" 
d="M278 98c0 -17 -19 -36 -57 -55c-33 -17 -54 -26 -64 -26h-13c-31 0 -56 16 -75 49c-16 26 -24 52 -24 77c0 7 4 20 4 23c4 35 24 69 60 104c37 35 73 53 108 53c14 0 24 -4 29 -13c1 -5 1 -10 1 -17c0 -27 -8 -53 -24 -79c-21 -33 -52 -60 -93 -79c-11 1 -18 7 -23 16
c-2 -4 -3 -11 -3 -20c0 -13 6 -26 17 -39c12 -13 23 -20 32 -20c25 0 44 4 59 12c29 16 49 26 59 29c5 -1 7 -6 7 -15zM122 209c-5 -12 -5 -18 -1 -19c21 14 35 24 42 31c14 13 22 25 25 38c-13 -1 -28 -9 -44 -24c-12 -11 -19 -20 -22 -26zM332 480c0 -11 -7 -23 -21 -35
c-13 -11 -25 -17 -35 -17c-19 0 -36 11 -53 33c-7 10 -20 31 -37 64l-51 -43c-29 -23 -46 -35 -51 -35h-14c-3 13 -9 21 -17 25c3 8 8 17 17 28c23 10 47 28 73 53s43 47 50 64c1 0 12 7 20 7l14 -11c3 -22 7 -44 11 -67c11 -40 26 -60 47 -60c7 0 19 11 26 11
c9 0 21 -9 21 -17z" />
    <glyph glyph-name="edieresis" unicode="&#xeb;" horiz-adv-x="318" 
d="M278 98c0 -17 -19 -36 -57 -55c-33 -17 -54 -26 -64 -26h-13c-31 0 -56 16 -75 49c-16 26 -24 52 -24 77c0 7 4 20 4 23c4 35 24 69 60 104c37 35 73 53 108 53c14 0 24 -4 29 -13c1 -5 1 -10 1 -17c0 -27 -8 -53 -24 -79c-21 -33 -52 -60 -93 -79c-11 1 -18 7 -23 16
c-2 -4 -3 -11 -3 -20c0 -13 6 -26 17 -39c12 -13 23 -20 32 -20c25 0 44 4 59 12c29 16 49 26 59 29c5 -1 7 -6 7 -15zM122 209c-5 -12 -5 -18 -1 -19c21 14 35 24 42 31c14 13 22 25 25 38c-13 -1 -28 -9 -44 -24c-12 -11 -19 -20 -22 -26zM310 490c0 -5 -3 -13 -10 -22
c-11 -15 -16 -23 -17 -25c-25 2 -37 9 -37 22c0 3 2 10 5 22c13 13 46 15 53 18c4 -4 6 -9 6 -15zM174 492c-48 -26 -78 -39 -91 -39c-7 0 -15 11 -20 8l-2 39c23 15 44 22 63 22c25 0 41 -10 50 -30z" />
    <glyph glyph-name="igrave" unicode="&#xec;" horiz-adv-x="240" 
d="M152 16c0 -7 -6 -16 -19 -26c-13 -11 -20 -16 -23 -16c-17 0 -30 11 -41 32c-9 16 -13 30 -13 41c0 10 9 74 26 192c0 7 -7 32 -7 44c0 3 1 6 2 9c5 9 11 23 19 42c8 6 16 9 25 9c8 0 16 -4 19 -4c0 -21 4 -40 4 -47c0 -3 -5 -41 -15 -112s-15 -108 -15 -111
c0 -25 6 -42 18 -49l10 8c4 -3 10 -4 10 -12zM154 492c0 -20 -5 -21 -29 -29c-3 -1 -9 0 -17 4c-12 5 -18 7 -19 8c-58 18 -98 57 -119 116v33c5 1 27 10 35 10c5 0 8 -2 11 -5c7 -29 25 -55 52 -76c28 -21 57 -41 86 -61z" />
    <glyph glyph-name="iacute" unicode="&#xed;" horiz-adv-x="239" 
d="M152 16c0 -7 -6 -16 -19 -26c-13 -11 -20 -16 -23 -16c-17 0 -30 11 -41 32c-9 16 -13 30 -13 41c0 10 9 74 26 192c0 7 -7 32 -7 44c0 3 1 6 2 9c5 9 11 23 19 42c8 6 16 9 25 9c8 0 16 -4 19 -4c0 -21 4 -40 4 -47c0 -3 -5 -41 -15 -112s-15 -108 -15 -111
c0 -25 6 -42 18 -49l10 8c4 -3 10 -4 10 -12zM259 609c-21 -37 -76 -94 -165 -170c-13 12 -20 22 -20 29s23 32 68 74c50 47 76 72 79 75h26c5 -5 9 -8 12 -8z" />
    <glyph glyph-name="icircumflex" unicode="&#xee;" horiz-adv-x="249" 
d="M152 16c0 -7 -6 -16 -19 -26c-13 -11 -20 -16 -23 -16c-17 0 -30 11 -41 32c-9 16 -13 30 -13 41c0 10 9 74 26 192c0 7 -7 32 -7 44c0 3 1 6 2 9c5 9 11 23 19 42c8 6 16 9 25 9c8 0 16 -4 19 -4c0 -21 4 -40 4 -47c0 -3 -5 -41 -15 -112s-15 -108 -15 -111
c0 -25 6 -42 18 -49l10 8c4 -3 10 -4 10 -12zM272 488c0 -11 -7 -23 -21 -35c-13 -11 -25 -17 -35 -17c-19 0 -36 11 -53 33c-7 10 -20 31 -37 64l-51 -43c-29 -23 -46 -35 -51 -35h-14c-3 13 -9 21 -17 25c3 8 8 17 17 28c23 10 47 28 73 53s43 47 50 64c1 0 12 7 20 7
l14 -11c3 -22 7 -44 11 -67c11 -40 26 -60 47 -60c7 0 19 11 26 11c9 0 21 -9 21 -17z" />
    <glyph glyph-name="idieresis" unicode="&#xef;" horiz-adv-x="255" 
d="M152 16c0 -7 -6 -16 -19 -26c-13 -11 -20 -16 -23 -16c-17 0 -30 11 -41 32c-9 16 -13 30 -13 41c0 10 9 74 26 192c0 7 -7 32 -7 44c0 3 1 6 2 9c5 9 11 23 19 42c8 6 16 9 25 9c8 0 16 -4 19 -4c0 -21 4 -40 4 -47c0 -3 -5 -41 -15 -112s-15 -108 -15 -111
c0 -25 6 -42 18 -49l10 8c4 -3 10 -4 10 -12zM244 517c0 -5 -3 -11 -9 -20c-9 -14 -14 -22 -15 -23c-23 1 -34 8 -34 20c0 3 1 10 4 21c12 12 42 13 49 17c3 -5 5 -10 5 -15zM120 519c-44 -24 -72 -36 -83 -36c-7 0 -15 9 -19 8l-2 35c21 14 41 21 58 21c23 0 38 -9 46 -28z
" />
    <glyph glyph-name="eth" unicode="&#xf0;" horiz-adv-x="430" 
d="M367 339c0 -68 -18 -111 -53 -130c-13 -7 -45 -13 -98 -16c-35 -3 -53 -17 -53 -44c0 -18 7 -38 22 -60s33 -35 52 -39c12 11 18 22 18 31c0 20 -7 45 -20 74c8 9 8 18 41 17c28 -27 42 -53 42 -76c0 -79 -22 -119 -66 -119c-9 0 -30 8 -31 8c-25 0 -52 17 -83 52
c-33 37 -49 73 -49 108c0 39 15 70 44 91c27 21 63 29 106 25c11 -1 25 1 43 7c7 5 14 17 20 38c4 16 6 27 6 33c0 36 -13 99 -39 188c-26 90 -39 155 -39 194c0 9 6 39 7 47c10 19 20 28 29 28c1 0 4 -1 8 -2s7 -1 9 0c5 -16 8 -39 9 -70c0 -38 1 -62 3 -73
c2 -13 15 -62 40 -147c21 -72 32 -127 32 -165z" />
    <glyph glyph-name="ntilde" unicode="&#xf1;" horiz-adv-x="358" 
d="M293 74c0 -23 -6 -46 -18 -69c-11 -23 -23 -35 -34 -35s-22 34 -33 102s-18 102 -22 102c-6 0 -25 -32 -56 -96c-31 -63 -47 -95 -50 -95c-19 0 -28 26 -27 78c3 51 7 133 12 247c4 8 9 18 18 18c16 1 26 -3 30 -13l2 -133l2 -21c33 73 65 108 95 103
c17 -22 30 -56 37 -103c7 -41 10 -62 10 -62c5 0 14 9 19 9s15 0 15 -32zM364 480c0 -13 -17 -29 -52 -50c-35 -20 -59 -30 -73 -30c-22 0 -49 22 -80 67s-50 68 -57 68c-8 0 -19 -6 -34 -19c-19 -16 -31 -25 -34 -27c-14 6 -21 13 -21 21c0 15 12 31 35 50
c24 19 44 29 60 29c17 0 42 -23 75 -68c34 -45 56 -67 66 -67c55 23 87 35 96 35c7 0 13 -3 19 -9z" />
    <glyph glyph-name="ograve" unicode="&#xf2;" horiz-adv-x="362" 
d="M305 198c0 -36 -16 -81 -48 -134c-37 -61 -75 -91 -116 -91c-26 0 -48 14 -66 43c-15 23 -22 45 -22 65c0 11 8 43 23 96c-9 5 -19 4 -30 -1c-4 4 -6 8 -6 13c0 20 18 46 54 77c37 31 68 46 94 44c78 -5 117 -42 117 -112zM251 196c0 8 -2 19 -7 32c-7 19 -16 29 -27 28
c-28 -1 -53 -26 -75 -77c-17 -40 -26 -71 -26 -93s11 -42 34 -59c26 14 49 39 70 74c21 36 31 68 31 95zM214 487c0 -20 -5 -21 -29 -29c-3 -1 -9 0 -17 4c-12 5 -18 7 -19 8c-58 18 -98 57 -119 116v33c5 1 27 10 35 10c5 0 8 -2 11 -5c7 -29 25 -55 52 -76
c28 -21 57 -41 86 -61z" />
    <glyph glyph-name="oacute" unicode="&#xf3;" horiz-adv-x="362" 
d="M305 198c0 -36 -16 -81 -48 -134c-37 -61 -75 -91 -116 -91c-26 0 -48 14 -66 43c-15 23 -22 45 -22 65c0 11 8 43 23 96c-9 5 -19 4 -30 -1c-4 4 -6 8 -6 13c0 20 18 46 54 77c37 31 68 46 94 44c78 -5 117 -42 117 -112zM251 196c0 8 -2 19 -7 32c-7 19 -16 29 -27 28
c-28 -1 -53 -26 -75 -77c-17 -40 -26 -71 -26 -93s11 -42 34 -59c26 14 49 39 70 74c21 36 31 68 31 95zM329 607c-21 -37 -76 -94 -165 -170c-13 12 -20 22 -20 29s23 32 68 74c50 47 76 72 79 75h26c5 -5 9 -8 12 -8z" />
    <glyph glyph-name="ocircumflex" unicode="&#xf4;" horiz-adv-x="358" 
d="M305 198c0 -36 -16 -81 -48 -134c-37 -61 -75 -91 -116 -91c-26 0 -48 14 -66 43c-15 23 -22 45 -22 65c0 11 8 43 23 96c-9 5 -19 4 -30 -1c-4 4 -6 8 -6 13c0 20 18 46 54 77c37 31 68 46 94 44c78 -5 117 -42 117 -112zM251 196c0 8 -2 19 -7 32c-7 19 -16 29 -27 28
c-28 -1 -53 -26 -75 -77c-17 -40 -26 -71 -26 -93s11 -42 34 -59c26 14 49 39 70 74c21 36 31 68 31 95zM342 472c0 -11 -7 -23 -21 -35c-13 -11 -25 -17 -35 -17c-19 0 -36 11 -53 33c-7 10 -20 31 -37 64l-51 -43c-29 -23 -46 -35 -51 -35h-14c-3 13 -9 21 -17 25
c3 8 8 17 17 28c23 10 47 28 73 53s43 47 50 64c1 0 12 7 20 7l14 -11c3 -22 7 -44 11 -67c11 -40 26 -60 47 -60c7 0 19 11 26 11c9 0 21 -9 21 -17z" />
    <glyph glyph-name="otilde" unicode="&#xf5;" horiz-adv-x="352" 
d="M305 198c0 -36 -16 -81 -48 -134c-37 -61 -75 -91 -116 -91c-26 0 -48 14 -66 43c-15 23 -22 45 -22 65c0 11 8 43 23 96c-9 5 -19 4 -30 -1c-4 4 -6 8 -6 13c0 20 18 46 54 77c37 31 68 46 94 44c78 -5 117 -42 117 -112zM251 196c0 8 -2 19 -7 32c-7 19 -16 29 -27 28
c-28 -1 -53 -26 -75 -77c-17 -40 -26 -71 -26 -93s11 -42 34 -59c26 14 49 39 70 74c21 36 31 68 31 95zM381 501c0 -13 -17 -29 -52 -50c-35 -20 -59 -30 -73 -30c-22 0 -49 22 -80 67s-50 68 -57 68c-8 0 -19 -6 -34 -19c-19 -16 -31 -25 -34 -27c-14 6 -21 13 -21 21
c0 15 12 31 35 50c24 19 44 29 60 29c17 0 42 -23 75 -68c34 -45 56 -67 66 -67c55 23 87 35 96 35c7 0 13 -3 19 -9z" />
    <glyph glyph-name="odieresis" unicode="&#xf6;" horiz-adv-x="362" 
d="M305 198c0 -36 -16 -81 -48 -134c-37 -61 -75 -91 -116 -91c-26 0 -48 14 -66 43c-15 23 -22 45 -22 65c0 11 8 43 23 96c-9 5 -19 4 -30 -1c-4 4 -6 8 -6 13c0 20 18 46 54 77c37 31 68 46 94 44c78 -5 117 -42 117 -112zM251 196c0 8 -2 19 -7 32c-7 19 -16 29 -27 28
c-28 -1 -53 -26 -75 -77c-17 -40 -26 -71 -26 -93s11 -42 34 -59c26 14 49 39 70 74c21 36 31 68 31 95zM320 474c0 -5 -3 -13 -10 -22c-11 -15 -16 -23 -17 -25c-25 2 -37 9 -37 22c0 3 2 10 5 22c13 13 45 15 53 18c4 -4 6 -9 6 -15zM185 476c-47 -26 -77 -39 -90 -39
c-8 0 -16 11 -20 8l-2 39c23 15 43 22 62 22c25 0 41 -10 50 -30z" />
    <glyph glyph-name="divide" unicode="&#xf7;" horiz-adv-x="347" 
d="M313 188c0 -11 -15 -22 -46 -32c-25 -9 -43 -13 -53 -13h-36c-6 0 -13 3 -20 10c-7 -7 -12 -10 -15 -10c-24 0 -56 5 -97 15c-5 7 -12 18 -21 32c15 19 31 29 48 29c5 0 26 -8 33 -9c31 -4 77 -6 136 -6h63c5 -3 8 -9 8 -16zM194 72l1 -40c1 -21 -16 -36 -50 -47l-19 12
c-9 5 -13 10 -13 14c0 18 4 34 12 48c9 17 22 25 39 25zM203 337l1 -40c1 -21 -16 -36 -50 -47l-19 12c-9 5 -13 10 -13 14c0 18 4 34 12 48c9 17 22 25 39 25z" />
    <glyph glyph-name="ugrave" unicode="&#xf9;" horiz-adv-x="355" 
d="M299 36v-28c-9 -9 -15 -13 -18 -13c-21 0 -38 14 -53 42l-27 67l-45 -65c-27 -35 -47 -52 -61 -52c-25 0 -43 37 -54 110c0 41 4 86 11 134c13 79 32 115 58 110c9 -9 14 -18 14 -27c0 -7 -10 -30 -11 -38c-12 -65 -18 -119 -18 -164c0 -23 4 -41 11 -54
c12 9 32 39 60 89c26 47 46 88 61 123c3 3 7 3 12 0l12 13h19c6 -19 9 -31 9 -38c0 -3 -4 -21 -11 -53s-10 -50 -10 -53c0 -51 14 -85 41 -103zM210 484c0 -20 -5 -21 -29 -29c-3 -1 -9 0 -17 4c-12 5 -18 7 -19 8c-58 18 -98 57 -119 116v33c5 1 27 10 35 10
c5 0 8 -2 11 -5c7 -29 25 -55 52 -76c28 -21 57 -41 86 -61z" />
    <glyph glyph-name="uacute" unicode="&#xfa;" horiz-adv-x="354" 
d="M299 36v-28c-9 -9 -15 -13 -18 -13c-21 0 -38 14 -53 42l-27 67l-45 -65c-27 -35 -47 -52 -61 -52c-25 0 -43 37 -54 110c0 41 4 86 11 134c13 79 32 115 58 110c9 -9 14 -18 14 -27c0 -7 -10 -30 -11 -38c-12 -65 -18 -119 -18 -164c0 -23 4 -41 11 -54
c12 9 32 39 60 89c26 47 46 88 61 123c3 3 7 3 12 0l12 13h19c6 -19 9 -31 9 -38c0 -3 -4 -21 -11 -53s-10 -50 -10 -53c0 -51 14 -85 41 -103zM331 600c-21 -37 -76 -94 -165 -170c-13 12 -20 22 -20 29s23 32 68 74c50 47 76 72 79 75h26c5 -5 9 -8 12 -8z" />
    <glyph glyph-name="ucircumflex" unicode="&#xfb;" horiz-adv-x="358" 
d="M299 36v-28c-9 -9 -15 -13 -18 -13c-21 0 -38 14 -53 42l-27 67l-45 -65c-27 -35 -47 -52 -61 -52c-25 0 -43 37 -54 110c0 41 4 86 11 134c13 79 32 115 58 110c9 -9 14 -18 14 -27c0 -7 -10 -30 -11 -38c-12 -65 -18 -119 -18 -164c0 -23 4 -41 11 -54
c12 9 32 39 60 89c26 47 46 88 61 123c3 3 7 3 12 0l12 13h19c6 -19 9 -31 9 -38c0 -3 -4 -21 -11 -53s-10 -50 -10 -53c0 -51 14 -85 41 -103zM340 478c0 -11 -7 -23 -21 -35c-13 -11 -25 -17 -35 -17c-19 0 -36 11 -53 33c-7 10 -20 31 -37 64l-51 -43
c-29 -23 -46 -35 -51 -35h-14c-3 13 -9 21 -17 25c3 8 8 17 17 28c23 10 47 28 73 53s43 47 50 64c1 0 12 7 20 7l14 -11c3 -22 7 -44 11 -67c11 -40 26 -60 47 -60c7 0 19 11 26 11c9 0 21 -9 21 -17z" />
    <glyph glyph-name="udieresis" unicode="&#xfc;" horiz-adv-x="351" 
d="M299 36v-28c-9 -9 -15 -13 -18 -13c-21 0 -38 14 -53 42l-27 67l-45 -65c-27 -35 -47 -52 -61 -52c-25 0 -43 37 -54 110c0 41 4 86 11 134c13 79 32 115 58 110c9 -9 14 -18 14 -27c0 -7 -10 -30 -11 -38c-12 -65 -18 -119 -18 -164c0 -23 4 -41 11 -54
c12 9 32 39 60 89c26 47 46 88 61 123c3 3 7 3 12 0l12 13h19c6 -19 9 -31 9 -38c0 -3 -4 -21 -11 -53s-10 -50 -10 -53c0 -51 14 -85 41 -103zM314 506c0 -5 -3 -11 -10 -20c-9 -14 -15 -22 -16 -24c-23 2 -34 9 -34 21c0 3 1 10 4 21c12 12 43 13 51 17c3 -5 5 -10 5 -15z
M186 508c-45 -25 -74 -37 -86 -37c-7 0 -15 9 -19 8l-2 36c22 14 42 21 59 21c23 0 39 -9 48 -28z" />
    <glyph glyph-name="yacute" unicode="&#xfd;" horiz-adv-x="354" 
d="M307 267c0 4 -2 -4 -6 -23c-3 -3 -12 -5 -25 -8c-15 -18 -34 -44 -58 -79c-5 -9 -9 -22 -11 -38c-3 -23 -4 -36 -5 -39c-10 -44 -15 -88 -15 -131c0 -52 6 -110 19 -175c14 -72 31 -119 50 -141l-16 -15c0 1 -2 4 -5 9c-41 7 -69 60 -86 160c-9 55 -14 116 -14 182v138
c-60 49 -90 101 -90 158c0 40 20 48 40 63c12 -6 18 -14 18 -24c0 -1 -1 -9 -2 -26c-1 -13 0 -23 1 -30c5 -30 20 -57 44 -80h13l51 72c31 41 49 62 56 62c21 0 41 -18 41 -35zM319 594c-21 -37 -76 -94 -165 -170c-13 12 -20 22 -20 29s23 32 68 74c50 47 76 72 79 75h26
c5 -5 9 -8 12 -8z" />
    <glyph glyph-name="ydieresis" unicode="&#xff;" horiz-adv-x="354" 
d="M307 267c0 4 -2 -4 -6 -23c-3 -3 -12 -5 -25 -8c-15 -18 -34 -44 -58 -79c-5 -9 -9 -22 -11 -38c-3 -23 -4 -36 -5 -39c-10 -44 -15 -88 -15 -131c0 -52 6 -110 19 -175c14 -72 31 -119 50 -141l-16 -15c0 1 -2 4 -5 9c-41 7 -69 60 -86 160c-9 55 -14 116 -14 182v138
c-60 49 -90 101 -90 158c0 40 20 48 40 63c12 -6 18 -14 18 -24c0 -1 -1 -9 -2 -26c-1 -13 0 -23 1 -30c5 -30 20 -57 44 -80h13l51 72c31 41 49 62 56 62c21 0 41 -18 41 -35zM296 478c0 -5 -3 -11 -10 -20c-10 -13 -15 -21 -16 -22c-23 1 -34 8 -34 20c0 3 1 9 4 20
c12 12 43 13 50 16c4 -4 6 -9 6 -14zM168 480c-45 -24 -73 -36 -85 -36c-8 0 -15 9 -19 8l-2 35c21 14 41 21 59 21c23 0 38 -9 47 -28z" />
    <glyph glyph-name="endash" unicode="&#x2013;" horiz-adv-x="403" 
d="M343 227c0 -11 -15 -22 -46 -32c-25 -9 -43 -13 -53 -13h-36c-6 0 -13 3 -20 10c-7 -7 -12 -10 -15 -10c-24 0 -56 5 -97 15c-5 7 -12 18 -21 32c15 19 31 29 48 29c5 0 26 -8 33 -9c31 -4 77 -6 136 -6h63c5 -3 8 -9 8 -16z" />
    <glyph glyph-name="emdash" unicode="&#x2014;" horiz-adv-x="466" 
d="M452 267c0 -3 -3 -11 -10 -25c-15 0 -39 -2 -72 -5c-32 -3 -48 -5 -48 -5c-7 0 -22 10 -31 10c-3 0 -44 -4 -124 -13c-79 -9 -120 -13 -123 -13c-17 0 -25 10 -25 29c0 16 9 26 26 31l33 3c140 13 204 20 193 20c121 0 181 -11 181 -32z" />
    <glyph glyph-name="ampersand" unicode="&#x26;" horiz-adv-x="362" 
d="M220 -47c0 -21 -9 -46 -28 -76c-17 -28 -33 -47 -50 -58h-13c0 1 -4 4 -11 11c10 17 20 33 31 49c14 25 21 45 21 62c0 3 -3 14 -8 35l-6 16c-30 0 -50 14 -59 41c-7 21 -10 44 -8 68c2 17 13 45 34 84c16 29 28 49 36 61c-33 17 -55 30 -64 38c-22 19 -32 43 -30 70
s31 65 86 116c7 7 14 13 21 19c1 19 2 45 3 78c-1 11 -5 23 -11 36c-4 8 -15 30 -19 35c-7 17 -4 28 10 35c18 8 33 0 44 -24c9 -21 14 -52 13 -95c0 -13 -1 -25 -2 -36c27 18 48 26 64 25c11 -1 32 -20 32 -31c-1 -5 -16 -18 -47 -37c-41 -27 -69 -46 -83 -57
c-31 -23 -47 -45 -48 -64c-2 -27 19 -42 63 -46c8 0 14 -3 22 -3c7 -1 15 -6 24 -16s14 -18 13 -24c0 -3 -8 -13 -24 -30c-21 -23 -38 -42 -49 -58c-17 -27 -27 -53 -29 -76s2 -35 12 -36c4 -1 12 2 25 8c13 7 22 10 26 9c21 -1 29 -20 25 -55c-5 -5 -17 -11 -34 -19
c3 -2 5 -5 7 -9c7 -14 11 -29 11 -46z" />
    </font>
</defs>
</svg>
