<?xml version="1.0" standalone="no"?>
<!DOCTYPE svg PUBLIC "-//W3C//DTD SVG 1.1//EN" "http://www.w3.org/Graphics/SVG/1.1/DTD/svg11.dtd" >
<svg xmlns="http://www.w3.org/2000/svg">
<metadata></metadata>
<defs>
<font id="captain_comic_proregular" horiz-adv-x="1751" >
<font-face units-per-em="2048" ascent="1536" descent="-512" />
<missing-glyph horiz-adv-x="704" />
<glyph horiz-adv-x="0" />
<glyph horiz-adv-x="682" />
<glyph unicode=" "  horiz-adv-x="704" />
<glyph unicode="&#x09;" horiz-adv-x="704" />
<glyph unicode="&#xa0;" horiz-adv-x="704" />
<glyph unicode="!" horiz-adv-x="618" d="M166 104q0 72 50.5 129.5t117.5 57.5q62 0 99.5 -44.5t37.5 -105.5q0 -68 -52.5 -124t-119.5 -56q-53 0 -93 43.5t-40 99.5zM199 713q0 82 7 246t7 247q0 41 -4 124.5t-4 125.5q0 99 33.5 150t121.5 51q111 0 111 -176q0 -80 -5 -276.5t-5 -301.5q0 -33 -1 -63.5t-4 -91 t-11.5 -109t-21 -97.5t-34.5 -76.5t-51 -27.5q-36 0 -61 13t-40 35t-23.5 58.5t-11.5 75t-3 93.5z" />
<glyph unicode="&#x22;" horiz-adv-x="770" d="M113 1561q0 53 29 89t94 42q65 0 89.5 -30.5t24.5 -102.5q0 -81 -28 -254q-3 -14 -7.5 -44.5t-7.5 -47t-10 -40t-15.5 -36t-23.5 -22t-35 -9.5q-28 0 -44 14.5t-25 46.5q-2 26 -21.5 169t-19.5 225zM446 1554q0 53 29 89.5t94 42.5q65 0 90 -31t25 -103q0 -75 -29 -254 q-3 -14 -7 -44.5t-7 -47t-10 -40t-15.5 -35.5t-23.5 -21.5t-35 -9.5q-29 0 -45 14.5t-25 46.5q-2 26 -21.5 168.5t-19.5 224.5z" />
<glyph unicode="#" horiz-adv-x="2523" d="M92 166q0 82 14.5 244t14.5 254q0 350 -2 454q-1 40 -11 133t-10 142q0 48 30.5 87.5t78.5 39.5q39 0 77.5 -25.5t68.5 -63t61.5 -90.5t52.5 -97.5t45.5 -96t36.5 -74.5q60 -114 170.5 -271.5t222 -281.5t156.5 -123q49 0 49 187q0 97 -4 207.5t-10 249.5t-9 219 q-1 30 -9.5 87.5t-8.5 86.5q0 60 36 110.5t93 50.5q33 0 57 -18t36.5 -43.5t19.5 -66.5t8.5 -74t1.5 -80q0 -98 -6 -250.5t-6 -206.5q0 -103 8 -314t8 -311q0 -105 -36 -156.5t-126 -51.5q-61 0 -161 77.5t-205 195.5t-204.5 247.5t-171 243.5t-93.5 174q-31 -234 -31 -469 q0 -51 6 -158.5t6 -171.5q0 -51 -10.5 -91.5t-43 -71t-83.5 -30.5q-63 0 -90 43.5t-27 153.5zM1511 930q0 109 47 208t124 168.5t177.5 110.5t204.5 41q167 0 282.5 -115.5t115.5 -304.5q0 -86 -30.5 -161.5t-80.5 -128.5t-110.5 -95.5t-123.5 -67t-116.5 -37.5t-91.5 -13 q-170 0 -284 109.5t-114 285.5zM1556 274q0 113 179 113q108 0 317.5 -3t259.5 -3q40 0 65 -31t25 -74q0 -47 -25 -76t-67 -32q-123 -8 -280 -8q-53 0 -166 1t-174 1q-55 0 -94.5 30t-39.5 82zM1716 932q0 -43 19.5 -76.5t50.5 -53.5t65.5 -30t69.5 -10q82 0 158 29t129 90 t53 141q0 96 -60 153.5t-147 57.5q-138 0 -238 -85t-100 -216z" />
<glyph unicode="$" horiz-adv-x="1550" d="M131 274q0 47 21 78t67 31q26 0 45 -9.5t45.5 -33t36.5 -31.5q67 -50 145 -75t193 -25q2 139 2 416q-60 7 -110.5 15t-106.5 21.5t-100 31t-85.5 43t-69 56.5t-44 73.5t-16.5 92.5q0 79 46 154.5t124.5 136.5t169.5 109.5t194 85.5q0 42 0.5 66.5t2.5 59.5t6.5 55 t12.5 43.5t19.5 35.5t29 20.5t40.5 8.5q26 0 45.5 -16t29.5 -38t16.5 -56.5t8 -59.5t2.5 -60q90 17 143 17q139 0 222.5 -68.5t83.5 -196.5q0 -36 -31.5 -63t-65.5 -27q-32 0 -67.5 15t-64 32.5t-75 32.5t-98.5 15q-7 0 -47 -5q1 -70 5 -213t5 -204q66 -4 118 -10 t113.5 -17.5t107.5 -27.5t91 -42t74 -59.5t46.5 -81.5t17.5 -106q0 -87 -51.5 -171t-135.5 -148.5t-187 -112t-210 -70.5q0 -37 -6 -69t-21 -65t-45.5 -52t-74.5 -19q-43 0 -54.5 23.5t-11.5 80.5v80q-55 3 -119.5 14t-143 35t-141 56.5t-105 84t-42.5 113.5zM440 965 q0 -28 18 -48.5t53.5 -33t76.5 -19.5t100 -12v346q-108 -44 -178 -104.5t-70 -128.5zM899 240q120 33 199.5 94.5t79.5 138.5q0 91 -162 119l-105 12q-1 -62 -6 -197t-6 -167z" />
<glyph unicode="%" horiz-adv-x="1710" d="M72 1128q0 116 46.5 220t132.5 169.5t191 65.5q73 0 131.5 -36.5t92.5 -96t51.5 -128t17.5 -138.5q0 -113 -42 -216.5t-125 -173t-187 -69.5q-79 0 -140 33.5t-97 91.5t-54 128t-18 150zM258 1169q0 -45 4 -78t15.5 -71t39.5 -59t70 -21q49 0 85.5 26t56 68t29 86t9.5 88 q0 81 -28 135t-95 54q-73 0 -129.5 -73t-56.5 -155zM463 29q0 71 108.5 331.5t260.5 597t204 474.5q90 241 170 241q36 0 59 -29t23 -71q0 -39 -50 -178.5t-135.5 -347t-159.5 -381t-164 -381t-107 -246.5q-21 -46 -53.5 -78.5t-69.5 -32.5q-40 0 -63 30t-23 71zM991 369 q0 116 46.5 219.5t133 169t191.5 65.5q73 0 131.5 -36.5t92.5 -96t51.5 -128t17.5 -138.5q0 -113 -42.5 -217t-125.5 -173t-187 -69q-79 0 -140 34t-97 91.5t-54 128t-18 150.5zM1178 410q0 -35 2 -61.5t9.5 -60t20.5 -55.5t38 -37.5t59 -15.5q49 0 85.5 26t56 68t29 86.5 t9.5 88.5q0 188 -123 188q-73 0 -129.5 -72.5t-56.5 -154.5z" />
<glyph unicode="&#x26;" horiz-adv-x="1351" d="M92 442q0 75 20.5 138.5t55.5 111.5t90 91t113.5 74.5t136.5 64.5q-137 64 -210 140t-73 187q0 85 23 143.5t72 94t115.5 52t162.5 20.5q1 59 5.5 99t17 76t36.5 54t60 18q33 0 56.5 -25t34.5 -67t15.5 -79.5t5.5 -80.5q0 -2 -1 -5t-1 -5q76 -15 135.5 -36.5t104.5 -60 t45 -85.5q0 -44 -33.5 -69t-77.5 -25q-16 0 -77.5 23t-140 46t-134.5 23q-42 0 -79.5 -11.5t-67 -44t-29.5 -81.5q0 -47 64.5 -106t139.5 -99t122 -51q32 -9 50 -14t41 -15.5t35 -21.5t20.5 -28.5t8.5 -39.5q0 -48 -30 -64t-82 -16q-14 0 -39.5 1t-36.5 1q-78 0 -174 -40.5 t-169 -112.5t-73 -148q0 -83 61.5 -148.5t145 -96.5t166.5 -31q71 0 133.5 25t104 60.5t76.5 71.5t66.5 61t57.5 25q45 0 88 -40.5t43 -80.5q0 -10 -17.5 -40t-57 -73t-92 -85.5t-133 -79t-169.5 -51.5v-33q0 -76 -38 -141.5t-113 -65.5q-78 0 -78 109v129 q-131 18 -243.5 77t-185.5 159.5t-73 221.5z" />
<glyph unicode="'" horiz-adv-x="436" d="M113 1561q0 53 29 89t94 42q65 0 89.5 -30.5t24.5 -102.5q0 -81 -28 -254q-3 -14 -7.5 -44.5t-7.5 -47t-10 -40t-15.5 -36t-23.5 -22t-35 -9.5q-28 0 -44 14.5t-25 46.5q-2 26 -21.5 169t-19.5 225z" />
<glyph unicode="(" horiz-adv-x="874" d="M86 723q0 142 46.5 293.5t123 277.5t178.5 224.5t209 142.5q40 16 76 16q38 0 61 -29t23 -71q0 -63 -31.5 -107t-122.5 -94q-151 -84 -232 -270.5t-81 -423.5q0 -108 13.5 -205.5t44.5 -194.5t90 -175.5t141 -126.5q20 -12 54 -27.5t55.5 -27t44.5 -30.5t34.5 -48.5 t11.5 -69.5q0 -36 -23.5 -61t-58.5 -25q-139 0 -264 91.5t-209.5 238.5t-134 331.5t-49.5 370.5z" />
<glyph unicode=")" horiz-adv-x="874" d="M86 -223q0 40 11.5 69.5t35 48.5t45 30.5t55.5 27t54 27.5q82 48 141 126.5t89.5 175.5t44 194t13.5 206q0 237 -81 423.5t-232 270.5q-91 50 -122 93.5t-31 107.5q0 42 23 71t61 29q35 0 75 -16q107 -44 209 -142.5t178.5 -224.5t123 -277.5t46.5 -293.5 q0 -186 -49.5 -370.5t-134 -331.5t-209.5 -238.5t-264 -91.5q-35 0 -58.5 25t-23.5 61z" />
<glyph unicode="*" horiz-adv-x="989" d="M63 840q0 25 17 53t52.5 61t57 50.5t62.5 48.5q-67 45 -124.5 104t-57.5 105q0 21 17.5 39.5t41.5 23.5q27 0 61.5 -29t63.5 -64.5t68.5 -67.5t74.5 -36q36 -4 54 -22.5t18 -44.5q0 -25 -16 -44t-45 -22q-24 -6 -84.5 -64.5t-117.5 -113.5t-75 -55q-26 0 -47 22.5 t-21 55.5zM227 625q0 29 29 63.5t64 63t67 68t37 75.5q4 36 22.5 54t45.5 18q25 0 43.5 -16.5t21.5 -45.5q5 -25 63.5 -85t114.5 -116.5t56 -74.5q0 -26 -22.5 -47t-55.5 -21q-25 0 -53 17t-61 52.5t-50.5 57t-48.5 62.5q-46 -68 -104.5 -125.5t-104.5 -57.5q-21 0 -40 18 t-24 40zM236 1481q5 24 23.5 41.5t39.5 17.5q46 0 105 -57.5t104 -124.5q30 40 48.5 62t50.5 57t60.5 52t53.5 17q34 0 56 -20.5t22 -46.5q0 -18 -55.5 -75t-114 -117.5t-64.5 -84.5q-3 -29 -21.5 -45t-43.5 -16q-27 0 -45.5 17.5t-22.5 53.5q-4 29 -25.5 60t-49.5 57.5 t-55.5 51.5t-46.5 51t-19 49zM528 1053q0 26 18 44.5t54 22.5q35 4 74.5 36t68.5 67.5t63.5 64.5t61.5 29q24 -5 42 -24t18 -40q0 -46 -57.5 -104.5t-125.5 -104.5q41 -31 62.5 -48.5t57 -50.5t52.5 -61t17 -53q0 -34 -21 -55.5t-47 -21.5q-20 0 -77 55.5t-116.5 113.5 t-82.5 62q-29 4 -45.5 23.5t-16.5 44.5z" />
<glyph unicode="+" horiz-adv-x="1173" d="M102 639q0 113 179 113q120 0 192 -2l4 282q0 40 31 65t74 25q47 0 76 -25t32 -67q3 -61 8 -282q52 0 147.5 -1.5t135.5 -1.5t65 -30.5t25 -73.5q0 -47 -25 -76.5t-67 -32.5q-101 -8 -283 -8v-237q0 -55 -30 -94t-82 -39q-113 0 -113 178v192q-82 2 -235 2 q-55 0 -94.5 30.5t-39.5 82.5z" />
<glyph unicode="," horiz-adv-x="479" d="M37 -80q0 49 51 143.5t124.5 173t127.5 78.5q32 0 55 -28t23 -72q0 -15 -4 -31.5t-8 -27.5t-16 -31.5t-16.5 -28t-22 -33.5t-21.5 -32q-14 -20 -39 -59t-40 -60.5t-36.5 -47t-42 -37t-41.5 -11.5q-39 0 -66.5 31t-27.5 73z" />
<glyph unicode="-" horiz-adv-x="1050" d="M102 639q0 113 179 113q104 0 303.5 -3t273.5 -4q40 0 65 -30.5t25 -73.5q0 -47 -25 -76.5t-67 -32.5q-123 -8 -281 -8q-53 0 -165.5 1t-173.5 1q-55 0 -94.5 30.5t-39.5 82.5z" />
<glyph unicode="." horiz-adv-x="555" d="M143 82q0 71 50.5 128.5t117.5 57.5q62 0 100 -44t38 -105q0 -68 -53 -124t-120 -56q-53 0 -93 43.5t-40 99.5z" />
<glyph unicode="/" horiz-adv-x="903" d="M51 29q0 71 109 331.5t261 597t204 474.5q90 241 170 241q36 0 59 -29t23 -71q0 -39 -50 -179t-135.5 -346t-160 -381.5t-164 -380.5t-107.5 -247q-21 -46 -53.5 -78.5t-69.5 -32.5q-40 0 -63 30t-23 71z" />
<glyph unicode="0" horiz-adv-x="1343" d="M53 737q0 129 32.5 254t94.5 231t145 187.5t191 127.5t225 46q111 0 203.5 -45t155 -119.5t106 -172t63 -200t19.5 -206.5q0 -123 -29.5 -246t-87 -232t-136 -193.5t-184 -133.5t-222.5 -49q-99 0 -184 29t-147 81t-109.5 122t-77 155t-44 176t-14.5 188zM287 782 q0 -56 2 -102.5t10 -105.5t20.5 -105.5t36.5 -93t55.5 -77t79.5 -50t107 -19.5q93 0 169 43t124 111t81 156t46.5 174t13.5 170q0 85 -14.5 158.5t-47 139.5t-93.5 106.5t-146 45.5q-115 0 -219.5 -85t-164.5 -212t-60 -254z" />
<glyph unicode="1" horiz-adv-x="600" d="M14 1253q0 49 30 100.5t75 91.5t95.5 72.5t94 50t68.5 17.5q104 0 104 -147q0 -65 -5 -579.5t-5 -629.5q0 -121 -33.5 -175t-101.5 -54q-23 0 -40.5 2.5t-31 10t-22.5 14.5t-15 23.5t-9 29.5t-4.5 41t-2 48.5t-0.5 59.5q0 196 20 1026q-40 -20 -91.5 -34.5t-86.5 -14.5 q-39 0 -39 47z" />
<glyph unicode="2" horiz-adv-x="1347" d="M37 143q0 47 22 99q33 78 82.5 150t105 127.5t118.5 107t124 95t120 86.5t109 85t88 86.5t59.5 96.5t21.5 108q0 77 -70.5 128.5t-171.5 51.5q-63 0 -137.5 -25t-139.5 -50t-104 -25q-98 0 -98 98q0 55 69.5 101t179.5 72t232 26q81 0 155 -12t142.5 -39.5t119 -68 t80.5 -102t30 -137.5q0 -104 -44 -198.5t-114 -165.5t-155 -135.5t-169.5 -118.5t-154.5 -103t-114 -101t-44 -101q0 -17 2 -23l559 49q16 1 97 14t126 13q70 0 114 -34t44 -81q0 -31 -20 -59.5t-60 -53.5t-110 -40.5t-160 -16.5q-240 -2 -441 -16.5t-311 -14.5 q-102 0 -142 28t-40 99z" />
<glyph unicode="3" horiz-adv-x="1288" d="M27 315q0 40 43 80.5t88 40.5q26 0 57.5 -25t66.5 -61t76.5 -71.5t104 -60.5t133.5 -25q83 0 166.5 31t145 96.5t61.5 148.5q0 76 -73 148t-169 112.5t-174 40.5q-11 0 -36.5 -1t-39.5 -1q-52 0 -82 16t-30 64q0 22 8.5 39.5t20.5 28.5t35 21.5t41 15.5t50 14 q47 11 122 51t139.5 99t64.5 106q0 49 -29.5 81.5t-67 44t-79.5 11.5q-56 0 -135 -23t-140.5 -46t-77.5 -23q-44 0 -77 25t-33 69q0 51 50 91.5t124 62.5t144.5 33.5t123.5 11.5q92 0 158.5 -8t123 -29t91 -56t53.5 -89.5t19 -129.5q0 -111 -73 -187t-210 -140 q78 -33 136.5 -64.5t113.5 -74.5t90 -91t55.5 -111.5t20.5 -138.5q0 -103 -53.5 -192.5t-140.5 -148.5t-194.5 -92.5t-217.5 -33.5q-113 0 -215.5 32t-168.5 78t-116 96t-72 86t-22 48z" />
<glyph unicode="4" horiz-adv-x="1503" d="M33 649q0 72 59 137q193 224 342.5 375.5t358.5 341.5q85 76 180 76q166 0 166 -113q-31 -607 -39 -786q55 -2 162 -2q34 0 62.5 -3t59 -12t51.5 -24.5t34.5 -42.5t13.5 -64q0 -98 -109 -98q-135 0 -282 10q-1 -85 -2 -159t-2 -113.5t-1 -58.5q0 -136 -104 -136 q-41 0 -69 14t-42.5 32t-22 51t-8.5 55t-1 59q0 138 6 279q-236 18 -488 18q-102 0 -219 13q-53 6 -79.5 50t-26.5 101zM365 745q0 -47 41 -47q142 0 450 -12q16 348 16 528q0 31 -24 31q-20 0 -251.5 -237t-231.5 -263z" />
<glyph unicode="5" horiz-adv-x="1339" d="M98 819q0 29 43.5 217t46.5 254q3 71 23 121t45.5 76t67.5 40.5t73.5 17.5t79.5 3q86 0 265.5 -1t254.5 -1q39 0 67.5 -4t57 -15t43.5 -35.5t15 -61.5q0 -140 -500 -140q-55 0 -139 1t-101 1l-59 -295q52 24 149 45t187 21q128 0 227 -41.5t160 -115t92 -170t31 -212.5 q0 -131 -51 -238t-138 -176t-200.5 -106t-241.5 -37q-89 0 -182 23.5t-160.5 58t-110.5 74t-43 70.5q0 54 36.5 104.5t80.5 50.5q32 0 67 -23.5t64.5 -51t86 -51t126.5 -23.5q156 0 267.5 99t111.5 241q0 307 -254 307q-51 0 -105 -17.5t-99.5 -42t-89.5 -49t-91.5 -42 t-89.5 -17.5q-59 0 -86 39.5t-27 101.5z" />
<glyph unicode="6" horiz-adv-x="1361" d="M92 532q0 244 126.5 488.5t320.5 427.5q4 4 24.5 24t31.5 30t31.5 27.5t34.5 27t30.5 17t29.5 7.5q39 0 74.5 -38t35.5 -83q0 -27 -22.5 -57.5t-71.5 -78t-65 -64.5q-71 -76 -122.5 -137.5t-100 -133.5t-74 -142.5t-25.5 -135.5q0 -74 4 -109q120 173 283 263.5t328 90.5 q81 0 145 -37t102.5 -99.5t58 -138t19.5 -157.5q0 -125 -55.5 -230t-146 -172.5t-203.5 -104.5t-232 -37q-267 0 -414 141.5t-147 410.5zM422 352q83 -151 285 -151q140 0 238.5 98.5t98.5 253.5q0 170 -159 170q-119 0 -251.5 -101.5t-211.5 -269.5z" />
<glyph unicode="7" horiz-adv-x="1243" d="M33 1391q0 61 33 101t92 40q65 0 390 2t398 2q41 0 65.5 -0.5t60.5 -3t58 -7.5t44 -14t32.5 -23.5t10.5 -33.5q0 -24 -124 -246t-314 -556.5t-285 -514.5q-30 -81 -73.5 -126.5t-121.5 -45.5q-44 0 -75 21.5t-31 58.5q0 28 16 73.5t37 78.5q77 129 306 530t345 582 q-136 0 -358.5 -7.5t-378.5 -7.5q-70 0 -98.5 20t-28.5 77z" />
<glyph unicode="8" horiz-adv-x="1302" d="M98 387q0 124 71.5 248t143.5 160q-51 31 -107 129.5t-56 193.5q0 130 74.5 234t192.5 158.5t253 54.5q221 0 361 -110t140 -310q0 -117 -52.5 -194t-155.5 -146q86 -44 158.5 -156t72.5 -248q0 -84 -30 -154.5t-82 -120.5t-122 -85t-148.5 -51.5t-162.5 -16.5 q-80 0 -155.5 13t-148 44.5t-127 78t-87.5 118t-33 160.5zM348 432q0 -120 87 -185t214 -65q126 0 204.5 62t78.5 184q0 112 -85 193t-212 81q-121 0 -204 -72t-83 -198zM410 1130q0 -97 74 -167t175 -70q100 0 182.5 62t82.5 159q0 111 -65 177.5t-169 66.5 q-128 -2 -204 -58t-76 -170z" />
<glyph unicode="9" horiz-adv-x="1392" d="M80 1012q0 160 87 287.5t234.5 196.5t325.5 69q122 0 221.5 -39t165.5 -103.5t111 -151t64.5 -179.5t19.5 -191q0 -324 -191 -564t-538 -337q-65 -19 -157.5 -31t-143.5 -12q-34 0 -56 37t-22 78q0 29 19.5 49.5t55 32t70.5 18.5t79.5 14.5t68.5 14.5q233 64 354.5 171 t167.5 259q-182 -88 -404 -88q-96 0 -188.5 30t-170 86t-125.5 148t-48 205zM340 1016q0 -64 35 -114.5t92.5 -79.5t122.5 -43.5t133 -14.5q183 0 328 90q4 82 4 129q0 56 -20 113.5t-58.5 110t-106.5 85.5t-153 33q-94 0 -179 -35.5t-141.5 -108t-56.5 -165.5z" />
<glyph unicode=":" horiz-adv-x="600" d="M143 82q0 71 50.5 128.5t117.5 57.5q62 0 100 -44t38 -105q0 -68 -53 -124t-120 -56q-53 0 -93 43.5t-40 99.5zM188 821q0 72 50.5 129.5t117.5 57.5q62 0 100 -44.5t38 -105.5q0 -68 -52.5 -124t-119.5 -56q-54 0 -94 43.5t-40 99.5z" />
<glyph unicode=";" horiz-adv-x="600" d="M61 -80q0 49 51 143.5t125 173t128 78.5q32 0 54.5 -28t22.5 -72q0 -15 -4 -31.5t-8 -27.5t-16 -31.5t-16.5 -28t-22 -33.5t-21.5 -32q-14 -20 -38.5 -58.5t-40 -60.5t-36.5 -47.5t-41.5 -37t-41.5 -11.5q-39 0 -67 31t-28 73zM188 821q0 72 50.5 129.5t117.5 57.5 q62 0 100 -44.5t38 -105.5q0 -68 -52.5 -124t-119.5 -56q-54 0 -94 43.5t-40 99.5z" />
<glyph unicode="&#x3c;" horiz-adv-x="847" d="M76 748q0 54 63 88q80 45 246.5 174t230.5 168q29 16 52 16q40 0 70 -33t30 -74q0 -31 -80 -104t-158.5 -131t-148.5 -104q119 -81 247 -188t128 -148q0 -40 -30 -73.5t-69 -33.5q-27 0 -57 21q-40 26 -198 149.5t-261 181.5q-65 28 -65 91z" />
<glyph unicode="=" horiz-adv-x="1028" d="M100 436q0 113 179 113q108 0 317.5 -3t259.5 -3q40 0 65 -31t25 -74q0 -47 -25 -76t-67 -32q-123 -8 -281 -8q-53 0 -166 1t-174 1q-55 0 -94 30t-39 82zM102 971q0 112 179 112q108 0 317.5 -3t259.5 -3q40 0 65 -30.5t25 -73.5q0 -47 -25 -76.5t-67 -32.5 q-123 -8 -281 -8q-53 0 -165.5 1t-173.5 1q-55 0 -94.5 30.5t-39.5 82.5z" />
<glyph unicode="&#x3e;" horiz-adv-x="847" d="M76 1087q0 41 30 74t70 33q22 0 51 -16q64 -39 231 -168t247 -174q63 -34 63 -88q0 -62 -66 -91q-103 -58 -260.5 -181.5t-197.5 -149.5q-30 -21 -58 -21q-39 0 -68.5 33t-29.5 74t128 148t247 188q-70 46 -148.5 104t-158.5 131t-80 104z" />
<glyph unicode="?" horiz-adv-x="1138" d="M-8 1257q0 69 94.5 134.5t216 102t213.5 36.5q70 0 128 -4t125 -15t117.5 -33t93.5 -55.5t66 -86t23 -119.5q0 -41 -6.5 -79.5t-23 -76.5t-32 -69t-45.5 -68.5t-51.5 -63t-62 -65t-63.5 -61t-70 -64.5q-20 -18 -82.5 -92.5t-117 -118t-105.5 -43.5q-39 0 -73 54t-34 99 q0 49 34.5 92t106.5 93q29 20 86.5 58.5t85.5 58.5t69.5 55t61 62t35 65.5t15.5 79.5q0 50 -44.5 85.5t-103.5 50.5t-121 15q-68 0 -142 -25.5t-124 -55.5t-96.5 -55.5t-67.5 -25.5q-36 0 -71 44t-35 91zM219 96q0 72 50.5 129.5t117.5 57.5q62 0 99.5 -44.5t37.5 -105.5 q0 -68 -52.5 -124t-119.5 -56q-53 0 -93 43.5t-40 99.5z" />
<glyph unicode="@" horiz-adv-x="1847" d="M59 569q0 145 39 285t121.5 266.5t198.5 222t281.5 151.5t359.5 56q164 0 299.5 -58.5t226.5 -160.5t141 -241.5t50 -301.5q0 -78 -15.5 -153t-54 -149.5t-95 -130.5t-147 -91t-202.5 -35q-189 0 -267 172q-122 -94 -215 -94q-148 0 -216 68t-68 178q0 136 85.5 270.5 t221 219.5t272.5 85q112 0 175 -42t63 -111q0 -62 -26.5 -148t-53.5 -160t-27 -106q0 -58 27 -90.5t65 -32.5q66 0 117.5 28t81 69.5t48.5 95.5t25.5 99.5t6.5 88.5q0 231 -142 358.5t-413 127.5q-140 0 -259.5 -43t-203.5 -115.5t-143.5 -167.5t-88 -200t-28.5 -212 q0 -117 35 -222.5t102 -189t175 -133t243 -49.5q70 0 161 28.5t166.5 56.5t106.5 28q46 0 74.5 -32.5t28.5 -76.5q0 -51 -47 -93.5t-116 -68t-151 -43.5t-147 -25t-109 -7q-148 0 -273 45.5t-214 124t-152 184t-93 226t-30 249.5zM745 616q0 -28 22 -45.5t54 -17.5 q43 0 92 23.5t93 63.5t73 103t29 134q0 22 -12 32.5t-41 10.5q-31 0 -70 -12t-81.5 -37.5t-77.5 -60.5t-58 -86t-23 -108z" />
<glyph unicode="A" horiz-adv-x="1490" d="M27 86q0 42 27.5 119.5t58.5 141.5t71 143t47 94q441 958 617 958q50 0 111 -80.5t115 -196.5t112 -269t97.5 -274.5t76 -237t43.5 -134.5q9 -26 32.5 -84t35.5 -99.5t12 -80.5q0 -28 -33.5 -47t-67.5 -19q-56 0 -132.5 134t-133.5 356q-65 -10 -224 -30t-284.5 -39 t-204.5 -38q-22 -50 -72.5 -189.5t-62.5 -170.5q-27 -70 -100 -70t-107 34t-34 79zM514 659q410 82 522 105q-6 12 -41.5 127.5t-76.5 202t-78 86.5q-36 0 -71 -36.5t-55.5 -77t-49.5 -104.5t-39 -83q-18 -34 -60.5 -120t-50.5 -100z" />
<glyph unicode="B" horiz-adv-x="1333" d="M131 438q0 147 7 471t7 508q0 32 19.5 60t46.5 36q93 30 207.5 50t191.5 20q75 0 151.5 -12t152.5 -39.5t135 -67t96 -100.5t37 -135q0 -58 -28 -121t-69.5 -113t-85 -88t-79.5 -57q26 -1 46.5 -3t59.5 -8.5t68.5 -16t64.5 -27.5t58.5 -42t39 -61t15.5 -82 q0 -108 -41.5 -201.5t-112.5 -161t-162.5 -120.5t-196 -85t-207 -48.5t-200.5 -16.5q-56 0 -99.5 20t-67.5 52.5t-36 67.5t-14 71q-4 164 -4 250zM365 913q0 -19 2 -29t13.5 -18t33.5 -8q51 0 132.5 25.5t163 67t139.5 104t58 127.5q0 44 -31 77t-82.5 51.5t-110 27 t-122.5 8.5q-117 0 -194 -25q0 -65 -1 -200.5t-1 -207.5zM367 623q0 -281 2 -390q17 -26 127 -26q107 0 238.5 57t222 137t90.5 144q0 30 -34 53t-91.5 36t-124 19t-140.5 6q-229 0 -290 -36z" />
<glyph unicode="C" horiz-adv-x="1357" d="M61 426q0 164 61 331.5t165.5 305.5t234.5 247t276.5 169.5t282.5 60.5q43 0 78 -25t56.5 -62.5t35.5 -85t19.5 -88.5t5.5 -77q0 -34 -5 -66.5t-17.5 -67.5t-39 -56t-63.5 -21q-29 0 -46.5 11t-23 29t-8.5 41t-3 47t-7 47t-19.5 41t-41.5 29t-72 11q-96 0 -209.5 -76.5 t-205.5 -192t-154 -260.5t-62 -272q0 -69 43 -122t106 -78t134 -25q79 0 158 22.5t141.5 54.5t119 64.5t110 55t95.5 22.5q40 0 67 -28t27 -72q0 -57 -47 -115t-122.5 -104t-164 -82.5t-176.5 -56t-155 -19.5q-93 0 -175.5 15.5t-156.5 51t-127 88t-84 131.5t-31 177z" />
<glyph unicode="D" horiz-adv-x="1505" d="M137 115q0 78 15.5 256t15.5 262q0 113 -7 315t-7 301q0 39 4 117q3 60 49.5 113t105.5 53q11 0 27 -4q61 -11 155.5 -17.5t178.5 -10t183.5 -15t180.5 -29.5t160 -58t132.5 -97t86.5 -148.5t33 -210.5q0 -142 -40.5 -275.5t-112 -241.5t-170 -198.5t-213 -151.5 t-243 -94.5t-257.5 -33.5q-277 0 -277 168zM389 307q0 -82 123 -82q108 0 220 49.5t200 127t158.5 167t108.5 175t38 145.5q0 59 -17.5 108t-45.5 85t-73 64.5t-90 47.5t-108 32.5t-114.5 21t-122 11.5t-118 5.5t-114.5 1.5q0 -268 -22.5 -567.5t-22.5 -391.5z" />
<glyph unicode="E" horiz-adv-x="1349" d="M100 291q0 167 25 517.5t25 512.5q0 73 35.5 124t103.5 64q111 4 359.5 41t387.5 37q35 0 56.5 -1t55.5 -4.5t55 -13t42.5 -24t32 -40t10.5 -58.5q0 -78 -49 -106.5t-149 -28.5q-41 0 -152.5 7t-175.5 7q-83 0 -192.5 -17.5t-180.5 -43.5q-29 -137 -29 -340 q0 -34 14.5 -43t47.5 -9q71 0 310.5 43.5t354.5 53.5q58 0 100 -35t42 -88q0 -51 -26.5 -89.5t-78.5 -41.5q-109 -7 -426.5 -56t-355.5 -49q-12 -44 -12 -293q0 -68 41 -90t125 -22q75 0 296.5 40t276.5 40q64 0 101.5 -29.5t41.5 -85.5q0 -57 -33.5 -92.5t-93.5 -44.5 q-162 -25 -243 -36.5t-203 -23.5t-213 -12t-147.5 12t-99.5 47.5t-61 100.5t-18 170z" />
<glyph unicode="F" horiz-adv-x="1277" d="M117 35q6 545 6 1198q0 67 7 115.5t25.5 92t56 65.5t93.5 22q97 0 295 16.5t305 16.5q66 0 116.5 -4t105.5 -15.5t85.5 -38t30.5 -65.5q0 -47 -40.5 -82.5t-102.5 -46.5q-45 1 -156 7.5t-168 6.5q-267 0 -399 -39q-4 -180 -4 -330q0 -24 2 -36t13 -20.5t34 -8.5 q41 0 253.5 36t282.5 35q81 0 132 -32t51 -92q0 -47 -32.5 -75.5t-91.5 -40t-116.5 -15.5t-134.5 -6.5t-119 -8.5q-36 -5 -97 -10.5t-106 -11.5t-77 -15q4 -300 4 -524q0 -45 -15.5 -88t-55.5 -77t-97 -34q-86 0 -86 105z" />
<glyph unicode="G" horiz-adv-x="1492" d="M61 459q0 164 61 331.5t165.5 305.5t234.5 247t276.5 169.5t282.5 60.5q54 0 95 -31.5t63 -80t32.5 -97.5t10.5 -94q0 -33 -6 -66.5t-19.5 -67.5t-41 -55.5t-64.5 -21.5q-29 0 -46.5 11t-23 29t-8.5 41t-3 47t-7 47t-19.5 41t-41.5 29t-72 11q-68 0 -154 -52.5 t-168.5 -141.5t-152.5 -195.5t-113 -226t-43 -220.5q0 -69 43 -122t106 -78t134 -25q78 0 174.5 22t186 59.5t150 98t60.5 127.5q0 19 -16.5 33t-34.5 14q-59 -1 -140.5 -24t-144.5 -23q-52 0 -90.5 30.5t-38.5 76.5q0 60 96.5 112.5t234.5 80.5t271 28q162 0 162 -117 q0 -140 -44 -264t-121 -216.5t-180 -160t-223.5 -101.5t-248.5 -34q-93 0 -175.5 15.5t-156.5 51t-127 88t-84 131.5t-31 177z" />
<glyph unicode="H" horiz-adv-x="1495" d="M106 264q0 199 37 1028q12 271 160 271q123 -19 123 -107q0 -117 -25.5 -337.5t-25.5 -303.5q0 -8 3.5 -12t14.5 -4q65 0 176.5 17.5t189 33.5t217.5 48t157 36q4 51 4 178q0 50 -1 154.5t-1 154.5q0 57 35.5 105.5t95.5 48.5q53 0 83.5 -29t30.5 -76q0 -222 -12.5 -658 t-13.5 -706q0 -42 -31 -71t-76 -29q-125 0 -125 172q0 48 2 144t2 145v180q-195 0 -417 -30t-342 -95q-12 -194 -19 -459q-1 -38 -39.5 -71t-75.5 -33q-55 0 -86 23.5t-34 60.5q-7 84 -7 221z" />
<glyph unicode="I" horiz-adv-x="946" d="M41 115q0 112 178 112h135q6 465 6 996v82h-159q-55 0 -94 30t-39 82q0 113 178 113q108 0 317.5 -3t259.5 -3q40 0 65 -31t25 -74q0 -47 -25 -76t-67 -32q-140 -8 -209 -8q2 -10 2 -29q-8 -245 -8 -563q0 -82 1 -231.5t1 -256.5q59 -2 189 -2q40 0 65 -30.5t25 -73.5 q0 -47 -25 -76.5t-67 -32.5q-123 -8 -281 -8q-53 0 -166 1t-174 1q-55 0 -94 30.5t-39 82.5z" />
<glyph unicode="J" horiz-adv-x="1546" d="M76 403q0 105 39.5 154t91.5 49q64 0 85 -23.5t21 -74.5q0 -46 2 -75.5t9 -63t20 -54.5t35.5 -41.5t56 -31.5t81 -18t110.5 -7q82 0 139.5 29.5t90.5 89t48.5 134.5t18.5 179q14 420 14 584q0 61 -43 61q-15 0 -147 -1t-146 -1q-31 0 -53.5 2t-46.5 9t-38.5 19.5 t-24 33.5t-9.5 51q0 19 6 35t20 27t28.5 19t40 13.5t45 8.5t53.5 4.5t55.5 2.5t60.5 1q19 0 233 4t308 4q103 0 157 -27.5t54 -105.5q0 -19 -5.5 -32.5t-11.5 -21.5t-22 -14.5t-25 -8.5t-33.5 -6.5t-35.5 -6.5q-19 -5 -46 -7t-64 -2.5t-58 -1.5q-10 -112 -10 -272 q0 -50 1 -157t1 -165q0 -80 -5.5 -149.5t-21.5 -145.5t-42 -137.5t-70 -118.5t-102 -95.5t-141.5 -61.5t-185.5 -23q-78 0 -153.5 16.5t-145.5 52t-123 86t-84.5 123t-31.5 158.5z" />
<glyph unicode="K" horiz-adv-x="1277" d="M127 829q0 348 8 619q1 35 24.5 59t53.5 33.5t61 9.5q40 0 74.5 -29.5t34.5 -72.5q0 -76 -6 -248t-6 -254q0 -63 10 -65q272 164 528 495q13 17 34 48t36.5 52t36.5 43.5t45.5 34t52.5 11.5q49 0 85 -39.5t36 -91.5q0 -42 -47 -112t-135.5 -162.5t-158.5 -160.5 t-175.5 -165t-126.5 -117q29 -36 145 -124t148 -116q48 -42 139 -103.5t134.5 -104t43.5 -89.5q0 -59 -38.5 -107t-98.5 -48q-55 0 -127.5 46.5t-145 115t-144 138.5t-143.5 126t-124 69q-6 -62 -6 -121q0 -32 2 -101t2 -108q0 -31 -0.5 -47.5t-2.5 -46.5t-6 -47.5 t-12 -40.5t-20 -35t-30.5 -21t-41.5 -9q-43 0 -71.5 22.5t-42 63.5t-18.5 83.5t-5 98.5q0 99 -1 306t-1 312z" />
<glyph unicode="L" horiz-adv-x="1124" d="M82 104q0 134 22.5 404.5t22.5 421.5q0 70 -2 214t-2 228q0 221 127 221q40 0 66 -21.5t37.5 -61t15.5 -77t4 -87.5q0 -132 -17 -555q-3 -67 -17.5 -245t-14.5 -276q0 -24 22 -24q90 0 218.5 36t245 71.5t175.5 35.5q49 0 79 -33.5t30 -97.5q0 -41 -31.5 -74.5 t-76.5 -54.5t-115 -40t-127.5 -29.5t-133.5 -24t-114 -21.5q-35 -8 -86 -23t-94 -25.5t-89 -14.5q-70 0 -107.5 40t-37.5 113z" />
<glyph unicode="M" horiz-adv-x="1822" d="M63 109q1 63 30 191t83 329t74 284q6 23 20.5 95.5t27.5 134.5t37.5 142t51.5 135.5t68 94.5t88 39q33 0 59.5 -22.5t43 -53.5t31 -83t21.5 -90t16.5 -96t14.5 -81q23 -117 68.5 -258.5t89.5 -236.5q11 29 93 227t140 359q5 14 15.5 48t19.5 58t22.5 58.5t29 58t35 46.5 t44.5 34.5t53 11.5q50 0 82.5 -39t48.5 -94q41 -136 111.5 -533t104.5 -508q73 -235 73 -288q0 -40 -40 -62t-89 -22q-84 0 -104 55q-9 23 -18 53.5t-15.5 55.5t-17.5 70.5t-16.5 71t-19.5 86.5t-20 89q-10 45 -33 151t-38 172.5t-35 136t-35 95.5q-49 -101 -96 -242.5 t-79.5 -257.5t-67.5 -222.5t-76.5 -167t-90.5 -60.5q-69 0 -97.5 30.5t-45.5 98.5q-35 148 -108.5 422t-98.5 374q-38 -86 -103 -358t-65 -444q-2 -36 -5.5 -61.5t-13.5 -59t-26 -54.5t-44.5 -36t-67.5 -15q-55 0 -92.5 39.5t-37.5 98.5z" />
<glyph unicode="N" horiz-adv-x="1458" d="M92 166q0 82 14.5 244t14.5 254q0 350 -2 454q-1 40 -11 133t-10 142q0 48 30.5 87.5t78.5 39.5q39 0 77.5 -25.5t68.5 -63t61.5 -90.5t52.5 -97.5t45.5 -96t36.5 -74.5q60 -114 170.5 -271.5t222.5 -281.5q111 -123 155 -123h1q49 0 49 187q0 97 -4 207.5t-10 249.5 t-9 219q-1 30 -9.5 87.5t-8.5 86.5q0 60 36 110.5t93 50.5q33 0 57 -18t36.5 -43.5t19.5 -66.5t8.5 -74t1.5 -80q0 -98 -6 -250.5t-6 -206.5q0 -103 8 -314t8 -311q0 -105 -36 -156.5t-126 -51.5q-61 0 -161 77.5t-205 195.5t-204.5 247.5t-171 243.5t-93.5 174 q-31 -234 -31 -469q0 -51 6 -158.5t6 -171.5q0 -51 -10.5 -91.5t-43 -71t-83.5 -30.5q-63 0 -90 43.5t-27 153.5z" />
<glyph unicode="O" d="M57 639q0 152 52.5 294.5t145 253.5t213 195t262.5 129t286 45q141 0 266 -51t219.5 -143t149.5 -230.5t55 -304.5q0 -128 -40 -243.5t-106 -201.5t-152.5 -158.5t-177.5 -121t-182.5 -82.5t-167.5 -49.5t-132 -15.5q-145 0 -272 49.5t-219.5 137.5t-146 217t-53.5 280z M297 608q0 -81 28 -149t73.5 -113t104.5 -77t118.5 -46t117.5 -14q103 0 207 24.5t199 75.5t168.5 121.5t117.5 170.5t44 214q0 113 -36.5 206.5t-98.5 155t-143.5 95t-172.5 33.5q-142 0 -274 -51.5t-232.5 -141t-160.5 -221.5t-60 -283z" />
<glyph unicode="P" horiz-adv-x="1294" d="M113 127q0 18 3.5 229t8 364t13 350.5t24 313.5t35.5 129q44 28 200.5 50t280.5 22q104 0 202 -24.5t182.5 -73t135.5 -131t51 -187.5q0 -113 -49.5 -212t-131 -168t-185.5 -119.5t-214.5 -74.5t-217.5 -24q-40 0 -91 7q-6 -70 -6 -168q0 -44 3 -136t3 -137 q0 -64 -30 -104.5t-84 -40.5q-57 0 -92.5 36.5t-40.5 98.5zM366 793q71 0 150.5 11.5t164.5 38t152 64.5t110.5 97t43.5 129q0 45 -21 81t-55 58.5t-81 37.5t-96.5 21t-104.5 6q-159 0 -252 -39q1 -205 -11 -505z" />
<glyph unicode="Q" horiz-adv-x="1683" d="M106 567q0 106 28.5 218t80 217.5t127.5 200t167 165t203.5 111.5t231.5 41q143 0 255 -35.5t185.5 -95.5t121.5 -146t68.5 -182t20.5 -207q0 -186 -69.5 -350.5t-194.5 -288.5q58 -53 148 -123q73 -70 73 -115q0 -54 -30.5 -90.5t-73.5 -36.5q-50 0 -116.5 48 t-182.5 180q-194 -107 -414 -107q-126 0 -240 41.5t-200.5 116t-137.5 188.5t-51 250zM365 586q0 -123 57 -215t151.5 -138.5t212.5 -46.5q122 0 224 60q-9 11 -92 119q-105 113 -105 186q0 41 31 69.5t71 28.5q28 0 54 -20.5t47 -48.5l66 -88t89 -111q83 101 130 230 t47 255q0 190 -114.5 297t-305.5 107q-149 0 -279 -93.5t-207 -251.5t-77 -339z" />
<glyph unicode="R" horiz-adv-x="1304" d="M76 272q0 159 9 483.5t9 493.5q0 85 15 146q9 41 36.5 70.5t60 45t80.5 24.5t84 11t85 2q58 0 120 -4t141 -15.5t150 -29.5t141 -49t120.5 -71.5t82 -99.5t31.5 -130q0 -93 -47 -182.5t-120 -153.5t-163.5 -104t-175.5 -41q6 -4 44.5 -39t89.5 -81.5t81 -70.5 q28 -24 75 -57t80 -57.5t66 -56t50.5 -67.5t17.5 -77q0 -57 -35 -94t-92 -37q-35 0 -101.5 51t-166.5 144.5t-129 117.5q-134 113 -217 161t-154 48q-18 0 -18 -61q0 -29 3 -114.5t3 -111.5q0 -33 -2.5 -66.5t-12.5 -78t-25.5 -77t-45 -56t-68.5 -23.5q-24 0 -41.5 10 t-28.5 32t-17.5 45.5t-9.5 63.5t-4 72t-1 84zM311 821q20 -20 117 -20q92 0 185.5 18t175 51t133 87.5t51.5 121.5q0 51 -38.5 93t-97 68t-132.5 43.5t-140 24.5t-125 7q-41 0 -71 -17q-13 -8 -23 -31.5t-16 -60.5t-10 -73t-5.5 -86.5t-2 -83.5t-1 -80.5t-0.5 -61.5z" />
<glyph unicode="S" horiz-adv-x="1462" d="M76 903q0 108 73.5 208.5t188.5 172.5t253 126t271.5 81t239.5 27q48 0 84.5 -20t56.5 -49t32.5 -67.5t16.5 -69t4 -59.5q0 -123 -118 -129q-34 0 -59.5 11.5t-38 25t-35 42t-37.5 44.5q-52 -1 -128 -12.5t-167.5 -38t-169 -63t-129.5 -94t-52 -124.5q0 -41 56.5 -63.5 t147 -30.5t199.5 -14t218 -22t199.5 -46t147 -94.5t56.5 -159.5q0 -110 -65.5 -208t-166.5 -163t-222 -103t-234 -38q-65 0 -136.5 8.5t-154.5 30.5t-147.5 56t-107.5 91t-43 128q0 37 33 62.5t73 25.5q30 0 80 -26.5t98 -57.5t113.5 -57.5t122.5 -26.5q70 0 144.5 12.5 t146 38t117.5 71t46 103.5q0 48 -34.5 79.5t-92.5 47t-134 24.5t-159 15t-166.5 14.5t-159.5 27.5t-134 49.5t-92.5 84.5t-34.5 129z" />
<glyph unicode="T" horiz-adv-x="1357" d="M4 1391q0 59 45.5 92t106.5 33q31 0 97 -4.5t101 -4.5q131 0 425 11.5t438 11.5q51 0 95 -32.5t44 -82.5q0 -41 -19.5 -69.5t-55.5 -42.5t-75.5 -19.5t-91.5 -5.5q-35 0 -82 1t-100 1q-123 0 -125 -35v-612q0 -59 -0.5 -95t-1.5 -92.5t-3.5 -93t-7 -86t-12 -81.5 t-17.5 -69.5t-24 -61t-31.5 -44t-41 -30t-50.5 -9.5q-39 0 -66.5 23t-27.5 59q0 139 11.5 436t11.5 465q0 314 -43 314q-98 -6 -279 -6q-53 0 -99 10t-84 40.5t-38 78.5z" />
<glyph unicode="U" horiz-adv-x="1474" d="M76 539q0 105 17.5 333.5t17.5 364.5q0 51 4.5 90.5t17.5 84.5t44 70t77 25q43 0 71.5 -25.5t40.5 -71.5t15.5 -83.5t3.5 -87.5q0 -107 -26.5 -330.5t-26.5 -369.5q0 -177 67 -242.5t240 -65.5q97 0 179.5 23t147 79t85.5 138q86 347 86 754q0 71 5.5 124t19.5 102t44 75 t74 26q57 0 93 -38.5t36 -94.5q0 -135 -27 -424.5t-57 -531.5q-11 -92 -60 -174.5t-135.5 -151t-225.5 -109t-312 -40.5q-115 0 -203 25.5t-147 71.5t-96.5 115.5t-53.5 152t-16 186.5z" />
<glyph unicode="V" horiz-adv-x="1490" d="M47 1311q0 28 33 46.5t67 18.5q65 0 133 -109t122.5 -265t103 -311.5t88.5 -264.5t63 -109q17 0 38.5 21t44 59.5t41 73.5t41 81.5t32.5 65.5q27 50 164.5 352t189.5 433q27 70 101 70q73 0 107 -34t34 -79q0 -54 -33.5 -138.5t-91 -194.5t-59.5 -114 q-441 -958 -617 -958q-50 0 -108.5 73t-108.5 178.5t-104 245t-90 250t-70 218.5t-41 127q-9 26 -32.5 84t-35.5 99.5t-12 80.5z" />
<glyph unicode="W" horiz-adv-x="2107" d="M80 1454q0 55 40 86t97 31q40 0 73.5 -21t47.5 -59q38 -102 79.5 -313.5t82.5 -393t88 -252.5q33 36 118.5 246t131.5 373q4 16 16 60.5t19 68.5t20.5 66t24.5 66.5t29 55.5t35.5 47.5t41 28.5t49.5 12q67 0 104 -43t37 -124q3 -60 18 -166t17 -131q17 -160 52.5 -343 t76.5 -323q92 148 166.5 329.5t149.5 409.5q1 2 10 40.5t20.5 80t32.5 95.5t45 95t59 70t74 29q54 0 91.5 -33.5t37.5 -85.5q0 -19 -9.5 -55.5t-27.5 -85.5t-32 -86t-33.5 -86.5t-22.5 -57.5q-156 -409 -305 -725q-11 -24 -33.5 -75.5t-38.5 -87.5t-43 -82t-53 -74.5 t-62.5 -49t-76.5 -20.5q-22 0 -45 31.5t-44 85.5t-40 115.5t-36.5 133.5t-29.5 126t-23 107t-13 63q-6 26 -19 108t-26.5 125t-34.5 45q-24 0 -77 -132t-129.5 -349t-117.5 -315q-25 -60 -70.5 -96.5t-86.5 -36.5q-66 0 -101 120q-106 371 -172 648q-17 71 -65 239.5 t-82.5 299.5t-34.5 165z" />
<glyph unicode="X" horiz-adv-x="1470" d="M51 49q7 47 26.5 89t37.5 67t53 67t53 66q144 184 389 487q-118 187 -218.5 319t-190.5 202q-41 33 -41 84q0 46 33 82t77 36q47 0 91 -18t83.5 -52t69 -67t64.5 -80q11 -16 36 -57.5t70 -114.5t86 -139l66 80q18 15 80.5 91.5t125 150.5t138.5 136t127 62q46 0 80 -34.5 t34 -80.5q0 -20 -4 -28q-19 -49 -53.5 -92.5t-94.5 -101t-77 -75.5q-84 -72 -285 -321q108 -163 209 -295q20 -25 75 -84t94 -103.5t72.5 -104t33.5 -105.5q0 -59 -33 -107.5t-88 -48.5q-24 0 -50.5 12.5t-58 42.5t-59.5 60t-67 84t-67 94.5t-73 112t-73 116t-77 125.5 q-68 -87 -162.5 -208t-156 -200t-90.5 -114q-49 -60 -86.5 -82t-102.5 -22q-96 0 -96 69z" />
<glyph unicode="Y" horiz-adv-x="1275" d="M35 1452q0 28 33.5 47t66.5 19q65 0 123.5 -64.5t103.5 -164t85 -203t86.5 -200t89.5 -136.5q78 87 152.5 233.5t137 303t80.5 190.5q35 69 101 69q73 0 107 -33.5t34 -78.5q0 -75 -42 -183.5t-112 -226.5t-131.5 -211t-131.5 -191.5t-81 -115.5q0 -62 1 -180.5t1 -196.5 q0 -45 -15.5 -88t-55.5 -77t-97 -34q-45 0 -64.5 26.5t-19.5 78.5l5 479q-26 47 -125.5 220t-165 290t-86.5 164q-28 62 -40.5 93.5t-26 81t-13.5 89.5z" />
<glyph unicode="Z" horiz-adv-x="1558" d="M35 125q0 62 107.5 199t260.5 292t306 303t260.5 255.5t107.5 125.5q0 20 -20 29q-104 -5 -371.5 -30t-406.5 -25q-82 0 -122 32.5t-40 82.5q0 43 19.5 70.5t58 39.5t74 15.5t89.5 3.5q120 0 389.5 12t430.5 12q190 0 271 -26.5t81 -96.5q0 -26 -51.5 -74t-146.5 -127.5 t-156 -142.5q-231 -239 -468.5 -515t-240.5 -312q0 -16 18 -25q117 2 394 30t426 28q41 0 73 -4.5t64 -16t49.5 -36.5t17.5 -62q0 -73 -49 -117.5t-119 -44.5q-120 0 -309.5 8t-283.5 8q-147 0 -209.5 -1t-169 -8t-234.5 -23q-50 0 -75 40.5t-25 100.5z" />
<glyph unicode="[" horiz-adv-x="704" d="M133 -150q0 200 5 633t5 635q0 82 -5 243.5t-5 242.5q0 46 25.5 73t72.5 33h283q47 0 74.5 -31.5t27.5 -74.5q0 -24 -7 -42.5t-24 -29.5t-33 -18t-46 -11t-49.5 -5t-58.5 -2.5t-58 -2.5q4 -111 4 -332q0 -448 -8 -1214q88 4 262 4q56 0 90.5 -32t34.5 -79 q0 -43 -25.5 -74.5t-70.5 -31.5h-373q-61 0 -91 27.5t-30 88.5z" />
<glyph unicode="\" horiz-adv-x="802" d="M25 1522q0 39 22.5 68t58.5 32q123 0 316 -563l178 -516q10 -30 60.5 -163t86 -239t35.5 -141q0 -41 -24.5 -69.5t-59.5 -28.5q-24 1 -46 14.5t-41 41t-33 52t-29.5 65.5t-23 63t-19.5 61q-78 246 -157 470.5t-134.5 364t-100.5 248t-67 165.5t-22 75z" />
<glyph unicode="]" horiz-adv-x="647" d="M-18 -174q0 47 35.5 79t91.5 32q155 0 262 -5q-1 148 -5 557t-4 631q0 182 7 299h-162q-61 0 -99 30.5t-38 80.5q0 45 26.5 71.5t75.5 26.5h305q46 0 72 -26.5t26 -73.5q0 -66 -6 -199t-6 -199q0 -202 5 -604t5 -602q0 -36 -0.5 -56t-3 -45.5t-7 -38t-13 -27.5t-21.5 -21 t-31.5 -10.5t-43.5 -4.5h-375q-45 0 -70.5 31.5t-25.5 73.5z" />
<glyph unicode="^" horiz-adv-x="864" d="M72 1182q0 35 30 65q21 21 61.5 67t73.5 81.5t70.5 73t67.5 58.5t49 21q40 0 103 -53.5t150 -150.5t93 -103q31 -31 31 -67q0 -43 -31 -74t-74 -31q-32 0 -74.5 34.5t-109.5 109.5t-84 92q-4 -5 -39.5 -49t-55 -65t-52 -54t-59 -48.5t-48.5 -15.5q-41 0 -71.5 33.5 t-30.5 75.5z" />
<glyph unicode="_" horiz-adv-x="970" d="M0 -16q0 49 49.5 72.5t112.5 23.5q166 -2 264 -3.5t171 -2t284 -0.5q36 0 63 -22.5t27 -65.5q0 -31 -26.5 -51.5t-69 -29t-74.5 -11.5t-64 -3q-97 0 -243 2.5t-289 2.5q-16 0 -53.5 -1t-61.5 -1q-40 0 -65 25t-25 65z" />
<glyph unicode="`" horiz-adv-x="604" d="M43 2046q0 44 31.5 80.5t75.5 36.5q53 0 137.5 -88t147.5 -198.5t63 -172.5q0 -38 -26 -74.5t-64 -36.5q-17 0 -191 216.5t-174 236.5z" />
<glyph unicode="a" horiz-adv-x="1310" d="M39 66q0 65 70 250t177.5 417t187.5 398t147 299q29 59 55 83.5t74 24.5q77 0 124 -106q60 -138 120.5 -290.5t130 -345.5t112.5 -366.5t43 -279.5q0 -56 -25.5 -95.5t-80.5 -52.5q-99 0 -148 170q-11 36 -68 264q-56 -8 -194 -26q-47 -6 -172 -18t-182 -19l-41 -107 q-10 -24 -29 -79.5t-33.5 -91t-35.5 -76.5t-46 -61.5t-53 -20.5q-57 0 -95 36t-38 93zM504 612q317 30 403 39q-53 213 -94 326q-37 104 -68 104q-3 0 -5.5 -1.5t-6 -5t-7 -7.5t-7.5 -10.5t-7.5 -11.5t-8.5 -14t-8.5 -15t-9 -16.5t-9.5 -16.5q-69 -127 -172 -371z" />
<glyph unicode="b" horiz-adv-x="1333" d="M131 438q0 147 7 471t7 508q0 32 19.5 60t46.5 36q93 30 207.5 50t191.5 20q75 0 151.5 -12t152.5 -39.5t135 -67t96 -100.5t37 -135q0 -57 -22 -111.5t-53.5 -94.5t-73.5 -76.5t-75 -58t-65 -38.5q69 14 139 14q86 0 163 -70t77 -184q0 -108 -41.5 -201.5t-112.5 -161 t-162.5 -120.5t-196 -85t-207 -48.5t-200.5 -16.5q-56 0 -99.5 20t-67.5 52.5t-36 67.5t-14 71q-4 164 -4 250zM365 877q0 -19 2 -29t13.5 -18.5t33.5 -8.5q50 0 132.5 31t163 79.5t139 117t58.5 133.5q0 44 -31 77t-82.5 51.5t-110 27t-122.5 8.5q-117 0 -194 -25 q0 -65 -1 -219t-1 -225zM367 541q0 -199 2 -308q17 -26 127 -26q107 0 238.5 57t222 137t90.5 144q0 49 -69.5 86t-174.5 37q-205 0 -436 -127z" />
<glyph unicode="c" horiz-adv-x="1357" d="M61 459q0 129 40 264.5t109.5 257t167 230.5t207 187.5t235 124.5t247.5 46q89 0 157.5 -42.5t101 -103t32.5 -123.5q0 -41 -35 -77.5t-78 -36.5q-16 0 -30 10.5t-28 26t-33 31t-55 26t-85 10.5q-83 0 -181 -42t-191.5 -119.5t-171 -176.5t-124.5 -223.5t-47 -249.5 q0 -69 43 -122t106 -78t134 -25q79 0 158 22.5t141.5 55t119 64.5t110 54.5t95.5 22.5q40 0 67 -28t27 -72q0 -57 -47 -115t-122.5 -104t-164 -82.5t-176.5 -56t-155 -19.5q-93 0 -175.5 15.5t-156.5 51t-127 88t-84 131.5t-31 177z" />
<glyph unicode="d" horiz-adv-x="1527" d="M117 1364q0 168 276 168q116 0 222 -11t211.5 -37t194 -66t165.5 -101.5t130 -140t83.5 -185t30.5 -233.5t-43 -237.5t-115 -191.5t-169 -147t-201.5 -109t-216 -72t-209 -41.5t-183.5 -12.5q-59 0 -106 53t-50 113q-4 78 -4 116q0 99 7 301.5t7 315.5q0 84 -15 262 t-15 256zM369 1171q0 -98 11.5 -396t12.5 -562q76 0 148.5 7t155 25t153.5 45.5t137.5 73.5t113.5 104.5t75 142.5t28 184q0 119 -98 225t-263 169.5t-351 63.5q-123 0 -123 -82z" />
<glyph unicode="e" horiz-adv-x="1239" d="M100 291q0 167 25 517.5t25 512.5q0 73 35.5 124t103.5 64q88 4 303.5 20.5t361.5 16.5q35 0 56.5 -1t55.5 -4.5t55 -13t42.5 -24t32 -40t10.5 -58.5q0 -78 -49 -106.5t-149 -28.5q-41 0 -152.5 7t-175.5 7q-184 0 -291 -20q-29 -137 -29 -340q0 -34 14.5 -43t47.5 -9 q70 0 226.5 31t273.5 41q58 0 99.5 -35t41.5 -88q0 -51 -26.5 -89.5t-78.5 -41.5q-109 -7 -343.5 -43.5t-272.5 -36.5q-12 -44 -12 -293q0 -68 41 -90t125 -22q75 0 276 35.5t256 35.5q64 0 101.5 -29t41.5 -85q0 -57 -33.5 -92.5t-93.5 -44.5q-218 -34 -351.5 -49 t-266.5 -15q-91 0 -147.5 12t-99.5 47.5t-61 100.5t-18 170z" />
<glyph unicode="f" horiz-adv-x="1163" d="M117 76q6 545 6 1157q0 67 7 115.5t25.5 92t56 65.5t93.5 22q97 0 233.5 9t243.5 9q66 0 116.5 -4t105.5 -15.5t85.5 -38t30.5 -65.5q0 -47 -40.5 -82.5t-102.5 -46.5q-46 1 -156.5 8t-167.5 7q-70 0 -103 -1t-79.5 -6.5t-93.5 -17.5q-4 -180 -4 -371q0 -24 2 -36 t13 -20.5t34 -8.5q41 0 213 23.5t242 23.5q84 0 133 -27.5t49 -85.5q0 -34 -17 -59.5t-50.5 -41.5t-69.5 -26.5t-88 -16t-91.5 -8t-94.5 -5t-83 -4.5q-134 -10 -198 -23q4 -300 4 -428q0 -45 -15.5 -88t-55.5 -77t-97 -34q-86 0 -86 105z" />
<glyph unicode="g" horiz-adv-x="1607" d="M49 514q0 115 33 240t91.5 243t144.5 225t187.5 187t226 127t253.5 47q138 0 238.5 -26.5t161.5 -89t61 -156.5q0 -41 -35 -78t-78 -37q-20 0 -40 14t-42 34t-50.5 40.5t-77 34.5t-109.5 14q-123 0 -253.5 -74t-230 -187t-163.5 -255t-64 -272q0 -138 83 -221.5 t257 -83.5q136 0 276 49t232 131t92 168q0 19 -16.5 33t-34.5 14q-86 -3 -267.5 -57t-240.5 -54q-52 0 -90.5 30.5t-38.5 76.5q0 74 90.5 132t226 89t267.5 47t241 16q162 0 162 -116q0 -117 -32.5 -223t-87 -188.5t-127.5 -152t-154 -118.5t-165.5 -83.5t-162.5 -50.5 t-145 -16q-162 0 -284 42.5t-193.5 118.5t-106.5 172.5t-35 213.5z" />
<glyph unicode="h" horiz-adv-x="1259" d="M117 35q6 545 6 1198q0 48 1 78.5t5 69t12.5 61.5t22.5 44.5t37 31.5t53 10q118 0 123 -244q-8 -193 -8 -446q47 4 254 50t282 52v311q0 48 1 78.5t5 69t12.5 61.5t22.5 44.5t37 31.5t53 10q118 0 123 -243q-8 -245 -8 -574q0 -83 1 -276.5t1 -305.5q0 -32 -9.5 -65 t-28 -63.5t-52.5 -50t-78 -19.5q-86 0 -86 104l6 656q-49 -12 -241 -47t-295 -74q0 -67 1 -220t1 -239q0 -45 -15.5 -88t-55.5 -77t-97 -34q-86 0 -86 105z" />
<glyph unicode="i" horiz-adv-x="495" d="M117 35q6 545 6 1198q0 48 1 78.5t5 69t12.5 61.5t22.5 44.5t37 31.5t53 10q118 0 123 -244q-8 -245 -8 -573q0 -83 1 -276.5t1 -305.5q0 -45 -15.5 -88t-55.5 -77t-97 -34q-86 0 -86 105z" />
<glyph unicode="j" horiz-adv-x="1134" d="M66 383q0 105 39.5 154t91.5 49q64 0 85 -24t21 -75q0 -44 1.5 -75t7 -63.5t15.5 -54t27 -41.5t41.5 -31.5t59.5 -18t80 -6.5q105 0 161 115.5t56 316.5v604q0 69 4.5 116t18.5 91t43.5 66t74.5 22q118 0 123 -244q-6 -155 -8 -606q0 -731 -486 -731q-53 0 -113.5 16.5 t-121.5 52.5t-110 85.5t-80 123t-31 158.5z" />
<glyph unicode="k" horiz-adv-x="1253" d="M127 829q0 307 8 578q1 35 24.5 59t53.5 33.5t61 9.5q40 0 74.5 -29.5t34.5 -72.5q0 -76 -6 -227.5t-6 -233.5q0 -63 10 -65q157 95 252.5 178.5t204.5 224.5q13 17 33.5 48t36 52t36.5 43.5t45.5 34t52.5 11.5q49 0 85 -40t36 -92q0 -42 -41.5 -104t-114 -135.5 t-140.5 -136.5t-154 -138.5t-121 -109.5q8 -34 108 -129.5t215.5 -192t210.5 -188t95 -119.5q0 -59 -39 -107.5t-99 -48.5q-32 0 -97 49.5t-144.5 126t-161 156.5t-164 153t-135.5 103q-6 -62 -6 -121q0 -32 2 -85.5t2 -92.5q0 -31 -0.5 -47.5t-2.5 -46.5t-6 -48t-12 -40.5 t-20 -35t-30.5 -21.5t-41.5 -9q-43 0 -71.5 22.5t-42 64t-18.5 84t-5 98.5q0 100 -1 291t-1 296z" />
<glyph unicode="l" horiz-adv-x="1021" d="M82 145q0 134 22.5 384t22.5 401q0 70 -2 193.5t-2 207.5q0 221 127 221q40 0 66 -21.5t37.5 -61t15.5 -77t4 -87.5q0 -206 -13 -529q-16 -364 -16 -495q0 -25 23 -25q114 0 272 31.5t223 31.5q49 0 79 -33.5t30 -97.5q0 -49 -80.5 -89t-200 -62t-237.5 -33.5t-213 -11.5 q-72 0 -115 39t-43 114z" />
<glyph unicode="m" horiz-adv-x="1775" d="M33 92q1 62 39 200.5t95 326.5t83 294q6 23 20.5 95.5t27.5 134.5t37.5 142t51.5 135.5t68 94.5t88 39q33 0 59.5 -22.5t43 -53.5t31 -83t21.5 -90t16.5 -96t14.5 -81q86 -445 154 -663q133 466 237 754q5 14 15.5 48t19.5 58t22.5 58.5t29 58t35 46.5t44.5 34.5t53 11.5 q50 0 82.5 -39t48.5 -94q47 -156 112 -560t75 -452q51 -240 51 -287q0 -84 -88 -84q-49 0 -83 18.5t-52 46t-31 75t-18.5 90t-15 106.5t-19.5 111q-15 66 -39 201.5t-44.5 230t-39.5 127.5q-50 -101 -96.5 -251.5t-79 -280t-67.5 -248.5t-76.5 -188.5t-90.5 -69.5 q-69 0 -97.5 30.5t-45.5 98.5q-8 33 -89.5 385.5t-117.5 498.5q-41 -91 -120 -382.5t-79 -436.5q-2 -36 -5.5 -61t-13.5 -58.5t-26 -54.5t-44.5 -36t-67.5 -15q-55 0 -92 39t-37 98z" />
<glyph unicode="n" horiz-adv-x="1372" d="M98 137q0 83 14.5 265.5t14.5 273.5q0 143 -1 281.5t-1 172.5q0 44 -10.5 136t-10.5 139q0 48 30.5 87.5t78.5 39.5q39 0 77.5 -25.5t68.5 -63t61.5 -90.5t52.5 -97.5t45.5 -96t36.5 -74.5q51 -96 110.5 -198t129.5 -211q69 -109 131 -178q61 -68 95 -68h1 q14 0 22.5 12.5t12 43.5t4 55t0.5 75q-1 111 -10 355.5t-9 378.5q0 196 117 196q123 0 123 -387q0 -82 -6 -203.5t-6 -128.5q0 -103 8 -293t8 -290q0 -106 -36 -157.5t-126 -51.5q-60 0 -152.5 78t-185 195t-180 247.5t-150.5 243t-85 174.5q-12 -91 -21.5 -247.5 t-9.5 -262.5q0 -51 6 -158.5t6 -171.5q0 -51 -10.5 -91.5t-43 -70.5t-83.5 -30q-63 0 -90 43t-27 153z" />
<glyph unicode="o" horiz-adv-x="1622" d="M72 604q0 127 39.5 261.5t115 257t176 220t232.5 155.5t274 58q143 0 255.5 -35t186 -95.5t121.5 -146t68.5 -181.5t20.5 -207q0 -180 -67.5 -343t-182 -281.5t-274.5 -188.5t-337 -70q-126 0 -240 41.5t-200 116t-137 188.5t-51 250zM330 623q0 -122 57 -214.5t152 -139 t213 -46.5q97 0 186.5 40.5t156.5 109.5t117 156t75.5 184t25.5 190q0 190 -114.5 297t-305.5 107q-149 0 -279 -93.5t-207 -251.5t-77 -339z" />
<glyph unicode="p" horiz-adv-x="1341" d="M117 210v64q0 160 7 474t7 483q0 88 14 145q9 41 36.5 70.5t60.5 45.5t80.5 25t84.5 11t85 2q77 0 174.5 -14t206.5 -46t198.5 -76.5t148 -113.5t58.5 -150q0 -109 -35 -202.5t-92 -159.5t-135 -118.5t-160 -85t-171 -53.5t-163 -29.5t-141 -8.5q-19 0 -19 -61 q0 -29 1.5 -104t1.5 -101q0 -240 -150 -240q-18 0 -32.5 5.5t-24.5 19t-17 26t-11.5 38.5t-7 44t-4 53.5t-1.5 56.5zM348 741q20 -20 117 -20q58 0 105 2.5t105.5 11t103.5 23t90 40t74.5 60.5t48 87t18.5 116q0 51 -38.5 93t-97 67.5t-132.5 43t-140 24.5t-125 7 q-42 0 -71 -16q-13 -8 -23 -35t-16 -69.5t-10 -85.5t-5.5 -99.5t-2 -95t-1 -89t-0.5 -65.5z" />
<glyph unicode="q" d="M57 625q0 152 52.5 294.5t145 253.5t213 195t262.5 129t286 45q141 0 266 -51t219.5 -143t149.5 -230.5t55 -304.5q0 -124 -36.5 -235t-101.5 -198.5t-142.5 -155.5t-170.5 -122q46 -83 84 -137q39 -67 39 -110q0 -47 -38 -81t-76 -34q-45 0 -96 55t-124 209 q-174 -63 -296 -63q-145 0 -272 49.5t-219.5 137.5t-146 217t-53.5 280zM297 594q0 -81 28 -149t73.5 -113t104.5 -77t118.5 -46t117.5 -14q110 0 211 26l-71 191q-52 110 -52 168q0 49 30 78.5t73 29.5q21 0 38.5 -9t34 -29.5t29.5 -43t29.5 -60t29.5 -70t33 -83.5t37 -90 q143 80 228.5 206.5t85.5 291.5q0 113 -36.5 206.5t-98.5 154.5t-143.5 94.5t-172.5 33.5q-142 0 -274 -51t-232.5 -141t-160.5 -221.5t-60 -282.5z" />
<glyph unicode="r" horiz-adv-x="1259" d="M113 109q0 18 3.5 229t8 364t13 350.5t24 313.5t35.5 129q45 28 182 50t258 22q104 0 202 -24.5t182.5 -73t135.5 -131t51 -187.5q0 -111 -40.5 -207t-112 -166t-164.5 -119.5t-203 -76.5l410 -396q43 -43 43 -77q0 -42 -46 -73.5t-87 -31.5q-84 0 -154 70 q-105 102 -258 253.5t-236 231.5q-6 -71 -6 -168q0 -44 3 -135.5t3 -136.5q0 -64 -30 -105t-84 -41q-57 0 -92.5 37t-40.5 99zM366 774q71 0 146.5 11.5t154 38t140 64.5t100.5 96.5t39 129.5q0 56 -31 97.5t-83.5 64t-113.5 33t-130 10.5q-118 0 -211 -39q1 -206 -11 -506z " />
<glyph unicode="s" horiz-adv-x="1456" d="M53 274q0 47 21 78t67 31q20 0 39 -7.5t29 -15.5t30 -26t29 -25q76 -50 153 -75t191 -25q107 0 217.5 31.5t190.5 94t80 138.5q0 52 -46.5 81.5t-115.5 37.5q-45 10 -124.5 18.5t-154.5 16t-162.5 20t-159.5 35.5t-132.5 57t-94.5 90t-34 129q0 95 68 186t172.5 157 t226 117t233.5 76.5t191 25.5q139 0 222 -68t83 -197q0 -37 -31 -63.5t-65 -26.5q-39 0 -84 23.5t-100.5 47.5t-121.5 24q-60 0 -145.5 -23.5t-167 -61.5t-138.5 -94.5t-57 -115.5q0 -35 29 -58.5t79 -34t116.5 -17.5t141.5 -9.5t153.5 -10.5t153.5 -18.5t141.5 -35 t116.5 -59.5t79 -93.5t29 -134.5q0 -85 -49 -167t-129.5 -145t-179.5 -112t-204 -75t-198 -26q-44 0 -110 8.5t-151.5 31t-156.5 55.5t-120.5 88t-49.5 122z" />
<glyph unicode="t" horiz-adv-x="1333" d="M33 1327q0 43 34.5 73t79.5 42t93 12q37 0 183 -5t249 -5q91 0 233 17.5t205 18.5q32 0 53.5 -1.5t49.5 -7.5t44.5 -17t28.5 -32t12 -50q0 -48 -26 -78.5t-71.5 -42t-87.5 -15.5t-96.5 -4.5t-74.5 -2.5q-12 -1 -49.5 -2t-68.5 -2.5t-44 -3.5q11 -93 11 -285 q0 -51 -7 -373q-7 -260 -16 -370q-3 -36 -6 -58.5t-12.5 -55.5t-23.5 -52.5t-39.5 -34.5t-59.5 -15q-42 0 -68 11t-37.5 35.5t-14.5 47t-3 62.5q0 36 4.5 98t5.5 74q10 298 10 342q0 53 -7 259t-7 284q0 18 -14.5 23.5t-49.5 5.5q-30 0 -137 -3.5t-137 -3.5q-55 0 -97 31 t-42 84z" />
<glyph unicode="u" horiz-adv-x="1290" d="M76 512q0 105 17.5 313t17.5 344q0 40 2 71.5t10.5 71t23.5 66t42 44.5t65 18q43 0 71.5 -25.5t40.5 -72t15.5 -84t3.5 -87.5q0 -107 -26.5 -310t-26.5 -349q0 -94 8.5 -149t33.5 -93t68 -51.5t115 -13.5q270 0 330 239q42 168 53.5 322t11.5 391q0 71 5.5 124t20 102.5 t44.5 75.5t74 26q57 0 93 -38.5t37 -94.5q0 -150 -20 -434t-45 -482q-9 -72 -40 -140t-87 -129t-130.5 -106.5t-176 -72.5t-217.5 -27q-223 0 -328.5 144.5t-105.5 406.5z" />
<glyph unicode="v" horiz-adv-x="1292" d="M39 1366q0 123 106 147q99 0 148 -170q25 -85 95 -378.5t118 -425.5q37 -105 67 -105q15 0 62 84q5 9 8 14q40 73 90 184.5t79 182t81.5 205.5t56.5 145q10 24 29 79.5t33.5 91.5t35.5 76.5t46 61.5t53 21q57 0 95 -36t38 -93q0 -65 -70 -250t-177.5 -417t-187.5 -398 t-147 -299q-29 -60 -55 -84.5t-74 -24.5q-78 0 -125 107q-60 137 -120.5 290t-129.5 345.5t-112 366.5t-43 280z" />
<glyph unicode="w" horiz-adv-x="1914" d="M53 1372q0 55 40 86t97 31q42 0 76.5 -20.5t44.5 -59.5q17 -62 33 -196t28 -255.5t39 -245t64 -180.5q39 43 123 214.5t127 322.5q5 16 13.5 48.5t14 53.5t15.5 53.5t18 54.5t19.5 50.5t23 47.5t26.5 39t30.5 32t35 19.5t40.5 7.5q67 0 104 -43.5t37 -124.5 q3 -60 18 -166t17 -131q25 -228 129 -584q61 97 99.5 222.5t72 279t61.5 237.5q1 2 10 40.5t20.5 80t33 95.5t45.5 95t59 70t74 29q54 0 91.5 -33.5t37.5 -85.5q0 -19 -9.5 -55.5t-27.5 -85.5t-32 -86t-33.5 -86.5t-22.5 -57.5q-34 -89 -68 -225.5t-70.5 -267t-84.5 -232.5 q-11 -23 -33.5 -75t-38.5 -87.5t-43.5 -82t-53 -75t-62.5 -49t-77 -20.5q-25 0 -52 35.5t-51 97t-45 124t-39 136.5t-27.5 113t-16.5 74q-5 22 -11.5 65t-12 75t-13.5 65.5t-19 52.5t-24 20q-16 0 -43 -45.5t-62.5 -129t-69 -167.5t-77 -195t-71.5 -177q-25 -60 -71 -96.5 t-87 -36.5q-65 0 -100 120q-106 371 -172 648q-32 136 -64.5 348t-32.5 274z" />
<glyph unicode="x" horiz-adv-x="1112" d="M-10 1370q0 52 38.5 87.5t86.5 35.5q44 0 86.5 -20.5t81 -58t66 -71t59.5 -79.5l143 -230l45 78q13 17 44.5 73.5t66.5 116t77 120t90 99t91 38.5q50 0 83 -36t33 -87q-11 -52 -38.5 -101.5t-74.5 -113t-63 -88.5q-59 -70 -205 -328q62 -95 179 -260q15 -21 72 -95.5 t91.5 -122t66.5 -108t32 -96.5q0 -50 -35 -92.5t-84 -42.5q-26 0 -57 19.5t-69 62.5t-72 87.5t-82.5 119t-83.5 131t-91 147.5q-36 -67 -89.5 -170t-88 -168t-55.5 -100q-21 -36 -37 -58t-39.5 -42t-53.5 -28.5t-71 -8.5q-66 0 -74 55q0 48 12 92.5t25 71t40 74.5t40 75 q18 40 242 447q-236 372 -385 495q-43 34 -43 80z" />
<glyph unicode="y" horiz-adv-x="1390" d="M27 1438q0 46 33 82t77 36q38 0 75 -13t66.5 -32.5t61 -50t54 -57.5t50.5 -64q12 -17 55 -97.5t113.5 -206t143.5 -238.5l131 227q15 19 47.5 83.5t69.5 136.5t80.5 143.5t92.5 118t93 46.5q45 0 79.5 -33.5t34.5 -80.5q0 -19 -12 -48.5t-35.5 -68.5t-42 -66.5t-49.5 -72 t-39 -56.5q-82 -123 -327.5 -570.5t-249.5 -453.5q-29 -51 -51 -77t-60.5 -44t-93.5 -18q-61 0 -72 55q0 60 28 120.5t75.5 131.5t64.5 105q1 3 101 182q-30 49 -90.5 151.5t-95.5 160.5t-90.5 144.5t-96 141.5t-89 110.5t-91.5 88.5q-41 33 -41 84z" />
<glyph unicode="z" horiz-adv-x="1392" d="M61 125q0 40 12.5 76t40.5 73t48 58t59 59q110 108 448.5 477t338.5 389q0 48 -105 48q-141 0 -309 -15.5t-289 -15.5q-82 0 -122 32.5t-40 82.5q0 43 19.5 70.5t58.5 39.5t74.5 15.5t89.5 3.5q120 0 286.5 12t327.5 12q191 0 272 -26.5t81 -96.5q0 -77 -45 -162.5 t-156 -201.5q-140 -145 -305.5 -334.5t-270 -320.5t-104.5 -144q0 -29 18 -29q121 0 307 16.5t330 16.5q41 0 73 -4.5t64.5 -16t50 -36.5t17.5 -62q0 -71 -47.5 -106t-120.5 -35q-120 0 -207.5 2t-181.5 2q-225 0 -418 -10t-200 -10q-47 0 -71 41t-24 100z" />
<glyph unicode="{" horiz-adv-x="710" d="M31 696q0 28 19.5 59t47.5 58.5t56 54t47.5 54t19.5 49.5q0 65 -4 187t-4 179q0 151 23 254q29 116 121.5 193.5t226.5 77.5q19 0 44 -6.5t52.5 -20.5t46 -40t18.5 -60q0 -35 -20.5 -58t-54 -32t-57 -12t-48.5 -3q-114 0 -114 -291q0 -72 10 -194t10 -156 q0 -89 -47.5 -167.5t-122.5 -102.5q74 -45 115 -119t41 -147q0 -31 -6.5 -96.5t-6.5 -100.5q0 -114 45.5 -229t98.5 -115q28 0 44 -1t39 -7t35 -18t21.5 -35t9.5 -56q0 -29 -11 -50t-26.5 -32t-40 -18t-45 -8.5t-47.5 -1.5q-84 0 -157 56t-118 139t-70 172t-25 163q0 1 3 35 t6 81.5t3 82.5q0 40 -18.5 74.5t-44.5 59t-52 47.5t-44.5 48.5t-18.5 52.5z" />
<glyph unicode="|" horiz-adv-x="495" d="M117 -109q6 545 6 1547q0 48 1 78.5t5 69t12.5 61.5t22.5 44.5t37 31.5t53 10q118 0 123 -244q-8 -245 -8 -778q0 -83 1 -348t1 -377q0 -45 -15.5 -88t-55.5 -77t-97 -34q-86 0 -86 104z" />
<glyph unicode="}" horiz-adv-x="694" d="M-51 1735q0 44 33 75t67.5 41.5t61.5 10.5q134 0 226.5 -77.5t121.5 -193.5q22 -99 22 -254q0 -57 -4 -179t-4 -187q0 -22 19.5 -49.5t47.5 -54t56.5 -54t48 -58.5t19.5 -59q0 -27 -18.5 -52.5t-45 -48.5t-52.5 -47.5t-44.5 -59t-18.5 -74.5q0 -35 3.5 -82.5t6.5 -81.5 t3 -35q0 -58 -15.5 -127.5t-47 -140.5t-74.5 -129.5t-104.5 -95.5t-129.5 -37q-27 0 -47.5 1.5t-45 8.5t-40 18t-26.5 32t-11 50q0 33 9.5 56t21.5 35t35 18t39 7t44 1q53 0 98.5 115t45.5 229q0 35 -6 100.5t-6 96.5q0 73 41 147t114 119q-75 24 -122.5 102.5t-47.5 167.5 q0 34 10.5 156t10.5 194q0 291 -115 291q-25 0 -48.5 3t-57 12t-54 32t-20.5 58z" />
<glyph unicode="~" horiz-adv-x="1224" d="M63 1032q0 52 40.5 102.5t99.5 85t123 55.5t112 21q57 0 105.5 -23t81 -56t61.5 -65.5t60.5 -55.5t64.5 -23q27 0 52.5 16.5t46 40.5t42.5 48t52 40.5t65 16.5q44 0 70 -34t26 -83q0 -54 -33.5 -102.5t-84 -80t-108 -49.5t-108.5 -18q-72 0 -131 23.5t-96 56.5t-66 66 t-55 56.5t-49 23.5q-32 0 -60.5 -12.5t-43 -24.5t-47 -46t-47.5 -48q-33 -33 -68 -33q-40 0 -72.5 30.5t-32.5 71.5z" />
<glyph unicode="&#xa1;" horiz-adv-x="618" d="M166 -47q0 80 5 276t5 301q0 33 1 63.5t4 91t11.5 109t21 97.5t34.5 76.5t51 27.5q36 0 61 -13t40 -34.5t23.5 -58t11.5 -75t3 -93.5q0 -82 -7 -246.5t-7 -247.5q0 -41 4 -124.5t4 -125.5q0 -99 -34 -149.5t-122 -50.5q-110 0 -110 176zM166 1292q0 68 52.5 124.5 t119.5 56.5q53 0 93 -44t40 -100q0 -71 -50.5 -128.5t-117.5 -57.5q-62 0 -99.5 44t-37.5 105z" />
<glyph unicode="&#xa2;" horiz-adv-x="958" d="M68 569q0 141 65.5 276.5t176 233t241.5 138.5l10 94q6 51 10.5 83t14.5 70t22.5 59t32.5 35.5t47 14.5q68 0 68 -150q0 -48 -25 -184q44 -3 79.5 -23t55 -50t29.5 -61t10 -61q0 -27 -23 -51t-53 -24q-12 0 -24 11t-22 23.5t-37.5 23.5t-67.5 11q-71 0 -139 -28.5 t-125 -81t-92 -137t-35 -187.5q0 -71 38.5 -110t106.5 -39q81 0 162.5 31.5t146.5 62.5t105 31q27 0 44 -19t17 -49q0 -65 -83.5 -125t-196.5 -94l-19 -146q-7 -65 -45.5 -120.5t-99.5 -55.5q-53 0 -53 68q0 25 3 56t6 52.5t9.5 60.5t9.5 56q-73 2 -137.5 21t-117.5 54.5 t-84 94.5t-31 135z" />
<glyph unicode="&#xa3;" horiz-adv-x="1363" d="M57 123q0 27 17.5 47t41.5 29.5t61.5 15t65 6.5t65.5 1t50 1q11 124 11 273v98h-152q-55 0 -94 30.5t-39 82.5q0 112 178 112h105q0 84 3 149.5t14 144.5t29.5 138t52 117.5t79 96t113.5 60.5t153 23q172 0 272.5 -62t100.5 -171q0 -76 -45.5 -108.5t-106.5 -32.5 q-4 24 -11.5 43t-25.5 39t-52 31t-83 11q-52 0 -88 -11.5t-65.5 -42t-47 -85t-26.5 -138.5t-10 -204q97 0 264.5 -2t218.5 -2q40 0 65 -30.5t25 -73.5q0 -47 -25 -76.5t-67 -32.5q-123 -8 -281 -8h-209q-4 -204 -4 -309q0 -62 43 -62q15 0 249.5 1t248.5 1q40 0 66.5 -3.5 t53 -15t39.5 -35t13 -60.5q0 -26 -11 -45t-34 -31t-48 -19.5t-65 -10.5t-71 -4t-80 -1q-74 0 -370 -4t-376 -4q-103 0 -157 27.5t-54 105.5z" />
<glyph unicode="&#xa4;" horiz-adv-x="1449" d="M0 600q0 96 176 96h12q7 32 33 107h-47q-55 0 -94 26t-39 70q0 96 176 96h98q146 250 376.5 412t469.5 162q89 0 157.5 -42.5t101 -103t32.5 -123.5q0 -41 -35 -77.5t-78 -36.5q-16 0 -30 10.5t-28 26t-33 31t-55 26t-85 10.5q-117 0 -257 -81.5t-253 -215.5 q274 -4 377 -4q40 0 65 -26t25 -62q0 -40 -25.5 -65.5t-66.5 -26.5q-120 -8 -279 -8h-221q-28 -54 -45 -107q92 0 267.5 -2t238.5 -2q40 0 65 -26t25 -62q0 -41 -25 -66t-67 -28q-135 -6 -279 -6h-260v-23q0 -69 43 -122t106 -78t134 -25q79 0 158 22.5t141.5 55t119 64.5 t110 54.5t95.5 22.5q40 0 67.5 -28t27.5 -72q0 -71 -72.5 -142.5t-176.5 -121.5t-218 -81.5t-199 -31.5q-117 0 -217 26t-181.5 79t-128 144.5t-46.5 213.5v45h-23q-55 0 -94 26t-39 70z" />
<glyph unicode="&#xa5;" horiz-adv-x="1275" d="M35 1452q0 28 33.5 47t66.5 19q65 0 123.5 -64.5t103.5 -164t85 -203t86.5 -200t89.5 -136.5q78 87 152.5 233.5t137 303t80.5 190.5q35 69 101 69q73 0 107 -33.5t34 -78.5q0 -52 -20 -120t-57.5 -144.5t-76 -146.5t-93.5 -153t-90 -134.5t-84 -121t-60 -84.5 q332 -4 393 -4q33 0 53.5 -32.5t20.5 -77.5q0 -50 -21 -81t-55 -34q-99 -8 -225 -8h-181v-164q0 -45 -15.5 -88t-55.5 -77t-97 -34q-45 0 -64.5 26.5t-19.5 78.5l2 260h-342q-44 0 -75 32t-31 87q0 118 143 118q166 0 297 -2q-32 57 -126 221t-157 277.5t-83 159.5 q-28 62 -40.5 93.5t-26 81t-13.5 89.5z" />
<glyph unicode="&#xa7;" d="M57 639q0 152 52.5 294.5t145 253.5t213 195t262.5 129t286 45q141 0 266 -51t219.5 -143t149.5 -230.5t55 -304.5q0 -128 -40 -243.5t-106 -201.5t-152.5 -158.5t-177.5 -121t-182.5 -82.5t-167.5 -49.5t-132 -15.5q-145 0 -272 49.5t-219.5 137.5t-146 217t-53.5 280z M297 608q0 -81 28 -149t73.5 -113t104.5 -77t118.5 -46t117.5 -14q103 0 207 24.5t199 75.5t168.5 121.5t117.5 170.5t44 214q0 113 -36.5 206.5t-98.5 155t-143.5 95t-172.5 33.5q-142 0 -274 -51.5t-232.5 -141t-160.5 -221.5t-60 -283zM750 729q0 71 50.5 128.5 t117.5 57.5q62 0 99.5 -44t37.5 -105q0 -68 -52.5 -124t-119.5 -56q-53 0 -93 43.5t-40 99.5z" />
<glyph unicode="&#xa8;" horiz-adv-x="782" d="M94 1716q0 56 39.5 101t91.5 45q48 0 77.5 -34.5t29.5 -82.5q0 -53 -40.5 -96t-92.5 -43q-42 0 -73.5 33.5t-31.5 76.5zM467 1716q0 55 39.5 99.5t91.5 44.5q49 0 78 -34.5t29 -82.5q0 -53 -41 -96t-93 -43q-41 0 -72.5 34.5t-31.5 77.5z" />
<glyph unicode="&#xa9;" horiz-adv-x="1847" d="M53 688q0 165 56.5 310t156.5 252.5t232 185.5t286.5 117.5t317.5 39.5q148 0 267.5 -42.5t197 -112t130 -164t75 -194t22.5 -206.5q0 -163 -62 -319t-178 -287q-131 -148 -311 -221.5t-385 -73.5q-234 0 -414 81t-285.5 244.5t-105.5 389.5zM250 672q0 -138 43 -240 t124 -163.5t190 -91.5t249 -30q144 0 284 65.5t244 171t168 246.5t64 285q0 163 -77.5 279.5t-207.5 172.5t-299 56q-123 0 -237.5 -31t-213.5 -93.5t-172.5 -151t-116 -211t-42.5 -264.5zM461 625q0 127 55 251t143.5 216.5t207 149t239.5 56.5q52 0 91 -19.5t60 -50 t31 -63t10 -65.5q0 -27 -22.5 -51.5t-52.5 -24.5q-12 0 -24 11t-22.5 24t-38 24t-67.5 11q-71 0 -139 -28.5t-125 -81.5t-92 -137.5t-35 -187.5q0 -71 38.5 -110t106.5 -39q64 0 129.5 19.5t110 43t93 43t81.5 19.5q27 0 44 -19t17 -49q0 -61 -79.5 -121t-181.5 -93.5 t-179 -33.5q-78 0 -147 17.5t-126.5 52.5t-91.5 95.5t-34 140.5z" />
<glyph unicode="&#xaa;" horiz-adv-x="1685" d="M35 1026q0 60 46.5 113t98.5 53q50 0 127.5 -37.5t141.5 -82.5t138 -99t101 -70q41 -35 41 -69q0 -6 -10 -41q-26 -48 -64 -48q-54 0 -157 26.5t-206.5 66t-180 91.5t-76.5 97zM358 184q0 58 60.5 152.5t153.5 207t104 128.5q38 35 69 35q18 0 41 -13q45 -21 45 -76 q0 -23 -28 -114.5t-70 -199.5t-101 -192.5t-112 -84.5q-69 0 -115.5 54.5t-46.5 102.5zM690 1452q0 151 154 164q80 0 110.5 -38t30.5 -128q0 -116 -35 -317q-2 -15 -6.5 -47t-8 -50t-9.5 -45t-13.5 -42.5t-19.5 -31.5t-28.5 -23t-37.5 -7q-65 0 -86 76q-2 29 -26.5 207.5 t-24.5 281.5zM881 618q0 55 45 76q23 13 41 13q31 0 69 -35q11 -16 104 -128.5t153.5 -207t60.5 -152.5q0 -48 -46.5 -102.5t-115.5 -54.5q-53 0 -112 84.5t-101 192.5t-70 199.5t-28 114.5zM952 842q0 36 41 71q27 16 101 70t138 99t141.5 82.5t127.5 37.5q53 0 99.5 -53 t46.5 -113q0 -59 -126.5 -127t-273 -110.5t-221.5 -42.5q-37 0 -63 47q-1 5 -4 13t-5 14.5t-2 11.5z" />
<glyph unicode="&#xab;" horiz-adv-x="1470" d="M76 739q0 54 63 88q80 45 246.5 174t230.5 168q31 17 52 17q40 0 70 -33t30 -74q0 -24 -44.5 -71t-112 -100t-125.5 -95t-105 -74q119 -81 247 -188t128 -148q0 -40 -30 -73t-69 -33q-28 0 -57 20q-40 26 -198 150t-261 182q-65 28 -65 90zM698 731q0 53 64 88 q80 45 246.5 174t230.5 168q31 17 51 17q40 0 70.5 -33t30.5 -74q0 -24 -44.5 -71t-112 -100t-125.5 -95t-105 -74q67 -46 146.5 -106.5t153.5 -130.5t74 -99q0 -40 -29.5 -73t-68.5 -33q-28 0 -57 20q-40 26 -198 150t-261 182q-66 29 -66 90z" />
<glyph unicode="&#xac;" horiz-adv-x="1505" d="M20 512q0 33 32 54.5t77 21.5q44 0 125.5 -2t118.5 -2l131 452q-17 0 -59.5 -1t-67.5 -1q-49 0 -86.5 3.5t-74 14t-56 32t-19.5 53.5q0 35 38.5 53t90.5 18q53 0 147.5 -1t135.5 -1q7 23 20 75t22.5 88.5t27 84t35 77t44 50.5t56.5 21q28 0 46.5 -25.5t18.5 -60.5 q0 -40 -13.5 -92.5t-37 -122.5t-31.5 -97q71 0 123.5 -2t130.5 -2l74 242q13 43 21 64.5t22 47.5t32.5 37t43.5 11q32 0 58 -21.5t26 -56.5q0 -33 -15.5 -91t-43 -141t-31.5 -98q22 0 43 -0.5t61 -3t71.5 -8.5t63.5 -15t50 -25t18 -36q0 -53 -36.5 -72.5t-106.5 -19.5 q-36 0 -110 4t-110 4l-125 -447q181 0 270 -20.5t89 -75.5q0 -57 -35 -73.5t-117 -16.5q-44 0 -130 4t-128 4q-6 -22 -17 -66.5t-20 -77.5t-22 -76.5t-26.5 -74t-31 -59t-38.5 -43t-45 -14.5q-72 0 -72 88q0 19 8 51q12 47 40 139t38 135q-75 0 -131.5 3.5t-132.5 3.5 q-6 -22 -18 -68.5t-21 -79.5t-23 -78t-28.5 -76.5t-32 -60.5t-39 -44t-45.5 -15q-30 0 -50 19t-20 52q0 41 18 107.5t45 146.5t33 101h-79q-46 0 -78.5 3t-68.5 12.5t-54.5 31.5t-18.5 55zM553 582l264 -4q55 188 125 448q-72 0 -126 2t-128 2z" />
<glyph unicode="&#xad;" horiz-adv-x="1050" d="M102 639q0 113 179 113q104 0 303.5 -3t273.5 -4q40 0 65 -30.5t25 -73.5q0 -47 -25 -76.5t-67 -32.5q-123 -8 -281 -8q-53 0 -165.5 1t-173.5 1q-55 0 -94.5 30.5t-39.5 82.5z" />
<glyph unicode="&#xae;" horiz-adv-x="1847" d="M53 688q0 165 56.5 310t156.5 252.5t232 185.5t286.5 117.5t317.5 39.5q148 0 267.5 -42.5t197 -112t130 -164t75 -194t22.5 -206.5q0 -163 -62 -319t-178 -287q-131 -148 -311 -221.5t-385 -73.5q-234 0 -414 81t-285.5 244.5t-105.5 389.5zM250 672q0 -138 43 -240 t124 -163.5t190 -91.5t249 -30q144 0 284 65.5t244 171t168 246.5t64 285q0 163 -77.5 279.5t-207.5 172.5t-299 56q-123 0 -237.5 -31t-213.5 -93.5t-172.5 -151t-116 -211t-42.5 -264.5zM565 379q0 18 1.5 92t3 138t4.5 154.5t7.5 162.5t10.5 139t15 106.5t20 45.5 q32 17 131.5 30t187.5 13q75 0 146.5 -15t132.5 -43.5t98 -78.5t37 -113q0 -137 -88.5 -225t-247.5 -119l221 -207q31 -25 31 -47q0 -25 -43 -44.5t-74 -19.5q-62 0 -112 43q-83 68 -155 142.5t-126 117.5q-6 -44 -6 -102q0 -26 3 -81t3 -83q0 -36 -31.5 -62t-72.5 -26 t-67.5 22.5t-29.5 59.5zM768 801q68 0 129.5 8.5t121 28t95 58t35.5 91.5q0 34 -18.5 55.5t-55.5 31.5t-73.5 13t-92.5 3q-21 0 -37 -1t-30 -4t-21.5 -4.5t-23 -6.5t-21.5 -7q0 -86 -8 -266z" />
<glyph unicode="&#xaf;" horiz-adv-x="1173" d="M193 1757q0 94 145 94q225 0 573 -4q33 0 53.5 -26t20.5 -62q0 -39 -21 -63.5t-55 -26.5q-114 -6 -280 -6q-41 0 -159 1t-169 1q-45 0 -76.5 25.5t-31.5 66.5z" />
<glyph unicode="&#xb0;" horiz-adv-x="937" d="M98 1270q0 151 114 260.5t275 109.5q69 0 128.5 -22.5t106.5 -67t74 -118.5t27 -170q0 -150 -110 -254.5t-262 -104.5t-252.5 106t-100.5 261zM274 1272q6 -78 56 -129t127 -51q86 0 144 55t58 135q0 88 -54.5 144.5t-137.5 56.5q-88 0 -140.5 -61.5t-52.5 -149.5z" />
<glyph unicode="&#xb1;" horiz-adv-x="1173" d="M102 209q0 113 179 113q110 0 395 -3.5t305 -3.5q40 0 65 -30.5t25 -73.5q0 -47 -25 -76.5t-67 -32.5q-123 -8 -342 -8q-53 0 -196.5 1t-204.5 1q-55 0 -94.5 30.5t-39.5 82.5zM102 926q0 112 179 112q120 0 192 -2l4 283q0 40 31 65t74 25q47 0 76 -25t32 -67 q3 -60 8 -283q52 0 147.5 -1t135.5 -1t65 -30.5t25 -73.5q0 -47 -25 -76.5t-67 -32.5q-101 -8 -283 -8v-238q0 -55 -30 -94t-82 -39q-113 0 -113 178v193q-82 2 -235 2q-55 0 -94.5 30.5t-39.5 82.5z" />
<glyph unicode="&#xb4;" horiz-adv-x="1175" d="M459 1747q0 31 40 72t93.5 80.5t121 104t109.5 130.5q19 8 43 8q66 0 92 -74q3 -6 3 -16q0 -89 -132.5 -224t-214.5 -165q-15 -6 -34 -6q-47 0 -84 26.5t-37 63.5z" />
<glyph unicode="&#xb6;" horiz-adv-x="1349" d="M63 1067q0 78 23.5 148.5t77.5 134.5t134.5 111t201 74.5t270.5 27.5q183 0 401 -37q49 -8 77 -32.5t28 -63.5q0 -28 -15.5 -49.5t-46.5 -28.5q-24 -229 -24 -817q0 -148 3 -385t3 -248q0 -57 -35.5 -100.5t-77.5 -43.5q-16 0 -33.5 5t-37.5 17.5t-32.5 39t-12.5 63.5 q12 113 12 320q0 186 -4 449.5t-4 363.5q0 81 -8 307l-199 -23q0 -38 -1 -141.5t-1 -181.5q0 -28 6 -379t6 -426q0 -62 2 -160t2 -129q0 -133 -116 -133q-45 0 -83 29.5t-38 70.5q0 114 9 264.5t9 207.5v284q-138 0 -236 33.5t-154 96.5t-81 144t-25 187z" />
<glyph unicode="&#xb7;" horiz-adv-x="555" d="M135 768q0 71 50.5 128.5t117.5 57.5q62 0 99.5 -44t37.5 -105q0 -68 -52.5 -124t-119.5 -56q-53 0 -93 43.5t-40 99.5z" />
<glyph unicode="&#xb8;" horiz-adv-x="1128" d="M412 41q26 63 116 63q42 0 79.5 -14t37.5 -27q0 -31 21 -69.5t46.5 -70t46.5 -74.5t21 -82q0 -54 -50 -114.5t-116.5 -99t-115.5 -38.5q-31 0 -49.5 22t-18.5 45q0 20 13.5 37.5t32 32t37.5 30t32.5 38t13.5 49.5q0 30 -23 67.5t-50.5 67t-50.5 68t-23 69.5z" />
<glyph unicode="&#xba;" horiz-adv-x="1069" d="M57 1028q0 109 47 208t124 168.5t177.5 110.5t204.5 41q167 0 282.5 -115t115.5 -304q0 -86 -30.5 -161.5t-80.5 -128.5t-110.5 -95.5t-123.5 -67.5t-116.5 -38t-91.5 -13q-170 0 -284 109.5t-114 285.5zM102 373q0 112 179 112q108 0 317.5 -3t259.5 -3q40 0 65 -30.5 t25 -73.5q0 -47 -25 -76.5t-67 -32.5q-123 -8 -281 -8q-53 0 -165.5 1t-173.5 1q-55 0 -94.5 30.5t-39.5 82.5zM262 1030q0 -43 19.5 -76.5t50.5 -53.5t65.5 -30t69.5 -10q82 0 158 29t129 90t53 141q0 96 -60 153.5t-147 57.5q-138 0 -238 -85t-100 -216z" />
<glyph unicode="&#xbb;" horiz-adv-x="1470" d="M76 1071q0 41 30 74t70 33q20 0 51 -17q64 -39 231 -168t247 -174q63 -34 63 -88q0 -61 -66 -90q-103 -58 -260 -182t-198 -150q-29 -20 -58 -20q-39 0 -68.5 33t-29.5 73q0 41 128 148t247 188q-47 32 -105 74t-125.5 95t-112 100t-44.5 71zM698 1079q0 41 30.5 74 t70.5 33q20 0 51 -17q64 -39 230.5 -168t246.5 -174q64 -35 64 -88q0 -61 -66 -90q-103 -58 -261 -182t-198 -150q-29 -20 -57 -20q-39 0 -68.5 33t-29.5 73q0 29 74 99t153.5 130.5t146.5 106.5q-47 32 -105 74t-125.5 95t-112 100t-44.5 71z" />
<glyph unicode="&#xbf;" horiz-adv-x="1193" d="M84 336q0 47 11 92.5t25.5 82.5t44.5 80.5t53.5 73t68 74.5t71.5 70t80 74q20 18 82.5 92.5t117 118t105.5 43.5q39 0 73 -54.5t34 -99.5q0 -49 -34.5 -91t-106.5 -93q-29 -20 -86.5 -58.5t-85.5 -58.5t-69.5 -55t-61 -62t-35 -65.5t-15.5 -79.5q0 -50 44.5 -86 t103.5 -51t121 -15q68 0 142 25.5t124 55.5t96.5 55.5t67.5 25.5q36 0 71 -44t35 -91q0 -69 -95 -134.5t-216 -101.5t-213 -36q-70 0 -128 4t-125 15t-117.5 33t-93.5 55.5t-66 86t-23 119.5zM629 1419q0 68 52.5 124t119.5 56q53 0 93 -43.5t40 -99.5q0 -71 -50.5 -128.5 t-117.5 -57.5q-62 0 -99.5 44t-37.5 105z" />
<glyph unicode="&#xc0;" horiz-adv-x="1490" d="M27 86q0 42 27.5 119.5t58.5 141.5t71 143t47 94q441 958 617 958q50 0 111 -80.5t115 -196.5t112 -269t97.5 -274.5t76 -237t43.5 -134.5q9 -26 32.5 -84t35.5 -99.5t12 -80.5q0 -28 -33.5 -47t-67.5 -19q-56 0 -132.5 134t-133.5 356q-65 -10 -224 -30t-284.5 -39 t-204.5 -38q-22 -50 -72.5 -189.5t-62.5 -170.5q-27 -70 -100 -70t-107 34t-34 79zM514 659q410 82 522 105q-6 12 -41.5 127.5t-76.5 202t-78 86.5q-36 0 -71 -36.5t-55.5 -77t-49.5 -104.5t-39 -83q-18 -34 -60.5 -120t-50.5 -100zM518 2046q0 44 31.5 80.5t75.5 36.5 q53 0 137.5 -88t147.5 -198.5t63 -172.5q0 -38 -26 -74.5t-64 -36.5q-17 0 -191 216.5t-174 236.5z" />
<glyph unicode="&#xc1;" horiz-adv-x="1490" d="M27 86q0 42 27.5 119.5t58.5 141.5t71 143t47 94q441 958 617 958q50 0 111 -80.5t115 -196.5t112 -269t97.5 -274.5t76 -237t43.5 -134.5q9 -26 32.5 -84t35.5 -99.5t12 -80.5q0 -28 -33.5 -47t-67.5 -19q-56 0 -132.5 134t-133.5 356q-65 -10 -224 -30t-284.5 -39 t-204.5 -38q-22 -50 -72.5 -189.5t-62.5 -170.5q-27 -70 -100 -70t-107 34t-34 79zM514 659q410 82 522 105q-6 12 -41.5 127.5t-76.5 202t-78 86.5q-36 0 -71 -36.5t-55.5 -77t-49.5 -104.5t-39 -83q-18 -34 -60.5 -120t-50.5 -100zM637 1731q0 31 40 72t93.5 80.5t121 104 t109.5 130.5q19 8 43 8q67 0 93 -74q2 -4 2 -16q0 -61 -68 -149.5t-149 -155.5t-129 -84q-18 -7 -35 -7q-47 0 -84 27t-37 64z" />
<glyph unicode="&#xc2;" horiz-adv-x="1490" d="M27 86q0 42 27.5 119.5t58.5 141.5t71 143t47 94q441 958 617 958q50 0 111 -80.5t115 -196.5t112 -269t97.5 -274.5t76 -237t43.5 -134.5q9 -26 32.5 -84t35.5 -99.5t12 -80.5q0 -28 -33.5 -47t-67.5 -19q-56 0 -132.5 134t-133.5 356q-65 -10 -224 -30t-284.5 -39 t-204.5 -38q-22 -50 -72.5 -189.5t-62.5 -170.5q-27 -70 -100 -70t-107 34t-34 79zM514 659q410 82 522 105q-6 12 -41.5 127.5t-76.5 202t-78 86.5q-36 0 -71 -36.5t-55.5 -77t-49.5 -104.5t-39 -83q-18 -34 -60.5 -120t-50.5 -100zM573 1712q0 25 55.5 75.5t124.5 91 t103 40.5q41 0 150.5 -76t109.5 -119q0 -30 -36.5 -63t-69.5 -33q-5 0 -40 22t-82.5 54t-66.5 43q-148 -117 -184 -117q-23 0 -43.5 28.5t-20.5 53.5z" />
<glyph unicode="&#xc3;" horiz-adv-x="1490" d="M27 86q0 42 27.5 119.5t58.5 141.5t71 143t47 94q441 958 617 958q50 0 111 -80.5t115 -196.5t112 -269t97.5 -274.5t76 -237t43.5 -134.5q9 -26 32.5 -84t35.5 -99.5t12 -80.5q0 -28 -33.5 -47t-67.5 -19q-56 0 -132.5 134t-133.5 356q-65 -10 -224 -30t-284.5 -39 t-204.5 -38q-22 -50 -72.5 -189.5t-62.5 -170.5q-27 -70 -100 -70t-107 34t-34 79zM510 1765q0 55 65 125t127 70q27 0 59.5 -20t58.5 -43.5t58 -43.5t58 -20q29 0 52.5 17.5t37 38t32.5 38t40 17.5q20 0 38.5 -15.5t18.5 -42.5q0 -69 -73.5 -157.5t-143.5 -88.5 q-34 0 -71 18.5t-64 40t-60.5 40t-60.5 18.5q-20 0 -36 -13.5t-24.5 -29.5t-23 -29.5t-31.5 -13.5q-57 0 -57 94zM514 659q410 82 522 105q-6 12 -41.5 127.5t-76.5 202t-78 86.5q-36 0 -71 -36.5t-55.5 -77t-49.5 -104.5t-39 -83q-18 -34 -60.5 -120t-50.5 -100z" />
<glyph unicode="&#xc4;" horiz-adv-x="1490" d="M27 86q0 42 27.5 119.5t58.5 141.5t71 143t47 94q441 958 617 958q50 0 111 -80.5t115 -196.5t112 -269t97.5 -274.5t76 -237t43.5 -134.5q9 -26 32.5 -84t35.5 -99.5t12 -80.5q0 -28 -33.5 -47t-67.5 -19q-56 0 -132.5 134t-133.5 356q-65 -10 -224 -30t-284.5 -39 t-204.5 -38q-22 -50 -72.5 -189.5t-62.5 -170.5q-27 -70 -100 -70t-107 34t-34 79zM514 659q410 82 522 105q-6 12 -41.5 127.5t-76.5 202t-78 86.5q-36 0 -71 -36.5t-55.5 -77t-49.5 -104.5t-39 -83q-18 -34 -60.5 -120t-50.5 -100zM522 1714q0 56 39.5 101t91.5 45 q48 0 77.5 -34.5t29.5 -82.5q0 -53 -40.5 -96t-92.5 -43q-42 0 -73.5 33.5t-31.5 76.5zM895 1714q0 55 39.5 99.5t91.5 44.5q49 0 78 -34.5t29 -82.5q0 -53 -41 -96t-93 -43q-41 0 -72.5 34.5t-31.5 77.5z" />
<glyph unicode="&#xc5;" horiz-adv-x="1490" d="M27 86q0 42 27.5 119.5t58.5 141.5t71 143t47 94q441 958 617 958q50 0 111 -80.5t115 -196.5t112 -269t97.5 -274.5t76 -237t43.5 -134.5q9 -26 32.5 -84t35.5 -99.5t12 -80.5q0 -28 -33.5 -47t-67.5 -19q-56 0 -132.5 134t-133.5 356q-65 -10 -224 -30t-284.5 -39 t-204.5 -38q-22 -50 -72.5 -189.5t-62.5 -170.5q-27 -70 -100 -70t-107 34t-34 79zM514 659q410 82 522 105q-6 12 -41.5 127.5t-76.5 202t-78 86.5q-36 0 -71 -36.5t-55.5 -77t-49.5 -104.5t-39 -83q-18 -34 -60.5 -120t-50.5 -100zM608 1812q0 102 69.5 166t172.5 64 q93 0 162 -53t69 -142q0 -106 -66 -166.5t-173 -60.5q-93 0 -162 51t-72 141zM719 1825q0 -35 38.5 -60.5t76.5 -29.5q69 0 105 27.5t36 90.5q-3 42 -41 64t-82 22q-59 0 -96 -28.5t-37 -85.5z" />
<glyph unicode="&#xc6;" horiz-adv-x="2514" d="M27 86q0 42 27.5 119.5t58.5 141.5t71 143t47 94q441 958 617 958q62 0 146.5 -134t158.5 -319t137 -391q3 92 14 309.5t11 313.5q0 73 35.5 124t103.5 64q111 4 360 41t388 37q35 0 56.5 -1t55.5 -4.5t55 -13t42.5 -24t32 -40t10.5 -58.5q0 -78 -49.5 -106.5 t-149.5 -28.5q-41 0 -152.5 7t-175.5 7q-83 0 -192.5 -17.5t-180.5 -43.5q-9 -28 -22 -150.5t-21 -275.5q683 131 742 131q58 0 99.5 -35t41.5 -88q0 -51 -26 -89.5t-78 -41.5q-87 -6 -791 -121q-4 -184 -4 -277q0 -68 41 -90t125 -22q75 0 296.5 40t276.5 40 q65 0 104.5 -30t39.5 -85q0 -57 -33.5 -92.5t-93.5 -44.5q-161 -25 -243 -36.5t-204 -23.5t-213 -12q-119 0 -187 27t-108 96q-119 204 -186 444q-448 -62 -707 -125q-22 -50 -72.5 -189.5t-62.5 -170.5q-27 -70 -100 -70t-107 34t-34 79zM514 659l533 86q-129 435 -207 435 q-36 0 -71 -36.5t-55.5 -77t-49.5 -104.5t-39 -83q-18 -34 -60.5 -120t-50.5 -100z" />
<glyph unicode="&#xc7;" horiz-adv-x="1357" d="M61 426q0 164 61 331.5t165.5 305.5t234.5 247t276.5 169.5t282.5 60.5q43 0 78 -25t56.5 -62.5t35.5 -85t19.5 -88.5t5.5 -77q0 -34 -5 -66.5t-17.5 -67.5t-39 -56t-63.5 -21q-29 0 -46.5 11t-23 29t-8.5 41t-3 47t-7 47t-19.5 41t-41.5 29t-72 11q-96 0 -209.5 -76.5 t-205.5 -192t-154 -260.5t-62 -272q0 -69 43 -122t106 -78t134 -25q79 0 158 22.5t141.5 54.5t119 64.5t110 55t95.5 22.5q40 0 67 -28t27 -72q0 -83 -98 -165.5t-230 -135.5t-255 -70q11 -30 44.5 -76.5t59 -92t25.5 -89.5q0 -54 -50.5 -114.5t-117 -99t-115.5 -38.5 q-31 0 -49 22t-18 46q0 20 13.5 37.5t32 31.5t37.5 29.5t32.5 38t13.5 49.5q0 29 -22 65.5t-49 65t-50.5 65.5t-26.5 68q-188 32 -302 142.5t-114 306.5z" />
<glyph unicode="&#xc8;" horiz-adv-x="1349" d="M100 291q0 167 25 517.5t25 512.5q0 73 35.5 124t103.5 64q111 4 359.5 41t387.5 37q35 0 56.5 -1t55.5 -4.5t55 -13t42.5 -24t32 -40t10.5 -58.5q0 -78 -49 -106.5t-149 -28.5q-41 0 -152.5 7t-175.5 7q-83 0 -192.5 -17.5t-180.5 -43.5q-29 -137 -29 -340 q0 -34 14.5 -43t47.5 -9q71 0 310.5 43.5t354.5 53.5q58 0 100 -35t42 -88q0 -51 -26.5 -89.5t-78.5 -41.5q-109 -7 -426.5 -56t-355.5 -49q-12 -44 -12 -293q0 -68 41 -90t125 -22q75 0 296.5 40t276.5 40q64 0 101.5 -29.5t41.5 -85.5q0 -57 -33.5 -92.5t-93.5 -44.5 q-162 -25 -243 -36.5t-203 -23.5t-213 -12t-147.5 12t-99.5 47.5t-61 100.5t-18 170zM403 2128q0 44 31.5 80.5t75.5 36.5q53 0 137.5 -88t147.5 -198.5t63 -172.5q0 -38 -26 -74.5t-64 -36.5q-17 0 -191 216.5t-174 236.5z" />
<glyph unicode="&#xc9;" horiz-adv-x="1349" d="M100 291q0 167 25 517.5t25 512.5q0 73 35.5 124t103.5 64q111 4 359.5 41t387.5 37q35 0 56.5 -1t55.5 -4.5t55 -13t42.5 -24t32 -40t10.5 -58.5q0 -78 -49 -106.5t-149 -28.5q-41 0 -152.5 7t-175.5 7q-83 0 -192.5 -17.5t-180.5 -43.5q-29 -137 -29 -340 q0 -34 14.5 -43t47.5 -9q71 0 310.5 43.5t354.5 53.5q58 0 100 -35t42 -88q0 -51 -26.5 -89.5t-78.5 -41.5q-109 -7 -426.5 -56t-355.5 -49q-12 -44 -12 -293q0 -68 41 -90t125 -22q75 0 296.5 40t276.5 40q64 0 101.5 -29.5t41.5 -85.5q0 -57 -33.5 -92.5t-93.5 -44.5 q-162 -25 -243 -36.5t-203 -23.5t-213 -12t-147.5 12t-99.5 47.5t-61 100.5t-18 170zM571 1753q0 31 40 72t94 80.5t121.5 104t109.5 130.5q19 8 43 8q66 0 92 -73q2 -4 2 -17q0 -61 -68 -149.5t-149 -155.5t-129 -84q-15 -6 -35 -6q-47 0 -84 26.5t-37 63.5z" />
<glyph unicode="&#xca;" horiz-adv-x="1349" d="M100 291q0 167 25 517.5t25 512.5q0 73 35.5 124t103.5 64q111 4 359.5 41t387.5 37q35 0 56.5 -1t55.5 -4.5t55 -13t42.5 -24t32 -40t10.5 -58.5q0 -78 -49 -106.5t-149 -28.5q-41 0 -152.5 7t-175.5 7q-83 0 -192.5 -17.5t-180.5 -43.5q-29 -137 -29 -340 q0 -34 14.5 -43t47.5 -9q71 0 310.5 43.5t354.5 53.5q58 0 100 -35t42 -88q0 -51 -26.5 -89.5t-78.5 -41.5q-109 -7 -426.5 -56t-355.5 -49q-12 -44 -12 -293q0 -68 41 -90t125 -22q75 0 296.5 40t276.5 40q64 0 101.5 -29.5t41.5 -85.5q0 -57 -33.5 -92.5t-93.5 -44.5 q-162 -25 -243 -36.5t-203 -23.5t-213 -12t-147.5 12t-99.5 47.5t-61 100.5t-18 170zM483 1755q0 25 55.5 75.5t124.5 91t103 40.5q41 0 150.5 -76t109.5 -119q0 -30 -36.5 -63t-69.5 -33q-5 0 -40 22t-82.5 54t-66.5 43q-148 -117 -184 -117q-23 0 -43.5 28.5t-20.5 53.5z " />
<glyph unicode="&#xcb;" horiz-adv-x="1349" d="M100 291q0 167 25 517.5t25 512.5q0 73 35.5 124t103.5 64q111 4 359.5 41t387.5 37q35 0 56.5 -1t55.5 -4.5t55 -13t42.5 -24t32 -40t10.5 -58.5q0 -78 -49 -106.5t-149 -28.5q-41 0 -152.5 7t-175.5 7q-83 0 -192.5 -17.5t-180.5 -43.5q-29 -137 -29 -340 q0 -34 14.5 -43t47.5 -9q71 0 310.5 43.5t354.5 53.5q58 0 100 -35t42 -88q0 -51 -26.5 -89.5t-78.5 -41.5q-109 -7 -426.5 -56t-355.5 -49q-12 -44 -12 -293q0 -68 41 -90t125 -22q75 0 296.5 40t276.5 40q64 0 101.5 -29.5t41.5 -85.5q0 -57 -33.5 -92.5t-93.5 -44.5 q-162 -25 -243 -36.5t-203 -23.5t-213 -12t-147.5 12t-99.5 47.5t-61 100.5t-18 170zM479 1769q0 56 39.5 101t91.5 45q48 0 77.5 -34.5t29.5 -82.5q0 -53 -40.5 -96t-92.5 -43q-42 0 -73.5 33.5t-31.5 76.5zM852 1769q0 55 39.5 99.5t91.5 44.5q49 0 78 -34.5t29 -82.5 q0 -53 -41 -96t-93 -43q-41 0 -72.5 34.5t-31.5 77.5z" />
<glyph unicode="&#xcc;" horiz-adv-x="946" d="M41 115q0 112 178 112h135q6 465 6 996v82h-159q-55 0 -94 30t-39 82q0 113 178 113q108 0 317.5 -3t259.5 -3q40 0 65 -31t25 -74q0 -47 -25 -76t-67 -32q-140 -8 -209 -8q2 -10 2 -29q-8 -245 -8 -563q0 -82 1 -231.5t1 -256.5q59 -2 189 -2q40 0 65 -30.5t25 -73.5 q0 -47 -25 -76.5t-67 -32.5q-123 -8 -281 -8q-53 0 -166 1t-174 1q-55 0 -94 30.5t-39 82.5zM166 2077q0 44 31 80t75 36q53 0 137.5 -87.5t148 -198t63.5 -172.5q0 -38 -26.5 -74.5t-64.5 -36.5q-17 0 -190.5 216.5t-173.5 236.5z" />
<glyph unicode="&#xcd;" horiz-adv-x="946" d="M41 115q0 112 178 112h135q6 465 6 996v82h-159q-55 0 -94 30t-39 82q0 113 178 113q108 0 317.5 -3t259.5 -3q40 0 65 -31t25 -74q0 -47 -25 -76t-67 -32q-140 -8 -209 -8q2 -10 2 -29q-8 -245 -8 -563q0 -82 1 -231.5t1 -256.5q59 -2 189 -2q40 0 65 -30.5t25 -73.5 q0 -47 -25 -76.5t-67 -32.5q-123 -8 -281 -8q-53 0 -166 1t-174 1q-55 0 -94 30.5t-39 82.5zM377 1765q0 31 40 72t93.5 80.5t121 104t109.5 130.5q21 9 43 9q67 0 93 -74q2 -4 2 -16q0 -46 -41 -111t-98 -121.5t-115 -100.5t-93 -57q-15 -6 -34 -6q-47 0 -84 26.5t-37 63.5 z" />
<glyph unicode="&#xce;" horiz-adv-x="946" d="M41 115q0 112 178 112h135q6 465 6 996v82h-159q-55 0 -94 30t-39 82q0 113 178 113q108 0 317.5 -3t259.5 -3q40 0 65 -31t25 -74q0 -47 -25 -76t-67 -32q-140 -8 -209 -8q2 -10 2 -29q-8 -245 -8 -563q0 -82 1 -231.5t1 -256.5q59 -2 189 -2q40 0 65 -30.5t25 -73.5 q0 -47 -25 -76.5t-67 -32.5q-123 -8 -281 -8q-53 0 -166 1t-174 1q-55 0 -94 30.5t-39 82.5zM203 1749q0 25 55 75.5t124 91t103 40.5q41 0 150.5 -76t109.5 -119q0 -30 -36.5 -63t-69.5 -33q-5 0 -40 22.5t-82 54t-66 42.5q-148 -117 -185 -117q-23 0 -43 28.5t-20 53.5z " />
<glyph unicode="&#xcf;" horiz-adv-x="946" d="M41 115q0 112 178 112h135q6 465 6 996v82h-159q-55 0 -94 30t-39 82q0 113 178 113q108 0 317.5 -3t259.5 -3q40 0 65 -31t25 -74q0 -47 -25 -76t-67 -32q-140 -8 -209 -8q2 -10 2 -29q-8 -245 -8 -563q0 -82 1 -231.5t1 -256.5q59 -2 189 -2q40 0 65 -30.5t25 -73.5 q0 -47 -25 -76.5t-67 -32.5q-123 -8 -281 -8q-53 0 -166 1t-174 1q-55 0 -94 30.5t-39 82.5zM168 1716q0 56 39.5 101t91.5 45q48 0 77.5 -34.5t29.5 -82.5q0 -53 -41 -96t-93 -43q-42 0 -73 33.5t-31 76.5zM541 1716q0 55 39.5 99.5t91.5 44.5q49 0 77.5 -34.5t28.5 -82.5 q0 -53 -40.5 -96t-92.5 -43q-41 0 -72.5 34.5t-31.5 77.5z" />
<glyph unicode="&#xd0;" horiz-adv-x="1505" d="M25 774q0 100 139 111q-10 307 -10 364q0 39 4 117q3 60 49.5 113t105.5 53q11 0 27 -4q61 -11 155.5 -17.5t178.5 -9.5t183.5 -15t180.5 -30t160 -58t132.5 -97t86.5 -148.5t33 -210.5q0 -142 -40.5 -275.5t-112 -241.5t-170 -198.5t-213 -151.5t-243 -94.5 t-257.5 -33.5q-277 0 -277 168q0 78 15.5 256t15.5 262v29h-10q-55 0 -94 30t-39 82zM389 307q0 -82 123 -82q108 0 220 49.5t200 127t158.5 167t108.5 175t38 145.5q0 59 -17.5 108t-45.5 85t-73 64.5t-90 47.5t-108 32.5t-114.5 21t-122 11.5t-118 5.5t-114.5 1.5 q0 -199 -10 -381q55 0 173 -2t183 -2q40 0 65 -31t25 -74q0 -47 -25 -76t-67 -32q-138 -9 -280 -9h-90q-19 -253 -19 -352z" />
<glyph unicode="&#xd1;" horiz-adv-x="1458" d="M92 166q0 82 14.5 244t14.5 254q0 350 -2 454q-1 40 -11 133t-10 142q0 48 30.5 87.5t78.5 39.5q39 0 77.5 -25.5t68.5 -63t61.5 -90.5t52.5 -97.5t45.5 -96t36.5 -74.5q60 -114 170.5 -271.5t222 -281.5t156.5 -123q49 0 49 187q0 97 -4 207.5t-10 249.5t-9 219 q-1 30 -9.5 87.5t-8.5 86.5q0 60 36 110.5t93 50.5q33 0 57 -18t36.5 -43.5t19.5 -66.5t8.5 -74t1.5 -80q0 -98 -6 -250.5t-6 -206.5q0 -103 8 -314t8 -311q0 -105 -36 -156.5t-126 -51.5q-61 0 -161 77.5t-205 195.5t-204.5 247.5t-171 243.5t-93.5 174q-31 -234 -31 -469 q0 -51 6 -158.5t6 -171.5q0 -51 -10.5 -91.5t-43 -71t-83.5 -30.5q-63 0 -90 43.5t-27 153.5zM385 1716q0 55 65.5 125t127.5 70q27 0 59.5 -20t58 -43.5t57.5 -43.5t58 -20q29 0 52.5 17t37 38t32.5 38t40 17q20 0 38.5 -15t18.5 -42q0 -69 -73.5 -157.5t-143.5 -88.5 q-34 0 -71 18.5t-64 40t-60.5 40t-60.5 18.5q-20 0 -36 -13.5t-24.5 -29.5t-23 -29.5t-31.5 -13.5q-57 0 -57 94z" />
<glyph unicode="&#xd2;" d="M57 639q0 152 52.5 294.5t145 253.5t213 195t262.5 129t286 45q141 0 266 -51t219.5 -143t149.5 -230.5t55 -304.5q0 -128 -40 -243.5t-106 -201.5t-152.5 -158.5t-177.5 -121t-182.5 -82.5t-167.5 -49.5t-132 -15.5q-145 0 -272 49.5t-219.5 137.5t-146 217t-53.5 280z M297 608q0 -81 28 -149t73.5 -113t104.5 -77t118.5 -46t117.5 -14q103 0 207 24.5t199 75.5t168.5 121.5t117.5 170.5t44 214q0 113 -36.5 206.5t-98.5 155t-143.5 95t-172.5 33.5q-142 0 -274 -51.5t-232.5 -141t-160.5 -221.5t-60 -283zM586 2118q0 44 31 80t75 36 q53 0 137.5 -87.5t147.5 -198t63 -172.5q0 -38 -26 -74.5t-64 -36.5q-17 0 -190.5 216.5t-173.5 236.5z" />
<glyph unicode="&#xd3;" d="M57 639q0 152 52.5 294.5t145 253.5t213 195t262.5 129t286 45q141 0 266 -51t219.5 -143t149.5 -230.5t55 -304.5q0 -128 -40 -243.5t-106 -201.5t-152.5 -158.5t-177.5 -121t-182.5 -82.5t-167.5 -49.5t-132 -15.5q-145 0 -272 49.5t-219.5 137.5t-146 217t-53.5 280z M297 608q0 -81 28 -149t73.5 -113t104.5 -77t118.5 -46t117.5 -14q103 0 207 24.5t199 75.5t168.5 121.5t117.5 170.5t44 214q0 113 -36.5 206.5t-98.5 155t-143.5 95t-172.5 33.5q-142 0 -274 -51.5t-232.5 -141t-160.5 -221.5t-60 -283zM815 1761q0 31 40 72t94 80.5 t121.5 104t109.5 130.5q21 9 43 9q66 0 92 -74q2 -4 2 -17q0 -61 -68 -149.5t-149 -155.5t-129 -84q-15 -6 -35 -6q-47 0 -84 26.5t-37 63.5z" />
<glyph unicode="&#xd4;" d="M57 639q0 152 52.5 294.5t145 253.5t213 195t262.5 129t286 45q141 0 266 -51t219.5 -143t149.5 -230.5t55 -304.5q0 -128 -40 -243.5t-106 -201.5t-152.5 -158.5t-177.5 -121t-182.5 -82.5t-167.5 -49.5t-132 -15.5q-145 0 -272 49.5t-219.5 137.5t-146 217t-53.5 280z M297 608q0 -81 28 -149t73.5 -113t104.5 -77t118.5 -46t117.5 -14q103 0 207 24.5t199 75.5t168.5 121.5t117.5 170.5t44 214q0 113 -36.5 206.5t-98.5 155t-143.5 95t-172.5 33.5q-142 0 -274 -51.5t-232.5 -141t-160.5 -221.5t-60 -283zM700 1726q0 25 55.5 75.5t124.5 91 t103 40.5q41 0 150.5 -75.5t109.5 -118.5q0 -30 -36.5 -63.5t-69.5 -33.5q-5 0 -40 22t-82.5 54t-66.5 43q-147 -116 -184 -116q-23 0 -43.5 28t-20.5 53z" />
<glyph unicode="&#xd5;" d="M57 639q0 152 52.5 294.5t145 253.5t213 195t262.5 129t286 45q141 0 266 -51t219.5 -143t149.5 -230.5t55 -304.5q0 -128 -40 -243.5t-106 -201.5t-152.5 -158.5t-177.5 -121t-182.5 -82.5t-167.5 -49.5t-132 -15.5q-145 0 -272 49.5t-219.5 137.5t-146 217t-53.5 280z M297 608q0 -81 28 -149t73.5 -113t104.5 -77t118.5 -46t117.5 -14q103 0 207 24.5t199 75.5t168.5 121.5t117.5 170.5t44 214q0 113 -36.5 206.5t-98.5 155t-143.5 95t-172.5 33.5q-142 0 -274 -51.5t-232.5 -141t-160.5 -221.5t-60 -283zM643 1763q0 55 65.5 125t127.5 70 q27 0 59.5 -20t58 -43.5t57.5 -43.5t58 -20q29 0 52.5 17.5t37 38t32.5 38t40 17.5q20 0 38.5 -15.5t18.5 -42.5q0 -69 -73.5 -157.5t-143.5 -88.5q-34 0 -71 18.5t-64 40t-60.5 40t-60.5 18.5q-20 0 -36 -13.5t-24.5 -29.5t-23 -29.5t-31.5 -13.5q-57 0 -57 94z" />
<glyph unicode="&#xd6;" d="M57 639q0 152 52.5 294.5t145 253.5t213 195t262.5 129t286 45q141 0 266 -51t219.5 -143t149.5 -230.5t55 -304.5q0 -128 -40 -243.5t-106 -201.5t-152.5 -158.5t-177.5 -121t-182.5 -82.5t-167.5 -49.5t-132 -15.5q-145 0 -272 49.5t-219.5 137.5t-146 217t-53.5 280z M297 608q0 -81 28 -149t73.5 -113t104.5 -77t118.5 -46t117.5 -14q103 0 207 24.5t199 75.5t168.5 121.5t117.5 170.5t44 214q0 113 -36.5 206.5t-98.5 155t-143.5 95t-172.5 33.5q-142 0 -274 -51.5t-232.5 -141t-160.5 -221.5t-60 -283zM662 1741q0 56 39.5 100.5 t91.5 44.5q48 0 77 -34.5t29 -82.5q0 -53 -40.5 -96t-92.5 -43q-42 0 -73 34t-31 77zM1034 1741q0 55 39.5 99t91.5 44q49 0 78 -34.5t29 -82.5q0 -53 -40.5 -96t-92.5 -43q-41 0 -73 35t-32 78z" />
<glyph unicode="&#xd7;" horiz-adv-x="858" d="M59 365q0 59 78 137l137 137l-165 168q-46 46 -46 100q0 40 30.5 71.5t68.5 31.5q61 0 137 -76l135 -137l203 196q25 25 59 25q43 0 79 -37.5t36 -77.5q0 -33 -25 -61q-82 -93 -192 -207l197 -201q24 -24 24 -59q0 -44 -37.5 -79.5t-77.5 -35.5q-33 0 -61 25 q-72 61 -207 192l-168 -166q-45 -45 -100 -45q-40 0 -72.5 30.5t-32.5 68.5z" />
<glyph unicode="&#xd8;" d="M57 625q0 152 52.5 294.5t145 253.5t213 195t262.5 129t286 45q44 0 90 -6q65 133 115 133q32 0 51.5 -31.5t19.5 -76.5q0 -21 -12 -70q193 -76 309.5 -253.5t116.5 -424.5q0 -126 -39 -240t-103.5 -199.5t-149 -158t-174 -121t-181 -83.5t-167.5 -51.5t-134 -18.5 l-6 -21q-16 -48 -45.5 -82.5t-61.5 -34.5q-36 0 -56 31.5t-20 75.5q0 21 6 51q-232 52 -375 230t-143 434zM297 594q0 -84 29.5 -154t80 -116.5t109.5 -76t125 -42.5q56 178 200 582t177 503q-142 -1 -272.5 -53t-230 -141.5t-159 -220.5t-59.5 -281zM852 201 q119 16 228 62.5t198.5 120t143 182t53.5 235.5q0 162 -72.5 278.5t-192.5 169.5q-109 -346 -358 -1048z" />
<glyph unicode="&#xd9;" horiz-adv-x="1474" d="M76 539q0 105 17.5 333.5t17.5 364.5q0 51 4.5 90.5t17.5 84.5t44 70t77 25q43 0 71.5 -25.5t40.5 -71.5t15.5 -83.5t3.5 -87.5q0 -107 -26.5 -330.5t-26.5 -369.5q0 -177 67 -242.5t240 -65.5q97 0 179.5 23t147 79t85.5 138q86 347 86 754q0 71 5.5 124t19.5 102t44 75 t74 26q57 0 93 -38.5t36 -94.5q0 -135 -27 -424.5t-57 -531.5q-11 -92 -60 -174.5t-135.5 -151t-225.5 -109t-312 -40.5q-115 0 -203 25.5t-147 71.5t-96.5 115.5t-53.5 152t-16 186.5zM432 2046q0 44 31.5 80.5t75.5 36.5q53 0 137.5 -88t147.5 -198.5t63 -172.5 q0 -38 -26 -74.5t-64 -36.5q-17 0 -191 216.5t-174 236.5z" />
<glyph unicode="&#xda;" horiz-adv-x="1474" d="M76 539q0 105 17.5 333.5t17.5 364.5q0 51 4.5 90.5t17.5 84.5t44 70t77 25q43 0 71.5 -25.5t40.5 -71.5t15.5 -83.5t3.5 -87.5q0 -107 -26.5 -330.5t-26.5 -369.5q0 -177 67 -242.5t240 -65.5q97 0 179.5 23t147 79t85.5 138q86 347 86 754q0 71 5.5 124t19.5 102t44 75 t74 26q57 0 93 -38.5t36 -94.5q0 -135 -27 -424.5t-57 -531.5q-11 -92 -60 -174.5t-135.5 -151t-225.5 -109t-312 -40.5q-115 0 -203 25.5t-147 71.5t-96.5 115.5t-53.5 152t-16 186.5zM616 1704q0 31 40 72t94 80.5t121.5 104t109.5 130.5q19 8 43 8q66 0 92 -74 q2 -4 2 -16q0 -61 -68 -149.5t-149 -155.5t-129 -84q-15 -6 -35 -6q-47 0 -84 26.5t-37 63.5z" />
<glyph unicode="&#xdb;" horiz-adv-x="1474" d="M76 539q0 105 17.5 333.5t17.5 364.5q0 51 4.5 90.5t17.5 84.5t44 70t77 25q43 0 71.5 -25.5t40.5 -71.5t15.5 -83.5t3.5 -87.5q0 -107 -26.5 -330.5t-26.5 -369.5q0 -177 67 -242.5t240 -65.5q97 0 179.5 23t147 79t85.5 138q86 347 86 754q0 71 5.5 124t19.5 102t44 75 t74 26q57 0 93 -38.5t36 -94.5q0 -135 -27 -424.5t-57 -531.5q-11 -92 -60 -174.5t-135.5 -151t-225.5 -109t-312 -40.5q-115 0 -203 25.5t-147 71.5t-96.5 115.5t-53.5 152t-16 186.5zM465 1749q0 25 55.5 75.5t124.5 91t103 40.5q41 0 150.5 -76t109.5 -119q0 -30 -37 -63 t-70 -33q-5 0 -40 22.5t-82 54t-66 42.5q-148 -117 -185 -117q-23 0 -43 28.5t-20 53.5z" />
<glyph unicode="&#xdc;" horiz-adv-x="1474" d="M76 539q0 105 17.5 333.5t17.5 364.5q0 51 4.5 90.5t17.5 84.5t44 70t77 25q43 0 71.5 -25.5t40.5 -71.5t15.5 -83.5t3.5 -87.5q0 -107 -26.5 -330.5t-26.5 -369.5q0 -177 67 -242.5t240 -65.5q97 0 179.5 23t147 79t85.5 138q86 347 86 754q0 71 5.5 124t19.5 102t44 75 t74 26q57 0 93 -38.5t36 -94.5q0 -135 -27 -424.5t-57 -531.5q-11 -92 -60 -174.5t-135.5 -151t-225.5 -109t-312 -40.5q-115 0 -203 25.5t-147 71.5t-96.5 115.5t-53.5 152t-16 186.5zM432 1716q0 56 39.5 101t91.5 45q48 0 77.5 -34.5t29.5 -82.5q0 -53 -40.5 -96 t-92.5 -43q-42 0 -73.5 33.5t-31.5 76.5zM805 1716q0 55 39.5 99.5t91.5 44.5q49 0 77.5 -34.5t28.5 -82.5q0 -53 -40.5 -96t-92.5 -43q-41 0 -72.5 34.5t-31.5 77.5z" />
<glyph unicode="&#xdd;" horiz-adv-x="1275" d="M35 1452q0 28 33.5 47t66.5 19q65 0 123.5 -64.5t103.5 -164t85 -203t86.5 -200t89.5 -136.5q78 87 152.5 233.5t137 303t80.5 190.5q35 69 101 69q73 0 107 -33.5t34 -78.5q0 -75 -42 -183.5t-112 -226.5t-131.5 -211t-131.5 -191.5t-81 -115.5q0 -62 1 -180.5t1 -196.5 q0 -45 -15.5 -88t-55.5 -77t-97 -34q-45 0 -64.5 26.5t-19.5 78.5l5 479q-26 47 -125.5 220t-165 290t-86.5 164q-28 62 -40.5 93.5t-26 81t-13.5 89.5zM479 1626q0 31 40 72t94 80.5t121.5 104t109.5 130.5q19 8 43 8q66 0 92 -73q2 -4 2 -17q0 -61 -68 -149.5t-149 -155.5 t-129 -84q-15 -6 -35 -6q-47 0 -84 26.5t-37 63.5z" />
<glyph unicode="&#xde;" horiz-adv-x="1318" d="M117 35q6 545 6 1198q0 48 1 78.5t5 69t12.5 61.5t22.5 44.5t37 31.5t53 10q118 0 123 -244l-4 -82q179 25 303 25q104 0 202 -24.5t182.5 -73t135.5 -131t51 -187.5q0 -113 -49.5 -212t-131 -168t-185.5 -119.5t-214.5 -74.5t-217.5 -24q-53 0 -78 4v-88 q0 -45 -15.5 -88t-55.5 -77t-97 -34q-86 0 -86 105zM369 434q72 1 151.5 12.5t163.5 38t150 64.5t108.5 96.5t42.5 128.5q0 56 -31 97.5t-83.5 64t-113.5 33t-130 10.5q-159 0 -252 -39q0 -71 -2.5 -226t-3.5 -280z" />
<glyph unicode="&#xdf;" horiz-adv-x="2826" d="M76 903q0 108 73.5 208.5t188.5 172.5t253 126t271.5 81t239.5 27q48 0 84.5 -20t56.5 -49t32.5 -67.5t16.5 -69t4 -59.5q0 -123 -118 -129q-34 0 -59.5 11.5t-38 25t-35 42t-37.5 44.5q-52 -1 -128 -12.5t-167.5 -38t-169 -63t-129.5 -94t-52 -124.5q0 -41 56.5 -63.5 t147 -30.5t199.5 -14t218 -22t199.5 -46t147 -94.5t56.5 -159.5q0 -110 -65.5 -208t-166.5 -163t-222 -103t-234 -38q-53 0 -122 9t-152.5 33.5t-152.5 59t-115.5 93t-46.5 129.5q0 37 33 62.5t73 25.5q30 0 80 -26.5t98 -57.5t113.5 -57.5t122.5 -26.5q71 0 144.5 11 t146 34.5t118 67.5t45.5 102q0 48 -34.5 79.5t-92.5 47t-134 24.5t-159 15t-166.5 14.5t-159.5 27.5t-134 49.5t-92.5 84.5t-34.5 129zM1444 903q0 108 73.5 208.5t188.5 172.5t253 126t271.5 81t239.5 27q48 0 84.5 -20t56.5 -49t32.5 -67.5t16.5 -69t4 -59.5 q0 -123 -118 -129q-34 0 -59.5 11.5t-38 25t-35 42t-37.5 44.5q-52 -1 -128 -12.5t-167.5 -38t-168.5 -63t-129 -94t-52 -124.5q0 -41 56.5 -63.5t147 -30.5t199.5 -14t218 -22t199.5 -46t147 -94.5t56.5 -159.5q0 -110 -65.5 -208t-167 -163t-222.5 -103t-234 -38 q-53 0 -122 9t-152.5 33.5t-152.5 59t-115.5 93t-46.5 129.5q0 37 33 62.5t73 25.5q30 0 80 -26.5t98 -57.5t113.5 -57.5t122.5 -26.5q71 0 144.5 11t146 34.5t118 67.5t45.5 102q0 48 -34.5 79.5t-92.5 47t-134 24.5t-159.5 15t-166.5 14.5t-159 27.5t-134 49.5t-92.5 84.5 t-34.5 129z" />
<glyph unicode="&#xe0;" horiz-adv-x="1310" d="M39 66q0 65 70 250t177.5 417t187.5 398t147 299q29 59 55 83.5t74 24.5q77 0 124 -106q60 -138 120.5 -290.5t130 -345.5t112.5 -366.5t43 -279.5q0 -56 -25.5 -95.5t-80.5 -52.5q-99 0 -148 170q-11 36 -68 264q-56 -8 -194 -26q-47 -6 -172 -18t-182 -19l-41 -107 q-10 -24 -29 -79.5t-33.5 -91t-35.5 -76.5t-46 -61.5t-53 -20.5q-57 0 -95 36t-38 93zM410 2091q0 45 31 81t75 36q53 0 137.5 -88t147.5 -198.5t63 -172.5q0 -38 -26 -74.5t-64 -36.5q-17 0 -190.5 216.5t-173.5 236.5zM504 612q317 30 403 39q-53 213 -94 326 q-37 104 -68 104q-3 0 -5.5 -1.5t-6 -5t-7 -7.5t-7.5 -10.5t-7.5 -11.5t-8.5 -14t-8.5 -15t-9 -16.5t-9.5 -16.5q-69 -127 -172 -371z" />
<glyph unicode="&#xe1;" horiz-adv-x="1310" d="M39 66q0 65 70 250t177.5 417t187.5 398t147 299q29 59 55 83.5t74 24.5q77 0 124 -106q60 -138 120.5 -290.5t130 -345.5t112.5 -366.5t43 -279.5q0 -56 -25.5 -95.5t-80.5 -52.5q-99 0 -148 170q-11 36 -68 264q-56 -8 -194 -26q-47 -6 -172 -18t-182 -19l-41 -107 q-10 -24 -29 -79.5t-33.5 -91t-35.5 -76.5t-46 -61.5t-53 -20.5q-57 0 -95 36t-38 93zM504 612q317 30 403 39q-53 213 -94 326q-37 104 -68 104q-3 0 -5.5 -1.5t-6 -5t-7 -7.5t-7.5 -10.5t-7.5 -11.5t-8.5 -14t-8.5 -15t-9 -16.5t-9.5 -16.5q-69 -127 -172 -371zM535 1747 q0 31 40 72t93.5 80.5t121 104t109.5 130.5q19 8 43 8q66 0 92 -74q2 -4 2 -16q0 -61 -68 -149.5t-149 -155.5t-129 -84q-15 -6 -35 -6q-47 0 -83.5 26.5t-36.5 63.5z" />
<glyph unicode="&#xe2;" horiz-adv-x="1310" d="M39 66q0 65 70 250t177.5 417t187.5 398t147 299q29 59 55 83.5t74 24.5q77 0 124 -106q60 -138 120.5 -290.5t130 -345.5t112.5 -366.5t43 -279.5q0 -56 -25.5 -95.5t-80.5 -52.5q-99 0 -148 170q-11 36 -68 264q-56 -8 -194 -26q-47 -6 -172 -18t-182 -19l-41 -107 q-10 -24 -29 -79.5t-33.5 -91t-35.5 -76.5t-46 -61.5t-53 -20.5q-57 0 -95 36t-38 93zM485 1681q0 25 55.5 75.5t124.5 91t103 40.5q41 0 150.5 -75.5t109.5 -118.5q0 -30 -36.5 -63.5t-69.5 -33.5q-5 0 -40 22t-82.5 54t-66.5 43q-148 -117 -184 -117q-23 0 -43.5 28.5 t-20.5 53.5zM504 612q317 30 403 39q-53 213 -94 326q-37 104 -68 104q-3 0 -5.5 -1.5t-6 -5t-7 -7.5t-7.5 -10.5t-7.5 -11.5t-8.5 -14t-8.5 -15t-9 -16.5t-9.5 -16.5q-69 -127 -172 -371z" />
<glyph unicode="&#xe3;" horiz-adv-x="1310" d="M39 66q0 65 70 250t177.5 417t187.5 398t147 299q29 59 55 83.5t74 24.5q77 0 124 -106q60 -138 120.5 -290.5t130 -345.5t112.5 -366.5t43 -279.5q0 -56 -25.5 -95.5t-80.5 -52.5q-99 0 -148 170q-11 36 -68 264q-56 -8 -194 -26q-47 -6 -172 -18t-182 -19l-41 -107 q-10 -24 -29 -79.5t-33.5 -91t-35.5 -76.5t-46 -61.5t-53 -20.5q-57 0 -95 36t-38 93zM420 1747q0 55 65 125t127 70q27 0 59.5 -20t58.5 -43.5t58 -43.5t58 -20q29 0 52.5 17t37 38t32.5 38t40 17q20 0 38.5 -15t18.5 -42q0 -69 -73.5 -157.5t-143.5 -88.5q-34 0 -71 18.5 t-64 40t-60.5 40t-60.5 18.5q-20 0 -36 -13.5t-24.5 -29.5t-23 -29.5t-31.5 -13.5q-57 0 -57 94zM504 612q317 30 403 39q-53 213 -94 326q-37 104 -68 104q-3 0 -5.5 -1.5t-6 -5t-7 -7.5t-7.5 -10.5t-7.5 -11.5t-8.5 -14t-8.5 -15t-9 -16.5t-9.5 -16.5q-69 -127 -172 -371z " />
<glyph unicode="&#xe4;" horiz-adv-x="1310" d="M39 66q0 65 70 250t177.5 417t187.5 398t147 299q29 59 55 83.5t74 24.5q77 0 124 -106q60 -138 120.5 -290.5t130 -345.5t112.5 -366.5t43 -279.5q0 -56 -25.5 -95.5t-80.5 -52.5q-99 0 -148 170q-11 36 -68 264q-56 -8 -194 -26q-47 -6 -172 -18t-182 -19l-41 -107 q-10 -24 -29 -79.5t-33.5 -91t-35.5 -76.5t-46 -61.5t-53 -20.5q-57 0 -95 36t-38 93zM457 1698q0 56 39.5 100.5t91.5 44.5q48 0 77 -34.5t29 -82.5q0 -53 -40.5 -96t-92.5 -43q-42 0 -73 34t-31 77zM504 612q317 30 403 39q-53 213 -94 326q-37 104 -68 104 q-3 0 -5.5 -1.5t-6 -5t-7 -7.5t-7.5 -10.5t-7.5 -11.5t-8.5 -14t-8.5 -15t-9 -16.5t-9.5 -16.5q-69 -127 -172 -371zM829 1698q0 55 40 99t92 44q49 0 77.5 -34.5t28.5 -82.5q0 -53 -40.5 -96t-92.5 -43q-41 0 -73 35t-32 78z" />
<glyph unicode="&#xe5;" horiz-adv-x="1310" d="M39 66q0 65 70 250t177.5 417t187.5 398t147 299q29 59 55 83.5t74 24.5q77 0 124 -106q60 -138 120.5 -290.5t130 -345.5t112.5 -366.5t43 -279.5q0 -56 -25.5 -95.5t-80.5 -52.5q-99 0 -148 170q-11 36 -68 264q-56 -8 -194 -26q-47 -6 -172 -18t-182 -19l-41 -107 q-10 -24 -29 -79.5t-33.5 -91t-35.5 -76.5t-46 -61.5t-53 -20.5q-57 0 -95 36t-38 93zM504 612q317 30 403 39q-53 213 -94 326q-37 104 -68 104q-3 0 -5.5 -1.5t-6 -5t-7 -7.5t-7.5 -10.5t-7.5 -11.5t-8.5 -14t-8.5 -15t-9 -16.5t-9.5 -16.5q-69 -127 -172 -371zM528 1786 q0 102 69.5 165.5t172.5 63.5q94 0 162.5 -52.5t68.5 -141.5q0 -106 -66 -167t-173 -61q-93 0 -162 51.5t-72 141.5zM639 1798q0 -35 38.5 -60.5t76.5 -29.5q69 0 105 27.5t36 91.5q-3 42 -41 64t-82 22q-59 0 -96 -29t-37 -86z" />
<glyph unicode="&#xe6;" horiz-adv-x="2220" d="M23 41q0 20 6 41q21 65 149 250.5t307 416t313 399t240 298.5q47 59 81.5 83.5t82.5 24.5q50 0 72 -45q99 5 311.5 35.5t349.5 30.5q38 0 67.5 -2t66.5 -9.5t61 -20.5t40.5 -38t16.5 -59q0 -78 -49 -106.5t-149 -28.5q-41 0 -152.5 7t-175.5 7q-144 0 -311 -61 q-29 -137 -29 -340q0 -34 14 -43t47 -9q69 0 278 43.5t327 53.5q58 0 99.5 -35t41.5 -88q0 -51 -26.5 -89.5t-78.5 -41.5q-111 -8 -397 -56.5t-323 -48.5q-13 -48 -13 -293q0 -68 41 -90t125 -22q75 0 266 40t246 40q64 0 101.5 -29.5t41.5 -85.5q0 -57 -33 -92.5t-93 -44.5 q-43 -7 -160 -26t-163.5 -25.5t-126.5 -13.5t-149 -7q-91 0 -147.5 12t-99 47.5t-60.5 100.5t-18 170q0 25 1 81t1 81q-93 -14 -203 -27q-49 -6 -178 -18t-188 -19l-74 -106q-18 -25 -54.5 -80t-62 -91t-59 -76.5t-64.5 -61.5t-59 -21q-45 0 -71.5 24t-26.5 64zM664 629 q327 30 411 39q-2 6 -2 26q0 25 7 126.5t7 154.5q0 123 -34 123q-3 0 -6 -1.5t-8 -5t-9 -7.5t-11 -10.5t-11.5 -12t-13 -14.5t-13.5 -15t-14.5 -16.5t-14.5 -16.5q-110 -127 -288 -370z" />
<glyph unicode="&#xe7;" horiz-adv-x="1357" d="M61 459q0 129 40 264.5t109.5 257t167 230.5t207 187.5t235 124.5t247.5 46q89 0 157.5 -42.5t101 -103t32.5 -123.5q0 -41 -35 -77.5t-78 -36.5q-16 0 -30 10.5t-28 26t-33 31t-55 26t-85 10.5q-83 0 -181 -42t-191.5 -119.5t-171 -176.5t-124.5 -223.5t-47 -249.5 q0 -69 43 -122t106 -78t134 -25q79 0 158 22.5t141.5 55t119 64.5t110 54.5t95.5 22.5q40 0 67 -28t27 -72q0 -75 -79.5 -149.5t-191 -126t-230.5 -79.5q11 -29 44.5 -74t58 -89.5t24.5 -87.5q0 -54 -50.5 -114.5t-117 -99t-115.5 -38.5q-31 0 -49.5 22t-18.5 45 q0 24 20.5 46t44.5 37.5t44.5 43t20.5 60.5q0 27 -17.5 58t-40 56t-47 57.5t-35.5 57.5q-106 7 -194 36.5t-159 83.5t-111 141t-40 200z" />
<glyph unicode="&#xe8;" horiz-adv-x="1239" d="M100 291q0 167 25 517.5t25 512.5q0 73 35.5 124t103.5 64q88 4 303.5 20.5t361.5 16.5q35 0 56.5 -1t55.5 -4.5t55 -13t42.5 -24t32 -40t10.5 -58.5q0 -78 -49 -106.5t-149 -28.5q-41 0 -152.5 7t-175.5 7q-184 0 -291 -20q-29 -137 -29 -340q0 -34 14.5 -43t47.5 -9 q70 0 226.5 31t273.5 41q58 0 99.5 -35t41.5 -88q0 -51 -26.5 -89.5t-78.5 -41.5q-109 -7 -343.5 -43.5t-272.5 -36.5q-12 -44 -12 -293q0 -68 41 -90t125 -22q75 0 276 35.5t256 35.5q64 0 101.5 -29t41.5 -85q0 -57 -33.5 -92.5t-93.5 -44.5q-218 -34 -351.5 -49 t-266.5 -15q-91 0 -147.5 12t-99.5 47.5t-61 100.5t-18 170zM360 2109q0 44 31.5 80.5t75.5 36.5q53 0 137.5 -88t147.5 -198.5t63 -172.5q0 -38 -26 -74t-64 -36q-17 0 -191 216t-174 236z" />
<glyph unicode="&#xe9;" horiz-adv-x="1239" d="M100 291q0 167 25 517.5t25 512.5q0 73 35.5 124t103.5 64q88 4 303.5 20.5t361.5 16.5q35 0 56.5 -1t55.5 -4.5t55 -13t42.5 -24t32 -40t10.5 -58.5q0 -78 -49 -106.5t-149 -28.5q-41 0 -152.5 7t-175.5 7q-184 0 -291 -20q-29 -137 -29 -340q0 -34 14.5 -43t47.5 -9 q70 0 226.5 31t273.5 41q58 0 99.5 -35t41.5 -88q0 -51 -26.5 -89.5t-78.5 -41.5q-109 -7 -343.5 -43.5t-272.5 -36.5q-12 -44 -12 -293q0 -68 41 -90t125 -22q75 0 276 35.5t256 35.5q64 0 101.5 -29t41.5 -85q0 -57 -33.5 -92.5t-93.5 -44.5q-218 -34 -351.5 -49 t-266.5 -15q-91 0 -147.5 12t-99.5 47.5t-61 100.5t-18 170zM524 1755q0 31 40 72t94 80.5t121.5 104t109.5 130.5q19 8 43 8q66 0 92 -73q2 -4 2 -17q0 -61 -68 -149.5t-149 -155.5t-129 -84q-15 -6 -35 -6q-47 0 -84 26.5t-37 63.5z" />
<glyph unicode="&#xea;" horiz-adv-x="1239" d="M100 291q0 167 25 517.5t25 512.5q0 73 35.5 124t103.5 64q88 4 303.5 20.5t361.5 16.5q35 0 56.5 -1t55.5 -4.5t55 -13t42.5 -24t32 -40t10.5 -58.5q0 -78 -49 -106.5t-149 -28.5q-41 0 -152.5 7t-175.5 7q-184 0 -291 -20q-29 -137 -29 -340q0 -34 14.5 -43t47.5 -9 q70 0 226.5 31t273.5 41q58 0 99.5 -35t41.5 -88q0 -51 -26.5 -89.5t-78.5 -41.5q-109 -7 -343.5 -43.5t-272.5 -36.5q-12 -44 -12 -293q0 -68 41 -90t125 -22q75 0 276 35.5t256 35.5q64 0 101.5 -29t41.5 -85q0 -57 -33.5 -92.5t-93.5 -44.5q-218 -34 -351.5 -49 t-266.5 -15q-91 0 -147.5 12t-99.5 47.5t-61 100.5t-18 170zM455 1720q0 25 55 75.5t124 91t103 40.5q41 0 150.5 -75.5t109.5 -118.5q0 -30 -36.5 -63.5t-69.5 -33.5q-5 0 -40 22t-82.5 54t-66.5 43q-148 -117 -184 -117q-23 0 -43 28.5t-20 53.5z" />
<glyph unicode="&#xeb;" horiz-adv-x="1239" d="M100 291q0 167 25 517.5t25 512.5q0 73 35.5 124t103.5 64q88 4 303.5 20.5t361.5 16.5q35 0 56.5 -1t55.5 -4.5t55 -13t42.5 -24t32 -40t10.5 -58.5q0 -78 -49 -106.5t-149 -28.5q-41 0 -152.5 7t-175.5 7q-184 0 -291 -20q-29 -137 -29 -340q0 -34 14.5 -43t47.5 -9 q70 0 226.5 31t273.5 41q58 0 99.5 -35t41.5 -88q0 -51 -26.5 -89.5t-78.5 -41.5q-109 -7 -343.5 -43.5t-272.5 -36.5q-12 -44 -12 -293q0 -68 41 -90t125 -22q75 0 276 35.5t256 35.5q64 0 101.5 -29t41.5 -85q0 -57 -33.5 -92.5t-93.5 -44.5q-218 -34 -351.5 -49 t-266.5 -15q-91 0 -147.5 12t-99.5 47.5t-61 100.5t-18 170zM410 1749q0 56 39.5 100.5t91.5 44.5q48 0 77 -34t29 -82q0 -53 -40.5 -96.5t-92.5 -43.5q-42 0 -73 34t-31 77zM782 1749q0 55 39.5 99t91.5 44q49 0 78 -34t29 -82q0 -53 -40.5 -96.5t-92.5 -43.5q-41 0 -73 35 t-32 78z" />
<glyph unicode="&#xec;" horiz-adv-x="495" d="M-82 2091q0 44 31.5 80.5t75.5 36.5q53 0 137.5 -88t147.5 -198.5t63 -172.5q0 -38 -26 -74.5t-64 -36.5q-17 0 -191 216.5t-174 236.5zM117 35q6 545 6 1198q0 48 1 78.5t5 69t12.5 61.5t22.5 44.5t37 31.5t53 10q118 0 123 -244q-8 -245 -8 -573q0 -83 1 -276.5 t1 -305.5q0 -45 -15.5 -88t-55.5 -77t-97 -34q-86 0 -86 105z" />
<glyph unicode="&#xed;" horiz-adv-x="495" d="M84 1747q0 31 40 72t94 80.5t121.5 104t109.5 130.5q19 8 43 8q66 0 92 -74q2 -4 2 -16q0 -61 -68 -149.5t-149 -155.5t-129 -84q-15 -6 -35 -6q-47 0 -84 26.5t-37 63.5zM117 35q6 545 6 1198q0 48 1 78.5t5 69t12.5 61.5t22.5 44.5t37 31.5t53 10q118 0 123 -244 q-8 -245 -8 -573q0 -83 1 -276.5t1 -305.5q0 -45 -15.5 -88t-55.5 -77t-97 -34q-86 0 -86 105z" />
<glyph unicode="&#xee;" horiz-adv-x="495" d="M-23 1749q0 25 55.5 75.5t124.5 91t103 40.5q41 0 150.5 -76t109.5 -119q0 -30 -36.5 -63t-69.5 -33q-5 0 -40 22t-82.5 54t-66.5 43q-148 -117 -184 -117q-23 0 -43.5 28.5t-20.5 53.5zM117 35q6 545 6 1198q0 48 1 78.5t5 69t12.5 61.5t22.5 44.5t37 31.5t53 10 q118 0 123 -244q-8 -245 -8 -573q0 -83 1 -276.5t1 -305.5q0 -45 -15.5 -88t-55.5 -77t-97 -34q-86 0 -86 105z" />
<glyph unicode="&#xef;" horiz-adv-x="495" d="M-57 1716q0 56 39.5 101t91.5 45q48 0 77 -34.5t29 -82.5q0 -53 -40.5 -96t-92.5 -43q-42 0 -73 33.5t-31 76.5zM117 35q6 545 6 1198q0 48 1 78.5t5 69t12.5 61.5t22.5 44.5t37 31.5t53 10q118 0 123 -244q-8 -245 -8 -573q0 -83 1 -276.5t1 -305.5q0 -45 -15.5 -88 t-55.5 -77t-97 -34q-86 0 -86 105zM315 1716q0 55 39.5 99.5t91.5 44.5q49 0 78 -34.5t29 -82.5q0 -53 -40.5 -96t-92.5 -43q-41 0 -73 34.5t-32 77.5z" />
<glyph unicode="&#xf0;" horiz-adv-x="1505" d="M23 750q0 102 145 110q-1 80 -16 252.5t-15 251.5q0 168 277 168q164 0 309 -23.5t280.5 -81t232.5 -145.5t155.5 -226.5t58.5 -314.5q0 -127 -43 -236.5t-115 -189t-169 -143.5t-201.5 -105.5t-216 -69t-208.5 -39t-184 -11.5q-32 0 -57.5 11.5t-42 28.5t-28.5 44 t-17.5 49.5t-9 54.5t-4 50t-0.5 44q0 61 10 408h-8q-55 0 -94 30.5t-39 82.5zM389 1171q0 -115 17 -311q234 -4 372 -4q40 0 65 -30.5t25 -73.5q0 -47 -25 -76.5t-67 -32.5q-123 -8 -280 -8h-74q12 -238 12 -422q76 0 148 7t154 25t152 45.5t135.5 73.5t112 104.5t74 142.5 t27.5 184q0 118 -101.5 224.5t-269.5 170t-354 63.5q-123 0 -123 -82z" />
<glyph unicode="&#xf1;" horiz-adv-x="1372" d="M98 137q0 83 14.5 265.5t14.5 273.5q0 143 -1 281.5t-1 172.5q0 44 -10.5 136t-10.5 139q0 48 30.5 87.5t78.5 39.5q39 0 77.5 -25.5t68.5 -63t61.5 -90.5t52.5 -97.5t45.5 -96t36.5 -74.5q51 -96 110.5 -198t129.5 -211t131.5 -178t95.5 -68q14 0 22.5 12.5t12 43.5 t4 55t0.5 75q-1 111 -10 355.5t-9 378.5q0 196 117 196q123 0 123 -387q0 -82 -6 -203.5t-6 -128.5q0 -103 8 -293t8 -290q0 -106 -36 -157.5t-126 -51.5q-60 0 -152.5 78t-185 195t-180 247.5t-150.5 243t-85 174.5q-12 -91 -21.5 -247.5t-9.5 -262.5q0 -51 6 -158.5 t6 -171.5q0 -51 -10.5 -91.5t-43 -70.5t-83.5 -30q-63 0 -90 43t-27 153zM412 1731q0 55 65 124.5t127 69.5q27 0 59.5 -20t58.5 -43.5t58 -43.5t58 -20q29 0 52.5 17.5t36.5 38t32 38t40 17.5q20 0 39 -15.5t19 -42.5q0 -68 -73.5 -156.5t-143.5 -88.5q-42 0 -89 29t-90 58 t-77 29q-20 0 -36 -13.5t-24.5 -29.5t-23 -29.5t-31.5 -13.5q-57 0 -57 95z" />
<glyph unicode="&#xf2;" horiz-adv-x="1622" d="M72 604q0 127 39.5 261.5t115 257t176 220t232.5 155.5t274 58q143 0 255.5 -35t186 -95.5t121.5 -146t68.5 -181.5t20.5 -207q0 -180 -67.5 -343t-182 -281.5t-274.5 -188.5t-337 -70q-126 0 -240 41.5t-200 116t-137 188.5t-51 250zM330 623q0 -122 57 -214.5t152 -139 t213 -46.5q97 0 186.5 40.5t156.5 109.5t117 156t75.5 184t25.5 190q0 190 -114.5 297t-305.5 107q-149 0 -279 -93.5t-207 -251.5t-77 -339zM612 2101q0 44 31.5 80.5t75.5 36.5q53 0 137.5 -88t147.5 -198.5t63 -172.5q0 -38 -26 -74t-64 -36q-17 0 -191 216t-174 236z " />
<glyph unicode="&#xf3;" horiz-adv-x="1622" d="M72 604q0 127 39.5 261.5t115 257t176 220t232.5 155.5t274 58q143 0 255.5 -35t186 -95.5t121.5 -146t68.5 -181.5t20.5 -207q0 -180 -67.5 -343t-182 -281.5t-274.5 -188.5t-337 -70q-126 0 -240 41.5t-200 116t-137 188.5t-51 250zM330 623q0 -122 57 -214.5t152 -139 t213 -46.5q97 0 186.5 40.5t156.5 109.5t117 156t75.5 184t25.5 190q0 190 -114.5 297t-305.5 107q-149 0 -279 -93.5t-207 -251.5t-77 -339zM758 1757q0 31 40 72t93.5 80.5t121 104t109.5 130.5q19 8 43 8q66 0 92 -73q3 -6 3 -17q0 -89 -132.5 -224t-214.5 -165 q-15 -6 -34 -6q-47 0 -84 26.5t-37 63.5z" />
<glyph unicode="&#xf4;" horiz-adv-x="1622" d="M72 604q0 127 39.5 261.5t115 257t176 220t232.5 155.5t274 58q143 0 255.5 -35t186 -95.5t121.5 -146t68.5 -181.5t20.5 -207q0 -180 -67.5 -343t-182 -281.5t-274.5 -188.5t-337 -70q-126 0 -240 41.5t-200 116t-137 188.5t-51 250zM330 623q0 -122 57 -214.5t152 -139 t213 -46.5q97 0 186.5 40.5t156.5 109.5t117 156t75.5 184t25.5 190q0 190 -114.5 297t-305.5 107q-149 0 -279 -93.5t-207 -251.5t-77 -339zM678 1733q0 25 55.5 75.5t124 90.5t103.5 40q41 0 150.5 -75.5t109.5 -118.5q0 -30 -37 -63t-70 -33q-5 0 -40 22t-82.5 53.5 t-65.5 42.5q-147 -116 -185 -116q-23 0 -43 28.5t-20 53.5z" />
<glyph unicode="&#xf5;" horiz-adv-x="1622" d="M72 604q0 127 39.5 261.5t115 257t176 220t232.5 155.5t274 58q143 0 255.5 -35t186 -95.5t121.5 -146t68.5 -181.5t20.5 -207q0 -180 -67.5 -343t-182 -281.5t-274.5 -188.5t-337 -70q-126 0 -240 41.5t-200 116t-137 188.5t-51 250zM330 623q0 -122 57 -214.5t152 -139 t213 -46.5q97 0 186.5 40.5t156.5 109.5t117 156t75.5 184t25.5 190q0 190 -114.5 297t-305.5 107q-149 0 -279 -93.5t-207 -251.5t-77 -339zM627 1776q0 55 65 124.5t127 69.5q27 0 59.5 -20t58.5 -43.5t58 -43.5t58 -20q29 0 52.5 17.5t36.5 38t32 38t40 17.5 q20 0 39 -15.5t19 -42.5q0 -68 -73.5 -156.5t-143.5 -88.5q-42 0 -89 29t-90 58t-77 29q-20 0 -36 -13.5t-24.5 -29.5t-23 -29.5t-31.5 -13.5q-57 0 -57 95z" />
<glyph unicode="&#xf6;" horiz-adv-x="1622" d="M72 604q0 127 39.5 261.5t115 257t176 220t232.5 155.5t274 58q143 0 255.5 -35t186 -95.5t121.5 -146t68.5 -181.5t20.5 -207q0 -180 -67.5 -343t-182 -281.5t-274.5 -188.5t-337 -70q-126 0 -240 41.5t-200 116t-137 188.5t-51 250zM330 623q0 -122 57 -214.5t152 -139 t213 -46.5q97 0 186.5 40.5t156.5 109.5t117 156t75.5 184t25.5 190q0 190 -114.5 297t-305.5 107q-149 0 -279 -93.5t-207 -251.5t-77 -339zM623 1733q0 56 39.5 100.5t91.5 44.5q48 0 77 -34.5t29 -82.5q0 -53 -40.5 -96t-92.5 -43q-42 0 -73 34t-31 77zM995 1733 q0 55 39.5 99t91.5 44q49 0 78 -34.5t29 -82.5q0 -53 -40.5 -96t-92.5 -43q-41 0 -73 35t-32 78z" />
<glyph unicode="&#xf7;" horiz-adv-x="1173" d="M102 639q0 113 179 113q110 0 395 -3.5t305 -3.5q40 0 65 -30.5t25 -73.5q0 -47 -25 -76.5t-67 -32.5q-123 -8 -342 -8q-53 0 -196.5 1t-204.5 1q-55 0 -94.5 30.5t-39.5 82.5zM449 250q0 72 50 129t117 57q62 0 100 -44t38 -105q0 -68 -52.5 -124.5t-119.5 -56.5 q-53 0 -93 44t-40 100zM494 989q0 72 50.5 129.5t117.5 57.5q62 0 99.5 -44.5t37.5 -105.5q0 -68 -52.5 -124t-119.5 -56q-53 0 -93 43.5t-40 99.5z" />
<glyph unicode="&#xf8;" horiz-adv-x="1687" d="M86 604q0 106 28.5 218t80 217.5t127.5 199.5t167 164.5t203.5 111.5t231.5 41q49 0 131 -8q69 113 125 113q36 0 59 -29t23 -71q0 -12 -15 -66q116 -51 191 -146t106 -208t31 -250q0 -180 -67.5 -343t-182 -281.5t-274 -188.5t-336.5 -70q-51 0 -78 4 q-21 -41 -51.5 -68.5t-63.5 -27.5q-41 0 -63.5 29.5t-22.5 70.5q0 18 6 45q-161 67 -258.5 208.5t-97.5 334.5zM344 623q0 -111 45.5 -196t126.5 -138q65 168 229.5 548t200.5 468q-12 2 -39 2q-149 0 -279 -93.5t-207 -251.5t-77 -339zM729 223h37q97 0 186.5 40.5 t156.5 109.5t117 156t75.5 184t25.5 190q0 115 -44 201t-124 137q-99 -256 -430 -1018z" />
<glyph unicode="&#xf9;" horiz-adv-x="1290" d="M76 512q0 105 17.5 313t17.5 344q0 40 2 71.5t10.5 71t23.5 66t42 44.5t65 18q43 0 71.5 -25.5t40.5 -72t15.5 -84t3.5 -87.5q0 -107 -26.5 -310t-26.5 -349q0 -94 8.5 -149t33.5 -93t68 -51.5t115 -13.5q270 0 330 239q42 168 53.5 322t11.5 391q0 71 5.5 124t20 102.5 t44.5 75.5t74 26q57 0 93 -38.5t36 -94.5q0 -150 -19.5 -434t-44.5 -482q-9 -72 -40 -140t-87 -129t-130.5 -106.5t-176 -72.5t-217.5 -27q-223 0 -328.5 144.5t-105.5 406.5zM319 1958q0 44 31.5 80.5t75.5 36.5q53 0 137.5 -88t147.5 -198.5t63 -172.5q0 -38 -26 -74.5 t-64 -36.5q-17 0 -191 216.5t-174 236.5z" />
<glyph unicode="&#xfa;" horiz-adv-x="1290" d="M76 512q0 105 17.5 313t17.5 344q0 40 2 71.5t10.5 71t23.5 66t42 44.5t65 18q43 0 71.5 -25.5t40.5 -72t15.5 -84t3.5 -87.5q0 -107 -26.5 -310t-26.5 -349q0 -94 8.5 -149t33.5 -93t68 -51.5t115 -13.5q270 0 330 239q42 168 53.5 322t11.5 391q0 71 5.5 124t20 102.5 t44.5 75.5t74 26q57 0 93 -38.5t36 -94.5q0 -150 -19.5 -434t-44.5 -482q-9 -72 -40 -140t-87 -129t-130.5 -106.5t-176 -72.5t-217.5 -27q-223 0 -328.5 144.5t-105.5 406.5zM510 1640q0 26 25 56t67 64t88.5 71t97.5 90t86 107q19 8 44 8q66 0 92 -74q2 -4 2 -16 q0 -46 -41 -111t-97.5 -121.5t-114.5 -100.5t-93 -57q-15 -6 -35 -6q-47 0 -84 26.5t-37 63.5z" />
<glyph unicode="&#xfb;" horiz-adv-x="1290" d="M76 512q0 105 17.5 313t17.5 344q0 40 2 71.5t10.5 71t23.5 66t42 44.5t65 18q43 0 71.5 -25.5t40.5 -72t15.5 -84t3.5 -87.5q0 -107 -26.5 -310t-26.5 -349q0 -94 8.5 -149t33.5 -93t68 -51.5t115 -13.5q270 0 330 239q42 168 53.5 322t11.5 391q0 71 5.5 124t20 102.5 t44.5 75.5t74 26q57 0 93 -38.5t36 -94.5q0 -150 -19.5 -434t-44.5 -482q-9 -72 -40 -140t-87 -129t-130.5 -106.5t-176 -72.5t-217.5 -27q-223 0 -328.5 144.5t-105.5 406.5zM393 1671q0 25 55.5 75.5t124.5 91t103 40.5q41 0 150.5 -76t109.5 -119q0 -30 -37 -63t-70 -33 q-5 0 -40 22.5t-82 54t-66 42.5q-148 -117 -184 -117q-23 0 -43.5 28.5t-20.5 53.5z" />
<glyph unicode="&#xfc;" horiz-adv-x="1290" d="M76 512q0 105 17.5 313t17.5 344q0 40 2 71.5t10.5 71t23.5 66t42 44.5t65 18q43 0 71.5 -25.5t40.5 -72t15.5 -84t3.5 -87.5q0 -107 -26.5 -310t-26.5 -349q0 -94 8.5 -149t33.5 -93t68 -51.5t115 -13.5q270 0 330 239q42 168 53.5 322t11.5 391q0 71 5.5 124t20 102.5 t44.5 75.5t74 26q57 0 93 -38.5t36 -94.5q0 -150 -19.5 -434t-44.5 -482q-9 -72 -40 -140t-87 -129t-130.5 -106.5t-176 -72.5t-217.5 -27q-223 0 -328.5 144.5t-105.5 406.5zM391 1700q0 56 39.5 100.5t91.5 44.5q48 0 77.5 -34t29.5 -82q0 -53 -40.5 -96.5t-92.5 -43.5 q-42 0 -73.5 34t-31.5 77zM764 1700q0 55 39.5 99t91.5 44q49 0 77.5 -34.5t28.5 -82.5q0 -53 -40.5 -96t-92.5 -43q-41 0 -72.5 35t-31.5 78z" />
<glyph unicode="&#xfd;" horiz-adv-x="1390" d="M27 1438q0 46 33 82t77 36q38 0 75 -13t66.5 -32.5t61 -50t54 -57.5t50.5 -64q12 -17 55 -97.5t113.5 -206t143.5 -238.5l131 227q15 19 47.5 83.5t69.5 136.5t80.5 143.5t92.5 118t93 46.5q45 0 79.5 -33.5t34.5 -80.5q0 -19 -12 -48.5t-35.5 -68.5t-42 -66.5t-49.5 -72 t-39 -56.5q-82 -123 -327.5 -570.5t-249.5 -453.5q-29 -51 -51 -77t-60.5 -44t-93.5 -18q-61 0 -72 55q0 60 28 120.5t75.5 131.5t64.5 105q1 3 101 182q-30 49 -90.5 151.5t-95.5 160.5t-90.5 144.5t-96 141.5t-89 110.5t-91.5 88.5q-41 33 -41 84zM612 1653q0 31 40 72 t94 80.5t121.5 104t109.5 130.5q19 8 43 8q66 0 92 -74q2 -4 2 -16q0 -61 -68 -149.5t-149 -155.5t-129 -84q-15 -6 -35 -6q-47 0 -84 26.5t-37 63.5z" />
<glyph unicode="&#xfe;" horiz-adv-x="1318" d="M117 1423q0 105 86 105q89 0 128.5 -31.5t39.5 -93.5v-162q25 4 78 4q108 0 217.5 -20t214.5 -64t186 -107.5t130.5 -158t49.5 -207.5q0 -97 -34 -175.5t-90 -130t-131 -86.5t-154 -50t-162 -15q-124 0 -303 25l4 -82q-5 -244 -123 -244q-30 0 -53 10t-37 31.5 t-22.5 44.5t-12.5 61.5t-5 69t-1 78.5q0 653 -6 1198zM369 1024q1 -125 3.5 -280t2.5 -226q93 -39 252 -39q71 0 130.5 11.5t113 37.5t84 76t30.5 121q0 70 -43 124.5t-107.5 86t-151 52t-162.5 28t-152 8.5z" />
<glyph unicode="&#xff;" horiz-adv-x="1390" d="M27 1438q0 46 33 82t77 36q38 0 75 -13t66.5 -32.5t61 -50t54 -57.5t50.5 -64q12 -17 55 -97.5t113.5 -206t143.5 -238.5l131 227q15 19 47.5 83.5t69.5 136.5t80.5 143.5t92.5 118t93 46.5q45 0 79.5 -33.5t34.5 -80.5q0 -19 -12 -48.5t-35.5 -68.5t-42 -66.5t-49.5 -72 t-39 -56.5q-82 -123 -327.5 -570.5t-249.5 -453.5q-29 -51 -51 -77t-60.5 -44t-93.5 -18q-61 0 -72 55q0 60 28 120.5t75.5 131.5t64.5 105q1 3 101 182q-30 49 -90.5 151.5t-95.5 160.5t-90.5 144.5t-96 141.5t-89 110.5t-91.5 88.5q-41 33 -41 84zM389 1716q0 56 39.5 101 t91.5 45q48 0 77.5 -34.5t29.5 -82.5q0 -53 -40.5 -96t-92.5 -43q-42 0 -73.5 33.5t-31.5 76.5zM762 1716q0 55 39.5 99.5t91.5 44.5q49 0 77.5 -34.5t28.5 -82.5q0 -53 -40.5 -96t-92.5 -43q-41 0 -72.5 34.5t-31.5 77.5z" />
<glyph unicode="&#x152;" horiz-adv-x="2568" d="M57 625q0 152 52.5 294.5t145 253.5t213 195t262.5 129t286 45q211 0 379 -108q38 61 112 75q111 4 360 41t388 37q35 0 56.5 -1t55.5 -4.5t55 -13t42.5 -24t32 -40t10.5 -58.5q0 -78 -49.5 -106.5t-149.5 -28.5q-41 0 -152.5 7t-175.5 7q-83 0 -192 -17.5t-180 -43.5 q-29 -137 -29 -340q0 -34 14 -43t47 -9q71 0 311 43.5t355 53.5q58 0 99.5 -35t41.5 -88q0 -51 -26 -89.5t-78 -41.5q-109 -7 -426.5 -56t-355.5 -49q-13 -48 -13 -293q0 -68 41 -90t125 -22q75 0 297 40t277 40q64 0 101.5 -29.5t41.5 -85.5q0 -57 -33.5 -92.5t-93.5 -44.5 q-162 -25 -243 -36.5t-203 -23.5t-213 -12q-146 0 -219 39t-95 150q-147 -101 -311 -155t-272 -54q-145 0 -272 49.5t-219.5 137.5t-146 217t-53.5 280zM297 594q0 -81 28 -149t73.5 -113t104.5 -77t118.5 -46t117.5 -14q161 0 318 60t264 171q4 122 21 362t22 347 q-63 75 -151.5 115t-188.5 40q-142 0 -274 -51t-232.5 -141t-160.5 -221.5t-60 -282.5z" />
<glyph unicode="&#x153;" horiz-adv-x="2379" d="M86 604q0 106 28.5 218t80 217.5t127.5 199.5t167 164.5t203.5 111.5t231.5 41q231 0 387 -94q32 72 119 90q88 4 303.5 20.5t361.5 16.5q35 0 56.5 -1t55.5 -4.5t55 -13t42.5 -24t32 -40t10.5 -58.5q0 -78 -49.5 -106.5t-149.5 -28.5q-41 0 -152 7t-175 7 q-184 0 -291 -20q-29 -137 -29 -340q0 -34 14.5 -43t47.5 -9q70 0 226 31t273 41q58 0 100 -35t42 -88q0 -51 -26.5 -89.5t-78.5 -41.5q-109 -7 -343.5 -43.5t-272.5 -36.5q-13 -48 -13 -293q0 -68 41 -90t125 -22q75 0 276.5 35.5t256.5 35.5q64 0 101.5 -29t41.5 -85 q0 -57 -33.5 -92.5t-93.5 -44.5q-218 -34 -351.5 -49t-266.5 -15q-149 0 -221.5 39.5t-94.5 155.5q-236 -191 -536 -191q-126 0 -240 41.5t-200.5 116t-137.5 188.5t-51 250zM344 623q0 -122 57 -214.5t152 -139t213 -46.5q157 0 273 70.5t208 218.5q5 105 18.5 322.5 t16.5 271.5q-49 97 -146.5 149t-228.5 52q-149 0 -279 -93.5t-207 -251.5t-77 -339z" />
<glyph unicode="&#x178;" horiz-adv-x="1275" d="M35 1452q0 28 33.5 47t66.5 19q65 0 123.5 -64.5t103.5 -164t85 -203t86.5 -200t89.5 -136.5q78 87 152.5 233.5t137 303t80.5 190.5q35 69 101 69q73 0 107 -33.5t34 -78.5q0 -75 -42 -183.5t-112 -226.5t-131.5 -211t-131.5 -191.5t-81 -115.5q0 -62 1 -180.5t1 -196.5 q0 -45 -15.5 -88t-55.5 -77t-97 -34q-45 0 -64.5 26.5t-19.5 78.5l5 479q-26 47 -125.5 220t-165 290t-86.5 164q-28 62 -40.5 93.5t-26 81t-13.5 89.5zM332 1716q0 56 39.5 101t91.5 45q48 0 77 -34.5t29 -82.5q0 -53 -40.5 -96t-92.5 -43q-42 0 -73 33.5t-31 76.5z M705 1716q0 55 39.5 99.5t91.5 44.5q49 0 77.5 -34.5t28.5 -82.5q0 -53 -40.5 -96t-92.5 -43q-41 0 -72.5 34.5t-31.5 77.5z" />
<glyph unicode="&#x2c6;" horiz-adv-x="964" d="M227 1749q0 25 55.5 75.5t124.5 91t103 40.5q41 0 150.5 -76t109.5 -119q0 -30 -36.5 -63t-69.5 -33q-5 0 -40 22t-82.5 54t-66.5 43q-148 -117 -184 -117q-23 0 -43.5 28.5t-20.5 53.5z" />
<glyph unicode="&#x2dc;" horiz-adv-x="1327" d="M344 1759q0 55 65.5 125t127.5 70q27 0 59.5 -20t58 -43.5t57.5 -43.5t58 -20q29 0 52.5 17t37 38t32.5 38t40 17q20 0 38.5 -15t18.5 -42q0 -69 -73.5 -157.5t-143.5 -88.5q-34 0 -71 18.5t-64 40t-60.5 40t-60.5 18.5q-20 0 -36 -13.5t-24.5 -29.5t-23 -29.5 t-31.5 -13.5q-57 0 -57 94z" />
<glyph unicode="&#x2000;" horiz-adv-x="1122" />
<glyph unicode="&#x2001;" horiz-adv-x="2245" />
<glyph unicode="&#x2002;" horiz-adv-x="1122" />
<glyph unicode="&#x2003;" horiz-adv-x="2245" />
<glyph unicode="&#x2004;" horiz-adv-x="748" />
<glyph unicode="&#x2005;" horiz-adv-x="561" />
<glyph unicode="&#x2006;" horiz-adv-x="374" />
<glyph unicode="&#x2007;" horiz-adv-x="374" />
<glyph unicode="&#x2008;" horiz-adv-x="280" />
<glyph unicode="&#x2009;" horiz-adv-x="449" />
<glyph unicode="&#x200a;" horiz-adv-x="124" />
<glyph unicode="&#x2010;" horiz-adv-x="1050" d="M102 639q0 113 179 113q104 0 303.5 -3t273.5 -4q40 0 65 -30.5t25 -73.5q0 -47 -25 -76.5t-67 -32.5q-123 -8 -281 -8q-53 0 -165.5 1t-173.5 1q-55 0 -94.5 30.5t-39.5 82.5z" />
<glyph unicode="&#x2011;" horiz-adv-x="1050" d="M102 639q0 113 179 113q104 0 303.5 -3t273.5 -4q40 0 65 -30.5t25 -73.5q0 -47 -25 -76.5t-67 -32.5q-123 -8 -281 -8q-53 0 -165.5 1t-173.5 1q-55 0 -94.5 30.5t-39.5 82.5z" />
<glyph unicode="&#x2012;" horiz-adv-x="1050" d="M102 639q0 113 179 113q104 0 303.5 -3t273.5 -4q40 0 65 -30.5t25 -73.5q0 -47 -25 -76.5t-67 -32.5q-123 -8 -281 -8q-53 0 -165.5 1t-173.5 1q-55 0 -94.5 30.5t-39.5 82.5z" />
<glyph unicode="&#x2013;" horiz-adv-x="1234" d="M102 639q0 113 179 113q23 0 761 -7q40 0 65.5 -30.5t25.5 -73.5q0 -47 -25.5 -76.5t-67.5 -32.5q-123 -8 -280 -8q-53 0 -258 1t-266 1q-55 0 -94.5 30.5t-39.5 82.5z" />
<glyph unicode="&#x2014;" horiz-adv-x="1665" d="M102 639q0 113 179 113q453 0 1192 -7q40 0 65 -30.5t25 -73.5q0 -47 -25.5 -76.5t-67.5 -32.5q-123 -8 -280 -8q-53 0 -473 1t-481 1q-55 0 -94.5 30.5t-39.5 82.5z" />
<glyph unicode="&#x2018;" horiz-adv-x="499" d="M59 1421q0 44 23 72.5t55 28.5q54 0 127.5 -78.5t124.5 -173.5t51 -144q0 -42 -27.5 -73t-66.5 -31q-21 0 -41.5 11.5t-42 37t-36.5 47t-40 60.5t-39 59q-4 6 -21.5 32t-22 33.5t-16.5 28t-16 31.5t-8 27.5t-4 31.5z" />
<glyph unicode="&#x2019;" horiz-adv-x="499" d="M59 1126q0 49 51 144t124.5 173.5t127.5 78.5q32 0 55 -28.5t23 -72.5q0 -15 -4 -31.5t-8 -27.5t-16 -31.5t-16.5 -28t-22 -33.5t-21.5 -32q-14 -20 -38.5 -58.5t-40 -60.5t-36.5 -47.5t-41.5 -37t-41.5 -11.5q-39 0 -67 31t-28 73z" />
<glyph unicode="&#x201a;" horiz-adv-x="499" d="M57 -80q0 49 51 143.5t124.5 173t127.5 78.5q32 0 55 -28t23 -72q0 -15 -4 -31.5t-8 -27.5t-16 -31.5t-16.5 -28t-22 -33.5t-21.5 -32q-14 -20 -38.5 -58.5t-40 -60.5t-36.5 -47.5t-41.5 -37t-41.5 -11.5q-39 0 -67 31t-28 73z" />
<glyph unicode="&#x201c;" horiz-adv-x="911" d="M59 1421q0 44 23 72.5t55 28.5q54 0 127.5 -78.5t124.5 -173.5t51 -144q0 -42 -27.5 -73t-66.5 -31q-21 0 -41.5 11.5t-42 37t-36.5 47t-40 60.5t-39 59q-4 6 -21.5 32t-22 33.5t-16.5 28t-16 31.5t-8 27.5t-4 31.5zM471 1421q0 44 23 72.5t55 28.5q54 0 127.5 -78.5 t124.5 -173.5t51 -144q0 -42 -27.5 -73t-66.5 -31q-21 0 -41.5 11.5t-42 37t-36.5 47t-40 60.5t-39 59q-4 6 -21.5 32t-22 33.5t-16.5 28t-16 31.5t-8 27.5t-4 31.5z" />
<glyph unicode="&#x201d;" horiz-adv-x="911" d="M59 1126q0 49 51 144t124.5 173.5t127.5 78.5q32 0 55 -28.5t23 -72.5q0 -15 -4 -31.5t-8 -27.5t-16 -31.5t-16.5 -28t-22 -33.5t-21.5 -32q-14 -20 -38.5 -58.5t-40 -60.5t-36.5 -47.5t-41.5 -37t-41.5 -11.5q-39 0 -67 31t-28 73zM471 1126q0 49 51 144t124.5 173.5 t127.5 78.5q32 0 55 -28.5t23 -72.5q0 -15 -4 -31.5t-8 -27.5t-16 -31.5t-16.5 -28t-22 -33.5t-21.5 -32q-14 -20 -39 -59t-40 -60.5t-36.5 -47t-42 -37t-41.5 -11.5q-39 0 -66.5 31t-27.5 73z" />
<glyph unicode="&#x201e;" horiz-adv-x="911" d="M57 -80q0 49 51 143.5t124.5 173t127.5 78.5q32 0 55 -28t23 -72q0 -15 -4 -31.5t-8 -27.5t-16 -31.5t-16.5 -28t-22 -33.5t-21.5 -32q-14 -20 -38.5 -58.5t-40 -60.5t-36.5 -47.5t-41.5 -37t-41.5 -11.5q-39 0 -67 31t-28 73zM469 -80q0 49 51 143.5t124.5 173 t127.5 78.5q32 0 55 -28t23 -72q0 -15 -4 -31.5t-8 -27.5t-16 -31.5t-16.5 -28t-22 -33.5t-21.5 -32q-14 -20 -39 -59t-40 -60.5t-36.5 -47t-42 -37t-41.5 -11.5q-39 0 -66.5 31t-27.5 73z" />
<glyph unicode="&#x2022;" horiz-adv-x="813" d="M147 840q0 102 73 174.5t177 72.5q100 0 174 -72t74 -175q0 -101 -73 -175.5t-175 -74.5q-99 0 -174.5 71.5t-75.5 178.5z" />
<glyph unicode="&#x2026;" horiz-adv-x="1456" d="M143 82q0 71 50.5 128.5t117.5 57.5q62 0 100 -44t38 -105q0 -68 -53 -124t-120 -56q-53 0 -93 43.5t-40 99.5zM594 82q0 71 50.5 128.5t117.5 57.5q62 0 99.5 -44t37.5 -105q0 -68 -52.5 -124t-119.5 -56q-53 0 -93 43.5t-40 99.5zM1044 82q0 71 50.5 128.5t117.5 57.5 q62 0 100 -44t38 -105q0 -68 -52.5 -124t-119.5 -56q-54 0 -94 43.5t-40 99.5z" />
<glyph unicode="&#x202f;" horiz-adv-x="449" />
<glyph unicode="&#x2039;" horiz-adv-x="847" d="M76 748q0 54 63 88q80 45 246.5 174t230.5 168q29 16 52 16q40 0 70 -33t30 -74q0 -31 -80 -104t-158.5 -131t-148.5 -104q119 -81 247 -188t128 -148q0 -40 -30 -73.5t-69 -33.5q-27 0 -57 21q-40 26 -198 149.5t-261 181.5q-65 28 -65 91z" />
<glyph unicode="&#x203a;" horiz-adv-x="847" d="M76 1087q0 41 30 74t70 33q22 0 51 -16q64 -39 231 -168t247 -174q63 -34 63 -88q0 -62 -66 -91q-103 -58 -260.5 -181.5t-197.5 -149.5q-30 -21 -58 -21q-39 0 -68.5 33t-29.5 74t128 148t247 188q-70 46 -148.5 104t-158.5 131t-80 104z" />
<glyph unicode="&#x205f;" horiz-adv-x="561" />
<glyph unicode="&#x20ac;" horiz-adv-x="1449" d="M0 600q0 96 176 96h8q8 30 35 107h-45q-55 0 -94 26t-39 70q0 96 176 96h96q151 252 391.5 415t469.5 163q53 0 93.5 -36.5t61 -92.5t30 -109t9.5 -100q0 -34 -5 -66.5t-17.5 -67.5t-39 -56t-63.5 -21q-29 0 -46.5 11t-23 29t-8.5 41t-3 47t-7 47t-19.5 41t-41.5 29 t-72 11q-99 0 -214 -79.5t-214 -207.5q274 -4 381 -4q40 0 65 -26t25 -62q0 -40 -25.5 -65.5t-66.5 -26.5q-120 -8 -279 -8h-219q-28 -54 -45 -107q91 0 266.5 -2t237.5 -2q40 0 65 -26t25 -62q0 -41 -25 -66t-67 -28q-135 -6 -279 -6h-262v-23q0 -69 43 -122t106 -78 t134 -25q79 0 158 22.5t141.5 55t119 64.5t110 54.5t95.5 22.5q40 0 67.5 -28t27.5 -72q0 -71 -72.5 -142.5t-176.5 -121.5t-218 -81.5t-199 -31.5q-117 0 -217 26t-181.5 79t-128 144.5t-46.5 213.5v45h-21q-55 0 -94 26t-39 70z" />
<glyph unicode="&#x2122;" horiz-adv-x="1595" d="M12 1597q0 38 27.5 60t66.5 22q26 0 57 -2t40 -2q57 0 194.5 5.5t220.5 5.5q32 0 59.5 -21.5t27.5 -54.5q0 -50 -36.5 -68t-99.5 -18q-123 0 -129 -6v-285v-61t-1.5 -58t-4 -59t-7.5 -50.5t-13.5 -46.5t-19.5 -33t-27.5 -24.5t-36.5 -7.5q-28 0 -47 16.5t-19 42.5 q0 69 5 215t5 222q0 109 -2 129q-45 -2 -133 -2q-50 0 -88.5 18.5t-38.5 62.5zM690 979q0 21 4.5 50.5t14.5 72.5t19 77t26 95.5t26 97.5q2 9 12 59t20.5 87.5t28 83t43.5 71t58 25.5q27 0 46.5 -17t31.5 -50t17.5 -58.5t11.5 -65.5q18 -114 59 -219q10 29 43.5 105 t48.5 127q7 24 11 38t16 42t24 44.5t32.5 30t43.5 13.5q20 0 36 -9.5t28.5 -31.5t21 -43t17 -58t13 -62.5t12 -70t11.5 -67.5q17 -95 38.5 -184.5t33.5 -136.5t12 -62q0 -31 -25.5 -46.5t-56.5 -15.5q-42 0 -70.5 57.5t-41 130t-28.5 158.5t-32 123q-20 -48 -40.5 -115.5 t-34.5 -117.5t-31.5 -97t-39.5 -72.5t-50 -25.5q-44 0 -61 18t-29 62q-15 62 -84 317q-56 -188 -56 -317q0 -52 -21 -90.5t-75 -38.5q-37 0 -60.5 24.5t-23.5 61.5z" />
<glyph unicode="&#x25fc;" horiz-adv-x="1556" d="M0 0v1556h1556v-1556h-1556z" />
<glyph unicode="&#xfb01;" horiz-adv-x="1658" d="M117 76q6 545 6 1157q0 67 7 115.5t25.5 92t56 65.5t93.5 22q97 0 233.5 9t243.5 9q66 0 116.5 -4t105.5 -15.5t85.5 -38t30.5 -65.5q0 -47 -40.5 -82.5t-102.5 -46.5q-46 1 -156.5 8t-167.5 7q-70 0 -103 -1t-79.5 -6.5t-93.5 -17.5q-4 -180 -4 -371q0 -24 2 -36 t13 -20.5t34 -8.5q41 0 213 23.5t242 23.5q84 0 133 -27.5t49 -85.5q0 -34 -17 -59.5t-50.5 -41.5t-69.5 -26.5t-88 -16t-91.5 -8t-94.5 -5t-83 -4.5q-134 -10 -198 -23q4 -300 4 -428q0 -45 -15.5 -88t-55.5 -77t-97 -34q-86 0 -86 105zM1280 35q6 545 6 1198q0 48 1 78.5 t5 69t12.5 61.5t22.5 44.5t37 31.5t53 10q118 0 123 -244q-8 -245 -8 -573q0 -83 1 -276.5t1 -305.5q0 -45 -15.5 -88t-55.5 -77t-97 -34q-86 0 -86 105z" />
<glyph unicode="&#xfb02;" horiz-adv-x="2185" d="M117 76q6 545 6 1157q0 67 7 115.5t25.5 92t56 65.5t93.5 22q97 0 233.5 9t243.5 9q66 0 116.5 -4t105.5 -15.5t85.5 -38t30.5 -65.5q0 -47 -40.5 -82.5t-102.5 -46.5q-46 1 -156.5 8t-167.5 7q-70 0 -103 -1t-79.5 -6.5t-93.5 -17.5q-4 -180 -4 -371q0 -24 2 -36 t13 -20.5t34 -8.5q41 0 213 23.5t242 23.5q84 0 133 -27.5t49 -85.5q0 -34 -17 -59.5t-50.5 -41.5t-69.5 -26.5t-88 -16t-91.5 -8t-94.5 -5t-83 -4.5q-134 -10 -198 -23q4 -300 4 -428q0 -45 -15.5 -88t-55.5 -77t-97 -34q-86 0 -86 105zM1245 145q0 134 22.5 384t22.5 401 q0 70 -2 193.5t-2 207.5q0 221 127 221q40 0 66 -21.5t37.5 -61t15.5 -77t4 -87.5q0 -231 -12 -529q-17 -387 -17 -495q0 -25 23 -25q114 0 272 31.5t223 31.5q49 0 79 -33.5t30 -97.5q0 -49 -80.5 -89t-200 -62t-237.5 -33.5t-213 -11.5q-72 0 -115 39t-43 114z" />
</font>
</defs>
</svg>
